<svg version="1.1" xmlns="http://www.w3.org/2000/svg" xmlns:xlink="http://www.w3.org/1999/xlink" width="260.62246" height="260.62246" viewBox="0,0,260.62246,260.62246"><g transform="translate(-109.68877,-49.68877)"><g data-paper-data="{&quot;isPaintingLayer&quot;:true}" fill-rule="nonzero" stroke-linecap="butt" stroke-linejoin="miter" stroke-miterlimit="10" stroke-dasharray="" stroke-dashoffset="0" style="mix-blend-mode: normal"><g><path d="M112.37237,180c0,-70.48679 57.14084,-127.62763 127.62763,-127.62763c70.48679,0 127.62763,57.14084 127.62763,127.62763c0,70.48679 -57.14084,127.62763 -127.62763,127.62763c-70.48679,0 -127.62763,-57.14084 -127.62763,-127.62763z" fill="#9966ff" stroke="none" stroke-width="NaN"/><path d="M109.93877,186.006v-12.01201h260.12246v12.01201z" fill="#0001ff" stroke="#000000" stroke-width="0.5"/><path d="M246.006,310.06123h-12.01201v-260.12246h12.01201z" fill="#0001ff" stroke="#000000" stroke-width="0.5"/><path d="M152.27971,276.21407l-8.49377,-8.49378l183.93436,-183.93436l8.49378,8.49377z" fill="#0001ff" stroke="#000000" stroke-width="0.5"/><path d="M336.21407,267.72029l-8.49378,8.49378l-183.93435,-183.93436l8.49377,-8.49377z" data-paper-data="{&quot;index&quot;:null}" fill="#0001ff" stroke="#000000" stroke-width="0.5"/></g><path d="M229.16802,180c0,-5.98233 4.84964,-10.83198 10.83198,-10.83198c5.98233,0 10.83198,4.84964 10.83198,10.83198c0,5.98233 -4.84964,10.83198 -10.83198,10.83198c-5.98233,0 -10.83198,-4.84964 -10.83198,-10.83198z" fill="#0001ff" stroke="#000000" stroke-width="1"/></g></g></svg>