<svg version="1.1" xmlns="http://www.w3.org/2000/svg" xmlns:xlink="http://www.w3.org/1999/xlink" width="55.89319" height="97.51778" viewBox="0,0,55.89319,97.51778"><g transform="translate(-211.99408,-130.99046)"><g data-paper-data="{&quot;isPaintingLayer&quot;:true}" stroke-linecap="butt" stroke-linejoin="miter" stroke-miterlimit="10" stroke-dasharray="" stroke-dashoffset="0" style="mix-blend-mode: normal"><g><g><path d="M232.6023,205.6692c6.6204,-5.3005 14.5431,-6.3278 16.3878,3.5695c1.8448,9.8974 -10.6901,15.5762 -10.6901,15.5762c0,0 8.7256,-1.4187 10.5163,-1.7433c1.7907,-0.3245 5.8715,-1.285 6.6855,0.932c0.8139,2.217 -1.4651,3.8941 -1.4651,3.8941c0,0 -25.2866,0.8112 -28.814,0" fill="#d9e2f3" fill-rule="nonzero" stroke="none" stroke-width="1"/><path d="M232.6023,205.6692c6.6204,-5.3005 14.5431,-6.3278 16.3878,3.5695c1.8448,9.8974 -10.6901,15.5762 -10.6901,15.5762c0,0 8.7256,-1.4187 10.5163,-1.7433c1.7907,-0.3245 5.8715,-1.285 6.6855,0.932c0.8139,2.217 -1.4651,3.8941 -1.4651,3.8941c0,0 -25.2866,0.8112 -28.814,0" fill="none" fill-rule="evenodd" stroke="#738cb5" stroke-width="0.5"/><path d="M252.0323,224.0378c-0.0078,-0.0013 0.0801,0.0201 0.2006,0.0714c0.1217,0.05 0.2904,0.1285 0.4747,0.2531c0.1875,0.1194 0.3861,0.2934 0.5574,0.5121c0.0879,0.1084 0.1634,0.2304 0.2246,0.3621c0.0716,0.1259 0.1029,0.2733 0.1491,0.4089c0.017,0.1434 0.058,0.2843 0.0521,0.4245c-0.0071,0.1402 0.0111,0.2784 -0.0189,0.4069c-0.0299,0.2622 -0.097,0.4952 -0.1621,0.6912c-0.0566,0.1986 -0.1439,0.3498 -0.1856,0.4614c-0.0475,0.1091 -0.0749,0.172 -0.0749,0.172c0,0 0.0202,-0.0655 0.0554,-0.1798c0.0293,-0.1155 0.0977,-0.2725 0.1315,-0.4737c0.0417,-0.1993 0.0814,-0.431 0.0814,-0.6808c0.0156,-0.124 -0.0176,-0.2512 -0.0247,-0.3791c-0.0085,-0.1285 -0.0619,-0.2505 -0.0892,-0.3744c-0.0554,-0.1156 -0.0938,-0.2376 -0.168,-0.3382c-0.0645,-0.1071 -0.1394,-0.2012 -0.224,-0.2842c-0.1641,-0.1662 -0.3452,-0.2934 -0.5145,-0.3758c-0.3425,-0.1765 -0.5782,-0.2044 -0.5788,-0.2044zM246.2844,224.0334c-0.0085,0 0.0827,0.0136 0.209,0.0558c0.1276,0.0448 0.3086,0.1091 0.502,0.2473c0.0945,0.0668 0.198,0.1486 0.282,0.2583c0.0925,0.1025 0.1569,0.2369 0.2129,0.3745c0.0378,0.146 0.0684,0.2946 0.0541,0.4439c0.0104,0.1525 -0.0482,0.2901 -0.073,0.4342c-0.0449,0.1369 -0.1061,0.2654 -0.1569,0.3946c-0.069,0.1194 -0.1361,0.2369 -0.2018,0.3504c-0.06,0.1162 -0.1453,0.2103 -0.2123,0.3077c-0.071,0.0941 -0.1374,0.1843 -0.1993,0.2667c-0.2715,0.3089 -0.4525,0.5147 -0.4525,0.5147c0,0 0.1562,-0.2239 0.3907,-0.5588c0.0514,-0.0876 0.1067,-0.183 0.1654,-0.2843c0.0553,-0.1019 0.1276,-0.2018 0.1725,-0.3199c0.0501,-0.1149 0.1016,-0.233 0.1537,-0.3538c0.0338,-0.1246 0.0775,-0.2498 0.1029,-0.3751c0.0058,-0.1265 0.0462,-0.2537 0.0208,-0.3712c-0.0006,-0.122 -0.0404,-0.2285 -0.0762,-0.3291c-0.0534,-0.0921 -0.1042,-0.1791 -0.1791,-0.2433c-0.0657,-0.0695 -0.1478,-0.1207 -0.224,-0.1623c-0.1517,-0.0863 -0.3034,-0.122 -0.4043,-0.1447c-0.1036,-0.0227 -0.1498,-0.0214 -0.1576,-0.024zM248.4341,223.3856c-0.0085,0 0.0983,0.0143 0.2507,0.0656c0.153,0.0519 0.3731,0.1278 0.6042,0.2907c0.1146,0.0799 0.2384,0.1766 0.3393,0.3064c0.112,0.122 0.1895,0.2816 0.2572,0.4452c0.0462,0.1733 0.0853,0.3505 0.069,0.5309c0.0143,0.1836 -0.0547,0.3511 -0.0827,0.5257c-0.0527,0.1668 -0.1263,0.3238 -0.1875,0.4822c-0.0768,0.1499 -0.1635,0.2907 -0.2409,0.4296c-0.073,0.1428 -0.1752,0.2596 -0.2566,0.379c-0.0853,0.1175 -0.166,0.2279 -0.2403,0.3297c-0.3288,0.3823 -0.5483,0.6361 -0.5483,0.6361c0,0 0.1947,-0.272 0.4865,-0.6802c0.0644,-0.1071 0.1334,-0.2232 0.207,-0.3466c0.0691,-0.1246 0.1589,-0.2472 0.2162,-0.392c0.0625,-0.1401 0.1276,-0.2849 0.1941,-0.4328c0.0429,-0.1539 0.0983,-0.3077 0.1321,-0.4628c0.0092,-0.157 0.0606,-0.3141 0.0307,-0.4627c0.0013,-0.1525 -0.0463,-0.2875 -0.0906,-0.416c-0.0657,-0.1188 -0.1295,-0.2311 -0.224,-0.3142c-0.082,-0.0902 -0.1855,-0.1557 -0.2806,-0.2102c-0.1915,-0.1117 -0.3809,-0.1584 -0.5073,-0.1889c-0.1302,-0.0299 -0.1914,-0.0305 -0.1992,-0.0331z" fill="#738cb5" fill-rule="nonzero" stroke="none" stroke-width="1"/></g><g><path d="M250.7128,165.7026c0,0 -4.8974,-6.098 -7.9006,-16.4393c-3.0031,-10.3419 0.3334,-16.3803 1.2887,-17.871c0,0 12.753,13.2728 8.6663,33.161" fill="#fffef9" fill-rule="nonzero" stroke="none" stroke-width="1"/><path d="M250.7128,165.7026c0,0 -4.8974,-6.098 -7.9006,-16.4393c-3.0031,-10.3419 0.3334,-16.3803 1.2887,-17.871c0,0 12.753,13.2728 8.6663,33.161" fill="none" fill-rule="evenodd" stroke="#738cb5" stroke-width="0.5"/></g><g><path d="M260.666,192.6351c-0.0814,3.1639 -3.5547,10.7975 -3.5547,10.7975l5.9965,21.4095c0,0 2.0349,-0.9735 3.6902,-0.1623c1.6546,0.8113 0.3522,3.2989 0.3522,3.2989h-7.3796l-9.7134,-22.9041c0,0 1.4651,-2.3799 1.0041,-5.1109" fill="#d9e2f3" fill-rule="nonzero" stroke="none" stroke-width="1"/><path d="M260.666,192.6351c-0.0814,3.1639 -3.5547,10.7975 -3.5547,10.7975l5.9965,21.4095c0,0 2.0349,-0.9735 3.6902,-0.1623c1.6546,0.8113 0.3522,3.2989 0.3522,3.2989h-7.3796l-9.7134,-22.9041c0,0 1.4651,-2.3799 1.0041,-5.1109" fill="none" fill-rule="evenodd" stroke="#738cb5" stroke-width="0.5"/><path d="M264.7004,225.4582c-0.0084,-0.0065 0.1146,0.1441 0.2331,0.3738c0.0684,0.111 0.1205,0.2551 0.1882,0.3998c0.0489,0.1545 0.1127,0.3135 0.1452,0.4809c0.0248,0.1694 0.0762,0.3304 0.0665,0.492c-0.0053,0.159 0.0208,0.3037 -0.0111,0.4276c-0.0436,0.2428 -0.0729,0.405 -0.0729,0.405c0,0 -0.0013,-0.1629 -0.0033,-0.4069c0.0091,-0.1201 -0.0436,-0.2583 -0.0658,-0.4037c-0.0175,-0.148 -0.0963,-0.2927 -0.1458,-0.4394c-0.0573,-0.1453 -0.1439,-0.2797 -0.2117,-0.4069c-0.0866,-0.1194 -0.1543,-0.2362 -0.2331,-0.3219c-0.1439,-0.1837 -0.2513,-0.2693 -0.2552,-0.2784z" fill="#738cb5" fill-rule="nonzero" stroke="none" stroke-width="1"/><path d="M266.6965,225.2053c-0.0059,-0.0098 0.0547,0.1752 0.0814,0.4322c0.0234,0.1279 0.0195,0.2817 0.03,0.4407c-0.0098,0.1616 -0.0079,0.3323 -0.0385,0.5004c-0.039,0.1668 -0.0495,0.3361 -0.1172,0.4822c-0.0618,0.1466 -0.0905,0.2914 -0.1654,0.3952c-0.1289,0.2103 -0.2149,0.3511 -0.2149,0.3511l0.1446,-0.3803c0.0521,-0.109 0.0534,-0.257 0.0853,-0.3998c0.0378,-0.1441 0.0163,-0.3076 0.0234,-0.4621c-0.0006,-0.1564 -0.0325,-0.3134 -0.0494,-0.4562c-0.0378,-0.1422 -0.058,-0.2759 -0.1003,-0.3842c-0.0677,-0.2233 -0.1368,-0.3421 -0.1374,-0.3518z" fill="#738cb5" fill-rule="nonzero" stroke="none" stroke-width="1"/></g><path d="M236.7621,215.7832c6.6204,-5.3004 7.3796,-6.5445 7.3796,-6.5445c1.8448,9.8973 -10.6895,15.5761 -10.6895,15.5761c0,0 8.725,-1.4187 10.5157,-1.7432c1.7907,-0.3245 5.8715,-1.285 6.6854,0.932c0.814,2.217 -1.4651,3.894 -1.4651,3.894c0,0 -25.2866,0.8113 -28.8139,0c-3.5274,-0.8113 -6.1861,-6.5978 -5.6977,-14.6027c0.4884,-8.0048 3.2018,-14.1697 10.6361,-18.605c7.4337,-4.4353 6.2401,-4.1102 8.5732,-7.842c2.3331,-3.7318 3.6901,-5.0836 6.4576,-7.4097c2.7674,-2.326 4.3953,-3.8395 4.3953,-3.8395c0,0 0.5887,-0.5614 -0.9767,-5.5166c-1.2483,-3.9485 2.757,-6.3206 6.2811,-7.3013c3.1334,-0.8722 5.2328,-0.5588 7.4031,0.2155c1.1851,0.4225 3.6595,1.3194 3.9923,2.8673c0.3607,1.6809 -0.0814,1.9873 1.9671,3.1366c2.5864,1.4506 2.8756,1.5888 2.8756,1.5888c0,0 -0.3256,1.4603 -0.9221,2.9543c-0.1647,0.4128 -0.9338,2.1281 -4.0795,2.7141c-2.5096,0.4667 -2.9752,0.9099 -4.7249,1.5992c-1.4371,0.5659 3.4864,10.6138 3.2148,9.4242c0,0 1.0855,7.6797 -3.9069,12.9801c-4.9925,5.3005 -19.1006,15.5223 -19.1006,15.5223" fill="#fffef9" fill-rule="nonzero" stroke="none" stroke-width="1"/><path d="M256.5552,177.8563c0,0 5.9588,7.402 3.9076,16.7399c-2.1176,9.6397 -16.1397,16.9007 -16.1397,16.9007c0,0 -0.1798,-3.2586 -0.3705,-3.1424c14.1126,-7.3903 16.9387,-17.775 11.2944,-30.4982h1.3082" fill="#d9e2f3" fill-rule="nonzero" stroke="none" stroke-width="1"/><g><path d="M222.2429,228.1078l-2.113,-0.1019c0,0 -6.5064,0.1123 -7.6512,-3.894c-1.1662,-4.0829 2.3944,-5.2161 2.3944,-5.2161" fill="#fffef9" fill-rule="nonzero" stroke="none" stroke-width="1"/><path d="M222.2429,228.1078l-2.113,-0.1019c0,0 -6.5064,0.1123 -7.6512,-3.894c-1.1662,-4.0829 2.3944,-5.2161 2.3944,-5.2161" fill="none" fill-rule="evenodd" stroke="#738cb5" stroke-width="0.5"/></g><path d="M227.7539,205.6691c6.6204,-5.3004 14.5431,-6.3278 16.3878,3.5696c1.8448,9.8973 -10.6901,15.5761 -10.6901,15.5761c0,0 8.7256,-1.4187 10.5163,-1.7432c1.7907,-0.3245 5.8715,-1.285 6.6854,0.932c0.814,2.217 -1.4651,3.894 -1.4651,3.894c0,0 -25.2866,0.8113 -28.8139,0c-3.5274,-0.8113 -6.1861,-6.5978 -5.6977,-14.6027c0.4884,-8.0048 3.2018,-14.1697 10.6354,-18.605c7.4344,-4.4353 6.2408,-4.1102 8.5739,-7.842c2.3331,-3.7318 3.6901,-5.0836 6.4576,-7.4097c2.7674,-2.326 4.3953,-3.8395 4.3953,-3.8395c0,0 0.5887,-0.5614 -0.9767,-5.5166c-1.2483,-3.9485 2.757,-6.3206 6.2805,-7.3013c3.134,-0.8722 5.2334,-0.5588 7.4037,0.2155c1.1851,0.4225 3.6595,1.3194 3.9916,2.8673c0.3614,1.6809 -0.0814,1.9873 1.9672,3.1366c2.587,1.4506 2.8762,1.5888 2.8762,1.5888c0,0 -0.3256,1.4603 -0.9227,2.9543c-0.1641,0.4128 -0.9332,2.1281 -4.0789,2.7141c-2.5096,0.4667 -3.4811,1.4966 -6.4954,1.6277c-3.371,0.1474 -4.8362,-2.7193 -5.1077,-3.9089" fill="none" fill-rule="evenodd" stroke="#738cb5" stroke-width="0.5"/><path d="M256.4505,177.696c0,0.061 5.6391,7.6985 4.4182,14.9596c-1.1383,6.7678 -4.3772,11.1752 -16.5461,18.8413" fill="none" fill-rule="evenodd" stroke="#738cb5" stroke-width="0.5"/><g><path d="M253.3938,166.9994c0,0 2.3871,-1.5408 3.8796,-0.4595c1.4925,1.0812 1.5739,2.6499 1.5739,2.6499c0,0 -1.3297,1.2441 -2.9576,0.4328c-1.6279,-0.8112 -2.4959,-2.6232 -2.4959,-2.6232" fill="#d9e2f3" fill-rule="nonzero" stroke="none" stroke-width="1"/><path d="M265.5283,172.739c0,0 -0.224,-0.7697 -0.7938,-1.3577c-0.5697,-0.588 -0.7937,-0.9138 -0.3457,-1.2785c0.3601,-0.294 1.3427,0.3238 1.3427,0.3238l0.5124,0.3206z" fill="#0f233a" fill-rule="nonzero" stroke="none" stroke-width="1"/><path d="M256.992,166.3713c0.6551,0.2142 1.3128,0.8106 0.9872,2.2307c-0.3568,1.5543 -1.4996,1.2337 -1.4996,1.2337c0,0 -1.2392,-0.1298 -0.9833,-1.8094c0.2644,-1.7368 1.4957,-1.655 1.4957,-1.655" fill="#0f233a" fill-rule="nonzero" stroke="none" stroke-width="1"/><path d="M253.3938,166.9994c0,0 2.3871,-1.5408 3.8796,-0.4595c1.4925,1.0812 1.5739,2.6499 1.5739,2.6499c0,0 -1.3297,1.2441 -2.9576,0.4328c-1.6279,-0.8112 -2.4959,-2.6232 -2.4959,-2.6232z" fill="none" fill-rule="evenodd" stroke="#0f233a" stroke-width="0.5"/></g><g><path d="M247.5063,165.3775c0,0 -5.8064,-5.2459 -10.4186,-14.981c-4.6122,-9.7351 -2.2791,-16.2252 -1.5739,-17.8477c0,0 14.7052,11.087 13.8372,31.3684" fill="#fffef9" fill-rule="nonzero" stroke="none" stroke-width="1"/><path d="M247.2347,163.0521c0,0 -13.4575,-14.9817 -10.9069,-27.3667c0,0 13.5656,14.9811 10.9069,27.3667" fill="#d9e2f3" fill-rule="nonzero" stroke="none" stroke-width="1"/><path d="M247.5063,165.3775c0,0 -5.8064,-5.2459 -10.4186,-14.981c-4.6122,-9.7351 -2.2791,-16.2252 -1.5739,-17.8477c0,0 14.7052,11.087 13.8372,31.3684" fill="none" fill-rule="evenodd" stroke="#738cb5" stroke-width="0.5"/></g><g><path d="M257.4365,192.6351c-0.0814,3.1639 -3.5547,10.7975 -3.5547,10.7975l5.9966,21.4095c0,0 2.0349,-0.9735 3.6901,-0.1623c1.6546,0.8113 0.3523,3.2989 0.3523,3.2989h-7.3796l-9.7134,-22.9041c0,0 1.4651,-2.3799 1.0041,-5.1109" fill="#fffef9" fill-rule="nonzero" stroke="none" stroke-width="1"/><path d="M257.4365,192.6351c-0.0814,3.1639 -3.5547,10.7975 -3.5547,10.7975l5.9966,21.4095c0,0 2.0349,-0.9735 3.6901,-0.1623c1.6546,0.8113 0.3523,3.2989 0.3523,3.2989h-7.3796l-9.7134,-22.9041c0,0 1.4651,-2.3799 1.0041,-5.1109" fill="none" fill-rule="evenodd" stroke="#738cb5" stroke-width="0.5"/><path d="M261.471,225.4582c-0.0085,-0.0065 0.1146,0.1441 0.2331,0.3738c0.0684,0.111 0.1205,0.2551 0.1882,0.3998c0.0488,0.1545 0.1126,0.3135 0.1452,0.4809c0.0247,0.1694 0.0762,0.3304 0.0664,0.492c-0.0052,0.159 0.0209,0.3037 -0.0111,0.4276c-0.0436,0.2428 -0.0729,0.405 -0.0729,0.405c0,0 -0.0013,-0.1629 -0.0032,-0.4069c0.0091,-0.1201 -0.0437,-0.2583 -0.0658,-0.4037c-0.0176,-0.148 -0.0964,-0.2927 -0.1459,-0.4394c-0.0573,-0.1453 -0.1439,-0.2797 -0.2116,-0.4069c-0.0866,-0.1194 -0.1543,-0.2362 -0.2331,-0.3219c-0.1439,-0.1837 -0.2514,-0.2693 -0.2553,-0.2784z" fill="#738cb5" fill-rule="nonzero" stroke="none" stroke-width="1"/><path d="M263.4671,225.2053c-0.0059,-0.0098 0.0547,0.1752 0.0814,0.4322c0.0234,0.1279 0.0195,0.2817 0.0299,0.4407c-0.0098,0.1616 -0.0078,0.3323 -0.0384,0.5004c-0.0391,0.1668 -0.0495,0.3361 -0.1172,0.4822c-0.0619,0.1466 -0.0905,0.2914 -0.1654,0.3952c-0.1289,0.2103 -0.2149,0.3511 -0.2149,0.3511l0.1446,-0.3803c0.0521,-0.109 0.0534,-0.257 0.0853,-0.3998c0.0377,-0.1441 0.0162,-0.3076 0.0234,-0.4621c-0.0006,-0.1564 -0.0326,-0.3134 -0.0495,-0.4562c-0.0378,-0.1422 -0.0579,-0.2759 -0.1003,-0.3842c-0.0677,-0.2233 -0.1367,-0.3421 -0.1374,-0.3518z" fill="#738cb5" fill-rule="nonzero" stroke="none" stroke-width="1"/></g></g></g></g></svg>