<svg version="1.1" xmlns="http://www.w3.org/2000/svg" xmlns:xlink="http://www.w3.org/1999/xlink" width="89.4" height="96.86454"><g transform="translate(-195.3,-131.5)"><g data-paper-data="{&quot;isPaintingLayer&quot;:true}" fill="none" fill-rule="nonzero" stroke="none" stroke-width="1" stroke-linecap="none" stroke-linejoin="none" stroke-miterlimit="10" stroke-dasharray="" stroke-dashoffset="0" font-family="none" font-weight="none" font-size="none" text-anchor="none" style="mix-blend-mode: normal"><g><g stroke="#8e5322" stroke-linecap="round" stroke-linejoin="round"><path d="M244.7,190.6c0.8,-3.6 1.8,-2.9 1.8,-2.9c0.5,0.4 0.7,1.2 1.3,1.8c1.9,1.7 6.3,5.4 7.8,4.4c3.4,-2.7 7.4,-5.3 10.4,-2.1c4.3,3.6 -2.6,7 -6.2,9.6c-2.7,1.5 -5.3,3.2 -9.9,-0.5c-3.7,-3.4 -5.3,-3.4 -5.3,-3.4c-2.1,-1.4 -0.8,-3.3 0.1,-6.9z" fill="#faa51f"/><path d="M255.6,193.9l-2.1,1.4" fill="none"/></g><g stroke="#8e5322" stroke-linecap="round" stroke-linejoin="round"><path d="M231.2,197.5c0,0 -1.6,0 -5.3,3.4c-4.6,3.7 -7.2,2 -9.9,0.5c-3.6,-2.6 -10.5,-6 -6.2,-9.6c3,-3.2 7,-0.6 10.4,2.1c1.5,1 5.9,-2.7 7.8,-4.4c0.6,-0.6 0.8,-1.4 1.3,-1.8c0,0 1,-0.7 1.8,2.9c0.9,3.6 2.2,5.5 0.1,6.9z" fill="#faa51f"/><path d="M220.2,193.9l2.1,1.4" fill="none"/></g><g fill="#faa51f" stroke="#8e5322" stroke-linecap="round" stroke-linejoin="round"><path d="M247.5,205c0,0 -1.7,5.5 -0.9,14.3c0.3,3.8 7.4,-0.5 6.9,6.9c-0.2,2.1 -9.4,1.9 -11.5,1.1c-1.9,-0.7 -2.4,-1.4 -2.1,-3.4c1.1,-7.3 -2.6,-15.7 -2.6,-15.7"/><path d="M245.8,221.1c1.5,-0.3 2.8,-0.1 2.8,-0.1"/></g><g id="Layer_3_15_"><path d="M231.7,201.9c0.9,0.2 2.8,0.6 1.5,4.6c-1.3,4 -7.8,6.6 -8.6,6.9c-2.9,1 -6.6,2.1 -11.1,2c-13,-0.3 -16.9,-12.9 -13.8,-16.1c3.1,-3.2 7.2,4.2 13.9,7.3c3,1.4 6,1.4 8.5,1.1c3.5,-0.4 8.6,-6 9.6,-5.8z" fill="#faa51f" stroke="none" stroke-linecap="butt" stroke-linejoin="miter"/><path d="M205.6,200.9c2.3,1.9 6.6,5.1 6.6,5.1c0,0 -4.2,0.6 -5.7,2.9c-1.5,2.3 1.8,5.6 0,5c-1.6,-1 -4.1,-2.4 -6.1,-5.5c-2,-3.1 -2.2,-8.1 -0.5,-9.3c1.9,-1.1 3.5,0 5.7,1.8z" fill="#ffffff" stroke="none" stroke-linecap="butt" stroke-linejoin="miter"/><path d="M231.7,201.9c0.9,0.2 2.8,0.6 1.5,4.6c-1.3,4 -7.8,6.6 -8.6,6.9c-2.9,1 -6.6,2.1 -11.1,2c-13,-0.3 -16.9,-12.9 -13.8,-16.1c3.1,-3.2 7.2,4.2 13.9,7.3c3,1.4 6,1.4 8.5,1.1c3.5,-0.4 8.6,-6 9.6,-5.8z" fill="none" stroke="#8e5322" stroke-linecap="round" stroke-linejoin="round"/></g><g id="Layer_2_30_" fill="#faa51f" stroke="#8e5322" stroke-linecap="round" stroke-linejoin="round"><path d="M238.3,202.9"/></g><path d="M248.3,194.1c0,6.7 1.7,16.5 -10.2,16.5c-11.9,0 -10.8,-9 -10.8,-15.7c0,-6.7 4.1,-8.5 10.8,-8.5c6.7,0 10.2,1 10.2,7.7z" fill="#faa51f" stroke="#8e5322" stroke-linecap="round" stroke-linejoin="round"/><g id="Layer_8_15_" fill="#000000" stroke="none" stroke-linecap="butt" stroke-linejoin="miter" font-family="&quot;Helvetica Neue&quot;, Helvetica, Arial, sans-serif" font-weight="400" font-size="16" text-anchor="start"/><g id="Layer_2_29_"><path d="M241.9,139l7.2,-7l2.8,11.2c0,0 6.2,4.6 8.1,7.8c3.1,5.3 3.2,9.6 3.2,9.6c0,0 6.9,2.1 8.1,7.6c1.2,5.5 -3.1,16 -21.3,19.6c-18.2,3.6 -32.8,-1.3 -39.7,-12.4c-6.8,-11 4,-24.2 3.4,-23.4l-2.2,-18.3l12.6,8.2c0,0 4.3,-1.7 8.9,-1.9c1.7,-0.1 4.8,0.1 6.3,0.2z" fill="#faa51f" stroke="none" stroke-linecap="butt" stroke-linejoin="miter"/><path d="M262.8,161.1c0,0 6.6,1.6 7.8,7.1c1.5,5.5 -3.4,15.9 -20.6,19c-3.9,0.7 -7.4,1.4 -12.9,1.4c-8.5,0.1 -17.8,-5.2 -17.1,-16.3c0.4,-6.4 8.5,-5.9 8.5,-5.9l7.1,-1.8c0,0 7.1,1.6 11.3,0.7c4.2,-0.9 4.2,-4.2 4.2,-4.2l8.8,-2.6l2.4,2z" fill="#ffffff" stroke="none" stroke-linecap="butt" stroke-linejoin="miter"/><path d="M278.3,161.9c0,0 -1.8,1.6 -4.4,2.5c-2.2,0.8 -6.6,1.5 -6.6,1.5" fill="none" stroke="#8e5322" stroke-linecap="round" stroke-linejoin="round"/><path d="M277.7,173c0,0 -1.8,0.2 -4.5,-0.1c-2.8,-0.2 -5.4,-1.3 -5.4,-1.3" fill="none" stroke="#8e5322" stroke-linecap="round" stroke-linejoin="round"/><path d="M221.8,140.4l5.2,3.6" fill="none" stroke="#8e5322" stroke-linecap="round" stroke-linejoin="round"/><path d="M241.9,139l7.2,-7l2.8,11.2c0,0 6.2,4.6 8.1,7.8c3.1,5.3 3.2,9.6 3.2,9.6c0,0 6.9,2.1 8.1,7.6c1.2,5.5 -3.1,16 -21.3,19.6c-18.2,3.6 -32.8,-1.3 -39.7,-12.4c-6.8,-11 4,-24.2 3.4,-23.4l-2.2,-18.3l12.6,8.2c0,0 4.3,-1.7 8.9,-1.9c1.7,-0.1 4.8,0.1 6.3,0.2z" fill="none" stroke="#8e5322" stroke-linecap="round" stroke-linejoin="round"/><path d="M209.7,170.9c0,0 -3.5,0.5 -5.3,0.6c-1.8,0.1 -5.8,-0.3 -5.8,-0.3" fill="none" stroke="#8e5322" stroke-linecap="round" stroke-linejoin="round"/><path d="M197.8,161.6c0,0 2.2,0.4 6.2,2.2c3.6,1.6 5.9,3.3 5.9,3.3" fill="none" stroke="#8e5322" stroke-linecap="round" stroke-linejoin="round"/></g><g id="Layer_5_17_"><path d="M257.8,151.1c2.8,4.3 2.9,9.3 0.2,11c-2.7,1.8 -7.2,-0.3 -10,-4.7c-2.8,-4.3 -2.9,-9.3 -0.2,-11c2.7,-1.8 7.2,0.3 10,4.7z" fill="#ffffff" stroke="#8e5322" stroke-linecap="round" stroke-linejoin="round"/><path d="M257.7,154.6c0.3,1 -0.2,2 -1.2,2.3c-0.9,0.3 -1.9,-0.3 -2.2,-1.4c-0.3,-1 0.2,-2 1.2,-2.3c1,-0.2 1.9,0.4 2.2,1.4" fill="#414142" stroke="none" stroke-linecap="butt" stroke-linejoin="miter"/></g><g id="Layer_7_17_"><path d="M234.6,154.2c2.8,4.3 2.5,9.5 -0.7,11.6c-3.2,2.1 -8.1,0.3 -10.9,-4.1c-2.8,-4.3 -2.5,-9.5 0.7,-11.6c3.2,-2.1 8.1,-0.2 10.9,4.1z" fill="#ffffff" stroke="#8e5322" stroke-linecap="round" stroke-linejoin="round"/><path d="M234.3,158c0,1 -0.8,1.9 -1.7,1.9c-1,0 -1.7,-0.8 -1.7,-1.9c0,-1 0.8,-1.9 1.7,-1.9c0.9,0 1.7,0.9 1.7,1.9" fill="#414142" stroke="none" stroke-linecap="butt" stroke-linejoin="miter"/></g><path d="M245.6,164.1c1.7,-0.2 4,-1.5 4.3,0.4c0,0.8 -1.6,4.1 -3.4,4.2c-2,0.1 -5.5,-2.4 -5.4,-3.9c0.1,-1.5 3,-0.5 4.5,-0.7z" fill="#5f4b43" stroke="#8e5322" stroke-linecap="round" stroke-linejoin="round"/><path d="M245.7,197c0,4.2 0.9,10.5 -5.5,10.5c-6.4,0 -5.9,-5.7 -5.9,-9.9c0,-4.2 2.2,-5.4 5.9,-5.4c3.7,0 5.5,0.6 5.5,4.8z" fill="#ffffff" stroke="none" stroke-linecap="butt" stroke-linejoin="miter"/><g fill="#faa51f" stroke="#8e5322" stroke-linecap="round" stroke-linejoin="round"><path d="M237.4,210.9c0,0 -1.5,9.1 -1.2,13.3c0.2,2.1 -0.6,3.2 -2.7,3.6c-2.2,0.4 -9.8,0.6 -9.9,-1.9c-0.4,-7.6 5.2,-2.9 5.8,-6.7c1.3,-8.7 -1.3,-14.2 -1.3,-14.2"/><path d="M227.1,221c0,0 1.6,-0.2 3,0.2"/></g><path d="M244.4,180.7c-5.4,1.1 -7.9,-1.2 -7.9,-1.2" fill="#ffffff" stroke="#8e5322" stroke-linecap="round" stroke-linejoin="round"/></g><g><path d="M217.9,195.3l-20.7,-7.2c-0.8,-0.3 -1.3,-1 -1.3,-1.9v-40.2c0,-1.4 1.4,-2.3 2.7,-1.9l19.4,6.8v44.4z" fill="#ddceb1" stroke="#8e5322" stroke-linecap="round" stroke-linejoin="round"/><path d="M217.9,150.9l22.1,-7.7v44.4l-22.1,7.7z" fill="#8ebcb8" stroke="none" stroke-linecap="butt" stroke-linejoin="miter"/><path d="M262.1,195.3l-22.1,-7.7v-44.4l22.1,7.7z" fill="#9ed8d5" stroke="none" stroke-linecap="butt" stroke-linejoin="miter"/><path d="M262,195.3v-44.4l19.4,-6.8c1.3,-0.4 2.7,0.5 2.7,1.9v40.2c0,0.9 -0.5,1.6 -1.3,1.9l-20.7,7.2z" fill="#8ebcb8" stroke="none" stroke-linecap="butt" stroke-linejoin="miter"/><path d="M217.9,195.3l-20.7,-7.2c-0.8,-0.3 -1.3,-1 -1.3,-1.9v-40.2c0,-1.4 1.4,-2.3 2.7,-1.9l19.4,6.8v44.4z" fill="#9ed8d5" stroke="none" stroke-linecap="butt" stroke-linejoin="miter"/><path d="M205.2,155c1.7,1 0.6,4.8 -1.8,6c-2.4,1.2 -3.8,0.8 -4.7,-4c-1,-4.8 1.1,-7 2.9,-6.3c1.8,0.8 0.2,2.2 3.6,4.3z" fill="#89cca1" stroke="none" stroke-linecap="butt" stroke-linejoin="miter"/><path d="M240,143.2v6.1c-7.1,0 1.4,10.6 -3.4,19c-2.7,4.8 -10.6,11.5 -13.7,4.2c-2.7,-6.4 4.9,-8.4 0,-18.2c-2.1,-4.1 4.1,-6.6 4.1,-6.6z" fill="#79b28c" stroke="none" stroke-linecap="butt" stroke-linejoin="miter"/><path d="M240.1,143.1l18.3,6.4c0,0 -2.8,13.3 -7.3,13.2c-4.5,0 -5.9,-6.2 -5.2,-8.8c0.6,-2.6 -3.1,-4.6 -5.9,-4.6z" fill="#89cca1" stroke="none" stroke-linecap="butt" stroke-linejoin="miter"/><path d="M195.8,172.2c0,0 3.6,5 5.7,-0.3c2.4,-6.1 3.9,-8.4 7.8,-7.6c3.8,0.8 5.9,7.1 1.6,12.8c-3.2,4.3 4.2,5.2 5.8,11.8c0.9,3.5 -1.8,5.4 -1.8,5.4l-19.1,-6.7z" fill="#89cca1" stroke="none" stroke-linecap="butt" stroke-linejoin="miter"/><path d="M223.5,193.4c2.4,-0.7 4.7,-7.6 6.8,-8.1c2.1,-0.5 2.3,4.9 2.3,4.9z" fill="#79b28c" stroke="none" stroke-linecap="butt" stroke-linejoin="miter"/><path d="M262.1,165c4.3,0 3.5,-10 7.5,-11.8c4,-1.8 7.7,-1.1 8.1,5.2c0.4,6.4 -6.3,6.7 -6.8,12c-0.3,3.2 9.7,7.3 1.5,12.6c-5.1,3.3 -6.4,-6.2 -10.3,-6.2z" fill="#79b28c" stroke="none" stroke-linecap="butt" stroke-linejoin="miter"/><path d="M262,165v11.8c-2.7,0.1 -3.2,7.7 -5.8,10.8c-2.6,3.1 -10.6,-0.9 -9.3,-4.2c1.3,-3.3 -5,-7.1 -3.5,-10.3c2,-4.2 9.2,4.8 9,-1.6c-0.2,-5.9 9.7,-6.5 9.6,-6.5z" fill="#89cca1" stroke="none" stroke-linecap="butt" stroke-linejoin="miter"/><path d="M273.1,191.5c0,0 9.7,-4.6 7.8,-9.1c-1,-2.3 -4.9,-13.9 3.2,-14.3v19.5z" fill="#79b28c" stroke="none" stroke-linecap="butt" stroke-linejoin="miter"/><g stroke="#939598" stroke-linecap="round" stroke-linejoin="round"><path d="M217.9,162l-22.1,-7.7" fill="#ddceb1"/><path d="M195.8,165.4l22.1,7.7" fill="#ddceb1"/><path d="M217.9,184.2l-22.1,-7.7" fill="#ddceb1"/><path d="M206.9,191.5v-44.5" fill="none"/><path d="M217.9,162l22.1,-7.7" fill="#ddceb1"/><path d="M240,165.4l-22.1,7.7" fill="#ddceb1"/><path d="M217.9,184.2l22.1,-7.7" fill="#ddceb1"/><path d="M229,147v44.5" fill="none"/><path d="M262.1,162l-22.1,-7.7" fill="#ddceb1"/><path d="M240,165.4l22.1,7.7" fill="#ddceb1"/><path d="M262.1,184.2l-22.1,-7.7" fill="#ddceb1"/><path d="M251,147v44.5" fill="none"/><path d="M262.1,162l22.1,-7.7" fill="#ddceb1"/><path d="M284.2,165.4l-22.1,7.7" fill="#ddceb1"/><path d="M262.1,184.2l22.1,-7.7" fill="#ddceb1"/><path d="M273.1,191.5v-44.5" fill="none"/></g><g fill="#fefce4" stroke="none" stroke-linecap="butt" stroke-linejoin="miter"><path d="M240,146.6c-0.6,0 -1.1,0.1 -1.8,0.3l-16.8,5.9c-1.1,0.4 -2.4,0.6 -3.6,0.6c-1.2,0 -2.4,-0.2 -3.6,-0.6l-15.5,-5.4v38.1l19.1,6.7l18.5,-6.4c1.1,-0.4 2.4,-0.6 3.6,-0.6c1.2,0 2.4,0.2 3.6,0.6l18.5,6.4l19.1,-6.7v-38.1l-15.5,5.4c-1.1,0.4 -2.4,0.6 -3.6,0.6c-1.2,0 -2.4,-0.2 -3.6,-0.6l-16.8,-5.9c-0.5,-0.2 -1,-0.3 -1.6,-0.3M282.5,146.9v0v0M240,143.6c0.9,0 1.8,0.2 2.5,0.5l16.8,5.9c0.8,0.3 1.7,0.4 2.6,0.4c0.9,0 1.7,-0.1 2.6,-0.4l16.8,-5.9c0.3,-0.1 0.5,-0.1 0.7,-0.1c1.1,0 2,0.9 2,2v40.1c0,0.9 -0.5,1.6 -1.3,1.9l-20.7,7.2l-19.5,-6.8c-0.8,-0.3 -1.7,-0.4 -2.6,-0.4c-0.9,0 -1.7,0.1 -2.6,0.4l-19.4,6.8l-20.7,-7.2c-0.8,-0.3 -1.3,-1 -1.3,-1.9v-40.2c0,-1.1 0.9,-2 2,-2c0.3,0 0.5,0 0.7,0.1l16.8,5.9c0.8,0.3 1.7,0.4 2.6,0.4c0.9,0 1.7,-0.1 2.6,-0.4l16.8,-5.9c0.8,-0.3 1.7,-0.4 2.6,-0.4z"/></g><path d="M284.2,146v40.2c0,0.9 -0.5,1.6 -1.3,1.9l-20.7,7.2l-19.5,-6.8c-1.7,-0.6 -3.6,-0.6 -5.3,0l-19.4,6.8l-20.7,-7.2c-0.8,-0.3 -1.3,-1 -1.3,-1.9v-40.2c0,-1.4 1.4,-2.3 2.7,-1.9l16.8,5.9c1.7,0.6 3.6,0.6 5.3,0l16.8,-5.9c1.7,-0.6 3.6,-0.6 5.3,0l16.8,5.9c1.7,0.6 3.6,0.6 5.3,0l16.8,-5.9c1,-0.5 2.4,0.5 2.4,1.9z" fill="none" stroke="#6d6e71" stroke-linecap="round" stroke-linejoin="round"/><g stroke="#8e5322" stroke-linecap="round" stroke-linejoin="round"><path d="M255.5,193.9c3.4,-2.7 7.4,-5.3 10.4,-2.1c4.3,3.6 -2.6,7 -6.2,9.6c-2.7,1.5 -5.3,3.2 -9.9,-0.5" fill="#faa51f"/><path d="M255.6,193.9l-2.1,1.4" fill="none"/></g><g stroke="#8e5322" stroke-linecap="round" stroke-linejoin="round"><path d="M226,200.9c-4.6,3.7 -7.2,2 -9.9,0.5c-3.6,-2.6 -10.5,-6 -6.2,-9.6c3,-3.2 7,-0.6 10.4,2.1" fill="#faa51f"/><path d="M220.2,193.9l2.1,1.4" fill="none"/></g></g></g></g></svg>