<svg version="1.1" xmlns="http://www.w3.org/2000/svg" xmlns:xlink="http://www.w3.org/1999/xlink" width="168.78231" height="109.54622" viewBox="0,0,168.78231,109.54622"><g transform="translate(-116.46116,-120.3217)"><g data-paper-data="{&quot;isPaintingLayer&quot;:true}" stroke="none" stroke-width="1" stroke-linecap="butt" stroke-linejoin="miter" stroke-miterlimit="10" stroke-dasharray="" stroke-dashoffset="0" style="mix-blend-mode: normal"><g><g fill-rule="evenodd"><path d="M206.0699,188.63158c-7.95249,3.93927 -19.53515,-31.54658 0.99029,-41.10224c20.90752,-9.73293 44.31366,18.6609 44.31366,18.6609z" fill="#efab00"/><path d="M259.77321,145.48316c0,0 -35.83247,31.43768 -42.70055,36.19933c-9.19715,6.37653 -14.06552,4.81521 -17.82208,0.24248c-6.21396,-7.56381 0.55099,-11.26589 0.35427,-16.98273c-0.19803,-5.71729 -8.93679,-10.8486 0.76927,-16.14494c8.11815,-4.43018 5.09246,-10.85531 8.93168,-13.33926c5.9546,-3.85234 10.30261,1.45879 15.80135,0.81518c5.19365,-0.60805 5.51575,-5.79474 11.43719,-6.25633c5.07358,-0.39485 9.74271,8.55127 16.2468,7.67023c10.60045,-1.43507 6.98207,7.79605 6.98207,7.79605" fill="#59c059"/><path d="M204.84259,169.43192c-1.03613,0.17309 -2.02746,-0.53404 -2.19968,-1.57059l-0.34789,-2.08231c-0.17309,-1.03613 0.5336,-2.02615 1.5706,-2.19967l5.54392,-0.92657c1.03743,-0.17265 2.02747,0.53404 2.20011,1.57147l0.34745,2.08143c0.17352,1.037 -0.53359,2.02615 -1.57059,2.19967l-5.54392,0.92657" fill="#e8511c"/><path d="M200.97962,169.75369c1.12376,-0.24048 3.08845,0.13821 4.39589,-0.14965c0.8523,9.29191 4.0129,17.03702 0.41362,19.14699l-0.01751,0.00867c-2.97977,1.18166 -7.39703,0.0336 -6.97714,-3.60867c0.24835,-2.16179 -2.40353,-3.37754 -2.8894,-5.48089c-0.70524,-3.03042 1.77935,-4.99164 2.60791,-5.74004c0.90742,-0.80928 0.80068,-3.81998 2.46664,-4.17641" fill="#c18500"/><path d="M207.00738,163.06056c-0.09061,2.04004 -0.00197,4.04579 0.19181,5.97766l-0.94867,0.15375l-0.90454,0.15479c-0.16795,-1.94576 -0.226,-3.95577 -0.10002,-5.99043z" fill="#c6431a"/><path d="M207.19936,169.03857c0.88372,9.0692 3.88778,16.60838 0.4762,18.76712c-0.42021,0.20815 -0.63031,0.31223 -1.31765,0.68541l-0.17509,0.08673c-0.13132,0.06505 -0.25822,0.11701 -0.39387,0.1733c3.59928,-2.10998 0.43868,-9.85509 -0.41362,-19.147c0.35419,-0.07733 0.65175,-0.20292 0.87536,-0.4118z" fill="#a06b00"/><path d="M203.51533,157.61652c-0.64753,0.82772 -1.8557,0.97483 -2.68298,0.32599l-0.31976,-0.24936c-0.82728,-0.64884 -0.97351,-1.85526 -0.32599,-2.68298l1.79331,-2.28928c0.6484,-0.82815 1.8557,-0.97483 2.68254,-0.32686l0.3202,0.25023c0.82684,0.64796 0.97395,1.85613 0.32599,2.68298l-1.79332,2.28928" fill="#e8511c"/><path d="M223.79321,138.57787c-0.63473,0.32532 -1.27397,0.68557 -1.92204,1.07201c-11.30173,6.72127 -14.51012,15.32084 -14.86358,23.41112l-1.76185,0.2949c0.47955,-7.92379 3.80928,-16.25638 14.83078,-22.81704c1.26112,-0.75553 2.49999,-1.40191 3.71669,-1.96099" fill="#4ba04b"/><path d="M250.61574,141.74979c-0.87514,-0.58261 -1.11493,-1.7754 -0.53145,-2.65098l0.59491,-0.89432c0.58261,-0.87514 1.77583,-1.11406 2.65054,-0.53233l3.30708,2.20169c0.87514,0.58261 1.1145,1.77452 0.53146,2.65097l-0.59534,0.89345c-0.58261,0.87514 -1.7754,1.11493 -2.65054,0.53233l-3.30665,-2.20081" fill="#e8511c"/><path d="M224.57301,139.93708c-0.73333,0.75356 -1.94888,0.77131 -2.70244,0.03799l-0.77011,-0.74911c-0.75444,-0.73289 -0.77218,-1.94844 -0.03929,-2.70288l2.76884,-2.84883c0.73333,-0.75356 1.94931,-0.77044 2.70244,-0.03799l0.77098,0.74868c0.75444,0.73289 0.77175,1.94975 0.03842,2.70331l-2.76884,2.84883" fill="#e8511c"/><path d="M207.38288,187.98119c7.87895,-3.90284 -13.32485,-31.79257 14.48896,-48.33393c22.14193,-13.16813 37.51225,3.53721 43.78874,13.1993c1.63819,2.5214 0.74174,5.89932 -1.95111,7.23322z" fill="#ffbf00"/><path d="M211.57492,143.65062c-0.25388,0.12576 -0.56064,0.14035 -0.83936,0.01347c-0.49113,-0.22335 -0.70743,-0.80306 -0.48365,-1.29331l2.74177,-6.02003c0.22509,-0.48981 0.80393,-0.70786 1.29419,-0.48408c0.49113,0.22335 0.70743,0.80306 0.48408,1.29419l-2.74221,6.01916c-0.09735,0.21285 -0.26048,0.37434 -0.45483,0.47061" fill="#ffbf00"/><path d="M242.7766,131.60721c-0.05428,0.02688 -0.11072,0.0494 -0.17151,0.06534l-6.37026,1.78289c-0.5196,0.14617 -1.05849,-0.15818 -1.20423,-0.6769c-0.1453,-0.52003 0.15645,-1.06417 0.67689,-1.20423l6.37157,-1.78245c0.5196,-0.14617 1.05849,0.15817 1.20336,0.67733c0.12936,0.45924 -0.09348,0.93376 -0.50582,1.13802" fill="#ffbf00"/><path d="M201.9264,174.22384c-0.19435,0.09627 -0.4221,0.1295 -0.65128,0.07622l-6.44944,-1.47152c-0.5256,-0.11905 -0.85482,-0.64282 -0.73402,-1.16929c0.12036,-0.52515 0.64239,-0.8557 1.16973,-0.73533l6.44988,1.47239c0.5256,0.11905 0.85482,0.64282 0.73402,1.16929c-0.06752,0.29729 -0.26501,0.53248 -0.51888,0.65824" fill="#ffbf00"/><path d="M250.07945,147.25703c-1.42784,0.70728 -2.52976,-1.51066 -1.0993,-2.21924c1.42872,-0.70771 2.52976,1.51066 1.0993,2.21924" fill="#efab00"/><path d="M239.69745,154.87189c-1.42784,0.70728 -2.52977,-1.51066 -1.0993,-2.21924c1.42872,-0.70771 2.52977,1.51066 1.0993,2.21924" fill="#efab00"/><path d="M242.84975,164.68985c-1.42784,0.70728 -2.52976,-1.51066 -1.0993,-2.21924c1.42872,-0.70771 2.53064,1.51022 1.0993,2.21924" fill="#efab00"/><path d="M224.60237,175.11069c-1.42784,0.70728 -2.52976,-1.51065 -1.0993,-2.21924c1.42784,-0.70728 2.52976,1.51065 1.0993,2.21924" fill="#efab00"/><path d="M217.24359,154.72573c-1.42784,0.70728 -2.52976,-1.51066 -1.0993,-2.21924c1.42784,-0.70728 2.52976,1.51066 1.0993,2.21924" fill="#efab00"/><path d="M226.5176,143.86936c-1.42784,0.70728 -2.5302,-1.51153 -1.09974,-2.22012c1.42784,-0.70728 2.5302,1.51153 1.09974,2.22012" fill="#efab00"/><path d="M228.38911,162.14722c-1.42784,0.70728 -2.52976,-1.51065 -1.0993,-2.21924c1.42784,-0.70728 2.52976,1.51065 1.0993,2.21924" fill="#efab00"/><path d="M216.53799,169.10793c-1.42784,0.70728 -2.52977,-1.51065 -1.0993,-2.21923c1.42784,-0.70728 2.52977,1.51065 1.0993,2.21923" fill="#efab00"/><path d="M256.71149,155.19691c-1.42784,0.70728 -2.52976,-1.51065 -1.0993,-2.21924c1.42784,-0.70728 2.52976,1.51065 1.0993,2.21924" fill="#efab00"/><path d="M239.53952,142.29944c-1.42872,0.70771 -2.53064,-1.51022 -1.0993,-2.21924c1.42784,-0.70728 2.52976,1.51065 1.0993,2.21924" fill="#efab00"/><path d="M205.34597,169.34654l0.90498,-0.15392c-0.22404,0.20801 -0.52118,0.33448 -0.87536,0.41181c-0.00843,-0.08305 -0.01685,-0.16609 -0.02962,-0.25789" fill="#4ba04b"/></g><g fill-rule="nonzero"><g><path d="M172.1447,165.90768c0.7436,-2.3218 1.9405,-3.3245 2.6156,-5.6683c2.0663,-7.3101 1.3002,-10.462 1.6697,-18.0215c0.4945,-10.1331 8.7201,-21.6027 18.2354,-20.0744c3.7986,0.6308 4.9618,3.8017 6.6491,7.3558c3.2578,6.8565 1.7659,13.3897 -2.7428,19.8115c-4.0103,5.7277 -6.2508,8.5823 -11.6679,12.6865c-3.7027,2.8137 -6.9447,4.8151 -10.4394,6.0416c-1.7967,0.63 -2.5515,-1.5638 -4.3197,-2.1312z" fill="#96e700"/><path d="M171.6385,164.09808c2.2741,-3.579 3.6164,-6.7864 3.4921,-11.188c-0.2303,-8.1749 0.5621,-13.2028 3.3263,-21.0297c1.1589,-3.2808 3.1984,-6.0255 5.7454,-8.2863c3.3986,-3.015 8.187,-4.3532 12.1766,-2.2532c4.3323,2.2823 7.6416,9.8074 7.6514,14.8549c0.0242,12.4413 -14.6844,27.3565 -25.3192,31.3888l-0.2886,-0.0925c-0.8648,-1.0372 7.684,-6.0347 8.6675,-6.9251c6.2996,-5.7022 14.1934,-14.7558 14.3759,-23.8853c0.173,-8.6903 -8.0767,-17.9301 -16.3851,-10.723c-3.8348,3.3279 -6.9744,11.4713 -7.688,16.4825c-0.5337,3.7415 -0.7975,7.6041 -0.5881,11.3432c0.2337,4.1553 -0.3504,10.0669 -3.5469,13.0605c-1.571,0.2203 -2.5554,-1.2763 -1.6193,-2.7468z" fill="#272525"/><path d="M195.2221,126.64068c0.1705,0.0577 -0.6195,1.6097 -0.9674,2.2532c-1.4747,2.7324 -1.9102,5.9573 -2.0007,9.007c3.0566,-0.4196 4.4696,-6.9719 6.8575,-5.7986c-0.9946,0.1876 -2.5766,2.16 -3.9845,4.6345c-0.9689,1.7856 -1.9529,1.7402 -2.8772,1.8884c-0.3642,2.7436 -0.9363,5.5362 -3.3987,7.4871c2.4732,-0.385 1.3273,3.7107 6.7089,1.9073c-0.9596,0.9537 -1.8834,0.9823 -2.8446,1.0755c-1.7589,0.1707 -2.7901,-1.7767 -4.0376,-2.632c-1.9674,1.6086 -6.1763,5.3794 -7.1441,10.5811c-0.1517,0.8114 -0.453,1.431 -0.4135,2.2911c1.8022,-1.7255 3.8813,-2.2861 6.1611,-2.775c0.8154,-0.1756 1.4691,-0.7149 2.4846,-0.9482c-1.6245,1.774 -3.948,1.6125 -5.9387,2.5069c-3.4397,1.5434 -5.2484,7.9017 -7.3626,7.4146c-0.3897,-0.6782 0.1544,-0.3244 0.8034,-1.2789c4.9734,-5.2596 2.406,-9.587 6.5182,-14.5313c1.4279,-1.7173 0.6881,-4.8104 0.0313,-6.6283c-1.4562,0.278 -4.409,-0.6299 -4.5678,-1.252c1.7364,0.9027 4.1501,0.422 4.3411,0.2585c-1.062,-2.9559 -1.5167,-6.1949 -0.515,-9.3224c0,0 -0.2855,4.3271 0.7207,7.4016c0.7322,2.2348 1.9128,6.0036 1.2355,8.3414c7.5275,-6.6477 5.3137,-6.7026 7.2569,-15.8446c-1.2694,-1.4429 -2.5672,-2.0854 -2.3372,-4.3345c0.1129,-1.0968 0.0494,-3.1343 0.0494,-3.1343c0.8882,2.2691 -0.1401,5.3975 2.5046,6.5197c0.5226,-1.1955 1.6647,-4.4629 2.7164,-5.0878z" fill="#272525"/></g><path d="M134.6238,221.73308c-1.549,-1.062 -3.128,4.17 -4.02,3.453c-0.892,-0.72 0.726,-2.81 1.86,-4.065c1.9,-2.105 5.22,0.036 3.687,3.645c-0.981,2.31 -1.023,2.646 -1.685,2.396c-1.049,-0.404 1.706,-4.371 0.158,-5.429z" fill="#272525"/><path d="M129.4038,217.40008c-1.625,-1.31 -3.64,3.726 -4.558,2.848c-0.919,-0.876 0.958,-2.735 2.263,-3.826c2.184,-1.829 5.638,0.896 3.757,4.311c-1.204,2.188 -1.271,2.521 -1.969,2.156c-1.109,-0.578 2.659,-3.76 0.507,-5.489z" fill="#272525"/><path d="M121.9928,191.81108c0.336,-1.728 -4.295,-1.455 -4.017,-2.486c0.278,-1.028 2.447,-0.256 3.804,0.354c2.272,1.021 1.653,4.685 -1.683,4.476c-2.136,-0.133 -2.415,-0.062 -2.43,-0.733c-0.024,-1.072 3.99,0.116 4.326,-1.611z" fill="#272525"/><path d="M122.2348,185.84608c0.506,-1.876 -4.11,-2.057 -3.715,-3.162c0.395,-1.104 2.465,-0.022 3.746,0.793c2.145,1.365 1.111,5.336 -2.186,4.754c-2.111,-0.375 -2.397,-0.324 -2.334,-1.067c0.098,-1.181 3.819,1.167 4.489,-1.318z" fill="#272525"/><path d="M211.3858,217.51508c-1.249,1.441 4.002,4.646 3.185,5.458c-0.817,0.811 -3.16,-1.888 -4.127,-3.298c-1.613,-2.36 0.942,-5.472 4.01,-3.237c1.963,1.434 2.268,1.534 1.92,2.187c-0.554,1.029 -3.739,-2.553 -4.988,-1.11z" fill="#272525"/><path d="M207.4488,222.42308c-1.488,1.479 2.812,4.468 1.843,5.28c-0.97,0.812 -2.36,-1.481 -3.144,-3.04c-1.312,-2.609 1.807,-5.763 4.635,-3.194c1.812,1.643 2.707,2.354 2.25,3.025c-0.728,1.065 -3.61,-4.029 -5.584,-2.071z" fill="#272525"/><path d="M224.3868,202.51808c-0.865,1.381 3.928,3.321 3.344,4.117c-0.584,0.794 -2.879,-1.134 -3.861,-2.177c-1.646,-1.747 0.105,-4.714 2.949,-3.274c1.822,0.92 2.091,0.963 1.879,1.557c-0.333,0.94 -3.445,-1.607 -4.311,-0.223z" fill="#272525"/><path d="M221.7038,207.18208c-1.062,1.448 2.907,3.344 2.196,4.159c-0.711,0.815 -2.16,-0.905 -3.008,-2.101c-1.423,-2 0.795,-5.078 3.48,-3.33c1.72,1.121 2.561,1.59 2.259,2.216c-0.475,0.993 -3.52,-2.862 -4.927,-0.944z" fill="#272525"/><path d="M238.0888,170.20308c-0.651,-2.018 -0.181,-4.021 1.054,-4.473c1.232,-0.452 2.76,0.816 3.412,2.834c0.651,2.018 0.182,4.021 -1.053,4.473c-1.234,0.452 -2.762,-0.816 -3.413,-2.834z" fill="#272525"/><path d="M246.0328,167.71007c0.113,-1.725 1.06,-3.058 2.113,-2.98c1.054,0.079 1.814,1.54 1.703,3.265c-0.113,1.724 -1.061,3.058 -2.113,2.979c-1.054,-0.079 -1.817,-1.541 -1.703,-3.264z" fill="#272525"/><path d="M214.8968,147.91008c2.692,0.761 4.008,3.747 5.438,6.323c1.48,-3.161 2.911,-7.201 6.206,-6.791c3.626,0.41 4.781,4.567 5.056,8.431c7.192,-3.806 15.595,-3.747 19.991,3.278c3.023,4.859 4.504,9.601 2.968,15.221c-2.197,8.079 -10.93,10.188 -18.73,8.841c-1.758,-0.293 -2.911,-2.399 -4.668,-2.752c-4.01,-0.878 -7.363,0.293 -10.766,-2.107c-0.769,5.036 6.041,5.913 10.766,5.913c0,4.332 -2.418,7.903 -6.152,9.543c-1.677,0.721 -4.694,-0.352 -6.261,0.41c-0.876,1.463 -1.758,3.422 -1.647,5.443c4.174,0 9.779,-4.098 10.766,0.234c0.988,4.332 -0.441,8.314 -2.967,11.768c-1.704,2.342 -5.493,2.576 -8.184,1.756c-3.185,-0.995 -4.228,-4.624 -7.525,-5.093c-2.472,-0.35 -3.789,1.932 -5.053,4.215c4.228,1.347 8.514,-0.643 11.04,3.103c2.529,3.691 0.714,7.792 -3.239,9.604c-5,2.283 -8.513,6.32 -11.865,1.757c-2.008,-2.763 -3.15,-5.466 -5.603,-7.2c-0.768,-0.544 -4.534,-3.859 -5.438,-3.338c-4.063,2.339 -11.752,5.62 -20.485,4.273c-4.45,-0.704 -6.702,-2.578 -11.205,-2.812c-2.373,-0.133 -4.188,1.025 -6.152,1.055c-2.263,0.037 -4.634,-1.141 -6.81,-2.928c-2.472,-2.049 -3.516,-0.877 -4.944,2.051c-1.428,2.986 -0.33,6.733 -2.362,9.309c-1.703,2.167 -3.515,-0.761 -5.877,-1.99c-4.119,-2.166 -9.447,-6.382 -8.788,-11.24c0.77,-5.619 10.436,-7.726 9.832,-13.406c-0.333,-3.072 -2.634,-6.545 -5.603,-7.024c-1.441,-0.231 -3.286,1.722 -4.668,1.933c-3.789,0.586 -4.559,-5.562 -3.954,-9.602c0.768,-5.153 2.581,-9.367 7.14,-11.299c4.888,-2.049 6.921,2.342 11.095,5.679l4.833,-7.025c-1.628,-1.972 -1.397,-5.123 -2.087,-7.26c-0.848,-2.623 -3.123,-3.641 -5.877,-5.093c2.91,-1.815 6.425,-1.991 9.062,0.176c1.788,1.475 2.578,4.496 4.229,5.62c1.036,0.706 2.827,0.209 4.119,-0.468c6.647,-3.513 11.37,-4.976 18.675,-3.513c7.689,1.522 13.292,5.503 20.981,4.215c7.743,-1.287 15.488,-9.366 13.95,-13.113c1.647,-4.215 6.591,-7.318 10.763,-6.097z" fill="#babaff"/><path d="M232.4208,153.71408c-0.028,0.528 -1.147,1.039 -1.246,0.234c-0.672,-5.444 -7.817,-7.435 -10.454,0.527c-0.193,0.585 -0.996,-0.343 -0.767,-0.937c4.887,-12.586 12.707,-4.215 12.467,0.176z" fill="#272525"/><path d="M219.5678,151.90007c0.33,0.812 -0.385,1.63 -0.879,0.937c-3.295,-4.625 -7.862,-4.708 -9.438,-3.443c-2.019,1.621 -3.964,8.126 -0.009,11.99c0.373,0.366 0.734,2.5 -1.188,1.256c-5.456,-3.53 -6.034,-13.492 0.448,-16.225c5.738,-2.419 9.605,1.889 11.066,5.485z" fill="#272525"/><path d="M220.8308,155.77708c3.305,7.166 -5.849,12.337 -8.983,5.479c-3.616,-7.906 6.25,-11.401 8.983,-5.479z" fill="#272525"/><path d="M230.5628,181.31108c-3.201,0.713 -6.572,-0.056 -9.231,-2.074c-0.029,1.358 1.317,2.97 2.396,3.563c2.411,1.333 8.354,-0.304 9.231,2.181c1.901,5.369 -9.563,12.16 -13.924,10.215c-0.794,-0.354 -1.32,-1.687 -0.618,-1.61c6.096,0.646 11.543,-3.06 12.146,-6.953c0.125,-0.812 -0.067,-1.479 -0.851,-1.755c-3.263,-1.155 -8.222,1.016 -9.933,-4.203c-0.471,-1.437 -0.701,-3.155 -0.25,-4.628c2.617,3.43 6.976,3.195 10.281,2.714c2.481,-0.362 5.405,3.326 8.187,3.829c4.707,0.854 8.662,0.013 11.979,-3.829c8.445,-9.792 1.184,-25.724 -11.879,-23.247c-1.722,0.326 -3.431,0.742 -5.142,1.117c-0.437,-0.612 -0.175,-1.409 0.103,-2.021c5.131,-2.905 13.516,-1.784 17.965,2.181c8.691,7.744 6.319,24.329 -5.039,27.556c-5.337,1.511 -11.076,0.858 -15.421,-3.036z" fill="#272525"/><path d="M229.9628,153.96808c4.698,5.35 -0.904,11.2 -4.791,7.926c-2.343,-1.973 -2.091,-8.385 1.447,-8.831c1.083,-0.135 2.557,0.01 3.344,0.905z" fill="#272525"/><path d="M219.5328,157.26708c0.896,2.923 -0.129,5.288 -2.711,5.346c-1.803,0.074 -3.653,-2.082 -3.028,-5.081c0.37,-1.779 1.722,-2.574 3.038,-2.482c1.152,0.081 2.279,0.842 2.701,2.217z" fill="#ffffff"/><path d="M218.0858,159.04208c0.455,0 0.867,0.197 1.165,0.515c0.298,0.318 0.483,0.757 0.483,1.241c0,0.484 -0.185,0.923 -0.483,1.241c-0.298,0.318 -0.71,0.515 -1.165,0.515c-0.455,0 -0.867,-0.197 -1.165,-0.515c-0.298,-0.318 -0.483,-0.757 -0.483,-1.241c0,-0.484 0.185,-0.923 0.483,-1.241c0.298,-0.318 0.71,-0.515 1.165,-0.515z" fill="#272525"/><path d="M228.4318,160.78208c-0.673,0.275 -1.353,0.149 -1.787,-0.131c-1.521,-0.98 -2.226,-4.604 -0.021,-5.487c3.124,-1.254 5.099,4.272 1.808,5.618z" fill="#ffffff"/><path d="M228.4788,158.13308c0.375,0 0.715,0.162 0.961,0.425c0.247,0.262 0.399,0.625 0.399,1.025c0,0.4 -0.152,0.763 -0.399,1.025c-0.246,0.263 -0.586,0.425 -0.961,0.425c-0.375,0 -0.715,-0.162 -0.961,-0.425c-0.247,-0.262 -0.399,-0.625 -0.399,-1.025c0,-0.4 0.152,-0.763 0.399,-1.025c0.246,-0.263 0.586,-0.425 0.961,-0.425z" fill="#272525"/><path d="M203.3608,159.07508c-2.809,3.661 -3.969,5.552 -8.283,7.66c-6.542,3.196 -12.453,1.232 -20.462,-2.181c-14.16,-6.036 -24.605,6.451 -28.847,3.458c-2.065,-1.457 -2.384,-5.095 -5.041,-6.649c-1.865,-1.091 -4.644,-1.359 -6.488,-0.106c1.249,0.514 2.599,0.766 3.743,1.542c5.232,3.55 -0.679,7.71 4.991,10.214c-5.959,6.11 -7.301,13.834 -6.188,21.438c-0.82,0.17 -1.591,0.513 -2.396,0.744c-3.634,-7.193 0.688,-15.772 5.739,-20.692c-0.755,-1.232 -2.152,-2.264 -2.296,-3.831c-0.178,-1.941 1.11,-2.819 -0.25,-4.681c-1.56,-2.136 -3.704,-3.547 -6.189,-4.097c2.599,-2.735 7.074,-4.125 10.032,-2.819c3.572,1.577 3.127,4.723 5.29,6.916c1.525,1.544 4.183,-0.52 5.49,-1.437c3.564,-2.501 7.394,-4.795 11.729,-5.213c9.745,-0.941 16.65,5.676 25.752,6.65c6.498,0.695 8.651,-9.065 13.674,-8.086v1.17z" fill="#272525"/><path d="M250.5048,164.89508c-0.288,-1.169 -0.618,-2.633 -2.047,-2.868c-1.214,-0.199 -2.472,1.171 -2.944,2.229c-0.315,-5.202 6.261,-5.042 4.991,0.639z" fill="#272525"/><path d="M235.3538,168.91608c-5.121,-6.407 3.008,-11.463 7.037,-5.373c0.189,0.288 0.984,1.364 0.631,1.001c-1.705,-1.75 -4.688,-2.082 -5.771,-1.534c-1.688,0.854 -2.579,2.413 -1.897,5.906z" fill="#272525"/><path d="M133.7418,197.30208v0.745c-1.241,0.865 -1.675,3.198 -3.344,1.436c-1.084,-1.145 -2.952,-4.276 -4.342,-4.732c-2.104,-0.688 -3.248,3.59 -6.338,1.915c-6.904,-3.742 -1.687,-19.856 5.041,-23.354c2.001,-1.04 3.879,-0.582 5.739,0.746c1.507,1.074 4.356,2.867 5.541,4.202c0.336,0.38 0.471,1.149 0.349,1.648c-0.969,3.952 -7.704,-6.484 -12.577,-2.925c-4.53,3.307 -8.175,15.72 -2.146,16.861c2.316,0.438 4.234,-3.201 6.688,-1.17c1.879,1.559 3.181,3.419 5.389,4.628z" fill="#272525"/><path d="M146.96679,195.99308c2.735,2.676 -3.257,3.435 -4.792,2.925c-2.097,-0.696 -5.177,-2.405 -7.187,-0.372c-1.732,1.753 -1.187,5.953 -2.994,8.299c-2.897,3.761 -10.872,4.425 -7.586,11.063c1.048,2.117 6.613,6.812 8.762,7.521c1.292,0.429 3.926,-0.073 4.542,-1.543c0.979,-2.336 -1.688,-7.264 2.853,-8.657c0.461,0.416 1.133,0.771 1.297,1.437c-3.144,3.248 0.979,9.241 -3.943,11.597c-6.196,2.965 -19.265,-9.811 -16.256,-16.098c1.545,-3.229 6.854,-4.684 8.734,-8.938c1.586,-3.589 1.514,-6.558 5.54,-7.873c3.749,-1.228 4.378,-0.408 7.886,0.64c1.037,0.308 2.094,-0.09 3.144,-0.001z" fill="#272525"/><path d="M137.73379,209.39908l0.599,-0.16c12.969,19.566 28.156,2.844 20.113,-12.767c0.108,-0.515 0.534,-0.882 0.948,-1.116c2.178,0.524 2.573,2.987 2.995,4.946c1.423,6.608 -0.014,13.324 -4.791,18.033c-6.921,6.821 -17.825,-0.759 -19.864,-8.936z" fill="#272525"/><path d="M206.8558,210.67508c-0.301,-0.263 -1.174,-0.726 -0.848,-1.276c0.198,-0.338 5.539,-4.127 7.036,-6.384c1.538,-2.319 3.229,-4.976 4.342,-7.554c0.425,-0.129 0.942,0.165 1.05,0.639c0.841,3.775 -7.898,15.156 -11.58,14.575z" fill="#272525"/><path d="M209.6898,209.26008c0.149,-0.507 0.535,-0.854 0.948,-1.117c3.726,0.592 4.071,5.901 8.884,4.842c4.647,-1.024 11.062,-9.715 5.738,-12.662c-2.404,-1.328 -6.562,1.344 -9.73,-0.211c0.277,-0.711 0.711,-1.528 1.099,-2.183c1.147,-1.946 2.271,0.263 3.494,0.373c2.79,0.251 5.53,-1.349 8.135,0.903c1.713,1.482 1.921,4.538 1.447,6.65c-1.12,4.998 -4.56,8.856 -9.233,10.053c-3.893,0.996 -5.863,-2.996 -9.23,-4.734c-0.607,-0.311 -1.342,-1.24 -1.552,-1.914z" fill="#272525"/><path d="M216.1898,215.78108c1.291,1.926 0.937,4.531 0.1,6.596c-2.143,5.288 -8.102,7.865 -13.176,7.447c-5.606,-0.461 -5.269,-7.16 -8.834,-8.938c-4.092,-2.036 -8.782,-4.649 -8.782,-10.373c0,-1.97 2.432,-4.278 3.146,-2.657c0.903,2.056 -0.854,6.768 4.293,10.053c3.407,2.18 4.332,1.777 5.986,5.904c0.883,2.2 4.646,3.754 6.738,3.299c2.967,-0.646 10.768,-4.719 9.779,-8.776c-1.5,-6.173 -9.765,-3.517 -13.873,-6.649c-2.315,-1.767 -4.522,-4.506 -4.191,-7.82c0.096,-0.957 1.679,-2.719 2.495,-2.021c0.356,0.308 0.14,3.072 0.749,4.097c1.882,3.166 4.435,6.692 8.385,6.386c4.577,-0.363 6.468,2.386 7.185,3.452z" fill="#272525"/><path d="M155.9088,218.87408c0.127,-1.047 1.105,-1.562 1.697,-2.288c0.464,-0.048 8.537,2.35 11.52,2.6c6.007,0.508 11.194,0.801 16.37,-2.658c0.988,-0.053 2.595,1.043 1.597,2.182c-1.849,2.104 -10.798,3.68 -13.575,3.83c-4.908,0.263 -13.241,-1.138 -17.609,-3.666z" fill="#272525"/><path d="M177.4266,172.13708c-4.2108,-0.7113 -8.2858,-2.3525 -13.0419,-4.8251c-6.9562,-3.6053 -10.0584,-6.4117 -15.7346,-12.1359c-6.3756,-6.4154 -9.3472,-13.5472 -6.9854,-21.9731c1.224,-4.3673 1.9241,-8.1969 6.1187,-9.6555c10.5132,-3.5951 22.0992,7.8299 24.6394,19.2466c1.8973,8.5178 1.3365,13.3313 5.1133,21.2321c1.2245,2.5305 2.6938,3.7452 3.9918,6.2374c-1.8984,0.9899 -1.9376,2.2393 -4.1013,1.8735z" fill="#96e700"/><path d="M180.8369,170.15558c-4.2168,-2.7772 -6.0341,-9.3793 -6.5799,-14.1463c-0.4919,-4.2888 -1.5472,-8.6269 -2.8829,-12.7738c-1.7893,-5.5547 -6.9466,-14.1944 -11.9553,-17.2254c-10.8467,-6.5659 -18.416,5.5431 -16.5219,15.384c1.9896,10.3358 12.7271,19.0818 21.0008,24.3292c1.2915,0.8191 11.9797,4.8292 11.1987,6.1764l-0.3105,0.1616c-12.8719,-2.5051 -32.4959,-16.5796 -34.8986,-30.7198c-0.9752,-5.7363 1.3153,-14.9335 5.7933,-18.372c4.1229,-3.1655 9.8251,-2.5804 14.2755,0.1821c3.3361,2.0712 6.1873,4.7917 8.1461,8.2928c4.6682,8.3521 6.5519,13.9105 7.8858,23.2428c0.7187,5.0253 2.1656,10.9984 6.9599,14.971c1.5378,1.2748 -0.2835,0.4408 -2.111,0.4974z" fill="#272525"/><path d="M155.4516,133.26368c2.9333,-1.5396 1.4548,-5.037 2.2602,-7.7268c0,0 0.12,2.3473 0.3528,3.596c0.4766,2.5634 -0.954,3.4244 -2.2782,5.2022c3.0991,10.3199 0.5575,10.5927 9.836,17.519c-0.9969,-2.6231 0.004,-7.0645 0.633,-9.7019c0.8655,-3.628 0.1284,-8.5725 0.1284,-8.5725c1.4462,3.4978 1.2304,7.2629 0.29,10.7595c0.2339,0.1706 3.0525,0.4942 4.9621,-0.7076c-0.1236,0.7296 -3.4314,2.0518 -5.1303,1.8712c-0.5824,2.1507 -1.1391,5.7743 0.6629,7.6123c5.1922,5.2927 2.6489,10.5081 8.8622,16.0799c0.8363,1.036 2.4495,1.6113 2.0654,2.428c-2.3833,0.7603 -6.0837,-7.4097 -10.1791,-8.8588c-2.3726,-0.8392 -5.0269,-0.4332 -7.0617,-2.3188c1.1897,0.1714 1.9893,0.7314 2.9459,0.8542c2.6666,0.3464 5.1081,0.7946 7.3428,2.6062c-0.0387,-0.9914 -0.4444,-1.6742 -0.6938,-2.5915c-1.6041,-5.8846 -6.7964,-9.8192 -9.2081,-11.483c-1.3541,1.1009 -2.355,3.4355 -4.3916,3.4064c-1.1135,-0.0157 -2.1783,0.0393 -3.3701,-0.9667c6.3555,1.5633 4.6515,-3.0345 7.527,-2.8242c-3.0146,-2.0097 -3.9357,-5.1641 -4.6124,-8.2821c-1.076,-0.0821 -2.1297,-0.5684 -2.97,-1.3052c-1.8303,1.208 -1.2702,5.1695 -4.0739,4.9079c0.6919,-0.6009 1.2142,-0.9683 1.5859,-1.5192c0.8463,-1.2534 0.6901,-2.7698 1.9723,-3.9817c-1.852,-2.71 -3.8559,-4.8269 -5.0164,-4.9487c2.6326,-1.5733 4.8749,5.821 8.427,6.0134c-0.3923,-3.4953 -1.1984,-7.1593 -3.1507,-10.159c-0.4599,-0.7069 -1.5166,-2.4147 -1.3256,-2.4969c1.2739,0.6182 2.8946,4.2635 3.608,5.5884z" fill="#272525"/><path d="M186.7515,172.01548c-2.3828,-0.9795 -4.3548,-1.2413 -6.8453,-0.1734c-2.2558,0.9661 -3.461,2.4909 -4.6999,6.1898c-0.1934,0.5773 -1.6718,0.3299 -1.5405,-0.5817c0.1909,-2.5805 0.8702,-4.6392 2.7918,-6.614c2.9364,-3.0169 8.7516,-1.8333 10.2939,1.1793z" fill="#272525"/></g><g fill-rule="evenodd"><path d="M167.71705,204.6295c-5.47113,-2.61384 8.7206,-23.80446 22.51286,-16.80019c14.04868,7.13491 8.65526,31.69081 8.65526,31.69081z" fill="#efab00"/><path d="M213.55862,215.3033c0,0 -32.01023,-6.00534 -37.46616,-7.68945c-7.3062,-2.25516 -8.51984,-5.53064 -7.6458,-9.47834c1.44567,-6.53004 6.28854,-4.45456 9.27878,-6.97106c2.98993,-2.51739 2.06328,-9.37892 9.0034,-6.39468c5.8049,2.49589 7.98293,-1.84007 10.9372,-0.82369c4.58191,1.5765 3.56035,6.15352 6.22511,8.83806c2.51699,2.53553 5.44102,0.5215 8.18619,3.51002c2.35175,2.56089 -0.48846,8.84338 2.7279,11.96825c5.24159,5.0933 -1.24662,7.04089 -1.24662,7.04089" fill="#59c059"/><path d="M177.52064,195.87337c-0.52997,-0.484 -0.56789,-1.3151 -0.08329,-1.84479l0.97268,-1.06511c0.484,-0.52997 1.31421,-0.56757 1.84479,-0.08329l2.83593,2.58951c0.53029,0.48489 0.56789,1.3151 0.083,1.84539l-0.97239,1.06451c-0.48429,0.53058 -1.31421,0.56757 -1.84478,0.08328l-2.83593,-2.58951" fill="#e8511c"/><path d="M175.71868,193.93244c0.60316,0.50269 1.22808,1.71853 1.93416,2.29998c-4.63563,4.37651 -7.46636,9.3416 -10.1184,8.29651l-0.01204,-0.00576c-1.89178,-1.10353 -3.13735,-3.96224 -1.0023,-5.27244c1.26684,-0.7781 0.80211,-2.71635 1.72792,-3.86451c1.33166,-1.65702 3.43369,-1.14842 4.1854,-1.01861c0.81769,0.14654 2.39115,-1.18044 3.28528,-0.43518" fill="#c18500"/><path d="M181.85856,194.35033c-1.13487,0.81156 -2.17572,1.70503 -3.13251,2.62385l-0.4827,-0.44514l-0.46465,-0.42098c0.97515,-0.9108 2.03119,-1.78961 3.17809,-2.57988z" fill="#c6431a"/><path d="M178.72592,196.97442c-4.50266,4.29948 -7.28868,9.09359 -9.88779,8.16996c-0.28909,-0.13812 -0.43365,-0.20717 -0.9241,-0.4193l-0.12046,-0.05755c-0.09034,-0.04316 -0.17179,-0.08947 -0.25925,-0.13865c2.65205,1.04509 5.48277,-3.92001 10.1184,-8.29651c0.19092,0.15779 0.38393,0.2648 0.59051,0.29691z" fill="#a06b00"/><path d="M183.31253,190.1774c-0.71801,0.00095 -1.30657,-0.58649 -1.30663,-1.30482l-0.0008,-0.27705c-0.00006,-0.71833 0.5868,-1.30568 1.30482,-1.30664l1.98688,-0.00135c0.71862,-0.00066 1.30657,0.58649 1.30692,1.30422l0.00051,0.27765c0.00035,0.71773 -0.58709,1.30629 -1.30482,1.30664l-1.98688,0.00135" fill="#e8511c"/><path d="M202.09815,193.04967c-0.44254,-0.20403 -0.90576,-0.39574 -1.38678,-0.58117c-8.37901,-3.24114 -14.35482,-1.33949 -18.85295,1.88212l-0.90149,-0.82276c4.4618,-3.08362 10.34527,-4.80746 18.51977,-1.64923c0.93795,0.35934 1.80784,0.75274 2.62146,1.17103" fill="#4ba04b"/><path d="M211.70391,208.8062c-0.05586,-0.71613 0.48424,-1.34803 1.20097,-1.40359l0.73163,-0.05733c0.71613,-0.05586 1.34774,0.48484 1.40388,1.20037l0.21102,2.70622c0.05586,0.71613 -0.48395,1.34742 -1.20097,1.40359l-0.73134,0.05673c-0.71613,0.05586 -1.34802,-0.48424 -1.40388,-1.20037l-0.21131,-2.70561" fill="#e8511c"/><path d="M201.69632,194.04204c-0.71433,-0.07644 -1.23646,-0.7224 -1.16002,-1.43673l0.07795,-0.72988c0.07584,-0.71461 0.72179,-1.23675 1.43641,-1.16091l2.69904,0.28711c0.71433,0.07644 1.23617,0.723 1.16002,1.43673l-0.07735,0.73017c-0.07584,0.71461 -0.72269,1.23706 -1.43702,1.16062l-2.69904,-0.28711" fill="#e8511c"/><path d="M168.62036,205.06105c5.42054,2.58967 11.47168,-20.56973 32.0927,-12.59329c16.41588,6.34989 13.91717,21.65702 11.36989,29.1055c-0.66461,1.9439 -2.8585,2.88644 -4.71112,2.00135z" fill="#ffbf00"/><path d="M194.21882,188.62065c-0.17466,-0.08345 -0.31187,-0.24221 -0.36119,-0.44553c-0.08704,-0.3582 0.13338,-0.71893 0.49129,-0.80537l4.39237,-1.06472c0.35822,-0.08555 0.71954,0.13367 0.80598,0.49158c0.08704,0.3582 -0.13338,0.71894 -0.49158,0.80598l-4.39207,1.06412c-0.15547,0.03742 -0.31108,0.01783 -0.44479,-0.04605" fill="#ffbf00"/><path d="M213.85052,200.31506c-0.03734,-0.01784 -0.07324,-0.0387 -0.10745,-0.06465l-3.64472,-2.67262c-0.29769,-0.21768 -0.36133,-0.6357 -0.14394,-0.93279c0.21828,-0.2974 0.63804,-0.36465 0.93279,-0.14394l3.64503,2.67351c0.29769,0.21768 0.36133,0.63571 0.14334,0.93251c-0.19232,0.2632 -0.54139,0.34351 -0.82506,0.20798" fill="#ffbf00"/><path d="M173.71491,196.32644c-0.13371,-0.06388 -0.24761,-0.17231 -0.31561,-0.31797l-1.92864,-4.08755c-0.15764,-0.33275 -0.01491,-0.7306 0.31904,-0.88767c0.33306,-0.15675 0.73089,-0.01551 0.88856,0.31873l1.92836,4.08815c0.15764,0.33275 0.01491,0.7306 -0.31904,0.88767c-0.18829,0.08907 -0.398,0.08209 -0.57266,-0.00136" fill="#ffbf00"/><path d="M208.51724,210.84026c-0.98232,-0.46931 -0.2547,-1.99695 0.72943,-1.52679c0.98292,0.46959 0.2547,1.99695 -0.72943,1.52679" fill="#efab00"/><path d="M200.04571,208.47037c-0.98232,-0.46931 -0.25471,-1.99695 0.72942,-1.52679c0.98292,0.46959 0.25471,1.99695 -0.72942,1.52679" fill="#efab00"/><path d="M196.09719,214.30512c-0.98232,-0.46931 -0.25471,-1.99696 0.72942,-1.52679c0.98292,0.46959 0.25531,1.99725 -0.72942,1.52679" fill="#efab00"/><path d="M182.80048,208.8903c-0.98232,-0.46931 -0.2547,-1.99695 0.72943,-1.52679c0.98232,0.46931 0.2547,1.99695 -0.72943,1.52679" fill="#efab00"/><path d="M190.65564,196.33825c-0.98232,-0.46931 -0.25471,-1.99695 0.72942,-1.52679c0.98232,0.46931 0.25471,1.99695 -0.72942,1.52679" fill="#efab00"/><path d="M200.40247,196.74561c-0.98232,-0.46931 -0.25441,-1.99756 0.72972,-1.52739c0.98232,0.46931 0.25441,1.99756 -0.72972,1.52739" fill="#efab00"/><path d="M191.36608,205.45933c-0.98232,-0.46931 -0.25471,-1.99695 0.72942,-1.52679c0.98232,0.46931 0.25471,1.99695 -0.72942,1.52679" fill="#efab00"/><path d="M182.62668,202.02382c-0.98232,-0.46931 -0.25471,-1.99695 0.72942,-1.52679c0.98232,0.46931 0.25471,1.99695 -0.72942,1.52679" fill="#efab00"/><path d="M207.0457,217.75364c-0.98232,-0.46931 -0.2547,-1.99695 0.72943,-1.52679c0.98232,0.46931 0.2547,1.99695 -0.72943,1.52679" fill="#efab00"/><path d="M206.73767,203.08376c-0.98292,-0.46959 -0.2553,-1.99725 0.72943,-1.52679c0.98232,0.46931 0.2547,1.99696 -0.72943,1.52679" fill="#efab00"/><path d="M177.77881,196.10797l0.46436,0.42158c-0.20629,-0.03272 -0.39958,-0.13912 -0.5905,-0.29691c0.04109,-0.03955 0.08218,-0.0791 0.12614,-0.12467" fill="#4ba04b"/></g><g fill-rule="evenodd"><path d="M266.6246,223.84115c-2.52589,5.51229 -23.94107,-8.33827 -17.15857,-22.24093c6.90902,-14.16114 31.54813,-9.16166 31.54813,-9.16166z" fill="#efab00"/><path d="M276.56292,177.83453c0,0 -5.49195,32.10229 -7.08847,37.58449c-2.13786,7.34138 -5.39349,8.60732 -9.35468,7.79661c-6.55235,-1.34092 -4.5547,-6.2164 -7.11876,-9.16595c-2.56495,-2.94923 -9.41076,-1.91281 -6.53804,-8.89984c2.40261,-5.84412 -1.96767,-7.95244 -0.99873,-10.9226c1.50292,-4.60657 6.09571,-3.65843 8.73724,-6.36585c2.4949,-2.55727 0.4343,-5.44867 3.37847,-8.24135c2.5229,-2.39246 8.85007,0.34677 11.92303,-2.91921c5.00871,-5.32248 7.05995,1.1337 7.05995,1.1337" fill="#59c059"/><path d="M257.7126,214.17904c-0.47545,0.53766 -1.30584,0.58888 -1.84322,0.11282l-1.08055,-0.9555c-0.53766,-0.47545 -0.58855,-1.30495 -0.11282,-1.84322l2.54376,-2.87703c0.47633,-0.53799 1.30584,-0.58888 1.84382,-0.11254l1.07994,0.95522c0.53827,0.47573 0.58855,1.30495 0.11282,1.84321l-2.54376,2.87703" fill="#e8511c"/><path d="M255.80078,216.01185c0.49296,-0.61113 1.69865,-1.25545 2.26872,-1.97075c4.45018,4.56495 9.45997,7.3158 8.45748,9.98424l-0.00556,0.01214c-1.07309,1.90921 -3.91149,3.2004 -5.25571,1.08661c-0.79829,-1.25422 -2.72885,-0.75851 -3.89169,-1.66581c-1.67814,-1.30496 -1.20326,-3.41486 -1.0855,-4.16855c0.13342,-0.81994 -1.21859,-2.37194 -0.48774,-3.27788" fill="#c18500"/><path d="M256.12028,209.86607c0.82963,1.12173 1.73965,2.14813 2.67368,3.09009l-0.43735,0.48977l-0.41349,0.47134c-0.9263,-0.96044 -1.82191,-2.00227 -2.63045,-3.13637z" fill="#c6431a"/><path d="M258.79421,212.95628c4.37104,4.43323 9.20915,7.14212 8.32726,9.75569c-0.13347,0.29127 -0.2002,0.43691 -0.40444,0.9307l-0.05562,0.12136c-0.04171,0.09102 -0.0867,0.1732 -0.13448,0.26144c1.00249,-2.66844 -4.00731,-5.41929 -8.45749,-9.98424c0.15471,-0.19343 0.25861,-0.38812 0.28742,-0.59519z" fill="#a06b00"/><path d="M251.92461,208.47911c0.01245,0.71791 -0.56549,1.31579 -1.28373,1.32736l-0.277,0.00523c-0.71824,0.01157 -1.31491,-0.56582 -1.32736,-1.28372l-0.03317,-1.9866c-0.01217,-0.71851 0.56549,-1.3158 1.28312,-1.32764l0.2776,-0.00495c0.71763,-0.01184 1.31552,0.5661 1.32736,1.28372l0.03317,1.9866" fill="#e8511c"/><path d="M254.49567,189.6499c-0.19692,0.44575 -0.38119,0.91198 -0.55888,1.39591c-3.10654,8.42984 -1.10943,14.37443 2.1838,18.82039l-0.80821,0.91455c-3.15467,-4.41184 -4.97252,-10.26695 -1.9456,-18.49098c0.34427,-0.94359 0.72369,-1.81967 1.1289,-2.63988" fill="#4ba04b"/><path d="M270.09635,179.79304c-0.71515,0.06732 -1.35561,-0.46259 -1.42264,-1.17834l-0.06903,-0.73062c-0.06732,-0.71515 0.46319,-1.35533 1.17773,-1.42292l2.70249,-0.25433c0.71515,-0.06732 1.355,0.46231 1.42264,1.17834l0.06843,0.73034c0.06732,0.71515 -0.46259,1.3556 -1.17773,1.42292l-2.70188,0.25461" fill="#e8511c"/><path d="M255.49435,190.03579c-0.06499,0.71546 -0.7025,1.24787 -1.41797,1.18288l-0.73103,-0.06625c-0.71574,-0.06439 -1.24815,-0.7019 -1.18377,-1.41763l0.24385,-2.70329c0.06499,-0.71546 0.70311,-1.24759 1.41796,-1.18288l0.73131,0.06565c0.71574,0.06439 1.24848,0.70278 1.18349,1.41824l-0.24385,2.70329" fill="#e8511c"/><path d="M267.04164,222.93105c2.50253,-5.46132 -20.75081,-11.1408 -13.10562,-31.88691c6.08618,-16.51546 21.43137,-14.26221 28.91969,-11.83454c1.9543,0.6334 2.93185,2.81191 2.07654,4.67847z" fill="#ffbf00"/><path d="M250.1934,197.59914c-0.08064,0.17598 -0.23718,0.3157 -0.43969,0.36828c-0.35676,0.09277 -0.72097,-0.12185 -0.81314,-0.47833l-1.13492,-4.37475c-0.09127,-0.35681 0.12213,-0.72158 0.47861,-0.81375c0.35676,-0.09277 0.72098,0.12185 0.81375,0.47861l1.13432,4.37447c0.03991,0.15485 0.02281,0.31075 -0.03892,0.44547" fill="#ffbf00"/><path d="M261.57193,177.78269c-0.01724,0.03762 -0.03752,0.07385 -0.06292,0.10847l-2.61391,3.68705c-0.21288,0.30114 -0.62984,0.37146 -0.93037,0.15886c-0.30086,-0.21349 -0.37482,-0.63212 -0.15886,-0.93037l2.61479,-3.68738c0.21288,-0.30114 0.62984,-0.37146 0.93009,-0.15825c0.26625,0.18808 0.35214,0.53582 0.22117,0.82163" fill="#ffbf00"/><path d="M258.22656,217.97703c-0.06173,0.13471 -0.16832,0.25034 -0.31288,0.32067l-4.05614,1.99385c-0.33018,0.16295 -0.73027,0.02661 -0.89266,-0.30478c-0.16207,-0.33051 -0.02722,-0.73055 0.30446,-0.89355l4.05674,-1.99358c0.33018,-0.16295 0.73027,-0.02661 0.89266,0.30478c0.09207,0.18684 0.08845,0.39663 0.00782,0.57261" fill="#ffbf00"/><path d="M272.18119,182.94673c-0.45351,0.98971 -1.99262,0.28665 -1.53827,-0.70488c0.45379,-0.99032 1.99262,-0.28665 1.53827,0.70488" fill="#efab00"/><path d="M269.94726,191.45512c-0.45351,0.98971 -1.99262,0.28665 -1.53827,-0.70488c0.45379,-0.99032 1.99262,-0.28665 1.53827,0.70488" fill="#efab00"/><path d="M275.84449,195.3097c-0.45351,0.98971 -1.99262,0.28666 -1.53828,-0.70488c0.45379,-0.99032 1.9929,-0.28726 1.53828,0.70488" fill="#efab00"/><path d="M270.64331,208.69142c-0.45351,0.98971 -1.99262,0.28665 -1.53827,-0.70488c0.45351,-0.98971 1.99262,-0.28665 1.53827,0.70488" fill="#efab00"/><path d="M257.96708,201.03828c-0.45351,0.98971 -1.99262,0.28665 -1.53827,-0.70488c0.45351,-0.98971 1.99262,-0.28665 1.53827,0.70488" fill="#efab00"/><path d="M258.21829,191.28618c-0.45351,0.98971 -1.99323,0.28637 -1.53888,-0.70516c0.45351,-0.98971 1.99323,-0.28637 1.53888,0.70516" fill="#efab00"/><path d="M267.0756,200.18187c-0.45351,0.98971 -1.99262,0.28665 -1.53827,-0.70488c0.45351,-0.98971 1.99262,-0.28665 1.53827,0.70488" fill="#efab00"/><path d="M263.78049,208.97516c-0.45351,0.98971 -1.99262,0.28665 -1.53827,-0.70488c0.45351,-0.98971 1.99262,-0.28665 1.53827,0.70488" fill="#efab00"/><path d="M279.11724,184.30737c-0.45351,0.98971 -1.99262,0.28665 -1.53827,-0.70488c0.45351,-0.98971 1.99262,-0.28665 1.53827,0.70488" fill="#efab00"/><path d="M264.45417,184.85029c-0.45379,0.99032 -1.9929,0.28726 -1.53828,-0.70488c0.45351,-0.98971 1.99262,-0.28665 1.53828,0.70488" fill="#efab00"/><path d="M257.94303,213.91715l0.41409,-0.47105c-0.02941,0.20679 -0.1327,0.40176 -0.28741,0.59518c-0.0402,-0.04045 -0.0804,-0.0809 -0.12668,-0.12413" fill="#4ba04b"/></g></g></g></g></svg>