<svg version="1.1" xmlns="http://www.w3.org/2000/svg" xmlns:xlink="http://www.w3.org/1999/xlink" width="412.8994" height="144.12763" viewBox="0,0,412.8994,144.12763"><g transform="translate(-41.06081,-94.41817)"><g data-paper-data="{&quot;isPaintingLayer&quot;:true}" fill-rule="nonzero" stroke-linecap="butt" stroke-linejoin="miter" stroke-miterlimit="10" stroke-dasharray="" stroke-dashoffset="0" style="mix-blend-mode: normal"><g><path d="M447.21021,167.98198c0,35.24339 -89.4086,63.81382 -199.6997,63.81382c-110.2911,0 -199.6997,-28.57042 -199.6997,-63.81382c0,-35.24339 89.4086,-63.81381 199.6997,-63.81381c110.2911,0 199.6997,28.57041 199.6997,63.81381z" fill="#d6ab2b" stroke="#000000" stroke-width="13.5"/><path d="M450.21021,161.98198c0,35.24339 -89.4086,63.81382 -199.6997,63.81382c-110.2911,0 -199.6997,-28.57042 -199.6997,-63.81382c0,-35.24339 89.4086,-63.81381 199.6997,-63.81381c110.2911,0 199.6997,28.57041 199.6997,63.81381z" fill="#d6ab2b" stroke="#000000" stroke-width="7.5"/><path d="M345.35115,184.62081c0.17523,3.72754 -7.06925,7.09654 -16.18101,7.52489c-9.11176,0.42834 -16.64035,-2.24618 -16.81558,-5.97372c-0.17523,-3.72754 7.06926,-7.09654 16.18102,-7.52489c9.11176,-0.42834 16.64035,2.24618 16.81558,5.97372z" fill="#211b07" stroke="none" stroke-width="0"/><path d="M125.23879,148.3236c0.46832,3.70215 -6.48827,7.63136 -15.53797,8.77613c-9.0497,1.14477 -16.76559,-0.92839 -17.2339,-4.63054c-0.46832,-3.70215 6.48828,-7.63136 15.53798,-8.77613c9.0497,-1.14477 16.76557,0.92839 17.23389,4.63054z" fill="#211b07" stroke="none" stroke-width="0"/><path d="M203.23879,178.32361c0.46831,3.70215 -6.48827,7.63136 -15.53797,8.77613c-9.0497,1.14477 -16.76558,-0.92839 -17.2339,-4.63054c-0.46831,-3.70215 6.48828,-7.63136 15.53798,-8.77613c9.0497,-1.14477 16.76558,0.92839 17.23389,4.63054z" fill="#211b07" stroke="none" stroke-width="0"/><path d="M326.07064,134.52346c-0.70651,3.66416 -8.5402,5.23452 -17.49704,3.50749c-8.95684,-1.72703 -15.64506,-6.09745 -14.93855,-9.76161c0.70651,-3.66416 8.54021,-5.23452 17.49705,-3.50749c8.95684,1.72703 15.64505,6.09745 14.93854,9.76161z" fill="#211b07" stroke="none" stroke-width="0"/><path d="M423.36884,163.26393c0.02993,3.73153 -7.34027,6.81584 -16.46179,6.889c-9.12152,0.07316 -16.54025,-2.89254 -16.57018,-6.62407c-0.02993,-3.73153 7.34028,-6.81585 16.4618,-6.889c9.12152,-0.07316 16.54024,2.89254 16.57017,6.62408z" fill="#211b07" stroke="none" stroke-width="0"/><path d="M242.37456,143.49465c-0.29778,5.2014 -10.84634,8.82789 -23.56087,8.09998c-12.71453,-0.7279 -22.78032,-5.53455 -22.48254,-10.73595c0.29778,-5.2014 10.84636,-8.82789 23.56089,-8.09998c12.71453,0.7279 22.7803,5.53455 22.48252,10.73596z" fill="#211b07" stroke="none" stroke-width="0"/></g></g></g></svg>