<svg version="1.1" xmlns="http://www.w3.org/2000/svg" xmlns:xlink="http://www.w3.org/1999/xlink" width="139.81571" height="109.54622" viewBox="0,0,139.81571,109.54622"><g transform="translate(-171.00037,-120.81763)"><g data-paper-data="{&quot;isPaintingLayer&quot;:true}" fill-rule="nonzero" stroke="none" stroke-linecap="butt" stroke-linejoin="miter" stroke-miterlimit="10" stroke-dasharray="" stroke-dashoffset="0" style="mix-blend-mode: normal"><g><g stroke-width="1"><path d="M226.6839,166.4036c0.7436,-2.3218 1.9405,-3.3245 2.6156,-5.6683c2.0663,-7.3101 1.3002,-10.462 1.6697,-18.0215c0.4945,-10.1331 8.7201,-21.6027 18.2354,-20.0744c3.7986,0.6308 4.9618,3.8017 6.6491,7.3558c3.2578,6.8565 1.7659,13.3897 -2.7428,19.8115c-4.0103,5.7277 -6.2508,8.5823 -11.6679,12.6865c-3.7027,2.8137 -6.9447,4.8151 -10.4394,6.0416c-1.7967,0.63 -2.5515,-1.5638 -4.3197,-2.1312z" fill="#96e700"/><path d="M226.1777,164.594c2.2741,-3.579 3.6164,-6.7864 3.4921,-11.188c-0.2303,-8.1749 0.5621,-13.2028 3.3263,-21.0297c1.1589,-3.2808 3.1984,-6.0255 5.7454,-8.2863c3.3986,-3.015 8.187,-4.3532 12.1766,-2.2532c4.3323,2.2823 7.6416,9.8074 7.6514,14.8549c0.0242,12.4413 -14.6844,27.3565 -25.3192,31.3888l-0.2886,-0.0925c-0.8648,-1.0372 7.684,-6.0347 8.6675,-6.9251c6.2996,-5.7022 14.1934,-14.7558 14.3759,-23.8853c0.173,-8.6903 -8.0767,-17.9301 -16.3851,-10.723c-3.8348,3.3279 -6.9744,11.4713 -7.688,16.4825c-0.5337,3.7415 -0.7975,7.6041 -0.5881,11.3432c0.2337,4.1553 -0.3504,10.0669 -3.5469,13.0605c-1.571,0.2203 -2.5554,-1.2763 -1.6193,-2.7468z" fill="#272525"/><path d="M249.7613,127.1366c0.1705,0.0577 -0.6195,1.6097 -0.9674,2.2532c-1.4747,2.7324 -1.9102,5.9573 -2.0007,9.007c3.0566,-0.4196 4.4696,-6.9719 6.8575,-5.7986c-0.9946,0.1876 -2.5766,2.16 -3.9845,4.6345c-0.9689,1.7856 -1.9529,1.7402 -2.8772,1.8884c-0.3642,2.7436 -0.9363,5.5362 -3.3987,7.4871c2.4732,-0.385 1.3273,3.7107 6.7089,1.9073c-0.9596,0.9537 -1.8834,0.9823 -2.8446,1.0755c-1.7589,0.1707 -2.7901,-1.7767 -4.0376,-2.632c-1.9674,1.6086 -6.1763,5.3794 -7.1441,10.5811c-0.1517,0.8114 -0.453,1.431 -0.4135,2.2911c1.8022,-1.7255 3.8813,-2.2861 6.1611,-2.775c0.8154,-0.1756 1.4691,-0.7149 2.4846,-0.9482c-1.6245,1.774 -3.948,1.6125 -5.9387,2.5069c-3.4397,1.5434 -5.2484,7.9017 -7.3626,7.4146c-0.3897,-0.6782 0.1544,-0.3244 0.8034,-1.2789c4.9734,-5.2596 2.406,-9.587 6.5182,-14.5313c1.4279,-1.7173 0.6881,-4.8104 0.0313,-6.6283c-1.4562,0.278 -4.409,-0.6299 -4.5678,-1.252c1.7364,0.9027 4.1501,0.422 4.3411,0.2585c-1.062,-2.9559 -1.5167,-6.1949 -0.515,-9.3224c0,0 -0.2855,4.3271 0.7207,7.4016c0.7322,2.2348 1.9128,6.0036 1.2355,8.3414c7.5275,-6.6477 5.3137,-6.7026 7.2569,-15.8446c-1.2694,-1.4429 -2.5672,-2.0854 -2.3372,-4.3345c0.1129,-1.0968 0.0494,-3.1343 0.0494,-3.1343c0.8882,2.2691 -0.1401,5.3975 2.5046,6.5197c0.5226,-1.1955 1.6647,-4.4629 2.7164,-5.0878z" fill="#272525"/></g><path d="M189.163,222.229c-1.549,-1.062 -3.128,4.17 -4.02,3.453c-0.892,-0.72 0.726,-2.81 1.86,-4.065c1.9,-2.105 5.22,0.036 3.687,3.645c-0.981,2.31 -1.023,2.646 -1.685,2.396c-1.049,-0.404 1.706,-4.371 0.158,-5.429z" fill="#272525" stroke-width="1"/><path d="M183.943,217.896c-1.625,-1.31 -3.64,3.726 -4.558,2.848c-0.919,-0.876 0.958,-2.735 2.263,-3.826c2.184,-1.829 5.638,0.896 3.757,4.311c-1.204,2.188 -1.271,2.521 -1.969,2.156c-1.109,-0.578 2.659,-3.76 0.507,-5.489z" fill="#272525" stroke-width="1"/><path d="M176.532,192.307c0.336,-1.728 -4.295,-1.455 -4.017,-2.486c0.278,-1.028 2.447,-0.256 3.804,0.354c2.272,1.021 1.653,4.685 -1.683,4.476c-2.136,-0.133 -2.415,-0.062 -2.43,-0.733c-0.024,-1.072 3.99,0.116 4.326,-1.611z" fill="#272525" stroke-width="1"/><path d="M176.774,186.342c0.506,-1.876 -4.11,-2.057 -3.715,-3.162c0.395,-1.104 2.465,-0.022 3.746,0.793c2.145,1.365 1.111,5.336 -2.186,4.754c-2.111,-0.375 -2.397,-0.324 -2.334,-1.067c0.098,-1.181 3.819,1.167 4.489,-1.318z" fill="#272525" stroke-width="1"/><path d="M265.925,218.011c-1.249,1.441 4.002,4.646 3.185,5.458c-0.817,0.811 -3.16,-1.888 -4.127,-3.298c-1.613,-2.36 0.942,-5.472 4.01,-3.237c1.963,1.434 2.268,1.534 1.92,2.187c-0.554,1.029 -3.739,-2.553 -4.988,-1.11z" fill="#272525" stroke-width="1"/><path d="M261.988,222.919c-1.488,1.479 2.812,4.468 1.843,5.28c-0.97,0.812 -2.36,-1.481 -3.144,-3.04c-1.312,-2.609 1.807,-5.763 4.635,-3.194c1.812,1.643 2.707,2.354 2.25,3.025c-0.728,1.065 -3.61,-4.029 -5.584,-2.071z" fill="#272525" stroke-width="1"/><path d="M278.926,203.014c-0.865,1.381 3.928,3.321 3.344,4.117c-0.584,0.794 -2.879,-1.134 -3.861,-2.177c-1.646,-1.747 0.105,-4.714 2.949,-3.274c1.822,0.92 2.091,0.963 1.879,1.557c-0.333,0.94 -3.445,-1.607 -4.311,-0.223z" fill="#272525" stroke-width="1"/><path d="M276.243,207.678c-1.062,1.448 2.907,3.344 2.196,4.159c-0.711,0.815 -2.16,-0.905 -3.008,-2.101c-1.423,-2 0.795,-5.078 3.48,-3.33c1.72,1.121 2.561,1.59 2.259,2.216c-0.475,0.993 -3.52,-2.862 -4.927,-0.944z" fill="#272525" stroke-width="1"/><path d="M292.628,170.699c-0.651,-2.018 -0.181,-4.021 1.054,-4.473c1.232,-0.452 2.76,0.816 3.412,2.834c0.651,2.018 0.182,4.021 -1.053,4.473c-1.234,0.452 -2.762,-0.816 -3.413,-2.834z" fill="#272525" stroke-width="1"/><path d="M300.572,168.206c0.113,-1.725 1.06,-3.058 2.113,-2.98c1.054,0.079 1.814,1.54 1.703,3.265c-0.113,1.724 -1.061,3.058 -2.113,2.979c-1.054,-0.079 -1.817,-1.541 -1.703,-3.264z" fill="#272525" stroke-width="1"/><path d="M269.436,148.406c2.692,0.761 4.008,3.747 5.438,6.323c1.48,-3.161 2.911,-7.201 6.206,-6.791c3.626,0.41 4.781,4.567 5.056,8.431c7.192,-3.806 15.595,-3.747 19.991,3.278c3.023,4.859 4.504,9.601 2.968,15.221c-2.197,8.079 -10.93,10.188 -18.73,8.841c-1.758,-0.293 -2.911,-2.399 -4.668,-2.752c-4.01,-0.878 -7.363,0.293 -10.766,-2.107c-0.769,5.036 6.041,5.913 10.766,5.913c0,4.332 -2.418,7.903 -6.152,9.543c-1.677,0.721 -4.694,-0.352 -6.261,0.41c-0.876,1.463 -1.758,3.422 -1.647,5.443c4.174,0 9.779,-4.098 10.766,0.234c0.988,4.332 -0.441,8.314 -2.967,11.768c-1.704,2.342 -5.493,2.576 -8.184,1.756c-3.185,-0.995 -4.228,-4.624 -7.525,-5.093c-2.472,-0.35 -3.789,1.932 -5.053,4.215c4.228,1.347 8.514,-0.643 11.04,3.103c2.529,3.691 0.714,7.792 -3.239,9.604c-5,2.283 -8.513,6.32 -11.865,1.757c-2.008,-2.763 -3.15,-5.466 -5.603,-7.2c-0.768,-0.544 -4.534,-3.859 -5.438,-3.338c-4.063,2.339 -11.752,5.62 -20.485,4.273c-4.45,-0.704 -6.702,-2.578 -11.205,-2.812c-2.373,-0.133 -4.188,1.025 -6.152,1.055c-2.263,0.037 -4.634,-1.141 -6.81,-2.928c-2.472,-2.049 -3.516,-0.877 -4.944,2.051c-1.428,2.986 -0.33,6.733 -2.362,9.309c-1.703,2.167 -3.515,-0.761 -5.877,-1.99c-4.119,-2.166 -9.447,-6.382 -8.788,-11.24c0.77,-5.619 10.436,-7.726 9.832,-13.406c-0.333,-3.072 -2.634,-6.545 -5.603,-7.024c-1.441,-0.231 -3.286,1.722 -4.668,1.933c-3.789,0.586 -4.559,-5.562 -3.954,-9.602c0.768,-5.153 2.581,-9.367 7.14,-11.299c4.888,-2.049 6.921,2.342 11.095,5.679l4.833,-7.025c-1.628,-1.972 -1.397,-5.123 -2.087,-7.26c-0.848,-2.623 -3.123,-3.641 -5.877,-5.093c2.91,-1.815 6.425,-1.991 9.062,0.176c1.788,1.475 2.578,4.496 4.229,5.62c1.036,0.706 2.827,0.209 4.119,-0.468c6.647,-3.513 11.37,-4.976 18.675,-3.513c7.689,1.522 13.292,5.503 20.981,4.215c7.743,-1.287 15.488,-9.366 13.95,-13.113c1.647,-4.215 6.591,-7.318 10.763,-6.097z" fill="#babaff" stroke-width="1"/><path d="M286.96,154.21c-0.028,0.528 -1.147,1.039 -1.246,0.234c-0.672,-5.444 -7.817,-7.435 -10.454,0.527c-0.193,0.585 -0.996,-0.343 -0.767,-0.937c4.887,-12.586 12.707,-4.215 12.467,0.176z" fill="#272525" stroke-width="1"/><path d="M274.107,152.396c0.33,0.812 -0.385,1.63 -0.879,0.937c-3.295,-4.625 -7.862,-4.708 -9.438,-3.443c-2.019,1.621 -3.964,8.126 -0.009,11.99c0.373,0.366 0.734,2.5 -1.188,1.256c-5.456,-3.53 -6.034,-13.492 0.448,-16.225c5.738,-2.419 9.605,1.889 11.066,5.485z" fill="#272525" stroke-width="1"/><path d="M275.37,156.273c3.305,7.166 -5.849,12.337 -8.983,5.479c-3.616,-7.906 6.25,-11.401 8.983,-5.479z" fill="#272525" stroke-width="1"/><path d="M285.102,181.807c-3.201,0.713 -6.572,-0.056 -9.231,-2.074c-0.029,1.358 1.317,2.97 2.396,3.563c2.411,1.333 8.354,-0.304 9.231,2.181c1.901,5.369 -9.563,12.16 -13.924,10.215c-0.794,-0.354 -1.32,-1.687 -0.618,-1.61c6.096,0.646 11.543,-3.06 12.146,-6.953c0.125,-0.812 -0.067,-1.479 -0.851,-1.755c-3.263,-1.155 -8.222,1.016 -9.933,-4.203c-0.471,-1.437 -0.701,-3.155 -0.25,-4.628c2.617,3.43 6.976,3.195 10.281,2.714c2.481,-0.362 5.405,3.326 8.187,3.829c4.707,0.854 8.662,0.013 11.979,-3.829c8.445,-9.792 1.184,-25.724 -11.879,-23.247c-1.722,0.326 -3.431,0.742 -5.142,1.117c-0.437,-0.612 -0.175,-1.409 0.103,-2.021c5.131,-2.905 13.516,-1.784 17.965,2.181c8.691,7.744 6.319,24.329 -5.039,27.556c-5.337,1.511 -11.076,0.858 -15.421,-3.036z" fill="#272525" stroke-width="1"/><path d="M284.502,154.464c4.698,5.35 -0.904,11.2 -4.791,7.926c-2.343,-1.973 -2.091,-8.385 1.447,-8.831c1.083,-0.135 2.557,0.01 3.344,0.905z" fill="#272525" stroke-width="1"/><path d="M274.072,157.763c0.896,2.923 -0.129,5.288 -2.711,5.346c-1.803,0.074 -3.653,-2.082 -3.028,-5.081c0.37,-1.779 1.722,-2.574 3.038,-2.482c1.152,0.081 2.279,0.842 2.701,2.217z" fill="#ffffff" stroke-width="1"/><path d="M272.625,159.538c0.455,0 0.867,0.197 1.165,0.515c0.298,0.318 0.483,0.757 0.483,1.241c0,0.484 -0.185,0.923 -0.483,1.241c-0.298,0.318 -0.71,0.515 -1.165,0.515c-0.455,0 -0.867,-0.197 -1.165,-0.515c-0.298,-0.318 -0.483,-0.757 -0.483,-1.241c0,-0.484 0.185,-0.923 0.483,-1.241c0.298,-0.318 0.71,-0.515 1.165,-0.515z" fill="#272525" stroke-width="1"/><path d="M282.971,161.278c-0.673,0.275 -1.353,0.149 -1.787,-0.131c-1.521,-0.98 -2.226,-4.604 -0.021,-5.487c3.124,-1.254 5.099,4.272 1.808,5.618z" fill="#ffffff" stroke-width="1"/><path d="M283.018,158.629c0.375,0 0.715,0.162 0.961,0.425c0.247,0.262 0.399,0.625 0.399,1.025c0,0.4 -0.152,0.763 -0.399,1.025c-0.246,0.263 -0.586,0.425 -0.961,0.425c-0.375,0 -0.715,-0.162 -0.961,-0.425c-0.247,-0.262 -0.399,-0.625 -0.399,-1.025c0,-0.4 0.152,-0.763 0.399,-1.025c0.246,-0.263 0.586,-0.425 0.961,-0.425z" fill="#272525" stroke-width="1"/><path d="M257.9,159.571c-2.809,3.661 -3.969,5.552 -8.283,7.66c-6.542,3.196 -12.453,1.232 -20.462,-2.181c-14.16,-6.036 -24.605,6.451 -28.847,3.458c-2.065,-1.457 -2.384,-5.095 -5.041,-6.649c-1.865,-1.091 -4.644,-1.359 -6.488,-0.106c1.249,0.514 2.599,0.766 3.743,1.542c5.232,3.55 -0.679,7.71 4.991,10.214c-5.959,6.11 -7.301,13.834 -6.188,21.438c-0.82,0.17 -1.591,0.513 -2.396,0.744c-3.634,-7.193 0.688,-15.772 5.739,-20.692c-0.755,-1.232 -2.152,-2.264 -2.296,-3.831c-0.178,-1.941 1.11,-2.819 -0.25,-4.681c-1.56,-2.136 -3.704,-3.547 -6.189,-4.097c2.599,-2.735 7.074,-4.125 10.032,-2.819c3.572,1.577 3.127,4.723 5.29,6.916c1.525,1.544 4.183,-0.52 5.49,-1.437c3.564,-2.501 7.394,-4.795 11.729,-5.213c9.745,-0.941 16.65,5.676 25.752,6.65c6.498,0.695 8.651,-9.065 13.674,-8.086v1.17z" fill="#272525" stroke-width="1"/><path d="M305.044,165.391c-0.288,-1.169 -0.618,-2.633 -2.047,-2.868c-1.214,-0.199 -2.472,1.171 -2.944,2.229c-0.315,-5.202 6.261,-5.042 4.991,0.639z" fill="#272525" stroke-width="1"/><path d="M289.893,169.412c-5.121,-6.407 3.008,-11.463 7.037,-5.373c0.189,0.288 0.984,1.364 0.631,1.001c-1.705,-1.75 -4.688,-2.082 -5.771,-1.534c-1.688,0.854 -2.579,2.413 -1.897,5.906z" fill="#272525" stroke-width="1"/><path d="M188.281,197.798v0.745c-1.241,0.865 -1.675,3.198 -3.344,1.436c-1.084,-1.145 -2.952,-4.276 -4.342,-4.732c-2.104,-0.688 -3.248,3.59 -6.338,1.915c-6.904,-3.742 -1.687,-19.856 5.041,-23.354c2.001,-1.04 3.879,-0.582 5.739,0.746c1.507,1.074 4.356,2.867 5.541,4.202c0.336,0.38 0.471,1.149 0.349,1.648c-0.969,3.952 -7.704,-6.484 -12.577,-2.925c-4.53,3.307 -8.175,15.72 -2.146,16.861c2.316,0.438 4.234,-3.201 6.688,-1.17c1.879,1.559 3.181,3.419 5.389,4.628z" fill="#272525" stroke-width="1"/><path d="M201.506,196.489c2.735,2.676 -3.257,3.435 -4.792,2.925c-2.097,-0.696 -5.177,-2.405 -7.187,-0.372c-1.732,1.753 -1.187,5.953 -2.994,8.299c-2.897,3.761 -10.872,4.425 -7.586,11.063c1.048,2.117 6.613,6.812 8.762,7.521c1.292,0.429 3.926,-0.073 4.542,-1.543c0.979,-2.336 -1.688,-7.264 2.853,-8.657c0.461,0.416 1.133,0.771 1.297,1.437c-3.144,3.248 0.979,9.241 -3.943,11.597c-6.196,2.965 -19.265,-9.811 -16.256,-16.098c1.545,-3.229 6.854,-4.684 8.734,-8.938c1.586,-3.589 1.514,-6.558 5.54,-7.873c3.749,-1.228 4.378,-0.408 7.886,0.64c1.037,0.308 2.094,-0.09 3.144,-0.001z" fill="#272525" stroke-width="1"/><path d="M192.273,209.895l0.599,-0.16c12.969,19.566 28.156,2.844 20.113,-12.767c0.108,-0.515 0.534,-0.882 0.948,-1.116c2.178,0.524 2.573,2.987 2.995,4.946c1.423,6.608 -0.014,13.324 -4.791,18.033c-6.921,6.821 -17.825,-0.759 -19.864,-8.936z" fill="#272525" stroke-width="1"/><path d="M261.395,211.171c-0.301,-0.263 -1.174,-0.726 -0.848,-1.276c0.198,-0.338 5.539,-4.127 7.036,-6.384c1.538,-2.319 3.229,-4.976 4.342,-7.554c0.425,-0.129 0.942,0.165 1.05,0.639c0.841,3.775 -7.898,15.156 -11.58,14.575z" fill="#272525" stroke-width="1"/><path d="M264.229,209.756c0.149,-0.507 0.535,-0.854 0.948,-1.117c3.726,0.592 4.071,5.901 8.884,4.842c4.647,-1.024 11.062,-9.715 5.738,-12.662c-2.404,-1.328 -6.562,1.344 -9.73,-0.211c0.277,-0.711 0.711,-1.528 1.099,-2.183c1.147,-1.946 2.271,0.263 3.494,0.373c2.79,0.251 5.53,-1.349 8.135,0.903c1.713,1.482 1.921,4.538 1.447,6.65c-1.12,4.998 -4.56,8.856 -9.233,10.053c-3.893,0.996 -5.863,-2.996 -9.23,-4.734c-0.607,-0.311 -1.342,-1.24 -1.552,-1.914z" fill="#272525" stroke-width="1"/><path d="M270.729,216.277c1.291,1.926 0.937,4.531 0.1,6.596c-2.143,5.288 -8.102,7.865 -13.176,7.447c-5.606,-0.461 -5.269,-7.16 -8.834,-8.938c-4.092,-2.036 -8.782,-4.649 -8.782,-10.373c0,-1.97 2.432,-4.278 3.146,-2.657c0.903,2.056 -0.854,6.768 4.293,10.053c3.407,2.18 4.332,1.777 5.986,5.904c0.883,2.2 4.646,3.754 6.738,3.299c2.967,-0.646 10.768,-4.719 9.779,-8.776c-1.5,-6.173 -9.765,-3.517 -13.873,-6.649c-2.315,-1.767 -4.522,-4.506 -4.191,-7.82c0.096,-0.957 1.679,-2.719 2.495,-2.021c0.356,0.308 0.14,3.072 0.749,4.097c1.882,3.166 4.435,6.692 8.385,6.386c4.577,-0.363 6.468,2.386 7.185,3.452z" fill="#272525" stroke-width="1"/><path d="M210.448,219.37c0.127,-1.047 1.105,-1.562 1.697,-2.288c0.464,-0.048 8.537,2.35 11.52,2.6c6.007,0.508 11.194,0.801 16.37,-2.658c0.988,-0.053 2.595,1.043 1.597,2.182c-1.849,2.104 -10.798,3.68 -13.575,3.83c-4.908,0.263 -13.241,-1.138 -17.609,-3.666z" fill="#272525" stroke-width="1"/><path d="M231.9658,172.633c-4.2108,-0.7113 -8.2858,-2.3525 -13.0419,-4.8251c-6.9562,-3.6053 -10.0584,-6.4117 -15.7346,-12.1359c-6.3756,-6.4154 -9.3472,-13.5472 -6.9854,-21.9731c1.224,-4.3673 1.9241,-8.1969 6.1187,-9.6555c10.5132,-3.5951 22.0992,7.8299 24.6394,19.2466c1.8973,8.5178 1.3365,13.3313 5.1133,21.2321c1.2245,2.5305 2.6938,3.7452 3.9918,6.2374c-1.8984,0.9899 -1.9376,2.2393 -4.1013,1.8735z" fill="#96e700" stroke-width="1"/><path d="M235.3761,170.6515c-4.2168,-2.7772 -6.0341,-9.3793 -6.5799,-14.1463c-0.4919,-4.2888 -1.5472,-8.6269 -2.8829,-12.7738c-1.7893,-5.5547 -6.9466,-14.1944 -11.9553,-17.2254c-10.8467,-6.5659 -18.416,5.5431 -16.5219,15.384c1.9896,10.3358 12.7271,19.0818 21.0008,24.3292c1.2915,0.8191 11.9797,4.8292 11.1987,6.1764l-0.3105,0.1616c-12.8719,-2.5051 -32.4959,-16.5796 -34.8986,-30.7198c-0.9752,-5.7363 1.3153,-14.9335 5.7933,-18.372c4.1229,-3.1655 9.8251,-2.5804 14.2755,0.1821c3.3361,2.0712 6.1873,4.7917 8.1461,8.2928c4.6682,8.3521 6.5519,13.9105 7.8858,23.2428c0.7187,5.0253 2.1656,10.9984 6.9599,14.971c1.5378,1.2748 -0.2835,0.4408 -2.111,0.4974z" fill="#272525" stroke-width="1"/><path d="M209.9908,133.7596c2.9333,-1.5396 1.4548,-5.037 2.2602,-7.7268c0,0 0.12,2.3473 0.3528,3.596c0.4766,2.5634 -0.954,3.4244 -2.2782,5.2022c3.0991,10.3199 0.5575,10.5927 9.836,17.519c-0.9969,-2.6231 0.004,-7.0645 0.633,-9.7019c0.8655,-3.628 0.1284,-8.5725 0.1284,-8.5725c1.4462,3.4978 1.2304,7.2629 0.29,10.7595c0.2339,0.1706 3.0525,0.4942 4.9621,-0.7076c-0.1236,0.7296 -3.4314,2.0518 -5.1303,1.8712c-0.5824,2.1507 -1.1391,5.7743 0.6629,7.6123c5.1922,5.2927 2.6489,10.5081 8.8622,16.0799c0.8363,1.036 2.4495,1.6113 2.0654,2.428c-2.3833,0.7603 -6.0837,-7.4097 -10.1791,-8.8588c-2.3726,-0.8392 -5.0269,-0.4332 -7.0617,-2.3188c1.1897,0.1714 1.9893,0.7314 2.9459,0.8542c2.6666,0.3464 5.1081,0.7946 7.3428,2.6062c-0.0387,-0.9914 -0.4444,-1.6742 -0.6938,-2.5915c-1.6041,-5.8846 -6.7964,-9.8192 -9.2081,-11.483c-1.3541,1.1009 -2.355,3.4355 -4.3916,3.4064c-1.1135,-0.0157 -2.1783,0.0393 -3.3701,-0.9667c6.3555,1.5633 4.6515,-3.0345 7.527,-2.8242c-3.0146,-2.0097 -3.9357,-5.1641 -4.6124,-8.2821c-1.076,-0.0821 -2.1297,-0.5684 -2.97,-1.3052c-1.8303,1.208 -1.2702,5.1695 -4.0739,4.9079c0.6919,-0.6009 1.2142,-0.9683 1.5859,-1.5192c0.8463,-1.2534 0.6901,-2.7698 1.9723,-3.9817c-1.852,-2.71 -3.8559,-4.8269 -5.0164,-4.9487c2.6326,-1.5733 4.8749,5.821 8.427,6.0134c-0.3923,-3.4953 -1.1984,-7.1593 -3.1507,-10.159c-0.4599,-0.7069 -1.5166,-2.4147 -1.3256,-2.4969c1.2739,0.6182 2.8946,4.2635 3.608,5.5884z" fill="#272525" stroke-width="1"/><path d="M241.2907,172.5114c-2.3828,-0.9795 -4.3548,-1.2413 -6.8453,-0.1734c-2.2558,0.9661 -3.461,2.4909 -4.6999,6.1898c-0.1934,0.5773 -1.6718,0.3299 -1.5405,-0.5817c0.1909,-2.5805 0.8702,-4.6392 2.7918,-6.614c2.9364,-3.0169 8.7516,-1.8333 10.2939,1.1793z" fill="#272525" stroke-width="1"/></g></g></g></svg>