<svg version="1.1" xmlns="http://www.w3.org/2000/svg" xmlns:xlink="http://www.w3.org/1999/xlink" width="79.90643" height="111.1546" viewBox="0,0,79.90643,111.1546"><g transform="translate(-199.79679,-115.99355)"><g data-paper-data="{&quot;isPaintingLayer&quot;:true}" fill="none" fill-rule="nonzero" stroke="none" stroke-width="1" stroke-linecap="none" stroke-linejoin="none" stroke-miterlimit="10" stroke-dasharray="" stroke-dashoffset="0" font-family="none" font-weight="none" font-size="none" text-anchor="none" style="mix-blend-mode: normal"><g id="ID0.91666997410357"><path d="M223.71198,116.70115c3.21787,0.68466 3.21787,3.93676 3.21787,3.93676" id="ID0.47144112223759294" fill="none" stroke="#fff200" stroke-linecap="round" stroke-linejoin="round"/><path d="M231.00354,116.70115c-3.93677,-1.30084 -4.07369,3.93676 -4.07369,3.93676c0,0 -0.58195,-1.50624 -2.77285,-1.50624" id="ID0.4142839224077761" fill="none" stroke="#fff200" stroke-linecap="round" stroke-linejoin="round"/><path d="M224.32817,121.73336c0.71889,-2.19089 2.60169,-1.09545 2.60169,-1.09545c1.23238,-2.77285 4.07369,-1.47201 4.07369,-1.47201" id="ID0.22997801704332232" fill="none" stroke="#fff200" stroke-linecap="round" stroke-linejoin="round"/><path d="M221.45261,140.45866l5.47724,-19.82075l15.33626,20.74503c0,0 -8.83204,-1.71164 -16.8425,1.81433z" id="ID0.9973602727986872" fill="#9966ff" stroke="none" stroke-linecap="butt" stroke-linejoin="miter"/><path d="M233.50254,129.57265c-0.44502,0.4108 -1.02698,0.65042 -1.6774,0.65042c-1.40354,0 -2.49899,-1.12968 -2.49899,-2.49899c0,-0.89005 0.47926,-1.71164 1.19815,-2.15666z" id="ID0.3420579400844872" fill="#fff200" stroke="none" stroke-linecap="butt" stroke-linejoin="miter"/><path d="M226.48483,132.17434c0,1.40354 -1.12968,2.49899 -2.49899,2.49899c-0.3081,0 -0.61619,-0.03423 -0.85582,-0.17117l1.33508,-4.82682c1.12968,0.27386 2.01973,1.26661 2.01973,2.49899z" id="ID0.9336234251968563" fill="#fff200" stroke="none" stroke-linecap="butt" stroke-linejoin="miter"/><path d="M231.75667,133.20132c0.68945,0 1.3142,0.28003 1.76675,0.73224c0.45221,0.45255 0.73224,1.0773 0.73224,1.76675c0,0.68945 -0.28002,1.3142 -0.73224,1.76675c-0.45255,0.45221 -1.0773,0.73224 -1.76675,0.73224c-0.68945,0 -1.3142,-0.28003 -1.76675,-0.73224c-0.45221,-0.45255 -0.73224,-1.0773 -0.73224,-1.76675c0,-0.68945 0.28003,-1.31419 0.73224,-1.76675c0.45255,-0.45221 1.0773,-0.73224 1.76675,-0.73224z" id="ID0.7856594109907746" fill="#fff200" stroke="none" stroke-linecap="butt" stroke-linejoin="miter"/><path d="M227.44335,142.03336c0,0.13693 0,0.27386 -0.03423,0.37656c-0.68465,0.23963 -1.33507,0.47926 -1.98549,0.75312l-2.84132,-1.98549c0.34232,-0.99275 1.26661,-1.67741 2.36205,-1.67741c1.36931,0.03423 2.49899,1.16391 2.49899,2.53322z" id="ID0.32722274446859956" fill="#fff200" stroke="none" stroke-linecap="butt" stroke-linejoin="miter"/><path d="M242.23188,141.38294c0,0 -1.60894,-0.30809 -4.10793,-0.41079c-0.1027,-0.27386 -0.13693,-0.54772 -0.13693,-0.82158c0,-1.06122 0.68465,-1.9855 1.60894,-2.36206z" id="ID0.8712207586504519" fill="#fff200" stroke="none" stroke-linecap="butt" stroke-linejoin="miter"/><path d="M221.45261,140.45866l5.47724,-19.82075l15.33626,20.74503c0,0 -8.83204,-1.71164 -16.8425,1.81433z" id="ID0.978934230748564" fill="none" stroke="#414042" stroke-linecap="round" stroke-linejoin="round"/></g><g id="XMLID_3611_"><g id="XMLID_3612_" stroke="#414042" stroke-linecap="round" stroke-linejoin="round"><path d="M246.16865,187.80252c0.78735,-3.5602 1.7801,-2.84132 1.7801,-2.84132c0.54773,0.37656 0.68465,1.16392 1.30084,1.74587c1.84857,1.71164 6.1619,5.37454 7.6339,4.34756c3.25211,-2.56745 7.18887,-5.16914 10.16712,-2.01973c4.14216,3.52597 -2.63592,6.84654 -6.12766,9.37976c-2.67016,1.472 -5.20337,3.14941 -9.68786,-0.47926c-3.62867,-3.3548 -5.16914,-3.32057 -5.16914,-3.32057c-2.05397,-1.36931 -0.71889,-3.21787 0.10269,-6.81231z" id="XMLID_3613_" fill="#faa51d"/><path d="M256.84925,191.08886l-2.05396,1.43778" id="XMLID_3614_" fill="none"/></g><g id="XMLID_3615_" fill="#faa51d" stroke="#414042" stroke-linecap="round" stroke-linejoin="round"><path d="M248.90727,204.26846c0,0 -1.64317,5.34031 -0.89005,14.00119c0.3081,3.69714 7.29157,-0.51349 6.77808,6.74385c-0.13693,2.05397 -9.24284,1.84857 -11.22834,1.12968c-1.84857,-0.68465 -2.32782,-1.36931 -2.01973,-3.35481c1.09545,-7.12041 -2.49899,-15.3705 -2.49899,-15.3705" id="XMLID_3616_"/><path d="M247.2641,220.15244c1.43777,-0.3081 2.73862,-0.13693 2.73862,-0.13693" id="XMLID_3617_"/></g><path d="M249.69462,193.58785c0,6.53845 1.64318,16.19208 -9.96172,16.19208c-11.60489,0 -10.64638,-8.79781 -10.64638,-15.33626c0,-6.53845 3.971,-8.35279 10.64638,-8.35279c6.67538,0 9.96172,0.95851 9.96172,7.49696z" id="XMLID_3618_" fill="#faa51d" stroke="#414042" stroke-linecap="round" stroke-linejoin="round"/><path d="M247.19562,196.4634c0,4.14216 0.89005,10.26982 -5.443,10.26982c-6.33306,0 -5.78533,-5.57993 -5.78533,-9.72209c0,-4.14216 2.15666,-5.27184 5.78533,-5.27184c3.62867,0 5.44301,0.58195 5.44301,4.72411z" id="XMLID_3640_" fill="#ffffff" stroke="none" stroke-linecap="butt" stroke-linejoin="miter"/><g id="XMLID_3642_" fill="#faa51d" stroke="#414042" stroke-linecap="round" stroke-linejoin="round"><path d="M239.01401,210.08802c0,0 -1.43778,8.96898 -1.12968,13.04267c0.17117,1.9855 -0.58195,3.11517 -2.67015,3.49174c-2.1909,0.37656 -9.55094,0.54772 -9.68787,-1.8828c-0.37656,-7.36004 5.16914,-2.84131 5.71687,-6.53845c1.30085,-8.55818 -1.30084,-13.93272 -1.30084,-13.93272" id="XMLID_3643_"/><path d="M228.91534,219.98128c0,0 1.54048,-0.2054 2.94402,0.17117" id="XMLID_3644_"/></g></g><g id="XMLID_3623_" fill="#faa51d"><path d="M232.23592,188.17908l-1.91703,6.70961l-9.00321,0.65042l1.81433,-3.4575l9.10591,-3.90253" id="XMLID_3624_" stroke="none" stroke-linecap="butt" stroke-linejoin="miter"/><path d="M223.09578,192.08161c0.68465,-0.68465 2.56745,-2.53322 4.27909,-4.27909c2.0882,-2.15666 6.60692,-5.20337 7.66813,0" id="XMLID_3625_" stroke="#414042" stroke-linecap="round" stroke-linejoin="round"/><path d="M230.14772,194.61483c1.09545,0.99275 3.93677,2.60169 5.40877,4.92952c1.6774,2.67015 0.37656,6.40152 -2.67015,7.29157c-2.70439,0.78735 -5.16914,-2.15666 -9.75633,-7.6339c-1.30085,-1.5747 -1.71164,-3.7656 -0.89005,-5.6484c0,-0.03423 0.03423,-0.06847 0.03423,-0.06847c0.78735,-1.7801 2.0882,-3.32057 3.5602,-4.55295l3.38904,-2.80709" id="XMLID_3626_" stroke="#414042" stroke-linecap="round" stroke-linejoin="round"/></g><g id="ID0.22224851604551077"><g id="Layer_2_8_"><path d="M243.46425,139.56861l7.05194,-6.84654l2.70439,10.95447c0,0 6.09342,4.51872 7.90775,7.6339c3.08094,5.20337 3.14942,9.44823 3.14942,9.44823c0,0 6.74385,2.01973 7.90776,7.42851c1.19815,5.40877 -3.04672,15.67858 -20.84773,19.20456c-17.80102,3.5602 -32.17876,-1.26661 -38.88838,-12.11838c-6.70962,-10.81754 3.63792,-23.21423 3.28635,-22.97016l-0.03423,-1.23238l-2.0882,-16.70557l12.35801,8.04469c0,0 4.27909,-1.60894 8.76358,-1.81433c1.6774,-0.1027 4.72412,0.06847 6.19612,0.2054z" id="XMLID_3628_" fill="#faa51d" stroke="#414042" stroke-linecap="round" stroke-linejoin="round"/><path d="M263.86697,161.20369c0,0 6.50421,1.57471 7.66813,6.98348c1.43777,5.40877 -3.3548,15.54165 -20.1973,18.6226c-3.83407,0.75312 -7.25734,1.40355 -12.63188,1.40355c-8.35279,0.03423 -17.39022,-5.13491 -16.7398,-15.98668c0.37656,-6.23036 8.28432,-5.7511 8.28432,-5.7511l6.91501,-1.81433c0,0 6.94924,1.60894 11.0914,0.71889c4.14216,-0.89005 4.14216,-4.14216 4.14216,-4.14216l8.66088,-2.53322l2.36206,1.95127z" id="XMLID_3629_" fill="#ffffff" stroke="none" stroke-linecap="butt" stroke-linejoin="miter"/><path d="M211.97015,170.85732c0,0 -3.42327,0.44503 -5.20337,0.54773c-1.7801,0.1027 -5.68264,-0.23963 -5.68264,-0.23963" id="XMLID_3630_" fill="none" stroke="#414042" stroke-linecap="round" stroke-linejoin="round"/><path d="M279.20322,162.05951c0,0 -1.74586,1.54047 -4.31332,2.43052c-2.1909,0.75312 -6.50422,1.472 -6.50422,1.472" id="XMLID_3631_" fill="none" stroke="#414042" stroke-linecap="round" stroke-linejoin="round"/><path d="M200.29679,161.68294c0,0 2.12242,0.44503 6.05919,2.1909c3.52597,1.5747 5.78533,3.25211 5.78533,3.25211" id="XMLID_3632_" fill="none" stroke="#414042" stroke-linecap="round" stroke-linejoin="round"/><path d="M278.48434,173.01398c0,0 -1.7801,0.17117 -4.41602,-0.10269c-2.63592,-0.23963 -5.23761,-1.30085 -5.23761,-1.30085" id="XMLID_3633_" fill="none" stroke="#414042" stroke-linecap="round" stroke-linejoin="round"/><path d="M240.5887,140.86945c2.70439,0.65042 3.69714,1.40354 3.69714,1.40354" id="XMLID_3634_" fill="none" stroke="#414042" stroke-linecap="round" stroke-linejoin="round"/><path d="M228.84689,144.49812l-5.06644,-3.52597" id="XMLID_3635_" fill="none" stroke="#414042" stroke-linecap="round" stroke-linejoin="round"/></g><g id="Layer_5_4_"><path d="M259.07437,151.44736c2.77285,4.24486 2.87555,9.10591 0.23963,10.81754c-2.63592,1.74587 -7.05194,-0.30809 -9.82479,-4.55295c-2.77285,-4.24486 -2.87555,-9.10591 -0.23963,-10.81754c2.67015,-1.74587 7.05194,0.30809 9.82479,4.55295z" id="XMLID_3636_" fill="#ffffff" stroke="#414042" stroke-linecap="round" stroke-linejoin="round"/><path d="M255.06916,156.30841c0.27386,0.99275 -0.23963,1.9855 -1.12968,2.25936c-0.89005,0.23963 -1.8828,-0.34233 -2.15666,-1.33508c-0.27386,-0.99275 0.23963,-1.9855 1.12968,-2.25936c0.92428,-0.23963 1.8828,0.34232 2.15666,1.33507" id="XMLID_3637_" fill="#404041" stroke="none" stroke-linecap="butt" stroke-linejoin="miter"/></g><g id="Layer_7_4_"><path d="M236.34386,154.5283c2.77285,4.24486 2.49899,9.34554 -0.65042,11.3995c-3.11518,2.05397 -7.90776,0.27386 -10.68061,-4.00523c-2.77285,-4.24486 -2.49899,-9.34553 0.65042,-11.3995c3.11518,-2.01973 7.90776,-0.23963 10.68061,4.00523z" id="XMLID_3638_" fill="#ffffff" stroke="#414042" stroke-linecap="round" stroke-linejoin="round"/><path d="M232.13323,159.62898c0,1.02698 -0.75312,1.84857 -1.71164,1.84857c-0.92428,0 -1.71164,-0.82159 -1.71164,-1.84857c0,-1.02698 0.75312,-1.84857 1.71164,-1.84857c0.92428,0 1.71164,0.82158 1.71164,1.84857" id="XMLID_3639_" fill="#404041" stroke="none" stroke-linecap="butt" stroke-linejoin="miter"/></g><path d="M247.09292,164.21616c1.64317,-0.2054 3.971,-1.43777 4.24486,0.4108c0.03423,0.82158 -1.54048,4.03946 -3.35481,4.14216c-1.95127,0.1027 -5.40877,-2.39629 -5.27184,-3.8683c0.1027,-1.472 2.94402,-0.51349 4.38179,-0.68466z" id="XMLID_3627_" fill="#414042" stroke="#414042" stroke-linecap="round" stroke-linejoin="round"/><path d="M219.29596,151.72122c0,0 0.99275,-5.443 6.23036,-5.443" id="XMLID_3645_" fill="#faa51d" stroke="#414042" stroke-linecap="round" stroke-linejoin="round"/><path d="M246.27135,175.8553c-3.7656,1.60894 -3.21788,6.26459 -1.16392,6.70961c-1.30085,1.60894 -5.5457,1.23237 -7.49696,0.51349c-7.01771,-2.60169 -2.77285,-9.3113 -2.77285,-9.3113c0,0 5.27184,4.0737 15.43896,1.26662" id="ID0.08118298556655645" fill="#b74e6c" stroke="#231f20" stroke-linecap="round" stroke-linejoin="round"/><path d="M235.38534,181.88026c0,0 1.91703,-1.16391 4.21063,-0.89005c1.8828,0.23963 4.24486,2.36205 4.24486,2.36205c0,0 -4.75835,1.16392 -8.45549,-1.472z" id="ID0.03835643362253904" fill="#ff6680" stroke="#231f20" stroke-linecap="round" stroke-linejoin="round"/></g></g></g></svg>