<svg version="1.1" xmlns="http://www.w3.org/2000/svg" xmlns:xlink="http://www.w3.org/1999/xlink" width="140.7465" height="101.27747" viewBox="0,0,140.7465,101.27747"><g transform="translate(-169.62675,-129.36126)"><g data-paper-data="{&quot;isPaintingLayer&quot;:true}" stroke-linecap="butt" stroke-linejoin="miter" stroke-miterlimit="10" stroke-dasharray="" stroke-dashoffset="0" style="mix-blend-mode: normal"><g fill-rule="evenodd" stroke="none" stroke-width="1"><path d="M280.5678,165.60572c-11.00518,19.76913 -28.44247,28.355 -44.43135,27.5244c-19.63138,-1.06745 -46.89893,-22.12335 -38.02511,-42.86711c-1.65291,-1.10029 -8.3315,-6.08092 -12.51778,-10.01109l0.98606,-7.93121c5.48162,-1.52478 14.30127,1.87056 17.77946,11.86874c2.25861,-1.78659 8.2518,-2.33758 12.43801,1.5927c7.82729,7.40677 14.13518,14.87162 26.17055,16.22903c9.65173,1.04558 19.28265,-6.42791 29.2381,-8.44572c12.12959,-2.50337 12.52907,4.21148 8.36205,12.04026z" fill="#272525"/><path d="M186.76239,135.93831c2.38446,-1.30818 6.55616,-1.9775 8.75445,-0.42356c0.31015,0.85616 7.69917,11.7881 9.60504,10.60551c4.74372,-3.03598 17.79552,13.22848 29.98062,17.10394c16.84256,5.38024 27.69232,-5.56749 39.1492,-5.76315c6.27837,-0.11434 4.48759,5.72645 3.60551,7.23684c-14.10402,23.22553 -32.25982,25.18034 -42.34821,24.41994c-13.2105,-0.96359 -24.07451,-11.49419 -31.51435,-21.6455c-1.48446,-2.08233 -3.85755,-6.57389 -4.42708,-9.06701c-0.68623,-3.91164 -0.53483,-4.63338 1.16248,-8.23326c0.19339,-0.56224 -13.96766,-14.23374 -13.96766,-14.23374z" fill="#fff63b"/><path d="M204.54821,151.72672c-0.58713,-0.613 0.30298,-1.44352 0.78947,-0.88931c16.85298,18.07932 37.61373,26.69295 55.85641,18.57744c3.81983,-1.68513 9.74773,-6.05491 11.01566,-7.06986c1.32666,-1.11578 1.48527,0.46233 0.31817,1.53602c-1.1085,0.97308 -2.09926,1.74483 -3.9632,3.08673c-15.66763,11.10486 -34.25343,17.26456 -64.01651,-15.24102z" fill="#272525"/></g><g fill-rule="evenodd" stroke="none" stroke-width="1"><path d="M200.87434,147.15052c2.68632,-1.13172 8.64492,0.4576 11.22726,5.74669c4.79612,9.82259 8.16546,19.08216 18.83059,24.63554c8.49173,4.41906 19.96727,0.72341 29.90419,2.20566c12.10218,1.93662 10.15994,8.49927 3.45071,14.43829c-16.8025,14.89809 -35.85638,17.00344 -50.39031,10.67597c-17.83188,-7.84843 -35.98007,-37.35161 -20.77972,-54.13049c-1.76972,-2.51887 -11.20466,-17.34622 -9.66771,-19.28432c4.21617,-5.36961 19.6741,-0.39293 17.42498,15.71265z" fill="#272525"/><path d="M187.36816,133.05132c2.3006,-1.62709 5.45662,-1.94446 8.29131,2.6817c1.79473,2.93855 3.16551,14.00162 5.33972,13.51595c5.46471,-1.2647 12.10205,18.81544 22.03563,26.77728c13.86856,10.93509 27.5698,4.35338 38.19376,8.12727c5.82399,2.05092 2.26269,6.99282 0.93598,8.10842c-20.81565,17.14534 -38.34709,12.7133 -47.47683,8.46169c-11.9659,-5.63802 -18.44704,-19.28036 -22.03309,-31.63718c-0.72902,-2.45114 -1.49026,-7.62183 -1.06089,-10.20676c0.57274,-3.98654 -1.49978,-5.06194 1.3469,-7.85545c0.49544,-0.38584 -5.5725,-17.97292 -5.5725,-17.97292z" fill="#fff63b"/><path d="M198.67994,154.37604c-0.31008,-0.85627 0.76447,-1.30898 1.03275,-0.61225c9.57342,23.1452 25.87397,38.47127 45.59871,37.29776c4.19683,-0.24956 11.07191,-2.31091 12.52427,-2.94805c1.55318,-0.57841 1.86246,1.89785 0.46889,2.43435c-1.39351,0.53638 -3.38317,1.39993 -5.45661,1.94446c-18.45941,5.01827 -37.51971,3.20408 -54.16799,-38.11626z" fill="#272525"/></g><g fill-rule="evenodd" stroke="none" stroke-width="1"><path d="M194.08126,152.77063c2.82821,0.70642 6.63668,4.82102 6.4828,10.40255c-0.20711,11.22182 -0.22013,20.26136 6.53972,30.42063c5.43487,8.03526 15.53047,11.09551 23.44218,17.20137c9.64851,7.52525 2.25058,14.41242 -6.30327,16.5736c-21.41413,5.4532 -36.18169,-3.71143 -45.75204,-16.45719c-11.78462,-15.65954 -13.98258,-50.97119 6.90389,-58.75809c-0.37615,-3.05537 -1.82756,-20.91702 0.43914,-22.02385c6.08659,-2.79178 16.99166,9.51825 8.24757,22.641z" fill="#272525"/><path d="M188.53463,133.59758c2.50918,0.79021 5.62173,3.55309 5.95601,6.44904c0.25037,2.57684 -0.81929,10.18896 -2.57544,13.88962c5.33739,1.49663 2.85864,23.54457 7.77949,35.46554c6.87419,16.43764 21.82231,17.20063 29.26283,25.73188c4.03482,4.65202 -1.21237,7.39397 -3.00876,7.69522c-25.85412,5.42578 -39.10085,-7.03656 -44.99708,-15.20629c-7.76678,-10.74733 -7.07078,-26.27461 -4.52116,-38.96392c0.53002,-2.52615 2.27004,-7.58643 3.76512,-9.68395c2.36025,-3.34785 3.11577,-3.71678 6.74221,-4.83966c0.69684,-0.26821 -0.55161,-21.25211 1.59678,-20.53747z" fill="#fff63b"/><path d="M188.44658,158.25694c0.10953,-0.88116 1.25106,-0.75469 1.15833,-0.13368c-2.37966,25.34658 4.61778,47.12235 22.31494,55.43231c3.70054,1.75608 10.55727,3.19474 12.21906,3.35509c1.66168,0.16028 0.5783,1.55311 -0.86522,1.25014c-1.50225,-0.20215 -2.64372,-0.32873 -4.75008,-0.88368c-18.22823,-4.16395 -34.68253,-13.90842 -30.07703,-59.02017z" fill="#272525"/></g><path d="M231.36542,225.894v0c-14.32242,0 -26.27372,-9.89647 -26.27372,-24.21768c0,-14.32242 11.95251,-26.27492 26.27372,-26.27492c14.32136,0 26.27492,11.95461 26.27387,26.27597c0,14.3191 -11.9504,24.21662 -26.27386,24.21662z" fill="#faac18" fill-rule="nonzero" stroke="#000000" stroke-width="2.1833"/><g fill="#231f20" fill-rule="nonzero" stroke="none" stroke-width="0.72777"><path d="M219.07024,215.93285c0.33468,0.02623 0.34674,1.55356 -0.83821,1.58974c-1.17606,0.03618 -1.37807,-1.47788 -0.95671,-1.51406c0.2085,-0.0187 0.1185,0.54092 0.89535,0.54092c0.7767,0 0.73283,-0.62986 0.89957,-0.6166z"/><path d="M228.97214,218.54081c0.41805,0.03181 0.43569,1.94085 -1.05108,1.98804c-1.47019,0.04719 -1.72256,-1.84874 -1.19581,-1.89366c0.26217,-0.02412 0.14805,0.6769 1.11908,0.6769c0.97103,0 0.91615,-0.78771 1.12781,-0.77128z"/><path d="M239.25817,215.73536c0.41911,0.02955 0.43554,1.93753 -1.05003,1.98803c-1.47019,0.04719 -1.72255,-1.84769 -1.19596,-1.89366c0.26337,-0.02533 0.14819,0.67691 1.11922,0.67691c0.97088,0 0.916,-0.78665 1.12676,-0.77128z"/><path d="M237.32169,220.73508c0.4179,0.03181 0.43448,1.94085 -1.04897,1.98804c-1.4723,0.04719 -1.72361,-1.84874 -1.19807,-1.89366c0.26216,-0.02412 0.15136,0.6769 1.12013,0.6769c0.96892,0 0.91615,-0.78771 1.12691,-0.77128z"/><path d="M232.34383,209.85778c0.33347,0.02533 0.3478,1.55145 -0.84047,1.592c-1.17395,0.03512 -1.37808,-1.47998 -0.95671,-1.51632c0.2085,-0.01854 0.11849,0.54092 0.89535,0.54092c0.7767,0 0.73283,-0.62972 0.90183,-0.6166z"/><path d="M213.41774,207.05233c0.33347,0.02412 0.3478,1.55145 -0.84047,1.59095c-1.17395,0.03618 -1.37808,-1.47894 -0.95671,-1.51406c0.2085,-0.02095 0.1185,0.53972 0.8952,0.53972c0.77686,0 0.73298,-0.62866 0.90198,-0.6166z"/><path d="M223.91212,211.26435c0.33453,0.02201 0.3478,1.55038 -0.83821,1.58988c-1.17621,0.03724 -1.37807,-1.47787 -0.95686,-1.5142c0.2085,-0.01975 0.1185,0.54091 0.89535,0.54091c0.77686,0 0.73298,-0.63076 0.89972,-0.61659z"/><path d="M215.24236,201.35264c0.29172,0.02292 0.30378,1.35938 -0.7363,1.39119c-1.03027,0.03075 -1.20802,-1.29365 -0.83927,-1.32546c0.18212,-0.01417 0.10523,0.47398 0.78334,0.47398c0.68022,0 0.64177,-0.55072 0.79223,-0.53972z"/><path d="M225.84965,201.25601c0.33362,0.02307 0.3478,1.55145 -0.84047,1.58989c-1.17274,0.03724 -1.37793,-1.47787 -0.95671,-1.51421c0.2085,-0.01975 0.1185,0.54092 0.89535,0.54092c0.77686,0 0.73283,-0.62972 0.90183,-0.6166z"/><path d="M220.8938,192.71907c0.29397,0.0208 0.30498,1.35817 -0.7351,1.38892c-1.02922,0.03181 -1.20576,-1.2935 -0.83715,-1.32531c0.18317,-0.01432 0.10417,0.47398 0.78333,0.47398c0.67916,0 0.64193,-0.54861 0.78892,-0.5376z"/><path d="M247.5034,207.05233c0.33453,0.02412 0.3478,1.55145 -0.83836,1.59095c-1.175,0.03724 -1.37687,-1.47893 -0.95551,-1.51526c0.20729,-0.01975 0.11729,0.54092 0.89415,0.54092c0.7767,0 0.73283,-0.62866 0.89972,-0.6166z"/><path d="M245.31335,187.52607c0.24136,0.01764 0.25026,1.11696 -0.60559,1.14335c-0.84695,0.02849 -0.98852,-1.06314 -0.68791,-1.08953c0.15031,-0.01311 0.08443,0.38941 0.64404,0.38941c0.55961,0 0.53096,-0.45197 0.64946,-0.44323z"/><path d="M253.43134,204.21734c0.3478,0.02517 0.36091,1.60722 -0.87334,1.64567c-1.21571,0.03844 -1.423,-1.53154 -0.98852,-1.56667c0.2183,-0.01764 0.12392,0.55946 0.92822,0.55946c0.80414,0 0.75922,-0.65052 0.93364,-0.63846z"/><path d="M253.40058,209.85778c0.33468,0.02533 0.3478,1.55145 -0.83821,1.592c-1.175,0.03512 -1.37702,-1.47998 -0.95565,-1.51632c0.20744,-0.01854 0.11744,0.54092 0.89414,0.54092c0.77686,0 0.73298,-0.62972 0.89972,-0.6166z"/><path d="M218.81682,184.71957c0.24136,0.01644 0.25131,1.11576 -0.60559,1.14214c-0.84816,0.02849 -0.99078,-1.06315 -0.68791,-1.08832c0.14925,-0.01326 0.08231,0.38941 0.64403,0.38941c0.55946,0 0.52765,-0.45197 0.64947,-0.44323z"/><path d="M253.12078,198.15764c0.23157,0.01749 0.23925,1.07188 -0.57484,1.09721c-0.81304,0.02744 -0.95339,-1.01821 -0.66273,-1.04339c0.14156,-0.01326 0.08231,0.37297 0.61766,0.37297c0.53444,0 0.50579,-0.43554 0.61991,-0.42679z"/><path d="M234.90566,184.71957c0.24136,0.01644 0.25131,1.11576 -0.60559,1.14214c-0.84816,0.02849 -0.99078,-1.06315 -0.68791,-1.08832c0.14925,-0.01326 0.08231,0.38941 0.64403,0.38941c0.55946,0 0.52765,-0.45197 0.64947,-0.44323z"/><path d="M236.95852,179.09225c0.2403,0.01749 0.25011,1.11575 -0.60785,1.14214c-0.84695,0.02849 -0.98852,-1.06314 -0.68791,-1.08847c0.15136,-0.01311 0.08443,0.3885 0.64404,0.3885c0.56172,0 0.52991,-0.45106 0.65172,-0.44217z"/><path d="M246.50494,214.53171c0.33348,0.02533 0.34779,1.55039 -0.84048,1.58989c-1.175,0.03618 -1.37807,-1.47909 -0.95565,-1.51301c0.20744,-0.02095 0.11744,0.53972 0.89429,0.53972c0.7767,0 0.73284,-0.63198 0.90184,-0.6166z"/><path d="M210.32148,194.12232c0.29292,0.02186 0.30618,1.35817 -0.7351,1.39013c-1.02907,0.03181 -1.20575,-1.2947 -0.83715,-1.32546c0.18332,-0.01538 0.10432,0.47398 0.78333,0.47398c0.67916,0 0.64193,-0.54966 0.78892,-0.53866z"/><path d="M238.28383,193.80196c0.29187,0.0208 0.30393,1.35712 -0.73615,1.38998c-1.03133,0.03181 -1.20802,-1.29456 -0.83942,-1.32531c0.18227,-0.01538 0.10644,0.47398 0.78349,0.47398c0.67916,0 0.64177,-0.54966 0.79208,-0.53866z"/><path d="M250.34503,189.85874c0.23036,0.01644 0.24031,1.07084 -0.57604,1.09707c-0.81515,0.02639 -0.9546,-1.01928 -0.66273,-1.04445c0.14261,-0.01311 0.08125,0.37418 0.61659,0.37418c0.53655,0 0.5058,-0.43569 0.62218,-0.42679z"/><path d="M240.97199,209.21495c0.33348,0.02292 0.34659,1.55129 -0.84047,1.58974c-1.17516,0.03724 -1.37807,-1.47788 -0.95565,-1.51406c0.20729,-0.0187 0.11744,0.54092 0.89414,0.54092c0.77685,0 0.73298,-0.63092 0.90198,-0.6166z"/><path d="M240.33338,201.25601c0.33348,0.02307 0.34779,1.55145 -0.84048,1.58989c-1.175,0.03724 -1.37686,-1.47787 -0.9567,-1.51421c0.2085,-0.01975 0.11849,0.54092 0.89535,0.54092c0.77791,0 0.73283,-0.62972 0.90183,-0.6166z"/><path d="M246.22513,196.75545c0.23262,0.01644 0.24031,1.06977 -0.57484,1.09721c-0.81304,0.02744 -0.95354,-1.01927 -0.66273,-1.0446c0.14156,-0.01311 0.08231,0.37312 0.61765,0.37312c0.53654,0 0.50579,-0.43448 0.61991,-0.42574z"/><path d="M233.2226,204.24478c0.33468,0.02623 0.34901,1.55129 -0.83821,1.58974c-1.17621,0.03844 -1.38019,-1.47788 -0.95671,-1.513c0.20623,-0.01975 0.11623,0.53986 0.89309,0.53986c0.77686,0 0.73283,-0.63092 0.90183,-0.6166z"/><path d="M229.6097,193.80196c0.29187,0.0208 0.30498,1.35712 -0.7351,1.38998c-1.03133,0.03181 -1.20575,-1.29456 -0.83715,-1.32531c0.18317,-0.01538 0.10417,0.47398 0.78334,0.47398c0.67916,0 0.64193,-0.54966 0.78891,-0.53866z"/></g><path d="M227.95543,182.93445v0c-2.78238,0.26774 -3.09294,-2.98319 -0.3083,-3.25093c2.78464,-0.26549 3.094,2.98545 0.3083,3.25093" fill="#231f20" fill-rule="nonzero" stroke="none" stroke-width="0.72777"/><g fill-rule="nonzero" stroke="none" stroke-width="1"><g><path d="M307.52235,197.10061c2.71119,10.3714 -4.03238,21.11917 -15.06489,24.00318c-11.03251,2.88402 -22.17147,-3.18526 -24.8836,-13.56023c-2.71119,-10.3714 4.97008,-17.52625 16.0033,-20.41045c11.03161,-2.88455 21.23418,-0.40319 23.94518,9.96749z" fill="#ec1c2c"/><g fill="#231f20"><path d="M309.70668,196.31527c3.01522,11.53441 -4.48332,23.4848 -16.75023,26.69151c-12.26477,3.20614 -24.65301,-3.54564 -27.66823,-15.08005c-2.65726,-10.16507 3.87198,-16.76096 13.8542,-20.38027c0,0 3.12448,-1.25915 6.48728,-1.84c11.33366,-2.40595 21.25063,-0.20308 24.07698,10.60882zM306.39839,197.5073c-2.35193,-8.99706 -10.6874,-11.68581 -20.1019,-9.93867c0,0 -5.83783,1.61379 -6.01019,1.68096c-8.42052,3.22403 -13.77798,9.48234 -11.52646,18.0953c2.55424,9.77098 13.04872,15.49312 23.44296,12.77595c10.39353,-2.71698 16.74554,-12.84144 14.19559,-22.61354z"/><path d="M291.45198,191.12908c-2.51355,0.79513 -4.937,1.49728 -7.4145,2.45077c-1.65416,0.63682 -3.2923,1.08107 -4.89104,0.12381c-0.34787,-0.21033 -0.11657,-0.79022 0.28267,-0.66348c0.98217,0.30843 1.88845,0.30033 2.75458,0.11816c0.06763,0.03114 2.95994,-1.14749 4.21437,-1.93915c1.53305,-0.88127 3.08805,-1.68438 4.87428,-1.57089c0.85398,0.05439 0.99641,1.22074 0.17963,1.48078z"/></g><path d="M274.27786,205.68352c0.64033,2.44953 2.48014,4.08973 1.09938,4.45067c-1.38076,0.36094 -3.01781,-1.33226 -3.65814,-3.78179c-0.64015,-2.44881 -0.04114,-4.72654 1.33962,-5.08748c1.38076,-0.36094 0.57918,1.9705 1.21914,4.4186z" fill="#ffffff"/></g><g><path d="M276.73214,181.34021c0.61509,-0.62605 1.22766,-1.25298 1.84185,-1.87956c0.73455,0.66834 1.46693,1.31665 2.12342,2.10073c2.39533,2.85493 2.95523,6.38566 3.81184,9.84342c-0.25112,0.13352 -0.66897,0.29157 -0.92152,0.40793c-0.96321,-4.43745 -3.05956,-8.18816 -6.85559,-10.47252z" fill="#99661d"/><path d="M285.85338,189.44484c0,0 0.18591,1.38228 0.23699,1.63893c0,0 -2.48249,1.50625 -3.64329,1.38105l-0.33314,-1.14014c-0.5786,-2.30092 -1.93698,-4.57952 -2.56137,-5.2408c-0.29834,-0.31557 -1.66281,-2.20894 -4.72205,-3.76681c-0.52386,-0.26502 -0.56475,-1.0079 -0.18145,-1.40022c1.08778,-1.11115 2.17199,-2.22137 3.25835,-3.33215c0.34933,-0.35598 0.88671,-0.29891 1.26489,0.00113c5.31989,4.22147 6.65971,11.28417 6.68108,11.85902zM284.17608,190.42789c-0.74905,-3.19222 -1.2496,-6.20991 -3.47867,-8.86651c-0.6565,-0.78408 -1.38887,-1.43239 -2.12342,-2.10073c-0.61419,0.62658 -1.22676,1.25351 -1.84185,1.87956c3.58598,2.15774 5.65768,5.36192 6.6884,9.4507l0.215,0.82245l0.76544,-0.30764z" fill="#231f20"/></g></g><g data-paper-data="{&quot;index&quot;:null}" fill-rule="nonzero" stroke="none" stroke-width="1"><g><path d="M246.61463,198.62092c7.04576,-8.96705 16.67069,-13.15687 25.09985,-6.53375c8.43206,6.6254 9.55449,19.26077 2.50918,28.22724c-7.0453,8.96647 -19.59092,10.86327 -28.02008,4.24015c-8.42858,-6.62267 -6.63438,-16.96821 0.41105,-25.93364z" fill="#ec1c2c"/><g fill="#231f20"><path d="M244.48766,199.93403c1.874,-2.85201 4.27493,-5.21491 4.27493,-5.21491c7.30063,-7.71006 15.95347,-11.06642 24.21494,-4.57506c9.37437,7.36581 10.62435,21.41902 2.79213,31.38699c-7.83358,9.9697 -21.78316,12.07911 -31.15753,4.7133c-8.78717,-6.90442 -6.85151,-16.87699 -0.12447,-26.31031zM273.42387,219.68881c6.63771,-8.44773 5.57654,-20.35365 -2.36464,-26.59334c-7.00003,-5.5002 -14.8759,-3.0837 -21.19112,3.35194c-0.13035,0.13126 -3.9388,4.84086 -3.9388,4.84086c-5.35739,7.93622 -6.21666,16.65236 1.09554,22.39784c7.94392,6.23621 19.76177,4.44985 26.39903,-3.9973z"/><path d="M245.8516,206.68068c0.60842,-1.68325 1.96514,-2.78885 3.38477,-3.84314c1.22632,-0.83455 3.46081,-3.01666 3.45924,-3.0911c0.51254,-0.72157 0.88146,-1.54941 0.9904,-2.57309c0.04303,-0.41666 0.66705,-0.39746 0.72117,0.00544c0.24011,1.84789 -0.82069,3.17287 -2.06447,4.43572c-1.86258,1.89154 -3.47313,3.83377 -5.20487,5.82155c-0.56426,0.64527 -1.57699,0.04942 -1.28624,-0.75538z"/></g><path d="M263.76914,194.61237c0.88174,-1.12218 3.20936,-0.76293 5.19959,0.80086c1.99081,1.56426 2.89049,3.74082 2.00875,4.86301c-0.88174,1.12218 -1.65195,-1.21917 -3.64276,-2.78343c-1.98965,-1.56334 -4.44733,-1.75826 -3.56558,-2.88045z" fill="#ffffff"/></g><g><path d="M250.90163,200.49722c-0.20744,0.18518 -0.51904,0.5053 -0.74165,0.68232c-2.82909,-2.16474 -5.84345,-4.08652 -7.50598,-7.42182c-0.45714,-0.91477 -0.75951,-1.84495 -1.07938,-2.78512c0.81956,-0.31328 1.6388,-0.62495 2.45824,-0.93926c0.5806,4.39216 3.18382,7.8106 6.86877,10.46388z" fill="#99661d"/><path d="M239.61675,190.77341c-0.12429,-0.46648 0.03773,-0.98202 0.5035,-1.16036c1.45191,-0.55312 2.90246,-1.1045 4.35529,-1.65878c0.51265,-0.195 1.17757,0.13882 1.21163,0.72491c0.2083,3.42674 1.40026,5.43318 1.57064,5.83264c0.35734,0.83635 1.90499,2.99088 3.78414,4.43924l0.91264,0.76026c-0.34821,1.1144 -2.71966,2.79004 -2.71966,2.79004c-0.21498,-0.14921 -1.40837,-0.87106 -1.40837,-0.87106c-0.51861,-0.24889 -6.46071,-4.29468 -8.2098,-10.8569zM250.11232,201.04073l0.58743,-0.5792l-0.66844,-0.52522c-3.33829,-2.57611 -5.45018,-5.75395 -5.99845,-9.90298c-0.81944,0.31432 -1.63867,0.62598 -2.45824,0.93926c0.31987,0.94017 0.62224,1.87036 1.07938,2.78512c1.54698,3.10373 4.11455,4.76643 6.74304,6.72663z" fill="#231f20"/></g></g></g></g></svg>