<svg version="1.1" xmlns="http://www.w3.org/2000/svg" xmlns:xlink="http://www.w3.org/1999/xlink" width="256.44369" height="255.25526" viewBox="0,0,256.44369,255.25526"><g transform="translate(-112.37237,-52.37237)"><g data-paper-data="{&quot;isPaintingLayer&quot;:true}" fill-rule="nonzero" stroke-linecap="butt" stroke-linejoin="miter" stroke-miterlimit="10" stroke-dasharray="" stroke-dashoffset="0" style="mix-blend-mode: normal"><path d="M112.37237,180c0,-70.48679 57.14084,-127.62763 127.62763,-127.62763c70.48679,0 127.62763,57.14084 127.62763,127.62763c0,70.48679 -57.14084,127.62763 -127.62763,127.62763c-70.48679,0 -127.62763,-57.14084 -127.62763,-127.62763z" fill="#9966ff" stroke="none" stroke-width="none"/><path d="M233.93393,186.00601v-12.01201h134.63213v12.01201z" fill="#0001ff" stroke="#000000" stroke-width="0.5"/><path d="M231,180c0,-4.97056 4.02944,-9 9,-9c4.97056,0 9,4.02944 9,9c0,4.97056 -4.02944,9 -9,9c-4.97056,0 -9,-4.02944 -9,-9z" fill="#0001ff" stroke="#000000" stroke-width="1"/></g></g></svg>