<svg xmlns="http://www.w3.org/2000/svg" xmlns:xlink="http://www.w3.org/1999/xlink" version="1.1" width="125.06845699801664" height="78.01935421481352" viewBox="0.06904584638963052 -0.4109474373589962 125.06845699801664 78.01935421481352">
  <!-- Exported by Scratch - http://scratch.mit.edu/ -->
  <g id="ID0.4824009691365063">
    <g id="ID0.027167292777448893">
      <g id="Layer_3_2_">
        <path id="ID0.8525817915797234" fill="#FAA51F" d="M 18.6 57.8 C 16.4 56.5 14 54.7 12.4 51.8 C 8.9 45.3 10 36.9 5.6 37.6 C 1.2 38.3 -3.2 50.8 7 58.8 C 10.5 61.6 14.2 62.9 17.1 63.8 C 17.9 64.1 24.7 65.8 28.1 63.4 C 31.5 60.9 30.2 59.6 29.6 58.8 C 29.1 58.1 21.6 59.6 18.6 57.8 Z " stroke-width="1"/>
        <path id="ID0.7132608946412802" fill="#FFFFFF" d="M 5.9 37.6 C 3.8 37.5 1 41.7 0.8 45.4 C 0.6 49.1 1.7 51.7 2.4 53.4 C 3.5 54.9 2.8 50.3 5.4 49.4 C 8 48.4 11.8 50.5 11.8 50.5 C 11.8 50.5 10.2 45.3 9.5 42.5 C 8.7 39.7 8.1 37.8 5.9 37.6 Z " stroke-width="1"/>
        <path id="ID0.9166756123304367" fill="none" stroke="#8E5322" stroke-width="1.4" stroke-linecap="round" stroke-linejoin="round" d="M 18.6 57.8 C 16.4 56.5 14 54.7 12.4 51.8 C 8.9 45.3 10 36.9 5.6 37.6 C 1.2 38.3 -3.2 50.8 7 58.8 C 10.5 61.6 14.2 62.9 17.1 63.8 C 17.9 64.1 24.7 65.8 28.1 63.4 C 31.5 60.9 30.2 59.6 29.6 58.8 C 29.1 58.1 21.6 59.6 18.6 57.8 Z "/>
      </g>
      <path id="ID0.489590504206717" fill="#FAA51F" d="M 31.2 76.7 L 74 75.5 C 80.6 75.5 84.9 69.6 81.7 63.9 C 75.9 53.7 63.5 46.6 49.1 46.6 C 36.9 46.6 30.1 46.7 23.6 51.7 C 14.7 58.7 20.2 76.7 31.2 76.7 Z " stroke-width="1"/>
      <path id="ID0.14147621719166636" fill="#FFFFFF" d="M 27.3 76.7 C 27.3 76.7 28.7 68.2 40.7 68.5 C 52.7 68.8 54.3 76.7 54.3 76.7 L 27.3 76.7 Z " stroke-width="1"/>
      <path id="ID0.5162518499419093" fill="#FAA51F" d="M 50.1 68.3 L 50.1 68.3 C 48.9 69.2 48.2 70.5 48.2 72 L 48.2 72.1 L 53.3 71.8 L 50.1 68.3 Z " stroke-width="1"/>
      <path id="ID0.5781896342523396" fill="#FAA51F" stroke="#8E5322" stroke-width="1.4" stroke-linecap="round" stroke-linejoin="round" d="M 89.7 68.6 C 92.2 68.6 93.8 69 94 72 C 94.2 75 93.6 76.9 90.7 76.9 L 83.9 76.9 C 74.3 77.1 70.1 73.7 70.5 69.9 "/>
      <g id="Layer_2_4_">
        <path id="ID0.7098919367417693" fill="#FAA51F" stroke="#8E5322" stroke-width="1.4" stroke-linecap="round" stroke-linejoin="round" d="M 30.4 55.6 "/>
      </g>
      <path id="ID0.20142192766070366" fill="none" stroke="#8E5322" stroke-width="1.4" stroke-linecap="round" stroke-linejoin="round" d="M 31.2 76.7 L 64.7 76.7 C 77 76.7 82.3 60.8 72.3 53.7 C 66 49.3 57.9 46.6 49.1 46.6 C 36.9 46.6 30.1 46.7 23.6 51.7 C 14.7 58.7 20.2 76.7 31.2 76.7 Z "/>
      <path id="ID0.20396148692816496" fill="#FAA51F" d="M 30.4 69.4 L 30.1 74.1 L 25.7 74.1 L 30.4 69.4 " stroke-width="1"/>
      <path id="ID0.04486634023487568" fill="#FAA51F" stroke="#8E5322" stroke-width="1.4" stroke-linecap="round" stroke-linejoin="round" d="M 68.6 68.6 C 71.7 68.6 73.6 69 73.9 72 C 74.2 75 73.5 76.9 69.8 76.9 L 65.1 76.9 C 53.4 77.1 48.2 73.7 48.6 69.9 "/>
      <path id="ID0.2074874211102724" fill="#FAA51F" stroke="#8E5322" stroke-width="1.4" stroke-linecap="round" stroke-linejoin="round" d="M 29.9 72.5 C 30.3 76.2 19.8 76.6 15.5 76.6 L 10.1 76.6 C 7.3 76.6 6.7 74.7 7 71.7 C 7.2 68.7 8.7 68.3 11.1 68.3 C 11.1 68.3 19.2 68.3 19.4 63.1 "/>
      <path id="ID0.8429202474653721" fill="#FAA51F" stroke="#8E5322" stroke-width="1.4" stroke-linecap="round" stroke-linejoin="round" d="M 67.5 70.6 C 67.5 70.6 64.7 72.4 63.1 71.8 "/>
      <g id="Layer_2_3_">
        <path id="ID0.30292635736986995" fill="#FAA51F" d="M 73.2 24.6 C 71.7 24.3 68.7 23.8 67 23.7 C 62.4 23.4 57.9 24.5 57.9 24.5 L 46.3 14.9 L 46.4 33.3 C 47.1 32.6 34.9 44.5 40.4 56.2 C 46 68 60 74.5 78.4 73 C 96.8 71.5 102.3 61.6 101.8 55.9 C 101.2 50.3 94.7 47.5 94.7 47.5 C 94.7 47.5 95.1 43.2 92.6 37.5 C 91.1 34.1 85.4 28.9 85.4 28.9 L 83.9 17.5 L 75.9 23.6 L 73.2 24.6 Z " stroke-width="1"/>
        <path id="ID0.7089672978036106" fill="#FFFFFF" d="M 93.8 47.3 L 91.6 45 L 82.5 46.6 C 82.5 46.6 82.1 49.9 77.8 50.3 C 73.5 50.7 66.6 48.3 66.6 48.3 L 59.4 49.3 C 59.4 49.3 51.4 47.9 50.3 54.2 C 48.4 65.1 57 71.4 65.4 72.3 C 70.9 72.9 74.4 72.7 78.4 72.3 C 95.8 71.1 101.9 61.4 101 55.7 C 100.4 50.1 94 47.7 94 47.7 L 93.8 47.3 Z " stroke-width="1"/>
        <path id="ID0.5096964915283024" fill="none" stroke="#8E5322" stroke-width="1.4" stroke-linecap="round" stroke-linejoin="round" d="M 98.2 53.2 C 98.2 53.2 102.7 53 105 52.5 C 107.7 51.9 109.6 50.5 109.6 50.5 "/>
        <path id="ID0.1744217979721725" fill="none" stroke="#8E5322" stroke-width="1.4" stroke-linecap="round" stroke-linejoin="round" d="M 98 59 C 98 59 100.5 60.4 103.2 60.9 C 105.8 61.5 107.7 61.5 107.7 61.5 "/>
        <path id="ID0.24706662399694324" fill="none" stroke="#8E5322" stroke-width="1.4" stroke-linecap="round" stroke-linejoin="round" d="M 72.9 24.6 C 75.6 25.6 76.5 26.4 76.5 26.4 "/>
        <path id="ID0.7140064011327922" fill="none" stroke="#8E5322" stroke-width="1.4" stroke-linecap="round" stroke-linejoin="round" d="M 55.8 22.8 L 60.6 26.9 "/>
        <path id="ID0.5402058805339038" fill="none" stroke="#8E5322" stroke-width="1.4" stroke-linecap="round" stroke-linejoin="round" d="M 29.3 50.8 C 29.3 50.8 33.2 51.6 35 51.7 C 36.8 51.8 40.3 51.7 40.3 51.7 "/>
        <path id="ID0.2818531538359821" fill="none" stroke="#8E5322" stroke-width="1.4" stroke-linecap="round" stroke-linejoin="round" d="M 41 48 C 41 48 38.9 46 35.5 44 C 31.7 41.8 29.6 41.1 29.6 41.1 "/>
        <g id="Layer_5_2_">
          <path id="ID0.6299363803118467" fill="#FAA51F" stroke="#8E5322" stroke-width="1.4" stroke-linecap="round" stroke-linejoin="round" d="M 89.4 37.4 C 91.7 42 91.3 47 88.4 48.4 C 85.5 49.9 81.3 47.3 79 42.6 C 76.7 38 77.1 33 80 31.6 C 82.9 30.2 87.1 32.8 89.4 37.4 Z "/>
          <path id="ID0.6663597454316914" fill="#FAA51F" stroke="#8E5322" stroke-width="1.4" stroke-linecap="round" stroke-linejoin="round" d="M 77.9 39.9 C 77.9 39.9 83.9 36.3 90.6 41 "/>
        </g>
        <g id="Layer_7_2_">
          <path id="ID0.26213094033300877" fill="#FAA51F" stroke="#8E5322" stroke-width="1.4" stroke-linecap="round" stroke-linejoin="round" d="M 67 38 C 69.3 42.6 68.4 47.8 65 49.5 C 61.6 51.2 56.9 48.9 54.6 44.2 C 52.3 39.6 53.2 34.4 56.6 32.7 C 60 31 64.7 33.3 67 38 Z "/>
          <path id="ID0.1503613330423832" fill="#FAA51F" stroke="#8E5322" stroke-width="1.4" stroke-linecap="round" stroke-linejoin="round" d="M 54.7 44.2 C 54.7 44.2 58.9 39.2 67.5 38.9 "/>
        </g>
        <path id="ID0.9406157485209405" fill="#5F4B43" stroke="#8E5322" stroke-width="1.4" stroke-linecap="round" stroke-linejoin="round" d="M 76.8 49 C 78.5 49 81 48 81.1 49.9 C 81 50.7 79.1 53.8 77.2 53.7 C 75.2 53.6 72 50.7 72.3 49.2 C 72.5 47.7 75.3 49 76.8 49 Z "/>
        <path id="ID0.621160842012614" fill="#FFFFFF" stroke="#8E5322" stroke-width="1.4000075961611687" stroke-linecap="round" stroke-linejoin="round" d="M 69.8175 65.3751 C 70.1075 64.9054 70.5609 64.5977 71.0591 64.48 C 71.5573 64.3622 72.1004 64.4344 72.5701 64.7245 C 73.0397 65.0145 73.3474 65.4679 73.4652 65.9661 C 73.5829 66.4643 73.5107 67.0074 73.2207 67.4771 C 72.9306 67.9467 72.4773 68.2544 71.979 68.3721 C 71.4808 68.4899 70.9377 68.4177 70.4681 68.1277 C 69.9984 67.8376 69.6907 67.3843 69.573 66.886 C 69.4552 66.3878 69.5274 65.8447 69.8175 65.3751 Z "/>
        <path id="ID0.2688632714562118" fill="none" stroke="#8E5322" stroke-width="1.4" stroke-linecap="round" stroke-linejoin="round" d="M 73.2 24.6 C 71.7 24.3 68.7 23.8 67 23.7 C 62.4 23.4 57.9 24.5 57.9 24.5 L 46.3 14.9 L 46.4 33.3 C 47.1 32.6 34.9 44.5 40.4 56.2 C 46 68 60 74.5 78.4 73 C 96.8 71.5 102.3 61.6 101.8 55.9 C 101.2 50.3 94.7 47.5 94.7 47.5 C 94.7 47.5 95.1 43.2 92.6 37.5 C 91.1 34.1 85.4 28.9 85.4 28.9 L 83.9 17.5 L 75.9 23.6 L 73.2 24.6 Z "/>
      </g>
    </g>
    <g id="ID0.09244956029579043">
      <path id="ID0.17668865201994777" fill="#27AAE1" d="M 124.1 13.4 C 123.9 13.7 123.5 13.8 123.2 13.8 L 113.9 14.4 C 113.9 14.4 113.8 14.4 113.8 14.4 C 113.1 14.4 112.6 13.9 112.5 13.2 C 112.5 12.9 112.6 12.5 112.8 12.3 L 112.8 12.3 L 118.7 3.8 L 114.3 4.8 C 114.2 4.8 114.1 4.8 114 4.8 C 113.4 4.8 112.8 4.3 112.7 3.7 L 112.5 2.5 C 112.4 2.1 112.5 1.8 112.7 1.5 C 112.9 1.2 113.3 1.1 113.6 1 L 122.9 0.3 C 123.6 0.2 124.2 0.8 124.3 1.5 C 124.3 1.9 124.2 2.2 124 2.5 C 124 2.5 124 2.6 123.9 2.6 L 117.2 11.2 L 122.6 10.1 C 122.7 10.1 122.8 10.1 122.9 10.1 C 123.5 10.1 124.1 10.6 124.2 11.2 L 124.4 12.4 C 124.5 12.7 124.4 13.1 124.1 13.4 Z " stroke-width="1"/>
    </g>
    <g id="ID0.4125502621755004">
      <path id="ID0.6040209936909378" fill="#27AAE1" d="M 122.8 30.4 C 122.6 30.6 122.4 30.7 122.2 30.7 L 115.7 31.1 C 115.7 31.1 115.7 31.1 115.6 31.1 C 115.1 31.1 114.7 30.7 114.7 30.3 C 114.7 30.1 114.8 29.8 114.9 29.6 L 114.9 29.6 L 119 23.7 L 115.9 24.4 C 115.8 24.4 115.8 24.4 115.7 24.4 C 115.3 24.4 114.9 24.1 114.8 23.6 L 114.6 22.7 C 114.5 22.4 114.6 22.2 114.8 22 C 115 21.8 115.2 21.7 115.4 21.7 L 121.9 21.2 C 122.4 21.2 122.8 21.5 122.9 22 C 122.9 22.3 122.8 22.5 122.7 22.7 C 122.7 22.7 122.7 22.8 122.7 22.8 L 118 28.8 L 121.7 28.1 C 121.8 28.1 121.8 28.1 121.9 28.1 C 122.4 28.1 122.7 28.4 122.8 28.9 L 123 29.8 C 123.1 29.9 123 30.2 122.8 30.4 Z " stroke-width="1"/>
    </g>
    <g id="ID0.061228759586811066">
      <path id="ID0.8704516859725118" fill="#27AAE1" d="M 114.3 41.4 C 114.2 41.5 114.1 41.6 113.9 41.6 L 110.1 41.8 C 110.1 41.8 110.1 41.8 110.1 41.8 C 109.8 41.8 109.6 41.6 109.6 41.3 C 109.6 41.2 109.6 41 109.7 40.9 L 109.7 40.9 L 112.1 37.5 L 110.3 37.9 C 110.3 37.9 110.2 37.9 110.2 37.9 C 109.9 37.9 109.7 37.7 109.7 37.4 L 109.6 36.9 C 109.6 36.8 109.6 36.6 109.7 36.5 C 109.8 36.4 109.9 36.3 110.1 36.3 L 113.8 36 C 114.1 36 114.3 36.2 114.4 36.5 C 114.4 36.6 114.4 36.8 114.3 36.9 C 114.3 36.9 114.3 36.9 114.3 36.9 L 111.6 40.4 L 113.8 40 C 113.8 40 113.9 40 113.9 40 C 114.2 40 114.4 40.2 114.4 40.5 L 114.5 41 C 114.5 41.2 114.4 41.3 114.3 41.4 Z " stroke-width="1"/>
    </g>
  </g>
</svg>