<svg xmlns="http://www.w3.org/2000/svg" xmlns:xlink="http://www.w3.org/1999/xlink" version="1.1" width="81.9" height="96.44083251953126" viewBox="0.24999980926513676 1.150000023841858 81.9 96.44083251953126">
  <!-- Exported by Scratch - http://scratch.mit.edu/ -->
  <g id="ID0.5207560155540705">
    <g id="Layer_3_4_">
      <path id="ID0.8535828334279358" fill="#FAA51F" d="M 27.25 71.65 C 24.95 70.65 22.35 69.15 20.45 66.35 C 16.25 60.15 16.45 51.65 12.15 52.85 C 7.85 54.05 4.85 67.25 15.85 74.05 C 19.65 76.45 23.45 77.35 26.45 77.95 C 27.25 78.15 34.25 79.05 37.35 76.15 C 40.45 73.25 39.05 72.05 38.35 71.35 C 37.65 70.75 30.45 73.15 27.25 71.65 Z " stroke-width="1"/>
      <path id="ID0.914295740891248" fill="#FFFFFF" d="M 12.35 52.75 C 10.25 52.95 7.95 57.45 8.05 61.15 C 8.25 64.85 9.65 67.45 10.55 69.05 C 11.85 70.45 10.55 65.95 13.05 64.65 C 15.55 63.35 19.45 64.95 19.45 64.95 C 19.45 64.95 17.35 59.95 16.25 57.15 C 15.35 54.55 14.55 52.75 12.35 52.75 Z " stroke-width="1"/>
      <path id="ID0.40227043256163597" fill="none" stroke="#8E5322" stroke-width="1.4" stroke-linecap="round" stroke-linejoin="round" d="M 27.25 71.65 C 24.95 70.65 22.35 69.15 20.45 66.35 C 16.25 60.15 16.45 51.65 12.15 52.85 C 7.85 54.05 4.85 67.25 15.85 74.05 C 19.65 76.45 23.45 77.35 26.45 77.95 C 27.25 78.15 34.25 79.05 37.35 76.15 C 40.45 73.25 39.05 72.05 38.35 71.35 C 37.65 70.75 30.45 73.15 27.25 71.65 Z "/>
    </g>
    <path id="ID0.26344340899959207" fill="#518943" stroke="#426C36" stroke-width="1.4" stroke-linecap="round" stroke-linejoin="round" d="M 21.65 58.75 C 21.65 58.75 19.45 74.85 21.65 77.75 C 24.85 81.95 39.35 82.25 41.55 79.75 C 45.25 75.45 43.95 76.65 43.95 76.65 L 44.95 62.05 L 21.65 58.75 Z "/>
    <path id="ID0.2414738917723298" fill="#FEFBDF" stroke="#70715E" stroke-width="1.4" stroke-linecap="round" stroke-linejoin="round" d="M 24.75 46.75 C 26.185 46.75 27.485 47.579 28.426 48.919 C 29.367 50.258 29.95 52.108 29.95 54.15 C 29.95 56.192 29.367 58.042 28.426 59.381 C 27.485 60.721 26.185 61.55 24.75 61.55 C 23.315 61.55 22.015 60.721 21.074 59.381 C 20.133 58.042 19.55 56.192 19.55 54.15 C 19.55 52.108 20.133 50.258 21.074 48.919 C 22.015 47.579 23.315 46.75 24.75 46.75 Z "/>
    <path id="ID0.6192030962556601" fill="#FEFBDF" stroke="#70715E" stroke-width="1.4" stroke-linecap="round" stroke-linejoin="round" d="M 24.75 50.05 C 25.522 50.05 26.222 50.509 26.729 51.252 C 27.236 51.994 27.55 53.019 27.55 54.15 C 27.55 55.281 27.236 56.306 26.729 57.048 C 26.222 57.791 25.522 58.25 24.75 58.25 C 23.978 58.25 23.278 57.791 22.771 57.048 C 22.264 56.306 21.95 55.281 21.95 54.15 C 21.95 53.019 22.264 51.994 22.771 51.252 C 23.278 50.509 23.978 50.05 24.75 50.05 Z "/>
    <path id="ID0.15330331353470683" fill="#518943" stroke="#426C36" stroke-width="1.4" stroke-linecap="round" stroke-linejoin="round" d="M 29.65 78.45 L 30.15 70.75 L 23.65 69.45 C 23.65 69.45 22.95 75.35 23.95 76.25 C 24.85 77.05 29.65 78.45 29.65 78.45 Z "/>
    <g id="ID0.2669722530990839">
      <g id="ID0.16171270422637463">
        <path id="ID0.007584026083350182" fill="#FAA51F" stroke="#8E5322" stroke-width="1.4" stroke-linecap="round" stroke-linejoin="round" d="M 51.65 73.85 C 51.65 73.85 49.95 79.35 50.75 88.15 C 51.05 91.95 58.15 87.65 57.65 95.05 C 57.45 97.15 48.25 96.95 46.15 96.15 C 44.25 95.45 43.75 94.75 44.05 92.75 C 45.15 85.45 41.45 77.05 41.45 77.05 "/>
        <path id="ID0.31672530295327306" fill="#FAA51F" stroke="#8E5322" stroke-width="1.4" stroke-linecap="round" stroke-linejoin="round" d="M 52.75 89.95 C 52.75 89.95 51.45 89.75 49.95 90.05 "/>
      </g>
      <g id="Layer_2_8_">
        <path id="ID0.39854341372847557" fill="#FAA51F" stroke="#8E5322" stroke-width="1.4" stroke-linecap="round" stroke-linejoin="round" d="M 42.45 71.75 "/>
      </g>
      <path id="ID0.46792364912107587" fill="#FAA51F" stroke="#8E5322" stroke-width="1.4" stroke-linecap="round" stroke-linejoin="round" d="M 52.45 62.95 C 52.45 69.65 54.15 79.45 42.25 79.45 C 30.35 79.45 31.45 70.45 31.45 63.75 C 31.45 57.05 35.55 55.25 42.25 55.25 C 48.95 55.25 52.45 56.25 52.45 62.95 Z "/>
      <path id="ID0.38032895559445024" fill="#FFFFFF" d="M 49.85 65.85 C 49.85 70.05 50.75 76.35 44.35 76.35 C 37.95 76.35 38.45 70.65 38.45 66.45 C 38.45 62.25 40.65 61.05 44.35 61.05 C 48.05 61.05 49.85 61.65 49.85 65.85 Z " stroke-width="1"/>
      <g id="ID0.15723733883351088">
        <path id="ID0.527006761636585" fill="#FAA51F" stroke="#8E5322" stroke-width="1.4" stroke-linecap="round" stroke-linejoin="round" d="M 32.25 73.85 C 32.25 73.85 34.85 79.35 33.55 88.05 C 32.95 91.85 27.35 87.15 27.75 94.75 C 27.85 97.25 35.45 97.05 37.65 96.65 C 39.75 96.25 40.55 95.15 40.35 93.05 C 40.05 88.85 41.55 79.75 41.55 79.75 "/>
        <path id="ID0.8937406223267317" fill="#FAA51F" stroke="#8E5322" stroke-width="1.4" stroke-linecap="round" stroke-linejoin="round" d="M 31.15 89.85 C 31.15 89.85 32.75 89.65 34.15 90.05 "/>
      </g>
      <g id="ID0.7407716196030378">
        <path id="ID0.15909873321652412" fill="#FAA51F" stroke="#8E5322" stroke-width="1.4" stroke-linecap="round" stroke-linejoin="round" d="M 25.75 73.15 C 21.65 70.85 25.35 60.15 32.15 54.75 L 40.05 56.15 "/>
        <path id="ID0.8024068027734756" fill="#FAA51F" stroke="#8E5322" stroke-width="1.4" stroke-linecap="round" stroke-linejoin="round" d="M 31.85 66.65 "/>
        <path id="ID0.06734407460317016" fill="none" stroke="#8E5322" stroke-width="1.4" stroke-linecap="round" stroke-linejoin="round" d="M 34.95 64.85 "/>
        <path id="ID0.8143284288235009" fill="#FAA51F" stroke="#8E5322" stroke-width="1.4" stroke-linecap="round" stroke-linejoin="round" d="M 31.85 66.65 L 34.55 62.55 "/>
        <path id="ID0.6682511982508004" fill="none" stroke="#8E5322" stroke-width="1.4" stroke-linecap="round" stroke-linejoin="round" d="M 31.85 66.65 L 30.65 66.35 "/>
      </g>
      <g id="ID0.32291418174281716">
        <path id="ID0.30105241015553474" fill="#FAA51F" stroke="#8E5322" stroke-width="1.4" stroke-linecap="round" stroke-linejoin="round" d="M 58.75 72.15 C 63.95 68.25 58.65 59.45 53.25 56.65 L 49.05 57.35 "/>
        <path id="ID0.3822403196245432" fill="#FAA51F" stroke="#8E5322" stroke-width="1.4" stroke-linecap="round" stroke-linejoin="round" d="M 53.55 66.65 "/>
        <path id="ID0.5879319808445871" fill="none" stroke="#8E5322" stroke-width="1.4" stroke-linecap="round" stroke-linejoin="round" d="M 50.95 65.15 "/>
        <path id="ID0.7841392233967781" fill="#FAA51F" stroke="#8E5322" stroke-width="1.4" stroke-linecap="round" stroke-linejoin="round" d="M 53.55 66.65 L 52.45 62.95 "/>
        <path id="ID0.4326359131373465" fill="none" stroke="#8E5322" stroke-width="1.4" stroke-linecap="round" stroke-linejoin="round" d="M 53.55 66.65 L 54.65 66.35 "/>
      </g>
      <path id="ID0.48627097019925714" fill="#518943" stroke="#426C36" stroke-width="1.4" stroke-linecap="round" stroke-linejoin="round" d="M 32.35 79.35 C 36.65 77.65 50.85 62.15 32.45 57.05 C 32.45 57.05 47.35 62.25 31.65 76.45 "/>
      <path id="ID0.07006075512617826" fill="#518943" stroke="#426C36" stroke-width="1.4" stroke-linecap="round" stroke-linejoin="round" d="M 53.95 71.05 C 56.05 65.75 57.05 59.75 45.55 57.05 C 45.55 57.05 56.15 60.95 51.95 69.75 "/>
      <g id="Layer_2_7_">
        <path id="ID0.2591130444779992" fill="#FAA51F" d="M 42.45 10.05 C 40.95 9.95 37.85 9.75 36.15 9.85 C 31.55 10.05 27.25 11.75 27.25 11.75 L 14.65 3.55 L 16.85 21.85 C 17.45 21.05 6.65 34.25 13.45 45.25 C 20.35 56.35 34.95 61.25 53.15 57.65 C 71.35 54.05 75.65 43.55 74.45 38.05 C 73.25 32.55 66.35 30.45 66.35 30.45 C 66.35 30.45 66.25 26.15 63.15 20.85 C 61.25 17.65 55.05 13.05 55.05 13.05 L 52.25 1.85 L 45.05 8.85 L 42.45 10.05 Z " stroke-width="1"/>
        <path id="ID0.3588979784399271" fill="#FFFFFF" d="M 65.45 30.35 L 63.05 28.35 L 54.25 30.95 C 54.25 30.95 54.25 34.25 50.05 35.15 C 45.85 36.05 38.75 34.45 38.75 34.45 L 31.65 36.25 C 31.65 36.25 23.55 35.75 23.15 42.15 C 22.45 53.25 31.75 58.55 40.25 58.45 C 45.75 58.45 49.25 57.75 53.15 57.05 C 70.35 53.95 75.25 43.55 73.75 38.05 C 72.55 32.55 65.95 30.95 65.95 30.95 L 65.45 30.35 Z " stroke-width="1"/>
        <path id="ID0.2727069961838424" fill="none" stroke="#8E5322" stroke-width="1.4" stroke-linecap="round" stroke-linejoin="round" d="M 70.45 35.75 C 70.45 35.75 74.85 35.05 77.05 34.25 C 79.65 33.35 81.45 31.75 81.45 31.75 "/>
        <path id="ID0.5861211125738919" fill="none" stroke="#8E5322" stroke-width="1.4" stroke-linecap="round" stroke-linejoin="round" d="M 70.95 41.55 C 70.95 41.55 73.55 42.65 76.35 42.85 C 79.05 43.15 80.85 42.95 80.85 42.95 "/>
        <path id="ID0.4793355236761272" fill="none" stroke="#8E5322" stroke-width="1.4" stroke-linecap="round" stroke-linejoin="round" d="M 24.95 10.25 L 30.15 13.85 "/>
        <path id="ID0.48413723474368453" fill="none" stroke="#8E5322" stroke-width="1.4" stroke-linecap="round" stroke-linejoin="round" d="M 42.45 10.05 C 40.95 9.95 37.85 9.75 36.15 9.85 C 31.55 10.05 27.25 11.75 27.25 11.75 L 14.65 3.55 L 16.85 21.85 C 17.45 21.05 6.65 34.25 13.45 45.25 C 20.35 56.35 34.95 61.25 53.15 57.65 C 71.35 54.05 75.65 43.55 74.45 38.05 C 73.25 32.55 66.35 30.45 66.35 30.45 C 66.35 30.45 66.25 26.15 63.15 20.85 C 61.25 17.65 55.05 13.05 55.05 13.05 L 52.25 1.85 L 45.05 8.85 L 42.45 10.05 Z "/>
        <path id="ID0.9024141579866409" fill="none" stroke="#8E5322" stroke-width="1.4" stroke-linecap="round" stroke-linejoin="round" d="M 1.75 41.05 C 1.75 41.05 5.75 41.45 7.55 41.35 C 9.35 41.25 12.85 40.75 12.85 40.75 "/>
        <path id="ID0.16030752705410123" fill="none" stroke="#8E5322" stroke-width="1.4" stroke-linecap="round" stroke-linejoin="round" d="M 13.05 36.95 C 13.05 36.95 10.75 35.25 7.15 33.65 C 3.15 31.85 0.95 31.45 0.95 31.45 "/>
      </g>
      <g id="Layer_5_4_">
        <path id="ID0.40023312577977777" fill="#FFFFFF" stroke="#8E5322" stroke-width="1.4" stroke-linecap="round" stroke-linejoin="round" d="M 60.95 20.95 C 63.75 25.25 63.85 30.25 61.15 31.95 C 58.45 33.75 53.95 31.65 51.15 27.25 C 48.35 22.95 48.25 17.95 50.95 16.25 C 53.65 14.55 58.15 16.65 60.95 20.95 Z "/>
        <path id="ID0.43813491938635707" fill="#414142" d="M 60.85 24.55 C 61.15 25.55 60.65 26.55 59.65 26.85 C 58.75 27.15 57.75 26.55 57.45 25.45 C 57.15 24.45 57.65 23.45 58.65 23.15 C 59.65 22.95 60.55 23.55 60.85 24.55 " stroke-width="1"/>
      </g>
      <g id="Layer_7_4_">
        <path id="ID0.4253597157076001" fill="#FFFFFF" stroke="#8E5322" stroke-width="1.4" stroke-linecap="round" stroke-linejoin="round" d="M 37.75 24.05 C 40.55 28.35 40.25 33.55 37.05 35.65 C 33.85 37.75 28.95 35.95 26.15 31.55 C 23.35 27.25 23.65 22.05 26.85 19.95 C 30.05 17.95 34.95 19.75 37.75 24.05 Z "/>
        <path id="ID0.814307457767427" fill="#414142" d="M 37.45 27.95 C 37.45 28.95 36.65 29.85 35.75 29.85 C 34.75 29.85 34.05 29.05 34.05 27.95 C 34.05 26.95 34.85 26.05 35.75 26.05 C 36.65 26.05 37.45 26.85 37.45 27.95 " stroke-width="1"/>
      </g>
      <path id="ID0.5240494590252638" fill="#5F4B43" stroke="#8E5322" stroke-width="1.4" stroke-linecap="round" stroke-linejoin="round" d="M 48.75 33.95 C 50.45 33.75 52.75 32.45 53.05 34.35 C 53.05 35.15 51.45 38.45 49.65 38.55 C 47.65 38.65 44.15 36.15 44.25 34.65 C 44.35 33.15 47.25 34.15 48.75 33.95 Z "/>
      <path id="ID0.046259244438260794" fill="#FFFFFF" stroke="#8E5322" stroke-width="1.4" stroke-linecap="round" stroke-linejoin="round" d="M 39.65 49.35 C 39.65 49.35 42.15 51.65 47.55 50.55 "/>
      <path id="ID0.1790580078959465" fill="#FAA51F" stroke="#8E5322" stroke-width="1.4" stroke-linecap="round" stroke-linejoin="round" d="M 30.65 66.35 C 36.25 64.55 39.25 67.65 39.15 69.35 C 38.95 73.35 34.35 75.15 25.85 73.25 "/>
    </g>
    <path id="ID0.7947451807558537" fill="#FAA51F" stroke="#8E5322" stroke-width="1.4" stroke-linecap="round" stroke-linejoin="round" d="M 56.55 66.65 C 53.35 65.25 51.85 67.55 50.95 69.75 C 49.65 72.85 53.55 76.45 58.75 72.15 "/>
  </g>
</svg>