<svg xmlns="http://www.w3.org/2000/svg" xmlns:xlink="http://www.w3.org/1999/xlink" version="1.1" width="103.79022827148438" height="95.72127380371094" viewBox="0.20977823734283452 0.100000011920929 103.79022827148438 95.72127380371094">
  <defs>
    <linearGradient id="grad_1" y2="1" x2="0">
      <stop offset="0" stop-color="#FFFFFF" stop-opacity="1"/>
      <stop offset="1" stop-color="#FFFFFF" stop-opacity="0"/>
    </linearGradient>
  <linearGradient id="grad_1-,0,0,1,-188.5,-131" y2="53.6962" x2="40.05" x1="40.05" y1="29.5963" gradientUnits="userSpaceOnUse">
      <stop offset="0" stop-color="#FFFFFF" stop-opacity="1"/>
      <stop offset="1" stop-color="#FFFFFF" stop-opacity="0"/>
    </linearGradient></defs>
  <!-- Exported by Scratch - http://scratch.mit.edu/ -->
  <g id="ID0.9182225447148085">
    <g id="ID0.505420402623713">
      <path id="ID0.8227132642641664" fill="#FAA51F" stroke="#8E5322" stroke-width="1.4" stroke-linecap="round" stroke-linejoin="round" d="M 71.8 69.5 C 71.8 69.5 70.4 74.7 75.3 76.1 C 81.7 78 88 77.1 88.4 80.8 C 89 86.9 79.9 87 72 83.4 C 64 79.7 64.1 76.4 64.1 76.4 C 64.1 76.4 65.8 69.4 71.8 69.5 Z "/>
      <g id="Layer_3_3_">
        <path id="ID0.4657096019946039" fill="#FAA51F" d="M 19.6 46 C 18.5 43.8 17.5 40.9 17.8 37.6 C 18.5 30.2 24.1 23.9 20.1 22 C 16.1 20.1 5.4 28 9.4 40.3 C 10.8 44.6 13.1 47.7 15 50.2 C 15.5 50.8 20.2 56.1 24.4 56 C 28.6 55.9 28.3 54 28.2 53.1 C 28.1 52.1 21.1 49.2 19.6 46 Z " stroke-width="1"/>
        <path id="ID0.5724561777897179" fill="#FFFFFF" d="M 20.4 22.1 C 18.7 20.8 14.1 22.8 11.8 25.7 C 9.5 28.6 9 31.5 8.6 33.3 C 8.7 35.2 10.6 34.1 13.4 33.1 C 16.2 32 18 36.1 18 36.1 C 18 36.1 19.6 31 20.6 28.2 C 21.6 25.4 22.1 23.6 20.4 22.1 Z " stroke-width="1"/>
        <path id="ID0.39994187420234084" fill="none" stroke="#8E5322" stroke-width="1.4" stroke-linecap="round" stroke-linejoin="round" d="M 19.6 46 C 18.5 43.8 17.5 40.9 17.8 37.6 C 18.5 30.2 24.1 23.9 20.1 22 C 16.1 20.1 5.4 28 9.4 40.3 C 10.8 44.6 13.1 47.7 15 50.2 C 15.5 50.8 20.2 56.1 24.4 56 C 28.6 55.9 28.3 54 28.2 53.1 C 28.1 52.1 21.1 49.2 19.6 46 Z "/>
      </g>
      <path id="ID0.11522916238754988" fill="#FAA51F" d="M 30.5 77.6 C 37.8 81.9 49 83.4 60.6 80.7 C 68.8 78.8 79 70.5 69.9 62.2 C 64.2 57 56.5 53.4 47.7 52.3 C 35.6 50.8 31.1 42 20.8 52.4 C 12.9 60.4 18.6 70.6 30.5 77.6 Z " stroke-width="1"/>
      <path id="ID0.16304467944428325" fill="#FFFFFF" d="M 36.2 80.6 C 36.2 80.6 36.2 77 32.1 74.6 C 28 72.3 26 72.6 24.5 73.4 C 24.6 73.4 29.5 78.1 36.2 80.6 Z " stroke-width="1"/>
      <path id="ID0.7713710851967335" fill="none" stroke="#8E5322" stroke-width="1.4" stroke-linecap="round" stroke-linejoin="round" d="M 30.5 77.6 C 37.8 81.9 49 83.4 60.6 80.7 C 68.8 78.8 79 70.5 69.9 62.2 C 64.2 57 56.5 53.4 47.7 52.3 C 35.6 50.8 31.1 42 20.8 52.4 C 12.9 60.4 18.6 70.6 30.5 77.6 Z "/>
      <path id="ID0.08572816383093596" fill="#FAA51F" stroke="#8E5322" stroke-width="1.4" stroke-linecap="round" stroke-linejoin="round" d="M 48.3 73.4 C 48.3 73.4 47.9 77.4 52.5 81 C 58.6 85.7 65.7 87.3 64.5 91.5 C 62.6 98.3 52.9 94.7 45.9 87.5 C 38.9 80.3 39.5 77 39.5 77 "/>
      <path id="ID0.4680046122521162" fill="#FAA51F" stroke="#8E5322" stroke-width="1.4" stroke-linecap="round" stroke-linejoin="round" d="M 17.6 58 C 17.6 58 17.1 58.6 13.5 56.2 C 8 52.4 5.7 50.7 2.3 53.2 C -2 56.2 4.4 62.3 11.6 65.2 C 18.5 68 20.6 67.8 20.6 67.8 "/>
    </g>
    <g id="Layer_2_6_">
      <path id="ID0.021928708534687757" fill="#FAA51F" stroke="#8E5322" stroke-width="1.4" stroke-linecap="round" stroke-linejoin="round" d="M 64.3 87 "/>
    </g>
    <g id="ID0.622874375898391">
      <g id="Layer_2_5_">
        <path id="ID0.24425535555928946" fill="#FAA51F" d="M 64.3 25.4 C 62.8 25.3 59.7 25.1 58 25.2 C 53.4 25.4 49.1 27.1 49.1 27.1 L 36.5 18.9 L 38.7 37.2 C 39.3 36.4 28.5 49.6 35.3 60.6 C 42.2 71.7 56.8 76.6 75 73 C 93.2 69.4 97.5 58.9 96.3 53.4 C 95.1 47.9 88.2 45.8 88.2 45.8 C 88.2 45.8 88.1 41.5 85 36.2 C 83.1 33 76.9 28.4 76.9 28.4 L 74.1 17.2 L 66.9 24.2 L 64.3 25.4 Z " stroke-width="1"/>
        <path id="ID0.29605328012257814" fill="#FFFFFF" d="M 87.3 45.6 L 84.9 43.6 L 76.1 46.2 C 76.1 46.2 76.1 49.5 71.9 50.4 C 67.7 51.3 60.6 49.7 60.6 49.7 L 53.5 51.5 C 53.5 51.5 45.4 51 45 57.4 C 44.3 68.5 53.6 73.8 62.1 73.7 C 67.6 73.7 71.1 73 75 72.3 C 92.2 69.2 97.1 58.8 95.6 53.3 C 94.4 47.8 87.8 46.2 87.8 46.2 L 87.3 45.6 Z " stroke-width="1"/>
        <path id="ID0.8374531795270741" fill="none" stroke="#8E5322" stroke-width="1.4" stroke-linecap="round" stroke-linejoin="round" d="M 92.3 51 C 92.3 51 96.7 50.3 98.9 49.5 C 101.5 48.6 103.3 47 103.3 47 "/>
        <path id="ID0.9414587062783539" fill="none" stroke="#8E5322" stroke-width="1.4" stroke-linecap="round" stroke-linejoin="round" d="M 92.8 56.8 C 92.8 56.8 95.4 57.9 98.2 58.1 C 100.9 58.4 102.7 58.2 102.7 58.2 "/>
        <path id="ID0.9503340744413435" fill="none" stroke="#8E5322" stroke-width="1.4" stroke-linecap="round" stroke-linejoin="round" d="M 46.8 25.5 L 52 29.1 "/>
        <path id="ID0.048357339575886726" fill="none" stroke="#8E5322" stroke-width="1.4" stroke-linecap="round" stroke-linejoin="round" d="M 64.3 25.4 C 62.8 25.3 59.7 25.1 58 25.2 C 53.4 25.4 49.1 27.1 49.1 27.1 L 36.5 18.9 L 38.7 37.2 C 39.3 36.4 28.5 49.6 35.3 60.6 C 42.2 71.7 56.8 76.6 75 73 C 93.2 69.4 97.5 58.9 96.3 53.4 C 95.1 47.9 88.2 45.8 88.2 45.8 C 88.2 45.8 88.1 41.5 85 36.2 C 83.1 33 76.9 28.4 76.9 28.4 L 74.1 17.2 L 66.9 24.2 L 64.3 25.4 Z "/>
        <path id="ID0.14809385081753135" fill="none" stroke="#8E5322" stroke-width="1.4" stroke-linecap="round" stroke-linejoin="round" d="M 23.6 56.3 C 23.6 56.3 27.6 56.7 29.4 56.6 C 31.2 56.5 34.7 56 34.7 56 "/>
        <path id="ID0.6689479104243219" fill="none" stroke="#8E5322" stroke-width="1.4" stroke-linecap="round" stroke-linejoin="round" d="M 34.9 52.2 C 34.9 52.2 32.6 50.5 29 48.9 C 25 47.1 22.8 46.7 22.8 46.7 "/>
      </g>
      <g id="Layer_5_3_">
        <path id="ID0.06831841962412" fill="#FFFFFF" stroke="#8E5322" stroke-width="1.4" stroke-linecap="round" stroke-linejoin="round" d="M 82.8 36.2 C 85.6 40.5 85.7 45.5 83 47.2 C 80.3 49 75.8 46.9 73 42.5 C 70.2 38.2 70.1 33.2 72.8 31.5 C 75.5 29.8 80 31.9 82.8 36.2 Z "/>
        <path id="ID0.3414206807501614" fill="#414142" d="M 82.7 39.8 C 83 40.8 82.5 41.8 81.5 42.1 C 80.6 42.4 79.6 41.8 79.3 40.7 C 79 39.7 79.5 38.7 80.5 38.4 C 81.5 38.2 82.4 38.8 82.7 39.8 " stroke-width="1"/>
      </g>
      <g id="Layer_7_3_">
        <path id="ID0.22908628825098276" fill="#FFFFFF" stroke="#8E5322" stroke-width="1.4" stroke-linecap="round" stroke-linejoin="round" d="M 59.6 39.4 C 62.4 43.7 62.1 48.9 58.9 51 C 55.7 53.1 50.8 51.3 48 46.9 C 45.2 42.6 45.5 37.4 48.7 35.3 C 51.9 33.2 56.8 35 59.6 39.4 Z "/>
        <path id="ID0.4091691100038588" fill="#414142" d="M 59.3 43.2 C 59.3 44.2 58.5 45.1 57.6 45.1 C 56.6 45.1 55.9 44.3 55.9 43.2 C 55.9 42.2 56.7 41.3 57.6 41.3 C 58.5 41.3 59.3 42.1 59.3 43.2 " stroke-width="1"/>
      </g>
      <path id="ID0.04810790345072746" fill="#5F4B43" stroke="#8E5322" stroke-width="1.4" stroke-linecap="round" stroke-linejoin="round" d="M 69.6 49.3 C 71.3 49.1 73.6 47.8 73.9 49.7 C 73.9 50.5 72.3 53.8 70.5 53.9 C 68.5 54 65 51.5 65.1 50 C 65.2 48.5 68.1 49.5 69.6 49.3 Z "/>
    </g>
    <g id="ID0.5114020956680179">
      <g id="ID0.4975463766604662">
        <path id="ID0.4267824525013566" fill="#42ACE1" stroke="#2495B7" stroke-width="1.4" d="M 89.2 39.5 C 88.6 36.5 87.4 34.1 85.2 32 C 81.2 28.2 71.6 25.9 62.5 27.6 C 46.3 30.5 43.7 35.3 33.4 37.9 C 31.4 38.4 30.8 46.9 33.7 47.4 C 42.3 48.9 43.6 60.2 54.8 56.5 C 63.9 53.5 62.7 47.1 68.3 46 C 73.9 44.9 78 51.5 83.8 51.8 C 92 52.2 90.2 43.8 89.2 39.5 Z M 85 48.6 C 80.9 49.1 71.4 41 67 41.7 C 62.6 42.5 61.1 52 52.2 53.6 C 46.5 54.7 41.3 46 41.3 46 C 37.7 40.6 42 37.2 52.6 32.8 C 63.2 28.4 78.4 28.5 83.3 33.3 C 88.2 38 89.1 48.1 85 48.6 Z "/>
        <path id="ID0.5206870594993234" fill="url(#grad_1-,0,0,1,-188.5,-131)" stroke="#2495B7" stroke-width="1.4" opacity="0.7" d="M 85 48.6 C 80.9 49.1 71.4 41 67 41.7 C 62.6 42.5 61.1 52 52.2 53.6 C 46.5 54.7 41.3 46 41.3 46 C 37.7 40.6 42 37.2 52.6 32.8 C 63.2 28.4 78.4 28.5 83.3 33.3 C 88.2 38 89.1 48.1 85 48.6 Z "/>
      </g>
      <g id="ID0.5248628263361752">
        <path id="ID0.5262357303872705" fill="#E6E7E8" stroke="#BCBEC0" stroke-width="1.4" stroke-linecap="round" stroke-linejoin="round" d="M 64.7 59.1 C 61.3 59.4 56.1 58.1 57.4 64.3 C 57.8 66 57.9 69.1 63.3 69.2 C 69.6 69.3 71 67.2 70.9 63.5 C 70.8 59.1 68.1 58.7 64.7 59.1 Z "/>
        <g id="ID0.8072975249961019">
          <g id="ID0.5074368817731738">
            <path id="ID0.161897795740515" fill="#42ACE1" stroke="#2495B7" stroke-width="1.4" d="M 63 66.8 C 63 66.8 62.9 66.8 62.9 66.8 L 50.9 66.2 C 45.8 65.9 41.4 62.5 39.9 57.6 L 28.6 21 C 28.2 19.7 28.9 18.3 30.3 17.9 C 31.6 17.5 33 18.2 33.4 19.6 L 44.7 56.1 C 45.6 59 48.2 61 51.2 61.2 L 63.2 61.8 C 64.6 61.9 65.6 63 65.6 64.4 C 65.4 65.7 64.3 66.8 63 66.8 Z "/>
          </g>
          <path id="ID0.8689762479625642" fill="none" stroke="#2495B7" stroke-width="1.4" stroke-linecap="round" stroke-linejoin="round" d="M 56.1 67.2 L 56.7 60.5 "/>
          <path id="ID0.06140637630596757" fill="none" stroke="#2495B7" stroke-width="1.4" stroke-linecap="round" stroke-linejoin="round" d="M 52.8 67 L 53.4 60.5 "/>
          <path id="ID0.9252093024551868" fill="none" stroke="#2495B7" stroke-width="1.4" stroke-linecap="round" stroke-linejoin="round" d="M 49.8 66.8 L 50.4 60.3 "/>
        </g>
      </g>
    </g>
    <path id="ID0.17849360732361674" fill="#FFFFFF" stroke="#E6E7E8" stroke-width="1.4" stroke-linecap="round" stroke-linejoin="round" d="M 32 0.8 C 33.076 0.8 34.051 1.237 34.757 1.943 C 35.463 2.649 35.9 3.624 35.9 4.7 C 35.9 5.776 35.463 6.751 34.757 7.457 C 34.051 8.163 33.076 8.6 32 8.6 C 30.924 8.6 29.949 8.163 29.243 7.457 C 28.537 6.751 28.1 5.776 28.1 4.7 C 28.1 3.624 28.537 2.649 29.243 1.943 C 29.949 1.237 30.924 0.8 32 0.8 Z "/>
    <path id="ID0.2383216437883675" fill="#FFFFFF" stroke="#E6E7E8" stroke-width="1.4" stroke-linecap="round" stroke-linejoin="round" d="M 25.7 11.2 C 26.224 11.2 26.699 11.413 27.043 11.757 C 27.387 12.101 27.6 12.576 27.6 13.1 C 27.6 13.624 27.387 14.099 27.043 14.443 C 26.699 14.787 26.224 15 25.7 15 C 25.176 15 24.701 14.787 24.357 14.443 C 24.013 14.099 23.8 13.624 23.8 13.1 C 23.8 12.576 24.013 12.101 24.357 11.757 C 24.701 11.413 25.176 11.2 25.7 11.2 Z "/>
  </g>
</svg>