<svg version="1.1" xmlns="http://www.w3.org/2000/svg" xmlns:xlink="http://www.w3.org/1999/xlink" width="1198.11557" height="897.32278"><defs><radialGradient cx="240.00015" cy="180" r="599.05774" gradientUnits="userSpaceOnUse" id="color-1"><stop offset="0" stop-color="#272727" stop-opacity="0"/><stop offset="1" stop-color="#272727"/></radialGradient><radialGradient cx="240.00014" cy="180" r="599.05774" gradientUnits="userSpaceOnUse" id="color-2"><stop offset="0" stop-color="#272727" stop-opacity="0"/><stop offset="1" stop-color="#272727"/></radialGradient><radialGradient cx="240.00014" cy="180" r="599.05774" gradientUnits="userSpaceOnUse" id="color-3"><stop offset="0" stop-color="#272727" stop-opacity="0"/><stop offset="1" stop-color="#272727"/></radialGradient><radialGradient cx="240.00014" cy="180" r="599.05774" gradientUnits="userSpaceOnUse" id="color-4"><stop offset="0" stop-color="#272727" stop-opacity="0"/><stop offset="1" stop-color="#272727"/></radialGradient><radialGradient cx="240.00012" cy="180" r="599.05774" gradientUnits="userSpaceOnUse" id="color-5"><stop offset="0" stop-color="#272727" stop-opacity="0"/><stop offset="1" stop-color="#272727"/></radialGradient><radialGradient cx="240.00012" cy="180" r="599.05774" gradientUnits="userSpaceOnUse" id="color-6"><stop offset="0" stop-color="#272727" stop-opacity="0"/><stop offset="1" stop-color="#272727"/></radialGradient><radialGradient cx="240.00009" cy="180" r="599.05774" gradientUnits="userSpaceOnUse" id="color-7"><stop offset="0" stop-color="#272727" stop-opacity="0"/><stop offset="1" stop-color="#272727"/></radialGradient><radialGradient cx="240.00015" cy="180" r="599.05774" gradientUnits="userSpaceOnUse" id="color-8"><stop offset="0" stop-color="#272727" stop-opacity="0"/><stop offset="1" stop-color="#272727"/></radialGradient><radialGradient cx="240.00014" cy="180" r="599.05774" gradientUnits="userSpaceOnUse" id="color-9"><stop offset="0" stop-color="#272727" stop-opacity="0"/><stop offset="1" stop-color="#272727"/></radialGradient><radialGradient cx="240.00013" cy="180" r="599.05774" gradientUnits="userSpaceOnUse" id="color-10"><stop offset="0" stop-color="#272727" stop-opacity="0"/><stop offset="1" stop-color="#272727"/></radialGradient><radialGradient cx="240.00013" cy="180" r="599.05774" gradientUnits="userSpaceOnUse" id="color-11"><stop offset="0" stop-color="#272727" stop-opacity="0"/><stop offset="1" stop-color="#272727"/></radialGradient><radialGradient cx="240.00012" cy="180" r="599.05774" gradientUnits="userSpaceOnUse" id="color-12"><stop offset="0" stop-color="#272727" stop-opacity="0"/><stop offset="1" stop-color="#272727"/></radialGradient><radialGradient cx="240.0001" cy="180" r="599.05774" gradientUnits="userSpaceOnUse" id="color-13"><stop offset="0" stop-color="#272727" stop-opacity="0"/><stop offset="1" stop-color="#272727"/></radialGradient><radialGradient cx="240.00009" cy="180" r="599.05774" gradientUnits="userSpaceOnUse" id="color-14"><stop offset="0" stop-color="#272727" stop-opacity="0"/><stop offset="1" stop-color="#272727"/></radialGradient><radialGradient cx="240.00014" cy="180" r="599.05774" gradientUnits="userSpaceOnUse" id="color-15"><stop offset="0" stop-color="#272727" stop-opacity="0"/><stop offset="1" stop-color="#272727"/></radialGradient><radialGradient cx="240.00013" cy="180" r="599.05774" gradientUnits="userSpaceOnUse" id="color-16"><stop offset="0" stop-color="#272727" stop-opacity="0"/><stop offset="1" stop-color="#272727"/></radialGradient><radialGradient cx="240.00012" cy="180" r="599.05774" gradientUnits="userSpaceOnUse" id="color-17"><stop offset="0" stop-color="#272727" stop-opacity="0"/><stop offset="1" stop-color="#272727"/></radialGradient><radialGradient cx="240.00012" cy="180" r="599.05774" gradientUnits="userSpaceOnUse" id="color-18"><stop offset="0" stop-color="#272727" stop-opacity="0"/><stop offset="1" stop-color="#272727"/></radialGradient><radialGradient cx="240.0001" cy="180" r="599.05774" gradientUnits="userSpaceOnUse" id="color-19"><stop offset="0" stop-color="#272727" stop-opacity="0"/><stop offset="1" stop-color="#272727"/></radialGradient><radialGradient cx="240.0001" cy="180" r="599.05774" gradientUnits="userSpaceOnUse" id="color-20"><stop offset="0" stop-color="#272727" stop-opacity="0"/><stop offset="1" stop-color="#272727"/></radialGradient><radialGradient cx="240.00007" cy="180" r="599.05774" gradientUnits="userSpaceOnUse" id="color-21"><stop offset="0" stop-color="#272727" stop-opacity="0"/><stop offset="1" stop-color="#272727"/></radialGradient></defs><g transform="translate(359.05767,268.66139)"><g data-paper-data="{&quot;isPaintingLayer&quot;:true}" fill="none" fill-rule="nonzero" stroke="none" stroke-width="0" stroke-linecap="butt" stroke-linejoin="miter" stroke-miterlimit="10" stroke-dasharray="" stroke-dashoffset="0" font-family="none" font-weight="none" font-size="none" text-anchor="none" style="mix-blend-mode: normal"><path d="M-359.05758,628.66139v-897.32278h1198.11549v897.32278zM239.60669,244.65281c35.19686,0 63.72955,-28.45221 63.72955,-63.54978c0,-35.09757 -28.53269,-63.54977 -63.72954,-63.54977c-35.19685,0 -63.72955,28.4522 -63.72955,63.54977c0,35.09757 28.5327,63.54978 63.72955,63.54978z" data-paper-data="{&quot;origPos&quot;:null}" fill="url(#color-1)"/><path d="M-359.05759,628.66139v-897.32278h1198.11549v897.32278zM239.60668,244.65281c35.19686,0 63.72955,-28.45221 63.72955,-63.54978c0,-35.09757 -28.53269,-63.54977 -63.72954,-63.54977c-35.19685,0 -63.72955,28.4522 -63.72955,63.54977c0,35.09757 28.5327,63.54978 63.72955,63.54978z" data-paper-data="{&quot;origPos&quot;:null}" fill="url(#color-2)"/><path d="M-359.0576,628.66139v-897.32278h1198.11549v897.32278zM239.60668,244.65281c35.19686,0 63.72955,-28.45221 63.72955,-63.54978c0,-35.09757 -28.53269,-63.54977 -63.72954,-63.54977c-35.19685,0 -63.72955,28.4522 -63.72955,63.54977c0,35.09757 28.5327,63.54978 63.72955,63.54978z" data-paper-data="{&quot;origPos&quot;:null}" fill="url(#color-3)"/><path d="M-359.05761,628.66139v-897.32278h1198.11549v897.32278zM239.60668,244.65281c35.19686,0 63.72955,-28.45221 63.72955,-63.54978c0,-35.09757 -28.53269,-63.54977 -63.72954,-63.54977c-35.19685,0 -63.72955,28.4522 -63.72955,63.54977c0,35.09757 28.5327,63.54978 63.72955,63.54978z" data-paper-data="{&quot;origPos&quot;:null}" fill="url(#color-4)"/><path d="M-359.05762,628.66139v-897.32278h1198.11549v897.32278zM239.60666,244.65281c35.19686,0 63.72955,-28.45221 63.72955,-63.54978c0,-35.09757 -28.53269,-63.54977 -63.72954,-63.54977c-35.19685,0 -63.72955,28.4522 -63.72955,63.54977c0,35.09757 28.5327,63.54978 63.72955,63.54978z" data-paper-data="{&quot;origPos&quot;:null}" fill="url(#color-5)"/><path d="M-359.05763,628.66139v-897.32278h1198.11549v897.32278zM239.60666,244.65281c35.19686,0 63.72955,-28.45221 63.72955,-63.54978c0,-35.09757 -28.53269,-63.54977 -63.72954,-63.54977c-35.19685,0 -63.72955,28.4522 -63.72955,63.54977c0,35.09757 28.5327,63.54978 63.72955,63.54978z" data-paper-data="{&quot;origPos&quot;:null}" fill="url(#color-6)"/><path d="M-359.05764,628.66139v-897.32278h1198.11549v897.32278zM239.60663,244.65281c35.19686,0 63.72955,-28.45221 63.72955,-63.54978c0,-35.09757 -28.53269,-63.54977 -63.72954,-63.54977c-35.19685,0 -63.72955,28.4522 -63.72955,63.54977c0,35.09757 28.5327,63.54978 63.72955,63.54978z" data-paper-data="{&quot;origPos&quot;:null}" fill="url(#color-7)"/><path d="M-359.05759,628.66139v-897.32278h1198.11549v897.32278zM239.60669,244.65281c35.19686,0 63.72955,-28.45221 63.72955,-63.54978c0,-35.09757 -28.53269,-63.54977 -63.72954,-63.54977c-35.19685,0 -63.72955,28.4522 -63.72955,63.54977c0,35.09757 28.5327,63.54978 63.72955,63.54978z" data-paper-data="{&quot;origPos&quot;:null}" fill="url(#color-8)"/><path d="M-359.0576,628.66139v-897.32278h1198.11549v897.32278zM239.60668,244.65281c35.19686,0 63.72955,-28.45221 63.72955,-63.54978c0,-35.09757 -28.53269,-63.54977 -63.72954,-63.54977c-35.19685,0 -63.72955,28.4522 -63.72955,63.54977c0,35.09757 28.5327,63.54978 63.72955,63.54978z" data-paper-data="{&quot;origPos&quot;:null}" fill="url(#color-9)"/><path d="M-359.05761,628.66139v-897.32278h1198.11549v897.32278zM239.60667,244.65281c35.19686,0 63.72955,-28.45221 63.72955,-63.54978c0,-35.09757 -28.53269,-63.54977 -63.72954,-63.54977c-35.19685,0 -63.72955,28.4522 -63.72955,63.54977c0,35.09757 28.5327,63.54978 63.72955,63.54978z" data-paper-data="{&quot;origPos&quot;:null}" fill="url(#color-10)"/><path d="M-359.05762,628.66139v-897.32278h1198.11549v897.32278zM239.60667,244.65281c35.19686,0 63.72955,-28.45221 63.72955,-63.54978c0,-35.09757 -28.53269,-63.54977 -63.72954,-63.54977c-35.19685,0 -63.72955,28.4522 -63.72955,63.54977c0,35.09757 28.5327,63.54978 63.72955,63.54978z" data-paper-data="{&quot;origPos&quot;:null}" fill="url(#color-11)"/><path d="M-359.05763,628.66139v-897.32278h1198.11549v897.32278zM239.60666,244.65281c35.19686,0 63.72955,-28.45221 63.72955,-63.54978c0,-35.09757 -28.53269,-63.54977 -63.72954,-63.54977c-35.19685,0 -63.72955,28.4522 -63.72955,63.54977c0,35.09757 28.5327,63.54978 63.72955,63.54978z" data-paper-data="{&quot;origPos&quot;:null}" fill="url(#color-12)"/><path d="M-359.05764,628.66139v-897.32278h1198.11549v897.32278zM239.60664,244.65281c35.19686,0 63.72955,-28.45221 63.72955,-63.54978c0,-35.09757 -28.53269,-63.54977 -63.72954,-63.54977c-35.19685,0 -63.72955,28.4522 -63.72955,63.54977c0,35.09757 28.5327,63.54978 63.72955,63.54978z" data-paper-data="{&quot;origPos&quot;:null}" fill="url(#color-13)"/><path d="M-359.05765,628.66139v-897.32278h1198.11549v897.32278zM239.60663,244.65281c35.19686,0 63.72955,-28.45221 63.72955,-63.54978c0,-35.09757 -28.53269,-63.54977 -63.72954,-63.54977c-35.19685,0 -63.72955,28.4522 -63.72955,63.54977c0,35.09757 28.5327,63.54978 63.72955,63.54978z" data-paper-data="{&quot;origPos&quot;:null}" fill="url(#color-14)"/><path d="M-359.0576,628.66139v-897.32278h1198.11549v897.32278zM239.60668,244.65281c35.19686,0 63.72955,-28.45221 63.72955,-63.54978c0,-35.09757 -28.53269,-63.54977 -63.72954,-63.54977c-35.19685,0 -63.72955,28.4522 -63.72955,63.54977c0,35.09757 28.5327,63.54978 63.72955,63.54978z" data-paper-data="{&quot;origPos&quot;:null}" fill="url(#color-15)"/><path d="M-359.05761,628.66139v-897.32278h1198.11549v897.32278zM239.60667,244.65281c35.19686,0 63.72955,-28.45221 63.72955,-63.54978c0,-35.09757 -28.53269,-63.54977 -63.72954,-63.54977c-35.19685,0 -63.72955,28.4522 -63.72955,63.54977c0,35.09757 28.5327,63.54978 63.72955,63.54978z" data-paper-data="{&quot;origPos&quot;:null}" fill="url(#color-16)"/><path d="M-359.05762,628.66139v-897.32278h1198.11549v897.32278zM239.60666,244.65281c35.19686,0 63.72955,-28.45221 63.72955,-63.54978c0,-35.09757 -28.53269,-63.54977 -63.72954,-63.54977c-35.19685,0 -63.72955,28.4522 -63.72955,63.54977c0,35.09757 28.5327,63.54978 63.72955,63.54978z" data-paper-data="{&quot;origPos&quot;:null}" fill="url(#color-17)"/><path d="M-359.05763,628.66139v-897.32278h1198.11549v897.32278zM239.60666,244.65281c35.19686,0 63.72955,-28.45221 63.72955,-63.54978c0,-35.09757 -28.53269,-63.54977 -63.72954,-63.54977c-35.19685,0 -63.72955,28.4522 -63.72955,63.54977c0,35.09757 28.5327,63.54978 63.72955,63.54978z" data-paper-data="{&quot;origPos&quot;:null}" fill="url(#color-18)"/><path d="M-359.05764,628.66139v-897.32278h1198.11549v897.32278zM239.60664,244.65281c35.19686,0 63.72955,-28.45221 63.72955,-63.54978c0,-35.09757 -28.53269,-63.54977 -63.72954,-63.54977c-35.19685,0 -63.72955,28.4522 -63.72955,63.54977c0,35.09757 28.5327,63.54978 63.72955,63.54978z" data-paper-data="{&quot;origPos&quot;:null}" fill="url(#color-19)"/><path d="M-359.05765,628.66139v-897.32278h1198.11549v897.32278zM239.60664,244.65281c35.19686,0 63.72955,-28.45221 63.72955,-63.54978c0,-35.09757 -28.53269,-63.54977 -63.72954,-63.54977c-35.19685,0 -63.72955,28.4522 -63.72955,63.54977c0,35.09757 28.5327,63.54978 63.72955,63.54978z" data-paper-data="{&quot;origPos&quot;:null}" fill="url(#color-20)"/><path d="M-359.05766,628.66139v-897.32278h1198.11549v897.32278zM239.60661,244.65281c35.19686,0 63.72955,-28.45221 63.72955,-63.54978c0,-35.09757 -28.53269,-63.54977 -63.72954,-63.54977c-35.19685,0 -63.72955,28.4522 -63.72955,63.54977c0,35.09757 28.5327,63.54978 63.72955,63.54978z" data-paper-data="{&quot;origPos&quot;:null}" fill="url(#color-21)"/></g></g></svg>