<svg version="1.1" xmlns="http://www.w3.org/2000/svg" xmlns:xlink="http://www.w3.org/1999/xlink" width="126.17593" height="103.60122" viewBox="0,0,126.17593,103.60122"><g transform="translate(-241.4851,-127.89698)"><g data-paper-data="{&quot;isPaintingLayer&quot;:true}" fill-rule="nonzero" stroke-linecap="butt" stroke-linejoin="miter" stroke-miterlimit="10" stroke-dasharray="" stroke-dashoffset="0" style="mix-blend-mode: normal"><path d="M319.7199,217.63019c-3.2567,-2.7323 -7.22016,-4.64968 -11.57651,-5.43826c-1.71974,-1.94618 -3.69343,-3.67232 -5.81887,-5.08927c-3.22568,-2.15045 -7.63141,-1.49795 -11.30086,-2.74878c-3.13174,-1.06753 -6.79654,-2.42196 -10.24575,-3.28084c-2.9907,-1.62603 -6.3503,-2.65942 -9.92112,-2.94252c-4.35309,-5.35352 -10.87694,-8.87112 -18.23051,-9.21177c-2.84115,-2.5653 -6.27416,-4.48749 -10.06955,-5.53707c-0.02686,-2.42765 -0.39973,-4.77222 -1.07163,-6.98675c2.23044,-0.69423 4.3269,-1.69241 6.24095,-2.94609c4.93695,-0.90156 9.36761,-3.25321 12.83442,-6.59737c3.72872,-0.25586 6.99106,-2.72657 10.36072,-4.35981c0.69694,-0.3378 1.016,-1.35282 1.77695,-1.49696c11.08715,-2.10018 21.92924,-7.02932 32.06572,-11.76042c3.34954,-1.56336 7.82755,-1.22983 11.30047,-2.74884c3.24996,-1.4215 6.64103,-4.43998 10.06603,-6.07258c6.17476,-2.94332 11.40717,-3.32306 16.31711,-6.85929c2.95934,-0.82478 5.69742,-2.18035 8.1052,-3.95765c2.08097,-0.3208 4.07726,-0.89822 5.95554,-1.69892c13.81171,30.89882 15.38001,67.19533 1.40864,100.93362c-0.37091,0.89569 -0.75085,1.78491 -1.13966,2.6676c-0.94184,-0.32834 -1.90934,-0.60192 -2.8987,-0.81693c-3.50527,-3.02516 -7.85958,-5.0934 -12.65711,-5.79891c-3.34913,-1.81859 -7.16031,-2.89419 -11.21234,-3.00563c-3.0062,-2.1307 -6.50364,-3.61394 -10.28915,-4.24654z" fill="#9966ff" stroke="none" stroke-width="NaN"/><path d="" fill="#9966ff" stroke="none" stroke-width="NaN"/><path d="M319.7199,217.63019c-3.2567,-2.7323 -7.22016,-4.64968 -11.57651,-5.43826c-1.71974,-1.94618 -3.69343,-3.67232 -5.81887,-5.08927c-3.22568,-2.15045 -7.63141,-1.49795 -11.30086,-2.74878c-3.13174,-1.06753 -6.79654,-2.42196 -10.24575,-3.28084c-2.9907,-1.62603 -6.3503,-2.65942 -9.92112,-2.94252c-4.35309,-5.35352 -10.87694,-8.87112 -18.23051,-9.21177c-2.84115,-2.5653 -6.27416,-4.48749 -10.06955,-5.53707c-0.02686,-2.42765 -0.39973,-4.77222 -1.07163,-6.98675c2.23044,-0.69423 4.3269,-1.69241 6.24095,-2.94609c4.93695,-0.90156 9.36761,-3.25321 12.83442,-6.59737c3.72872,-0.25586 6.99106,-2.72657 10.36072,-4.35981c0.69694,-0.3378 1.016,-1.35282 1.77695,-1.49696c11.08715,-2.10018 21.92924,-7.02932 32.06572,-11.76042c3.34954,-1.56336 7.82755,-1.22983 11.30047,-2.74884c3.24996,-1.4215 6.64103,-4.43998 10.06603,-6.07258c6.17476,-2.94332 11.40717,-3.32306 16.31711,-6.85929c2.95934,-0.82478 5.69742,-2.18035 8.1052,-3.95765c2.08097,-0.3208 4.07726,-0.89822 5.95554,-1.69892c13.81171,30.89882 15.38001,67.19533 1.40864,100.93362c-0.37091,0.89569 -0.75085,1.78491 -1.13966,2.6676c-0.94184,-0.32834 -1.90934,-0.60192 -2.8987,-0.81693c-3.50527,-3.02516 -7.85958,-5.0934 -12.65711,-5.79891c-3.34913,-1.81859 -7.16031,-2.89419 -11.21234,-3.00563c-3.0062,-2.1307 -6.50364,-3.61394 -10.28915,-4.24654z" fill="#dcffbd" stroke="none" stroke-width="NaN"/><path d="" fill="#0001ff" stroke="#000000" stroke-width="0.5"/><path d="" fill="#0001ff" stroke="#000000" stroke-width="0.5"/><path d="" data-paper-data="{&quot;index&quot;:null}" fill="#0001ff" stroke="#000000" stroke-width="0.5"/><path d="" data-paper-data="{&quot;index&quot;:null}" fill="#0001ff" stroke="#000000" stroke-width="0.5"/><path d="" fill="#9966ff" stroke="none" stroke-width="NaN"/><path d="" fill="#0001ff" stroke="#000000" stroke-width="0.5"/><path d="" fill="#0001ff" stroke="#000000" stroke-width="0.5"/></g></g></svg>