<svg xmlns="http://www.w3.org/2000/svg" xmlns:xlink="http://www.w3.org/1999/xlink" version="1.1" width="100.65650787353516" height="110.46163787841797" viewBox="0.2000000357627869 0.5000000476837159 100.65650787353516 110.46163787841797">
  <!-- Exported by Scratch - http://scratch.mit.edu/ -->
  <g id="ID0.9001269498839974">
    <path id="ID0.7016508881933987" fill="#E0DCBA" stroke="#9F9C86" stroke-width="1.4" stroke-linecap="round" stroke-linejoin="round" d="M 13.6 91.3 C 13.6 91.3 13.9 95.4 12.4 98.1 C 11.6 99.7 12.8 101.3 14.5 101 C 16.8 100.5 19.8 99.2 23.4 96.2 L 13.6 91.3 Z "/>
    <path id="ID0.8408873854205012" fill="#E0DCBA" d="M 58.1 84.7 C 84.3 90.2 103 99.5 99.8 105.5 C 96.6 111.5 72.7 111.9 46.5 106.3 C 20.3 100.7 1.6 91.5 4.8 85.5 C 8 79.6 31.8 79.2 58.1 84.7 Z " stroke-width="1"/>
    <path id="ID0.41305118100717664" fill="#E95C84" stroke="#C04C70" stroke-width="1.4" stroke-linecap="round" stroke-linejoin="round" d="M 57.5 108.4 L 83.3 92.2 L 89.6 94.8 L 67.1 109.4 L 57.5 108.4 "/>
    <path id="ID0.10988324228674173" fill="none" stroke="#9F9C87" stroke-width="1.4" d="M 58.1 84.7 C 84.3 90.2 103 99.5 99.8 105.5 C 96.6 111.5 72.7 111.9 46.5 106.3 C 20.3 100.7 1.6 91.5 4.8 85.5 C 8 79.6 31.8 79.2 58.1 84.7 Z "/>
    <g id="ID0.8470992278307676">
      <g id="Layer_3_6_">
        <path id="ID0.9450713414698839" fill="#FAA51F" d="M 28.9 72.7 C 26.8 72.9 24.1 72.8 21.4 71.3 C 15.4 67.9 11.5 60.6 9 63.6 C 6.4 66.6 10.4 79.3 21.7 80 C 25.6 80.3 28.8 79.3 31.3 78.4 C 32 78.2 37.5 75.8 38.4 71.9 C 39.3 68 37.7 67.6 36.9 67.3 C 36.1 67 31.9 72.4 28.9 72.7 Z " stroke-width="1"/>
        <path id="ID0.9233616162091494" fill="#FFFFFF" d="M 9.2 63.3 C 7.7 64.4 8.2 69.4 10.1 72.5 C 12 75.6 14.2 77.1 15.7 78.1 C 17.3 78.7 14.3 75.4 15.5 73.2 C 16.7 71 20.4 70.5 20.4 70.5 C 20.4 70.5 16.5 67.2 14.4 65.3 C 12.2 63.4 10.8 62.3 9.2 63.3 Z " stroke-width="1"/>
        <path id="ID0.3161381892859936" fill="none" stroke="#8E5322" stroke-width="1.4" stroke-linecap="round" stroke-linejoin="round" d="M 28.9 72.7 C 26.8 72.9 24.1 72.8 21.4 71.3 C 15.4 67.9 11.5 60.6 9 63.6 C 6.4 66.6 10.4 79.3 21.7 80 C 25.6 80.3 28.8 79.3 31.3 78.4 C 32 78.2 37.5 75.8 38.4 71.9 C 39.3 68 37.7 67.6 36.9 67.3 C 36.1 67 31.9 72.4 28.9 72.7 Z "/>
      </g>
      <path id="ID0.5031364867463708" fill="#FAA51F" stroke="#8E5322" stroke-width="1.4" stroke-linecap="round" stroke-linejoin="round" d="M 31.9 57.1 C 31.9 57.1 27.9 58.4 23.8 56.9 C 18.4 54.9 14.6 50.8 12.3 53.5 C 9.6 56.6 14.8 62.9 22.2 64.4 C 29.6 65.9 31.4 63.2 31.4 63.2 C 31.4 63.2 36.1 60.3 31.9 57.1 Z "/>
      <g id="ID0.5600579064339399">
        <path id="ID0.955618601758033" fill="#FAA51F" stroke="#8E5322" stroke-width="1.4" stroke-linecap="round" stroke-linejoin="round" d="M 31.4 71.5 C 31.4 71.5 32.8 76.2 32.2 83.7 C 31.9 86.9 25.8 83.3 26.3 89.6 C 26.4 91.4 34.4 91.2 36.1 90.6 C 37.7 90 38.1 89.4 37.9 87.7 C 36.9 81.5 40.1 74.3 40.1 74.3 "/>
        <path id="ID0.8227054844610393" fill="#FAA51F" stroke="#8E5322" stroke-width="1.4" stroke-linecap="round" stroke-linejoin="round" d="M 30.5 85.3 C 30.5 85.3 31.6 85.2 32.9 85.4 "/>
      </g>
      <g id="Layer_2_12_">
        <path id="ID0.6310573830269277" fill="#FAA51F" stroke="#8E5322" stroke-width="1.4" stroke-linecap="round" stroke-linejoin="round" d="M 39.1 69.5 "/>
      </g>
      <path id="ID0.96320023201406" fill="#FAA51F" stroke="#8E5322" stroke-width="1.4" stroke-linecap="round" stroke-linejoin="round" d="M 29.2 60.6 C 29.2 67.3 27.5 77.1 39.4 77.1 C 51.3 77.1 50.2 68.1 50.2 61.4 C 50.2 54.7 46.1 52.9 39.4 52.9 C 32.5 53 29.2 54 29.2 60.6 Z "/>
      <path id="ID0.7378530218265951" fill="#FAA51F" stroke="#8E5322" stroke-width="1.4" stroke-linecap="round" stroke-linejoin="round" d="M 46.6 57 C 46.6 57 51.2 61.8 57.1 61.1 C 60.1 60.8 65.2 56 68 59.9 C 71.4 64.5 63.9 69.6 56.3 68.7 C 49.5 67.8 48.1 65.4 48.1 65.4 "/>
      <path id="ID0.6595196952112019" fill="#FFFFFF" d="M 31.7 63.6 C 31.7 67.8 30.8 74.1 37.2 74.1 C 43.7 74.1 43.1 68.4 43.1 64.2 C 43.1 60 40.9 58.8 37.2 58.8 C 33.6 58.7 31.7 59.3 31.7 63.6 Z " stroke-width="1"/>
      <g id="ID0.7908683656714857">
        <path id="ID0.17843041010200977" fill="#FAA51F" stroke="#8E5322" stroke-width="1.4" stroke-linecap="round" stroke-linejoin="round" d="M 49.3 71.5 C 49.3 71.5 46.7 77 48 85.7 C 48.6 89.5 54.2 84.8 53.8 92.4 C 53.7 94.9 46.1 94.7 43.9 94.3 C 41.8 93.9 41 92.8 41.2 90.7 C 41.5 86.5 40 77.4 40 77.4 "/>
        <path id="ID0.5559157119132578" fill="#FAA51F" stroke="#8E5322" stroke-width="1.4" stroke-linecap="round" stroke-linejoin="round" d="M 50.4 87.6 C 50.4 87.6 48.8 87.4 47.4 87.8 "/>
      </g>
    </g>
    <g id="Layer_2_11_">
      <path id="ID0.42310847574844956" fill="#FAA51F" d="M 44.1 10 C 42.6 9.7 39.5 9.3 37.8 9.3 C 33.2 9.1 28.7 10.4 28.7 10.4 L 16.8 1.2 L 17.4 19.6 C 18.1 18.9 6.2 31.1 12.1 42.7 C 18 54.3 32.2 60.4 50.6 58.3 C 69 56.2 74.2 46.2 73.4 40.5 C 72.7 34.9 66 32.3 66 32.3 C 66 32.3 66.3 28 63.6 22.4 C 62 19.1 56.2 14 56.2 14 L 54.4 2.6 L 46.6 8.9 L 44.1 10 Z " stroke-width="1"/>
      <path id="ID0.8597442898899317" fill="#FFFFFF" d="M 65.3 32.1 L 63.1 29.9 L 54.1 31.7 C 54.1 31.7 53.8 35 49.5 35.6 C 45.2 36.2 38.3 33.9 38.3 33.9 L 31.1 35.2 C 31.1 35.2 23.1 34 22.2 40.4 C 20.6 51.4 29.4 57.4 37.9 58.1 C 43.4 58.6 46.9 58.2 50.9 57.7 C 68.3 56 74 46.1 73 40.5 C 72.3 34.9 65.8 32.7 65.8 32.7 L 65.3 32.1 Z " stroke-width="1"/>
      <path id="ID0.9830681248567998" fill="none" stroke="#8E5322" stroke-width="1.4" stroke-linecap="round" stroke-linejoin="round" d="M 69.9 37.9 C 69.9 37.9 74.3 37.5 76.6 37 C 79.3 36.3 81.2 34.9 81.2 34.9 "/>
      <path id="ID0.4908808181062341" fill="none" stroke="#8E5322" stroke-width="1.4" stroke-linecap="round" stroke-linejoin="round" d="M 69.8 43.7 C 69.8 43.7 72.3 45 75 45.5 C 77.6 46 79.5 46 79.5 46 "/>
      <path id="ID0.797550339717418" fill="none" stroke="#8E5322" stroke-width="1.4" stroke-linecap="round" stroke-linejoin="round" d="M 26.6 8.7 L 31.5 12.7 "/>
      <path id="ID0.12006938457489014" fill="none" stroke="#8E5322" stroke-width="1.4" stroke-linecap="round" stroke-linejoin="round" d="M 44.1 10 C 42.6 9.7 39.5 9.3 37.8 9.3 C 33.2 9.1 28.7 10.4 28.7 10.4 L 16.8 1.2 L 17.4 19.6 C 18.1 18.9 6.2 31.1 12.1 42.7 C 18 54.3 32.2 60.4 50.6 58.3 C 69 56.2 74.2 46.2 73.4 40.5 C 72.7 34.9 66 32.3 66 32.3 C 66 32.3 66.3 28 63.6 22.4 C 62 19.1 56.2 14 56.2 14 L 54.4 2.6 L 46.6 8.9 L 44.1 10 Z "/>
      <path id="ID0.31766536133363843" fill="none" stroke="#8E5322" stroke-width="1.4" stroke-linecap="round" stroke-linejoin="round" d="M 1 37.5 C 1 37.5 4.9 38.2 6.7 38.2 C 8.5 38.2 12 38.1 12 38.1 "/>
      <path id="ID0.3076930553652346" fill="none" stroke="#8E5322" stroke-width="1.4" stroke-linecap="round" stroke-linejoin="round" d="M 12.5 34.3 C 12.5 34.3 10.3 32.4 6.9 30.5 C 3.1 28.4 0.9 27.8 0.9 27.8 "/>
    </g>
    <g id="Layer_5_6_">
      <path id="ID0.60450822673738" fill="#FFFFFF" stroke="#8E5322" stroke-width="1.4" stroke-linecap="round" stroke-linejoin="round" d="M 61.6 22.3 C 64.1 26.9 63.8 31.8 60.9 33.3 C 58.1 34.8 53.8 32.4 51.3 27.8 C 48.8 23.2 49.1 18.3 52 16.8 C 54.9 15.3 59.2 17.8 61.6 22.3 Z "/>
      <path id="ID0.6919505232945085" fill="#414142" d="M 61.2 25.9 C 61.4 26.9 60.8 27.9 59.8 28.1 C 58.9 28.3 57.9 27.6 57.7 26.6 C 57.5 25.6 58.1 24.6 59.1 24.4 C 60.1 24.2 61 24.9 61.2 25.9 " stroke-width="1"/>
    </g>
    <g id="Layer_7_6_">
      <path id="ID0.477990401443094" fill="#FFFFFF" stroke="#8E5322" stroke-width="1.4" stroke-linecap="round" stroke-linejoin="round" d="M 38.2 23.6 C 40.7 28.2 39.9 33.3 36.6 35.1 C 33.2 36.9 28.5 34.7 26.1 30.1 C 23.6 25.5 24.4 20.4 27.7 18.6 C 31.1 16.8 35.8 19 38.2 23.6 Z "/>
      <path id="ID0.8122585378587246" fill="#414142" d="M 37.6 27.3 C 37.5 28.3 36.7 29.1 35.7 29 C 34.7 28.9 34 28 34.1 27 C 34.2 26 35 25.2 36 25.3 C 37 25.4 37.7 26.3 37.6 27.3 " stroke-width="1"/>
    </g>
    <path id="ID0.8335714992135763" fill="#5F4B43" stroke="#8E5322" stroke-width="1.4" stroke-linecap="round" stroke-linejoin="round" d="M 48.3 34.3 C 50 34.2 52.4 33.2 52.6 35.1 C 52.6 35.9 50.7 39.1 48.8 39 C 46.8 39 43.5 36.1 43.8 34.6 C 44 33.2 46.9 34.4 48.3 34.3 Z "/>
    <path id="ID0.7730291336774826" fill="#FFFFFF" stroke="#8E5322" stroke-width="1.4" stroke-linecap="round" stroke-linejoin="round" d="M 37 48.5 C 37 48.5 39.5 50.8 44.9 49.7 "/>
  </g>
</svg>