<svg xmlns="http://www.w3.org/2000/svg" xmlns:xlink="http://www.w3.org/1999/xlink" version="1.1" width="81.9" height="119.34083404541016" viewBox="0.100000011920929 0.15000002384185795 81.9 119.34083404541016">
  <!-- Exported by Scratch - http://scratch.mit.edu/ -->
  <g id="ID0.18927750270813704">
    <path id="ID0.5727774994447827" fill="#FAA51F" stroke="#8E5322" stroke-width="1.4" stroke-linecap="round" stroke-linejoin="round" d="M 49.5 79.35 C 49.5 79.35 54.3 82.05 57.3 81.65 C 60.3 81.25 67.8 78.35 69.3 81.95 C 71.6 87.25 64.1 90.15 56.5 89.25 C 48.9 88.35 48.1 85.35 48.1 85.35 C 48.1 85.35 44.5 81.05 49.5 79.35 Z "/>
    <g id="ID0.15018064202740788">
      <path id="ID0.0022303410805761814" fill="#2DB674" stroke="#249960" stroke-width="1.4" stroke-linecap="round" stroke-linejoin="round" d="M 67.6 6.65 L 67.6 48.75 C 63 44.85 57 42.95 51 42.95 C 45 42.95 39 44.85 34.4 48.75 C 29.8 52.65 23.8 54.55 17.8 54.55 C 12.2 54.55 6.6 52.85 2.1 49.45 C 1.5 49.05 1.2 48.35 1.2 47.65 L 1.2 11.15 C 1.2 9.35 3.1 8.25 4.6 9.15 C 13.7 14.35 26.2 13.55 34.3 6.75 C 39.1 2.85 45.1 0.85 51.1 0.85 C 57.1 0.85 63.1 2.85 67.6 6.65 Z "/>
      <path id="ID0.322779958602041" fill="#C49A6C" stroke="#8E5322" stroke-width="1.4" stroke-linecap="round" stroke-linejoin="round" d="M 68.4 117.45 L 68.4 117.45 C 67.3 117.45 66.5 116.55 66.5 115.55 L 66.5 3.25 C 66.5 2.15 67.4 1.35 68.4 1.35 L 68.4 1.35 C 69.5 1.35 70.3 2.25 70.3 3.25 L 70.3 115.55 C 70.3 116.65 69.5 117.45 68.4 117.45 Z "/>
    </g>
    <g id="ID0.8764806007966399">
      <g id="ID0.5848894719965756">
        <path id="ID0.9688692162744701" fill="#FAA51F" stroke="#8E5322" stroke-width="1.4" stroke-linecap="round" stroke-linejoin="round" d="M 51.5 95.75 C 51.5 95.75 49.8 101.25 50.6 110.05 C 50.9 113.85 58 109.55 57.5 116.95 C 57.3 119.05 48.1 118.85 46 118.05 C 44.1 117.35 43.6 116.65 43.9 114.65 C 45 107.35 41.3 98.95 41.3 98.95 "/>
        <path id="ID0.8580465861596167" fill="#FAA51F" stroke="#8E5322" stroke-width="1.4" stroke-linecap="round" stroke-linejoin="round" d="M 52.6 111.85 C 52.6 111.85 51.3 111.65 49.8 111.95 "/>
      </g>
      <g id="Layer_3_17_">
        <path id="ID0.8597759031690657" fill="#FAA51F" d="M 26.1 98.55 C 23.6 98.85 20.6 98.85 17.6 97.45 C 10.9 94.35 6.8 86.95 3.7 90.15 C 0.6 93.35 4.5 105.95 17.5 106.25 C 22 106.35 25.7 105.25 28.6 104.25 C 29.4 103.95 35.9 101.35 37.2 97.35 C 38.5 93.35 36.6 92.95 35.7 92.75 C 34.7 92.55 29.6 98.15 26.1 98.55 Z " stroke-width="1"/>
        <path id="ID0.664166315458715" fill="#FFFFFF" d="M 3.9 89.85 C 2.2 91.05 2.4 96.05 4.4 99.15 C 6.4 102.25 8.9 103.65 10.5 104.65 C 12.3 105.25 9 101.95 10.5 99.65 C 12 97.35 16.2 96.75 16.2 96.75 C 16.2 96.75 11.9 93.55 9.6 91.65 C 7.4 89.85 5.8 88.75 3.9 89.85 Z " stroke-width="1"/>
        <path id="ID0.8333435310050845" fill="none" stroke="#8E5322" stroke-width="1.4" stroke-linecap="round" stroke-linejoin="round" d="M 26.1 98.55 C 23.6 98.85 20.6 98.85 17.6 97.45 C 10.9 94.35 6.8 86.95 3.7 90.15 C 0.6 93.35 4.5 105.95 17.5 106.25 C 22 106.35 25.7 105.25 28.6 104.25 C 29.4 103.95 35.9 101.35 37.2 97.35 C 38.5 93.35 36.6 92.95 35.7 92.75 C 34.7 92.55 29.6 98.15 26.1 98.55 Z "/>
      </g>
      <g id="Layer_2_34_">
        <path id="ID0.13604674255475402" fill="#FAA51F" stroke="#8E5322" stroke-width="1.4" stroke-linecap="round" stroke-linejoin="round" d="M 42.3 93.75 "/>
      </g>
      <path id="ID0.5372069948352873" fill="#FAA51F" stroke="#8E5322" stroke-width="1.4" stroke-linecap="round" stroke-linejoin="round" d="M 52.3 84.85 C 52.3 91.55 54 101.35 42.1 101.35 C 30.2 101.35 31.3 92.35 31.3 85.65 C 31.3 78.95 35.4 77.15 42.1 77.15 C 48.9 77.25 52.3 78.25 52.3 84.85 Z "/>
      <path id="ID0.8330662995576859" fill="#FFFFFF" d="M 49.7 87.85 C 49.7 92.05 50.6 98.35 44.2 98.35 C 37.7 98.35 38.3 92.65 38.3 88.45 C 38.3 84.25 40.5 83.05 44.2 83.05 C 47.9 82.95 49.7 83.65 49.7 87.85 Z " stroke-width="1"/>
      <g id="ID0.7237860024906695">
        <path id="ID0.7046695598401129" fill="#FAA51F" stroke="#8E5322" stroke-width="1.4" stroke-linecap="round" stroke-linejoin="round" d="M 32.1 95.75 C 32.1 95.75 34.7 101.25 33.4 109.95 C 32.8 113.75 27.2 109.05 27.6 116.65 C 27.7 119.15 35.3 118.95 37.5 118.55 C 39.6 118.15 40.4 117.05 40.2 114.95 C 39.9 110.75 41.4 101.65 41.4 101.65 "/>
        <path id="ID0.9048826927319169" fill="#FAA51F" stroke="#8E5322" stroke-width="1.4" stroke-linecap="round" stroke-linejoin="round" d="M 31.1 111.85 C 31.1 111.85 32.7 111.65 34.1 112.05 "/>
      </g>
      <g id="ID0.8750209757126868">
        <path id="ID0.052675919607281685" fill="#FAA51F" stroke="#8E5322" stroke-width="1.4" stroke-linecap="round" stroke-linejoin="round" d="M 28.9 88.85 C 34.5 90.25 33.9 92.25 33.8 93.85 C 33.6 97.85 30.1 98.25 22.8 95.25 C 17.4 93.05 18.6 82.85 29.2 76.85 L 37.1 78.25 "/>
        <path id="ID0.10933882696554065" fill="none" stroke="#8E5322" stroke-width="1.4" stroke-linecap="round" stroke-linejoin="round" d="M 32 87.05 "/>
        <path id="ID0.408109936863184" fill="#FAA51F" stroke="#8E5322" stroke-width="1.4" stroke-linecap="round" stroke-linejoin="round" d="M 28.9 88.85 L 31.5 84.75 "/>
        <path id="ID0.7358559756539762" fill="none" stroke="#8E5322" stroke-width="1.4" stroke-linecap="round" stroke-linejoin="round" d="M 28.9 88.85 L 27.6 88.45 "/>
      </g>
      <g id="Layer_2_33_">
        <path id="ID0.40986254904419184" fill="#FAA51F" d="M 42.3 32.05 C 40.8 31.95 37.7 31.75 36 31.85 C 31.4 32.05 27.1 33.75 27.1 33.75 L 14.5 25.55 L 16.7 43.85 C 17.3 43.05 6.5 56.25 13.3 67.25 C 20.2 78.35 34.8 83.25 53 79.65 C 71.2 76.05 75.5 65.55 74.3 60.05 C 73.1 54.55 66.2 52.45 66.2 52.45 C 66.2 52.45 66.1 48.15 63 42.85 C 61.1 39.65 54.9 35.05 54.9 35.05 L 52.1 23.85 L 44.9 30.85 L 42.3 32.05 Z " stroke-width="1"/>
        <path id="ID0.18952649366110563" fill="#FFFFFF" d="M 65.3 52.25 L 62.9 50.25 L 54.1 52.85 C 54.1 52.85 54.1 56.15 49.9 57.05 C 45.7 57.95 38.6 56.35 38.6 56.35 L 31.5 58.15 C 31.5 58.15 23.4 57.65 23 64.05 C 22.3 75.15 31.6 80.45 40.1 80.35 C 45.6 80.35 49.1 79.65 53 78.95 C 70.2 75.85 75.1 65.45 73.6 59.95 C 72.4 54.45 65.8 52.85 65.8 52.85 L 65.3 52.25 Z " stroke-width="1"/>
        <path id="ID0.3893165811896324" fill="none" stroke="#8E5322" stroke-width="1.4" stroke-linecap="round" stroke-linejoin="round" d="M 70.3 57.65 C 70.3 57.65 74.7 56.95 76.9 56.15 C 79.5 55.25 81.3 53.65 81.3 53.65 "/>
        <path id="ID0.29737274581566453" fill="none" stroke="#8E5322" stroke-width="1.4" stroke-linecap="round" stroke-linejoin="round" d="M 70.8 63.45 C 70.8 63.45 73.4 64.55 76.2 64.75 C 78.9 65.05 80.7 64.85 80.7 64.85 "/>
        <path id="ID0.40111656207591295" fill="none" stroke="#8E5322" stroke-width="1.4" stroke-linecap="round" stroke-linejoin="round" d="M 24.8 32.15 L 30 35.75 "/>
        <path id="ID0.6319624870084226" fill="none" stroke="#8E5322" stroke-width="1.4" stroke-linecap="round" stroke-linejoin="round" d="M 42.3 32.05 C 40.8 31.95 37.7 31.75 36 31.85 C 31.4 32.05 27.1 33.75 27.1 33.75 L 14.5 25.55 L 16.7 43.85 C 17.3 43.05 6.5 56.25 13.3 67.25 C 20.2 78.35 34.8 83.25 53 79.65 C 71.2 76.05 75.5 65.55 74.3 60.05 C 73.1 54.55 66.2 52.45 66.2 52.45 C 66.2 52.45 66.1 48.15 63 42.85 C 61.1 39.65 54.9 35.05 54.9 35.05 L 52.1 23.85 L 44.9 30.85 L 42.3 32.05 Z "/>
        <path id="ID0.5735878190025687" fill="none" stroke="#8E5322" stroke-width="1.4" stroke-linecap="round" stroke-linejoin="round" d="M 1.6 63.05 C 1.6 63.05 5.6 63.45 7.4 63.35 C 9.2 63.25 12.7 62.75 12.7 62.75 "/>
        <path id="ID0.275175922550261" fill="none" stroke="#8E5322" stroke-width="1.4" stroke-linecap="round" stroke-linejoin="round" d="M 12.9 58.85 C 12.9 58.85 10.6 57.15 7 55.55 C 3 53.75 0.8 53.35 0.8 53.35 "/>
      </g>
      <g id="Layer_5_19_">
        <path id="ID0.4454393577761948" fill="#FFFFFF" stroke="#8E5322" stroke-width="1.4" stroke-linecap="round" stroke-linejoin="round" d="M 60.8 42.85 C 63.6 47.15 63.7 52.15 61 53.85 C 58.3 55.65 53.8 53.55 51 49.15 C 48.2 44.85 48.1 39.85 50.8 38.15 C 53.5 36.45 58 38.55 60.8 42.85 Z "/>
        <path id="ID0.465943141374737" fill="#414142" d="M 60.7 46.45 C 61 47.45 60.5 48.45 59.5 48.75 C 58.6 49.05 57.6 48.45 57.3 47.35 C 57 46.35 57.5 45.35 58.5 45.05 C 59.5 44.85 60.5 45.45 60.7 46.45 " stroke-width="1"/>
      </g>
      <g id="Layer_7_19_">
        <path id="ID0.0011587096378207207" fill="#FFFFFF" stroke="#8E5322" stroke-width="1.4" stroke-linecap="round" stroke-linejoin="round" d="M 37.6 46.05 C 40.4 50.35 40.1 55.55 36.9 57.65 C 33.7 59.75 28.8 57.95 26 53.55 C 23.2 49.25 23.5 44.05 26.7 41.95 C 29.9 39.85 34.8 41.65 37.6 46.05 Z "/>
        <path id="ID0.018554972019046545" fill="#414142" d="M 37.3 49.85 C 37.3 50.85 36.5 51.75 35.6 51.75 C 34.6 51.75 33.9 50.95 33.9 49.85 C 33.9 48.85 34.7 47.95 35.6 47.95 C 36.5 47.95 37.3 48.85 37.3 49.85 " stroke-width="1"/>
      </g>
      <path id="ID0.4509335858747363" fill="#5F4B43" stroke="#8E5322" stroke-width="1.4" stroke-linecap="round" stroke-linejoin="round" d="M 48.6 55.95 C 50.3 55.75 52.6 54.45 52.9 56.35 C 52.9 57.15 51.3 60.45 49.5 60.55 C 47.5 60.65 44 58.15 44.1 56.65 C 44.2 55.15 47.1 56.15 48.6 55.95 Z "/>
      <path id="ID0.7148231486789882" fill="#FFFFFF" stroke="#8E5322" stroke-width="1.4" stroke-linecap="round" stroke-linejoin="round" d="M 39.5 71.35 C 39.5 71.35 42 73.65 47.4 72.55 "/>
    </g>
  </g>
</svg>