<svg version="1.1" xmlns="http://www.w3.org/2000/svg" xmlns:xlink="http://www.w3.org/1999/xlink" width="79.97746" height="79.97746" viewBox="0,0,79.97746,79.97746"><defs><radialGradient cx="240" cy="180" r="39.98873" gradientUnits="userSpaceOnUse" id="color-1"><stop offset="0" stop-color="#9966ff"/><stop offset="1" stop-color="#9966ff" stop-opacity="0"/></radialGradient></defs><g transform="translate(-200.01127,-140.01127)"><g data-paper-data="{&quot;isPaintingLayer&quot;:true}" fill-rule="nonzero" stroke-linecap="butt" stroke-linejoin="miter" stroke-miterlimit="10" stroke-dasharray="" stroke-dashoffset="0" style="mix-blend-mode: normal"><path d="M200.01127,180c0,-22.08516 17.90356,-39.98873 39.98873,-39.98873c22.08516,0 39.98873,17.90356 39.98873,39.98873c0,22.08516 -17.90356,39.98873 -39.98873,39.98873c-22.08516,0 -39.98873,-17.90356 -39.98873,-39.98873z" fill="url(#color-1)" stroke="none" stroke-width="0"/><g stroke="#000000"><path d="M214.3208,180c0,-14.18223 11.49697,-25.6792 25.6792,-25.6792c14.18223,0 25.67921,11.49697 25.67921,25.6792c0,14.18223 -11.49697,25.6792 -25.67921,25.6792c-14.18223,0 -25.6792,-11.49697 -25.6792,-25.6792z" fill="#ff6666" stroke-width="2"/><path d="M253.17541,180l-18.4518,11.0087v-22.01741z" fill="#ffffff" stroke-width="0.5"/></g></g></g></svg>