<svg version="1.1" xmlns="http://www.w3.org/2000/svg" xmlns:xlink="http://www.w3.org/1999/xlink" width="91.33826" height="106.43155" viewBox="0,0,91.33826,106.43155"><g transform="translate(-193.26321,-117.49578)"><g data-paper-data="{&quot;isPaintingLayer&quot;:true}" fill-rule="nonzero" stroke="none" stroke-width="1" stroke-linecap="butt" stroke-linejoin="miter" stroke-miterlimit="10" stroke-dasharray="" stroke-dashoffset="0" style="mix-blend-mode: normal"><g><path d="M236.5366,144.75c0.1508,0.85 -0.2514,1.5 -0.9049,2.05c-1.7093,1.5 -3.4186,2.95 -5.5301,3.9c-2.6142,1.2 -5.1781,2.45 -7.8929,3.35c-2.5639,0.85 -5.1278,1.6 -7.742,1.95c-3.4689,0.5 -6.988,0.65 -10.5071,0c-1.106,-0.2 -2.1618,-0.45 -3.1673,-0.85c-0.553,-0.25 -0.8546,-0.55 -0.9551,-1.05c-0.2514,-1.3 -0.5028,-2.6 -0.7541,-3.95c-0.0503,-0.2 -0.0503,-0.4 0,-0.55c0.3519,-0.55 0.1508,-1.05 0,-1.6c-0.8044,-2.9 -1.6088,-5.85 -2.4132,-8.75c-0.4021,-1.5 -0.8043,-3 -1.2065,-4.6c-0.6536,-0.25 -1.0557,-0.75 -1.2066,-1.5c-0.2513,-1.05 -0.5027,-2.15 -0.9049,-3.15c-0.2011,-0.65 -0.0503,-1.05 0.3519,-1.5c0.6536,-0.7 1.4077,-1.3 2.212,-1.9c2.4634,-1.7 5.1279,-2.95 7.8427,-4.05c4.4743,-1.85 9.1497,-3.2 13.9257,-4.15c2.765,-0.55 5.53,-0.95 8.3956,-0.9c0.4022,0 0.8546,0 1.2568,0.05c1.4579,0.2 2.3629,1 2.7148,2.4c0.2513,0.95 0.553,1.85 0.6032,2.8c0,0.3 0.1006,0.6 0.1509,0.95c-0.2011,0.3 -0.3519,0.55 -0.553,0.9c0.6032,2.4 1.2568,4.85 1.8601,7.25c0.8043,0.35 1.5584,0.2 2.2623,0.1c0.9049,-0.1 1.8601,-0.05 2.765,-0.05c0.9049,0 1.7596,-0.35 2.6142,-0.25c0.8546,0.1 1.659,0.2 2.4634,0.15c1.1563,-0.05 2.3126,-0.1 3.5191,-0.15c0.4525,-1.9 0.8547,-3.75 1.3071,-5.65c-0.5027,-0.5 -0.6033,-1.05 -0.4022,-1.75c0.3017,-1.1 0.5028,-2.25 0.7039,-3.35c0.1005,-0.55 0.4524,-0.9 0.9551,-1.1c0.8547,-0.35 1.7596,-0.55 2.6645,-0.65c3.2678,-0.4 6.5355,-0.2 9.8033,0.15c4.1727,0.4 8.2951,1.25 12.3672,2.35c3.0164,0.8 5.9825,1.85 8.7978,3.3c0.3519,0.2 0.7541,0.4 1.106,0.6c1.2569,0.8 1.8099,1.95 1.458,3.4c-0.1509,0.8 -0.4022,1.6 -0.6033,2.4c-0.0503,0.2 -0.2011,0.4 -0.2514,0.65c-0.0503,0.65 -0.5027,0.95 -1.0557,1.15c-0.5027,1.25 -0.7038,2.55 -1.0055,3.85c-0.6535,2.7 -1.3071,5.35 -1.9606,8c-0.1509,0.55 -0.2514,1.05 0.2011,1.5c0.2011,0.2 0.2011,0.5 0.1508,0.8c-0.3017,1.5 -0.553,3 -0.9552,4.45c-0.1508,0.6 -0.5027,0.95 -1.0558,1.15c-0.6535,0.2 -1.3573,0.3 -2.0109,0.45c-1.7595,0.4 -3.5191,0.6 -5.3289,0.55c-3.117,-0.1 -6.1836,-0.3 -9.2503,-0.85c-2.212,-0.4 -4.4241,-0.9 -6.5858,-1.6c-3.7705,-1.3 -7.2896,-3.05 -10.4066,-5.6c-0.6032,-0.5 -1.106,-1.1 -1.659,-1.65c-0.4022,-0.4 -0.5027,-0.8 -0.3519,-1.25c0.4022,-1.35 0.8547,-2.7 1.3071,-4.05c0.0503,-0.1 0.0503,-0.2 0.1006,-0.25c0.8546,-1.3 0.8546,-1.3 1.0557,-2.65c-1.1563,-0.1 -2.2623,-0.2 -3.4689,0c-0.2011,1.5 -0.0502,2.95 -0.1005,4.4c-0.0503,1.45 -0.0503,2.95 0,4.4c0,1.4 0.1005,2.85 0.0503,4.25c-0.0503,1.45 -0.0503,2.95 0,4.35c0.1005,0.2 0.3016,0.3 0.4524,0.3c1.458,0 2.9159,0.3 4.3235,0.6c2.8153,0.6 5.4295,1.7 7.9935,3c4.0721,2.05 7.4404,4.9 10.2557,8.4c1.3071,1.6 2.1618,3.4 2.8656,5.3c0.2011,0.45 0.3016,0.95 0.5027,1.4c0.9049,1.95 1.3071,4.1 1.8098,6.2c0.7541,3.15 1.3072,6.35 1.7093,9.6c0.3519,2.75 0.3017,5.5 -0.1508,8.2c-0.6535,3.9 -1.9104,7.65 -3.9716,11.1c-1.0054,1.65 -2.0109,3.3 -3.318,4.75c-2.8153,3.05 -5.9322,5.75 -9.6022,7.75c-2.3628,1.25 -4.8262,2.15 -7.4404,2.9c-1.6088,0.45 -3.2678,0.55 -4.8765,0.8c-2.3629,0.4 -4.6754,0.2 -7.0383,-0.05c-2.1115,-0.2 -4.1727,-0.7 -6.1836,-1.35c-2.1617,-0.7 -4.2229,-1.6 -6.1836,-2.7c-2.0612,-1.15 -3.9213,-2.55 -5.6809,-4.15c-3.7705,-3.35 -6.4852,-7.5 -8.4459,-12.1c-0.6032,-1.4 -1.1563,-2.9 -1.4076,-4.45c-0.2011,-1.25 -0.6033,-2.5 -0.7038,-3.75c-0.1509,-1.95 -0.352,-3.95 -0.1509,-5.9c0.2011,-2.1 0.5028,-4.2 0.905,-6.25c0.553,-2.85 1.2065,-5.65 1.8601,-8.45c0.5027,-2.2 1.4076,-4.25 2.6142,-6.2c1.1563,-1.9 2.4131,-3.7 4.0218,-5.25c1.8601,-1.8 3.8208,-3.45 6.0328,-4.8c2.765,-1.7 5.7312,-2.95 8.7978,-3.8c1.8099,-0.5 3.67,-0.85 5.5804,-0.95c0.3016,0 0.6535,-0.05 0.9552,-0.1c0.3016,-0.25 0.3016,-0.6 0.3016,-0.9c0,-4.55 -0.0503,-9.1 -0.0503,-13.65c0,-0.95 0.1508,-1.95 -0.2011,-2.95c-1.2568,0 -2.4131,-0.2 -3.6699,0c0.2513,1.05 0.5027,2.1 0.7541,3.1c0.0503,0.25 0.1005,0.55 0.4524,0.65c0.6033,0.15 0.7541,0.6 0.905,1.1c0.4021,1.35 0.8043,2.65 1.2065,3.95zM205.7191,133.15c1.2569,-0.1 2.4634,-0.4 3.6197,-0.8c0.8546,-0.1 1.659,-0.25 2.4634,-0.6c0.1005,0 0.2011,0 0.2514,0c3.2677,-0.95 6.5355,-1.95 9.6524,-3.3c1.9607,-0.9 3.9716,-1.75 5.7312,-3c0.8546,-0.6 1.7092,-1.2 2.3628,-2.2c-0.2011,-0.85 -0.4022,-1.8 -0.6536,-2.85c-0.553,0.45 -1.0054,0.75 -1.3573,1.15c-0.7541,0.7 -1.5585,1.25 -2.4634,1.75c-3.2678,1.75 -6.6864,3.3 -10.2558,4.4c-1.4076,0.45 -2.8153,0.9 -4.2229,1.35c-0.8547,0.1 -1.659,0.3 -2.4634,0.6c-1.1563,0.15 -2.2623,0.4 -3.3683,0.8c-0.553,0 -1.106,0 -1.6087,0.25c-0.5028,0.05 -1.0055,0 -1.5082,0.1c-0.7541,0.15 -1.5585,0.2 -2.3126,0.2c-0.4022,0 -0.8044,0.05 -1.2568,0.05c-0.4022,0 -0.8044,0.05 -1.2569,0.05c-0.4022,0 -0.8043,-0.05 -1.2568,-0.1c-0.4022,-0.05 -0.8044,-0.1 -1.2568,-0.15c0.1005,0.8 0.4022,1.5 0.6535,2.15c0.1006,0.35 0.4022,0.6 0.8044,0.7c0.3519,0.1 0.7038,0.1 1.106,0.15c1.9607,0.25 3.9716,0 5.9322,-0.1c0.8044,-0.05 1.6591,-0.1 2.4132,-0.5l0.1005,0.05zM230.7049,138.65c0.6033,2.6 1.0055,3.7 1.4579,4.05c0.0503,-0.05 0.1006,-0.05 0.1006,-0.1c-0.3017,-1.55 -0.6536,-3.05 -1.2568,-4.55c-0.1509,-1.05 -0.4022,-2.05 -1.3071,-2.75c-0.2011,-0.15 -0.352,-0.4 -0.4022,-0.7c-0.3017,-1.3 0.0502,-2.05 1.3573,-2.6c0.1509,-0.05 0.2514,-0.15 0.3017,-0.35c-0.3017,-1.25 -0.7038,-2.55 -0.9049,-3.9c-0.1006,-0.7 -0.3519,-1.4 -0.553,-2.1c0,-0.05 -0.0503,-0.1 -0.1006,-0.1c-0.0503,0 -0.1005,0 -0.2011,-0.05c-0.4022,0.35 -0.8546,0.7 -1.2568,1.05c0,0.15 -0.0503,0.2 0,0.25c0.553,0.95 0.6033,2 0.7038,3.05c0.0503,0.75 -0.1005,1.55 -0.7038,2.15c-0.2011,0.2 -0.4022,0.35 -0.4525,0.65c0.3017,1.45 0.8547,2.8 1.0558,4.25c0.1005,0.6 0.3016,1.15 0.553,1.7c0.1005,0.3 0.3016,0.5 0.6535,0.55c0.1006,-0.2 0.0503,-0.3 0,-0.45c-0.2011,-0.55 -0.4022,-1.1 -0.553,-1.7c-0.1005,-0.35 0.0503,-0.5 0.3519,-0.7c0.7541,0.6 0.8044,1.55 1.1563,2.35zM259.5617,131.5c-0.7038,-0.3 -1.4579,-0.45 -2.212,-0.6c-0.7038,-0.35 -1.4076,-0.5 -2.1114,-0.7c-0.4022,0.3 -0.352,0.65 -0.4525,0.95c-0.1508,0.5 -0.2514,0.95 -0.553,1.4c-0.553,0.75 -1.2568,1.3 -2.2623,1.35c-0.3519,1.35 -0.7038,2.65 -1.0055,3.9c1.3574,1.95 1.3071,4.05 0.4525,6.15c0.7541,0.55 1.5082,0.8 2.3126,1c0.6535,0.25 1.2568,0.65 1.9606,0.7c0.8547,0.4 1.8098,0.55 2.7148,0.75c1.3573,0.4 2.765,0.75 4.1726,0.9c0.0503,0.05 0.1509,0.15 0.2011,0.15c1.5082,0.2 3.0164,0.45 4.5246,0.6c0.9552,0.1 1.9104,0.1 2.8153,0.15c0.3519,-0.45 0.4022,-0.9 0.553,-1.35c0.4525,-1.6 1.2569,-2.95 2.8656,-3.65c0.4525,-0.2 0.6033,-0.5 0.7038,-0.95c0.3017,-1.25 0.6536,-2.45 0.9552,-3.7c-1.0557,-1.5 -1.0054,-1 -1.0054,-3.3c0,-0.4 0.1508,-0.8 -0.0503,-1.2c-0.3519,-0.3 -0.8044,-0.25 -1.2066,-0.25c-2.1617,-0.1 -4.3235,-0.4 -6.4349,-0.8c-0.2514,-0.05 -0.5531,-0.05 -0.8044,-0.05c-0.1006,-0.05 -0.2011,-0.2 -0.3519,-0.2c-1.4077,-0.1 -2.7651,-0.55 -4.1727,-0.8c-0.553,-0.15 -1.0055,-0.65 -1.6088,-0.45zM260.9694,127.6c-0.2011,-0.2 -0.5027,-0.2 -0.7541,-0.3c-4.223,-1.1 -8.2951,-2.45 -11.9148,-4.95c-0.0502,-0.05 -0.1508,0 -0.2513,-0.05c-0.1006,0.45 -0.1006,0.9 -0.2514,1.35c-0.3519,1 0,1.7 0.8547,2.2c0.2011,0.1 0.4021,0.25 0.6032,0.35c1.2569,0.75 2.6142,1.4 3.9213,2c2.2121,1 4.5749,1.65 6.9378,2.15c0.9049,0.3 1.8098,0.65 2.765,0.65c1.4076,0.45 2.8656,0.65 4.3235,0.9c4.1727,0.7 8.3956,1.2 12.6186,0.75c1.0054,-0.1 2.0109,-0.3 2.9661,-0.8c0.2011,-0.75 0.4524,-1.55 0.6535,-2.35c0.0503,-0.1 0.0503,-0.25 -0.1005,-0.35c-0.1006,-0.15 -0.2514,-0.05 -0.3519,0c-1.2569,0.25 -2.4634,0.65 -3.7705,0.7c-3.9716,0.1 -7.8929,-0.2 -11.8142,-0.95c-1.3071,-0.25 -2.6142,-0.45 -3.9213,-0.7c-0.8547,-0.3 -1.6591,-0.55 -2.5137,-0.6zM209.0874,133.7c-0.8043,0.05 -1.5584,0.2 -2.2623,0.5c-0.7541,0 -1.4579,0.1 -2.1617,0.45c0.4022,1.75 0.7541,3.45 -1.0557,4.65c0.5027,2.15 1.0054,4.25 1.4579,6.25c1.8601,1 2.8655,2.55 3.3683,5.15c1.2065,0.2 1.4076,0.15 2.3628,-0.15c0.7541,-0.05 1.5585,0.1 2.2623,-0.3c0.8547,0 1.659,-0.2 2.4634,-0.55c1.4579,-0.2 2.8153,-0.6 4.1727,-1.1c0.1508,0 0.3016,0 0.4022,0c2.3125,-0.7 4.4743,-1.6 6.6863,-2.6c0.1006,-0.05 0.2011,-0.2 0.2514,-0.3c-0.6536,-3.9 -0.6536,-4.1 0.9049,-6.4c-0.5027,-2.25 -1.0557,-4.5 -1.5585,-6.8c-1.9104,-0.35 -2.3125,-2.05 -3.0164,-3.5c-0.4524,0.2 -0.9049,0.35 -1.3071,0.55c-1.659,0.7 -3.318,1.35 -5.0273,1.9c-0.5027,0.15 -1.0557,0.25 -1.5082,0.6c-0.2011,0 -0.5027,-0.05 -0.6535,0.05c-1.3072,0.55 -2.7148,0.75 -4.0219,1.2c-0.3519,0.05 -0.7038,0.1 -1.106,0.15c-0.3519,-0.05 -0.553,0.05 -0.6536,0.25zM216.0251,154.4c1.1563,-0.15 2.2121,-0.4 3.2678,-0.85c0.1005,0 0.2011,0.05 0.2514,0c4.3737,-1.15 8.5464,-2.85 12.4174,-5.25c1.3072,-0.85 2.4634,-1.9 3.4689,-3.1c-0.4022,-1.1 -0.5027,-2.25 -0.9552,-3.25c-0.2514,0.05 -0.4022,0.15 -0.5027,0.3c-1.1563,1.5 -2.6645,2.55 -4.223,3.45c-2.0109,1.2 -4.1727,2.15 -6.3847,2.95c-1.8098,0.65 -3.6196,1.35 -5.4295,1.9c-0.8546,0.05 -1.659,0.25 -2.4634,0.55c-0.4022,0.05 -0.8043,0.1 -1.2065,0.15c-0.9049,0.15 -1.8099,0.3 -2.7148,0.45c-2.3628,0.35 -4.6754,0.25 -7.0382,0.1c-1.2066,-0.1 -2.4131,-0.2 -3.5192,-0.55c-0.1005,-0.05 -0.2513,-0.05 -0.3519,0.05c-0.0502,0.9 0.1006,1.8 0.6033,2.9c0.7541,0.4 1.6088,0.6 2.4634,0.75c3.6699,0.55 7.3399,0.6 11.0098,-0.1c0.3519,-0.2 0.905,-0.1 1.3071,-0.45zM256.7967,150.8c0.8044,0.3 1.6088,0.5 2.4634,0.6c0.4022,0.35 0.8547,0.25 1.3071,0.35c4.1727,0.95 8.3956,1.25 12.6689,1.05c1.5584,-0.1 3.0666,-0.55 4.5748,-1.05c0.1006,-0.05 0.2011,-0.15 0.2514,-0.25c0.2011,-0.9 0.4022,-1.75 0.6033,-2.6c0.0502,-0.25 0.2011,-0.55 -0.1508,-0.75c-1.2066,0.65 -2.564,0.9 -3.9214,1.1c-2.9158,0.4 -5.7814,0.15 -8.6972,-0.2c-1.7596,-0.2 -3.4689,-0.45 -5.1782,-0.7c-0.9552,-0.4 -1.9606,-0.65 -3.0164,-0.85c-0.3519,-0.3 -0.8546,-0.35 -1.3071,-0.45c-1.7595,-0.55 -3.5191,-1.1 -5.1278,-2c-2.2623,-1.2 -4.6252,-2.35 -6.4853,-4.15c-0.1508,-0.15 -0.3519,-0.3 -0.6535,-0.15c-0.1006,0.35 -0.2011,0.75 -0.3519,1.15c-0.5028,1.75 -0.5028,1.75 0.8546,2.95c0.0503,0.05 0.1508,0.1 0.2011,0.15c3.5191,2.7 7.4404,4.6 11.6634,5.8c0.1005,0 0.2011,0 0.3016,0zM239.0503,222.45c2.8655,0 6.083,-0.45 9.2502,-1.5c2.7651,-0.9 5.4296,-2.05 7.8427,-3.7c1.4076,-0.95 2.765,-1.95 4.0218,-3.15c2.011,-1.95 3.8711,-4.05 5.329,-6.45c0.8546,-1.45 1.7093,-2.95 2.3126,-4.5c0.8546,-2.35 1.6087,-4.75 1.9606,-7.25c0.4525,-3.1 0.4022,-6.1 -0.0503,-9.15c-0.3016,-2.15 -0.8043,-4.2 -1.5584,-6.25c-0.8547,-2.4 -2.2623,-4.5 -3.4186,-6.7c-1.2066,-1.35 -2.2623,-2.85 -3.5191,-4.15c-2.2623,-2.3 -4.776,-4.15 -7.5913,-5.65c-2.4634,-1.35 -5.1781,-2.15 -7.8929,-2.95c-0.6535,-0.2 -1.3071,-0.1 -1.9104,-0.25c-1.7595,-0.45 -3.5694,-0.4 -5.3289,-0.45c-2.7148,0 -5.4295,0.4 -8.0437,1.1c-1.458,0.4 -2.9159,0.85 -4.2733,1.45c-0.8043,0.35 -1.5082,0.8 -2.3125,1.2c-2.5137,1.3 -4.776,2.9 -6.7869,4.9c-0.6536,0.65 -1.3574,1.35 -2.011,2.05c-0.8546,0.9 -1.4076,2.05 -2.3125,2.9c-0.7541,1.6 -1.7596,3 -2.5137,4.55c-1.3071,2.75 -2.0612,5.7 -2.4634,8.7c-0.2513,1.7 -0.3519,3.45 -0.3016,5.2c0.0503,1.9 0.3016,3.75 0.6535,5.6c0.352,1.9 1.0558,3.8 1.8099,5.6c1.0054,2.35 2.2623,4.6 3.871,6.6c1.7596,2.2 3.67,4.25 5.9323,5.9c1.5082,1.1 3.1169,2.2 4.7759,3c2.212,1.05 4.4743,1.95 6.8874,2.45c2.4132,0.55 4.776,0.95 7.6416,0.9zM257.5508,164.75c-0.3016,-1.5 -0.553,-2.7 -0.8044,-3.9c-0.0502,-0.35 -0.2513,-0.6 -0.553,-0.75c-1.106,-0.75 -2.212,-1.45 -3.4688,-2c-1.8601,-0.85 -3.7705,-1.5 -5.6809,-2.1c-1.5585,-0.5 -3.2175,-0.7 -4.8765,-0.95c-0.2514,-0.05 -0.553,-0.15 -0.8044,0.1c-0.1005,0.3 -0.2513,0.65 0.2011,0.9c0.2011,0.1 0.4022,0.25 0.553,0.4c0.4525,0.5 0.352,1.05 -0.1508,1.45c-0.3519,0.25 -0.7038,0.4 -1.1563,0.4c-1.0557,0 -2.1114,0 -3.1672,-0.05c-0.4022,0 -0.8043,-0.15 -1.2065,-0.3c-0.2011,-0.1 -0.3519,-0.25 -0.5028,-0.45c-0.3016,-0.35 -0.2011,-0.8 0.1509,-1.1c0.3016,-0.2 0.7038,-0.25 0.9551,-0.55c0.1006,-0.3 0.1509,-0.6 -0.201,-0.9c-0.1509,0 -0.352,0 -0.5028,0c-1.9606,0.1 -3.9213,0.45 -5.8317,1c-1.4076,0.4 -2.8153,0.8 -4.1727,1.4c-0.9049,0.4 -1.659,0.9 -2.5639,1.3c-0.8546,0.35 -1.5585,0.95 -2.3628,1.4c-0.3017,0.15 -0.553,0.4 -0.6033,0.75c-0.1508,1.25 -0.6536,2.45 -0.7038,3.9c5.6808,-3.8 11.8644,-5.8 18.6011,-5.8c6.7366,-0.05 13.0207,1.85 18.8524,5.85zM251.1158,122.75c0.2514,0.4 0.6536,0.5 1.0055,0.65c1.7596,0.8 3.5191,1.55 5.4295,2.05c3.67,1.05 7.3902,1.9 11.2109,2.5c3.0667,0.5 6.1334,0.75 9.2503,0.75c0.9552,0 1.9104,-0.1 2.8656,-0.3c-0.2011,-0.35 -0.5027,-0.45 -0.8044,-0.6c-1.9606,-0.95 -3.9716,-1.8 -6.0328,-2.4c-3.2174,-1 -6.4852,-1.7 -9.8032,-2.3c-3.8208,-0.65 -7.6918,-0.9 -11.5629,-0.7c-0.553,0.05 -1.0557,0.05 -1.5585,0.35zM226.482,121.1c-2.1618,-0.2 -4.2733,0 -6.3345,0.35c-4.7759,0.75 -9.3508,2.1 -13.8754,3.75c-2.8153,1.05 -5.4798,2.45 -7.9934,4.05c-0.2011,0.15 -0.553,0.2 -0.5027,0.65c0.1508,0.05 0.3519,0.1 0.5027,0.05c1.8098,-0.05 3.5694,-0.15 5.3792,-0.5c3.0164,-0.55 5.9323,-1.3 8.8481,-2.15c3.7705,-1.1 7.4404,-2.5 10.9596,-4.25c1.0557,-0.5 2.0612,-1.15 3.0164,-1.95zM196.1672,129.8c0.7038,-0.75 1.5082,-1.4 2.4131,-1.95c2.7148,-1.7 5.5804,-3 8.5967,-4.1c3.2678,-1.15 6.6361,-2 10.0044,-2.75c2.8153,-0.65 5.6306,-1 8.4962,-1.1c0.6033,0 1.2066,0.05 1.8098,0.05c0.6033,0 0.7039,-0.05 0.9552,-0.9c-0.7541,-0.45 -1.6087,-0.55 -2.5136,-0.55c-2.3629,0 -4.7257,0.25 -7.0383,0.7c-4.1727,0.8 -8.2448,1.95 -12.2667,3.35c-3.2174,1.15 -6.3344,2.5 -9.3005,4.25c-0.6536,0.35 -1.2568,0.8 -1.8098,1.25c-0.4525,0.3 -0.8547,0.7 -0.9552,1.35c0.4524,0.45 1.0054,0.5 1.6087,0.4zM249.8087,122.05c0.6536,-0.15 1.2569,-0.4 1.9104,-0.45c3.2678,-0.4 6.5355,-0.3 9.8033,0.1c2.9159,0.35 5.7312,0.95 8.5465,1.65c4.2732,1.05 8.4459,2.3 12.2666,4.6c0.5028,0.3 0.8547,0.05 1.1563,-0.35c-0.1005,-0.45 -0.4022,-0.65 -0.7038,-0.9c-0.6536,-0.55 -1.3574,-0.95 -2.1115,-1.3c-2.1617,-1 -4.424,-1.85 -6.7366,-2.5c-4.0721,-1.1 -8.2448,-2 -12.4678,-2.5c-2.9661,-0.35 -5.9825,-0.55 -8.9989,-0.4c-0.8043,0.05 -1.659,0.1 -2.4634,0.3c-0.5027,0.1 -1.106,0.2 -1.3071,0.8c0.2514,0.45 0.6536,0.75 1.106,0.95zM238.1956,156.5c1.7596,0.3 1.9104,0.15 1.9607,-1.3c0,-0.05 0,-0.1 0,-0.15c0,-3 0.0503,-5.95 0.0503,-8.95c0,-4.1 0,-8.15 0,-12.25c0,-0.3 0,-0.65 -0.2514,-0.9c-0.8044,-0.3 -1.106,-0.3 -1.4077,-0.1c-0.4524,0.35 -0.3519,0.8 -0.3519,1.25c0,1.75 0,3.5 0,5.25c0,4.15 0,8.25 0,12.4c0,1.6 0,3.15 0,4.75zM199.5355,135.15c-0.6033,-0.1 -1.0557,-0.2 -1.5082,-0.25c-0.4524,-0.05 -0.9049,-0.2 -1.4076,0.05c-0.1006,0.6 0.2011,1.15 0.3519,1.7c0.6535,1.95 1.2568,3.9 1.7595,5.9c0.5531,2.3 1.1563,4.65 1.7093,6.95c0.1006,0.35 0.2514,0.55 0.7039,0.4c-0.2514,-1.1 -0.5028,-2.1 -0.7039,-3.1c-0.2011,-1 -0.7038,-1.95 -0.5027,-3.05c0.4525,0.05 0.6033,0.4 0.7038,0.65c0.3017,1.05 0.6536,2.1 0.8547,3.2c0.1508,0.9 0.4022,1.8 0.6033,2.7c0.0502,0.15 0.1508,0.2 0.4021,0.15c-0.1005,-0.5 -0.1508,-1.05 -0.2513,-1.55c-0.2011,-1.05 -0.4525,-2.05 -0.6536,-3.1c-0.0503,-0.35 -0.1508,-0.7 0.2011,-1.05c0.8547,0.6 0.553,1.65 1.0558,2.4c0.9049,-0.75 1.106,-1.55 0.7038,-2.6c-0.2514,-0.6 -0.2514,-1.25 -0.4022,-1.85c-0.3016,-1.1 -0.4525,-2.25 -0.9049,-3.25c-1.2569,-0.35 -1.3071,-0.4 -1.9104,-1.45c-0.4525,-0.95 -0.6536,-1.9 -0.8044,-2.85zM219.5443,161.65c-0.3017,-0.05 -0.4525,0.05 -0.6033,0.15c-0.2514,0.15 -0.4525,0.3 -0.6536,0.5c-0.7541,0.7 -1.4579,1.5 -2.2623,2.2c-1.3573,1.15 -2.3125,2.6 -3.2677,4c-1.3574,1.95 -1.9607,4.2 -2.4634,6.5c0.3519,0 0.4022,-0.25 0.5027,-0.45c1.3574,-2 2.765,-4 4.5246,-5.7c0.8547,-0.85 1.7596,-1.6 2.6142,-2.4c0.5028,-0.45 0.8547,-0.9 0.9049,-1.6c0.0503,-0.6 0.3017,-1.15 0.4022,-1.75c0.1006,-0.5 0.2011,-1 0.3017,-1.45zM267.1027,175c-0.4524,-2.2 -0.9049,-4.3 -2.0612,-6.15c-0.3519,-0.6 -0.8043,-1.1 -1.2065,-1.65c-1.3071,-1.95 -3.0667,-3.5 -4.776,-5.1c-0.3016,-0.25 -0.6033,-0.5 -1.1563,-0.5c0.2514,1.1 0.6033,2.1 0.7541,3.15c0.1006,0.75 0.4525,1.25 1.0055,1.7c0.8546,0.75 1.7093,1.5 2.5137,2.3c1.3573,1.35 2.5639,2.9 3.6699,4.45c0.4022,0.65 0.8546,1.25 1.2568,1.8zM250.9148,133.35c-0.9552,-0.5 -1.0558,-1.35 -1.0558,-2.35c0,-1 0.3519,-1.85 0.4525,-2.85c-0.6536,-0.4 -1.2569,-0.85 -1.8601,-1.25c-0.2011,-0.15 -0.4022,-0.2 -0.7541,-0.05c-0.1509,1.5 -0.7541,3 -0.7039,4.6c0.2514,0.2 0.4525,0.35 0.6033,0.5c1.106,1.2 1.106,2.1 0.1508,3.4c-0.1508,0.2 -0.3519,0.4 -0.4021,0.7c-0.352,1.35 -0.7039,2.75 -1.0558,4.1c-0.0503,0.2 -0.1508,0.4 0.1508,0.6c0.4022,-0.45 0.4525,-1 0.6033,-1.5c0.3519,-1.05 0.6033,-2.1 0.9552,-3.15c0.1006,-0.25 0.2011,-0.5 0.6536,-0.45c0.4021,0.9 -0.4022,1.7 -0.3017,2.6c0.2011,-0.1 0.3017,-0.25 0.5028,-0.3c0.9049,-0.2 1.2065,-0.85 1.3573,-1.65c0.1508,-0.95 0.4525,-1.95 0.7039,-2.95zM276.3027,138.9c-0.3016,1.3 -0.553,2.5 -0.8043,3.7c-0.0503,0.3 0,0.55 0.3519,0.7c0.3016,-0.35 0.3519,-0.8 0.4022,-1.25c0,-0.35 0.1005,-0.65 0.2513,-0.9c0.1006,-0.2 0.2514,-0.25 0.4525,-0.2c0.2011,0.25 0.1508,0.5 0.1508,0.8c0,1.45 -0.4022,2.9 -0.7038,4.3c-0.1006,0.55 -0.2011,1.05 -0.0503,1.6c0.2011,-0.35 0.3016,-0.75 0.4022,-1.15c0.4022,-1.7 0.8044,-3.4 1.1563,-5.1c0.1005,-0.45 0.3016,-0.7 0.7541,-0.75c0.4022,0.25 0.3016,0.6 0.2513,0.9c-0.4021,1.7 -0.8043,3.35 -1.2065,5.05c-0.0503,0.15 -0.1006,0.35 0.2011,0.5c0.7038,-1.4 0.8546,-2.95 1.2568,-4.45c0.4525,-1.55 0.7541,-3.1 1.106,-4.65c0.3017,-1.5 1.0055,-2.9 1.0558,-4.5c-0.6536,0.1 -1.1563,0.2 -1.6591,0.3c-0.2513,0.55 -0.2513,1.05 -0.4021,1.5c-0.4525,1.6 -1.0055,3.15 -2.9662,3.6zM236.9388,134.8c0,-0.65 0.2514,-1.2 0.1005,-1.8c-1.5082,-0.25 -5.4295,-0.15 -6.636,0.15c-0.2011,0.4 -0.3519,0.8 -0.2011,1.2c0.4022,0.45 0.8546,0.45 1.3071,0.45c0.8044,0 1.659,0 2.4634,0c1.0054,0.05 1.9104,0.15 2.9661,0zM247.1443,134.8c0.4524,-1.05 0.4524,-1.05 0.0502,-1.85c-1.5082,-0.4 -3.0666,0.05 -4.6251,-0.05c-0.4022,-0.05 -0.8044,-0.05 -1.2568,0.2c-0.1509,0.55 -0.1006,1.1 0.1005,1.7c1.7093,0.05 3.318,0.05 4.9771,0.1c0.2513,-0.05 0.4524,-0.1 0.7541,-0.1zM228.0404,145.25c1.0055,-0.4 1.8601,-0.95 2.7148,-1.55c0.1005,-1.25 -0.3519,-2.3 -1.106,-3.2c-0.3519,-0.45 -0.7541,-0.45 -1.2066,-0.1c-0.553,0.55 -0.8043,1.2 -0.8546,1.95c0,1 0.1005,1.95 0.4524,2.9zM271.4262,148.25c1.106,0.05 2.1618,-0.1 3.2175,-0.2c0.6536,-1.1 0.7038,-2.25 0.4525,-3.45c-0.0503,-0.35 -0.3519,-0.55 -0.7039,-0.5c-0.6535,0 -1.106,0.35 -1.5081,0.8c-0.8547,0.9 -1.2066,2 -1.458,3.35zM207.177,150.8c-0.201,-1.1 -0.5027,-2.05 -1.106,-2.85c-0.2011,-0.3 -0.4021,-0.6 -0.7038,-0.85c-0.3519,-0.35 -0.9049,-0.25 -1.1563,0.2c-0.2011,0.35 -0.3519,0.75 -0.4022,1.15c-0.0502,0.75 0,1.55 0.1509,2.35c1.0557,0 2.0612,0 3.2174,0zM247.5464,141.85c0.905,0.65 1.7596,1.15 2.7148,1.55c0.553,-0.75 0.4525,-1.6 0.5027,-2.4c0.0503,-0.6 0,-1.2 -0.2513,-1.75c-0.2011,-0.5 -0.6536,-0.65 -1.106,-0.35c-0.553,0.3 -0.905,0.8 -1.1563,1.3c-0.2514,0.5 -0.4525,1 -0.7039,1.65zM275.3475,133.95c-0.2011,0.75 -0.1508,1.4 -0.1508,2c0,0.25 0.1006,0.55 0.2011,0.8c0.4525,1.1 1.2066,1.2 1.9607,0.25c0.6535,-0.85 0.8546,-1.85 0.9049,-3.05c-1.0055,0 -1.9104,-0.05 -2.9159,0zM203.306,134.75c-0.9049,0.05 -1.8601,0 -2.8153,0.2c0.2514,1 0.4525,1.95 1.0055,2.75c0.3519,0.55 0.8546,0.7 1.5584,0.5c0.5028,-0.15 0.8044,-0.5 0.8044,-1.15c-0.0503,-0.8 -0.1005,-1.55 -0.553,-2.3zM224.1694,128.55c0.3519,0.7 0.553,1.25 0.8546,1.75c0.2514,0.45 0.6033,0.8 1.0558,1c0.4524,0.25 0.9552,0.1 1.1563,-0.35c0.2513,-0.55 0.4022,-1.15 0.2513,-1.75c-0.1508,-0.7 -0.1508,-1.45 -0.7541,-2c-0.8546,0.45 -1.659,0.85 -2.5639,1.35zM251.3169,128.55c-0.4021,1 -0.5027,1.95 -0.4524,2.9c0.0503,0.6 0.4022,1 1.0054,1.15c0.6033,0.15 1.0558,-0.05 1.3574,-0.6c0.3519,-0.7 0.7038,-1.45 0.6033,-2.3c-0.8044,-0.4 -1.6087,-0.75 -2.5137,-1.15zM233.0678,141.8c0.2513,-0.7 0.2011,-1.1 0.1005,-1.5c-0.2514,-1.15 -0.553,-2.3 -0.8044,-3.45c-0.0502,-0.2 -0.1508,-0.45 -0.2011,-0.65c-0.0502,-0.2 -0.2011,-0.3 -0.4524,-0.25c-0.0503,0.1 -0.1508,0.25 -0.1006,0.35c0.4525,1.8 0.7541,3.55 1.458,5.5zM245.3344,139.95c0.1006,-0.15 0.2011,-0.2 0.2514,-0.25c0.3016,-1.1 0.6033,-2.2 0.9049,-3.25c0,-0.1 0.0503,-0.2 0,-0.25c-0.0503,-0.05 -0.1005,-0.15 -0.2011,-0.2c-0.0503,0 -0.2011,0 -0.2513,0.05c-0.1006,0.1 -0.2011,0.2 -0.2514,0.3c-0.2514,1 -0.553,2 -0.8044,3c-0.0503,0.15 0.0503,0.4 0.3519,0.6z" fill="#010001"/><path d="M236.5366,144.75c-0.4022,-1.3 -0.8044,-2.6 -1.2065,-3.9c-0.1509,-0.5 -0.3017,-0.95 -0.905,-1.1c-0.3519,-0.05 -0.3519,-0.4 -0.4524,-0.65c-0.2514,-1 -0.5028,-2.05 -0.7541,-3.1c1.2568,-0.2 2.4131,-0.05 3.6699,0c0.3017,1 0.1508,1.95 0.2011,2.95c-0.3016,0.15 -0.2513,0.45 -0.2513,0.7c0,1.45 0,2.9 0,4.35c-0.0503,0.3 0,0.55 -0.3017,0.75z" fill="#fcfcfc"/><path d="M239.0503,222.45c-2.8656,0.05 -5.2787,-0.4 -7.6416,-0.85c-2.4131,-0.5 -4.6754,-1.4 -6.8874,-2.45c-1.7093,-0.8 -3.2677,-1.9 -4.7759,-3c-2.3126,-1.65 -4.1727,-3.7 -5.9323,-5.9c-1.6087,-2.05 -2.8656,-4.25 -3.871,-6.6c-0.8044,-1.8 -1.4579,-3.7 -1.8099,-5.6c-0.3519,-1.85 -0.6535,-3.7 -0.6535,-5.6c-0.0503,-1.75 0.0503,-3.5 0.3016,-5.2c0.4022,-3 1.2066,-5.9 2.4634,-8.7c0.7541,-1.6 1.7596,-3 2.5137,-4.55c0.9049,-0.85 1.4076,-2 2.3125,-2.9c0.6536,-0.7 1.3071,-1.4 2.011,-2.05c2.0109,-2 4.2732,-3.6 6.7869,-4.9c0.7541,-0.4 1.5082,-0.85 2.3125,-1.2c1.4077,-0.6 2.8153,-1.05 4.2733,-1.45c2.6142,-0.75 5.3289,-1.15 8.0437,-1.1c1.7595,0 3.5694,-0.05 5.3289,0.45c0.6033,0.15 1.2569,0.05 1.9104,0.25c2.6645,0.8 5.3792,1.6 7.8929,2.95c2.765,1.5 5.329,3.35 7.5913,5.65c1.3071,1.3 2.3125,2.8 3.5191,4.15c1.2065,2.2 2.5639,4.35 3.4186,6.7c0.7541,2.05 1.2568,4.1 1.5584,6.25c0.4525,3.05 0.5028,6.1 0.0503,9.15c-0.3519,2.5 -1.106,4.9 -1.9606,7.25c-0.6033,1.6 -1.458,3.05 -2.3126,4.5c-1.4579,2.4 -3.2678,4.55 -5.329,6.45c-1.2065,1.15 -2.6142,2.15 -4.0218,3.15c-2.4131,1.65 -5.0274,2.8 -7.8427,3.7c-3.1672,1 -6.3344,1.45 -9.2502,1.45zM268.4601,191.4c0,-15.8 -12.5683,-29.15 -28.9574,-29.6c-16.5901,-0.45 -30.6164,12.75 -30.6164,29.7c0,7.7 2.7148,14.55 8.094,20.15c5.9323,6.25 13.3727,9.45 21.9694,9.35c16.0875,-0.1 29.4601,-13 29.5104,-29.6z" fill="#cfe8e9"/><path d="M215.4721,132.05c0.4525,-0.35 1.0055,-0.4 1.5082,-0.6c1.7093,-0.55 3.3683,-1.2 5.0274,-1.9c0.4021,-0.2 0.8546,-0.35 1.3071,-0.55c0.7541,1.45 1.106,3.15 3.0163,3.5c0.5531,2.3 1.0558,4.55 1.5585,6.8c-1.5585,2.35 -1.5585,2.5 -0.9049,6.4c-0.1005,0.1 -0.1508,0.25 -0.2514,0.3c-2.1617,1 -4.3737,1.9 -6.6863,2.6c-0.1508,0.05 -0.2514,0 -0.4022,0c-0.0503,-0.25 -0.0503,-0.45 -0.1005,-0.7c-0.553,-2.05 -1.106,-4.1 -1.6088,-6.15c-0.6033,-2.35 -1.2568,-4.7 -1.8098,-7.1c-0.2011,-0.85 -0.7038,-1.7 -0.6536,-2.6z" fill="#dd002b"/><path d="M265.6951,132.85c0.2513,0 0.553,0 0.8044,0.05c2.1114,0.45 4.2732,0.75 6.4349,0.8c0.4022,0 0.8547,-0.05 1.2066,0.25c0.2011,0.4 0.0503,0.8 0.0503,1.2c0,2.3 0,1.8 1.0054,3.3c-0.3519,1.25 -0.6535,2.45 -0.9552,3.7c-0.1005,0.45 -0.2513,0.75 -0.7038,0.95c-1.6087,0.7 -2.4131,2.1 -2.8656,3.65c-0.1508,0.45 -0.2011,0.9 -0.553,1.35c-0.9049,-0.05 -1.8601,-0.05 -2.8153,-0.15c-1.5082,-0.15 -3.0164,-0.4 -4.5246,-0.6c-0.1005,0 -0.1508,-0.1 -0.2011,-0.15c0,-0.35 0,-0.7 0.1006,-1.1c0.2514,-0.9 0.5027,-1.8 0.7038,-2.75c0.553,-2.45 1.0055,-4.95 1.7093,-7.35c0.3016,-1 0.6536,-2.05 0.6033,-3.15z" fill="#dd002b"/><path d="M257.5508,164.75c-5.8317,-4 -12.0656,-5.9 -18.8524,-5.9c-6.7367,0 -12.9203,2 -18.6011,5.8c0.0502,-1.45 0.553,-2.6 0.7038,-3.9c0.0503,-0.35 0.3016,-0.55 0.6033,-0.75c0.8043,-0.45 1.5082,-1.05 2.3628,-1.4c0.8547,-0.35 1.659,-0.9 2.5639,-1.3c1.3574,-0.6 2.7651,-1 4.1727,-1.4c1.9104,-0.55 3.8711,-0.85 5.8317,-1c0.2011,0 0.3519,0 0.5028,0c0.3519,0.25 0.3016,0.55 0.201,0.9c-0.2513,0.3 -0.6535,0.35 -0.9551,0.55c-0.4022,0.25 -0.4525,0.7 -0.1509,1.1c0.1509,0.15 0.3017,0.35 0.5028,0.45c0.4022,0.15 0.8043,0.3 1.2065,0.3c1.0558,0.05 2.1115,0.05 3.1672,0.05c0.4525,0 0.8044,-0.1 1.1563,-0.4c0.5028,-0.4 0.6033,-0.95 0.1508,-1.45c-0.1508,-0.15 -0.3519,-0.3 -0.553,-0.4c-0.4524,-0.25 -0.3016,-0.6 -0.2011,-0.9c0.2514,-0.25 0.553,-0.15 0.8044,-0.1c1.659,0.2 3.2678,0.4 4.8765,0.95c1.9104,0.65 3.8208,1.3 5.6809,2.1c1.2065,0.55 2.3628,1.3 3.4688,2c0.3017,0.2 0.4525,0.45 0.553,0.75c0.2514,1.25 0.5028,2.45 0.8044,3.95z" fill="#dc002b"/><path d="M251.1158,122.75c0.4525,-0.25 0.9552,-0.25 1.5082,-0.3c3.8711,-0.2 7.7421,0.05 11.5629,0.7c3.318,0.6 6.5858,1.3 9.8033,2.3c2.0612,0.65 4.0721,1.45 6.0328,2.4c0.3016,0.15 0.6032,0.2 0.8043,0.6c-0.9552,0.2 -1.9104,0.3 -2.8656,0.3c-3.1169,-0.05 -6.1836,-0.25 -9.2502,-0.75c-3.7705,-0.6 -7.4907,-1.45 -11.211,-2.5c-1.8601,-0.55 -3.6699,-1.25 -5.4295,-2.05c-0.3016,-0.2 -0.7038,-0.35 -0.9552,-0.7z" fill="#f4e6d0"/><path d="M226.482,121.1c-0.9552,0.8 -1.9607,1.45 -3.0164,1.95c-3.5192,1.75 -7.1891,3.1 -10.9596,4.25c-2.9158,0.85 -5.882,1.6 -8.8481,2.15c-1.7595,0.35 -3.5694,0.45 -5.3792,0.5c-0.1508,0 -0.3519,-0.05 -0.5027,-0.05c-0.0503,-0.4 0.2513,-0.5 0.5027,-0.65c2.5639,-1.6 5.1781,-3 7.9934,-4.05c4.5246,-1.7 9.0995,-3 13.8754,-3.75c2.0612,-0.35 4.1727,-0.55 6.3345,-0.35z" fill="#f4e6d0"/><path d="M215.4721,132.05c0,0.95 0.4525,1.75 0.6536,2.65c0.553,2.4 1.2065,4.75 1.8098,7.1c0.553,2.05 1.106,4.1 1.6088,6.15c0.0502,0.2 0.0502,0.45 0.1005,0.7c-1.3574,0.5 -2.765,0.95 -4.1727,1.1c-0.0502,-0.95 -0.4022,-1.85 -0.7038,-2.75c-0.4525,-1.45 -0.9552,-2.95 -1.3071,-4.4c-0.4525,-1.65 -0.6535,-3.35 -1.2568,-5c-0.3017,-0.8 -0.5028,-1.65 -0.553,-2.5c-0.1006,-0.75 -0.3519,-1.3 -0.8547,-1.8c1.3574,-0.45 2.7148,-0.65 4.0219,-1.2c0.1508,-0.1 0.4022,-0.05 0.6535,-0.05z" fill="#f73d61"/><path d="M265.6951,132.85c0.0503,1.1 -0.3017,2.15 -0.6033,3.2c-0.7038,2.45 -1.1563,4.9 -1.7093,7.35c-0.2011,0.9 -0.4524,1.85 -0.7038,2.75c-0.1006,0.35 -0.1006,0.7 -0.1006,1.1c-1.4579,-0.1 -2.8153,-0.5 -4.1726,-0.9c0,-0.25 0,-0.55 0.0502,-0.8c0.352,-1.6 0.6536,-3.2 0.905,-4.8c0.3016,-1.75 0.8546,-3.4 1.2568,-5.15c0.2514,-1.25 0.8044,-2.45 0.6033,-3.75c1.4076,0.25 2.7147,0.7 4.1726,0.8c0.1006,0 0.2011,0.15 0.3017,0.2z" fill="#f73d61"/><path d="M260.6678,148.3c1.7092,0.25 3.4688,0.5 5.1781,0.7c2.8656,0.35 5.7814,0.6 8.6973,0.2c1.3573,-0.2 2.7147,-0.45 3.9213,-1.1c0.3519,0.25 0.2011,0.5 0.1508,0.75c-0.2011,0.85 -0.4022,1.7 -0.6033,2.6c-0.0503,0.05 -0.1508,0.2 -0.2513,0.25c-1.458,0.5 -2.9662,1 -4.5749,1.05c-4.2732,0.2 -8.4962,-0.05 -12.6689,-1.05c-0.4524,-0.1 -0.9552,0 -1.3071,-0.35c0.2514,-0.1 0.553,0.05 0.8044,-0.25c0.2514,-0.85 0.4525,-1.85 0.6536,-2.8zM268.812,150.7c0.2011,0.45 0.553,0.4 0.9552,0.4c1.9607,0 3.8711,0 5.8317,0c0.2514,0 0.4525,0 0.7038,-0.05c0.2514,-0.1 0.5028,-0.25 0.3519,-0.65c-0.4021,-0.25 -0.8043,-0.1 -1.2065,-0.1c-1.9104,0 -3.7705,0 -5.6809,0c-0.4022,-0.05 -0.8044,-0.05 -0.9552,0.4z" fill="#d0e9ea"/><path d="M217.9355,150.5c1.8601,-0.55 3.6197,-1.25 5.4295,-1.9c2.212,-0.8 4.3738,-1.75 6.3847,-2.95c1.6088,-0.95 3.117,-2 4.223,-3.45c0.1005,-0.15 0.2513,-0.25 0.5027,-0.3c0.4525,1.05 0.6033,2.15 0.9552,3.25c-1.0055,1.2 -2.1617,2.3 -3.4689,3.1c-3.871,2.4 -7.9934,4.1 -12.4174,5.25c-0.1006,0 -0.2011,0 -0.2514,0c0.1005,-1.1 -0.6033,-1.95 -0.6536,-2.95c-0.2513,0 -0.5027,0 -0.7038,-0.05zM233.671,144.6c-0.1005,0 -0.2011,0 -0.2513,0.05c-1.3071,0.7 -2.564,1.5 -3.9716,2.1c-0.8547,0.35 -1.659,0.9 -2.5137,1.4c-0.1508,0.1 -0.1508,0.35 -0.1005,0.5c0.1005,0.2 0.2513,0.25 0.4524,0.2c0.1509,-0.05 0.352,-0.15 0.5028,-0.2c1.659,-0.7 3.2677,-1.6 4.8765,-2.4c0.4524,-0.25 0.8043,-0.55 1.1563,-0.95c0.3016,-0.3 0.1508,-0.55 -0.1509,-0.7z" fill="#d0e9ea"/><path d="M210.7464,150.55c-0.9551,0.3 -1.2065,0.3 -2.3628,0.15c-0.5027,-2.55 -1.4579,-4.1 -3.3683,-5.15c-0.4525,-2 -0.9552,-4.1 -1.4579,-6.25c1.8098,-1.15 1.4579,-2.9 1.0557,-4.65c0.7038,-0.4 1.4579,-0.45 2.1618,-0.45c0.1005,0.55 0.2513,1.05 0.3016,1.6c0.3016,2.35 1.0055,4.6 1.5082,6.9c0.6536,2.65 1.4579,5.25 2.1617,7.85z" fill="#dd002b"/><path d="M263.4328,128.2c1.3071,0.25 2.6142,0.45 3.9213,0.7c3.9213,0.7 7.8426,1 11.8142,0.95c1.3071,-0.05 2.5137,-0.4 3.7705,-0.7c0.1005,-0.05 0.2514,-0.15 0.3519,0c0.1508,0.1 0.1006,0.25 0.1006,0.35c-0.2011,0.8 -0.4525,1.6 -0.6536,2.35c-1.0055,0.5 -1.9607,0.7 -2.9661,0.8c-4.2732,0.45 -8.4459,-0.05 -12.6186,-0.75c-1.4579,-0.25 -2.9158,-0.45 -4.3235,-0.9c0.2011,-0.95 0.6536,-1.8 0.6033,-2.8zM281.0787,131.15c-0.1006,-0.25 -0.2011,-0.4 -0.4022,-0.4c-0.6033,-0.05 -1.2066,-0.15 -1.7596,0c-0.6535,0.2 -1.2568,0.2 -1.9103,0.2c-1.458,0 -2.9159,0 -4.4241,0c-0.2514,0 -0.4524,0 -0.5027,0.35c0.3519,0.3 0.7038,0.45 1.2065,0.45c2.1115,0 4.223,0 6.3345,0c0.6535,0 1.106,-0.2 1.4579,-0.6z" fill="#cfe8e9"/><path d="M210.9475,129c1.4077,-0.45 2.8153,-0.9 4.223,-1.35c3.5694,-1.1 6.988,-2.6 10.2557,-4.4c0.9049,-0.5 1.7093,-1.05 2.4634,-1.75c0.4022,-0.4 0.8547,-0.7 1.3574,-1.15c0.2514,1.05 0.4525,1.95 0.6535,2.85c-0.6535,1 -1.5082,1.6 -2.3628,2.2c-1.8098,1.25 -3.7705,2.1 -5.7311,3c-3.117,1.4 -6.3847,2.35 -9.6525,3.3c-0.1005,0 -0.2011,0 -0.2514,0c-0.1005,-0.9 -0.3519,-1.75 -0.6535,-2.6c-0.1006,-0.05 -0.2011,-0.05 -0.3017,-0.1zM227.9399,123.6c0,-0.2 -0.2514,-0.4 -0.4525,-0.35c-0.1508,0.05 -0.2513,0.1 -0.3519,0.15c-0.9552,0.55 -1.8601,1.15 -2.8656,1.65c-1.1562,0.65 -2.3125,1.25 -3.4688,1.85c-0.2011,0.1 -0.4022,0.25 -0.553,0.4c-0.0503,0.05 0,0.25 0,0.4c0,0.05 0.1508,0.15 0.2011,0.15c0.1508,0 0.3016,0 0.4022,-0.05c1.8098,-0.8 3.5694,-1.65 5.2787,-2.65c0.4021,-0.25 0.8043,-0.45 1.2065,-0.7c0.2514,-0.15 0.553,-0.4 0.6033,-0.85z" fill="#d0e8e9"/><path d="M196.1672,129.8c-0.6033,0.1 -1.1563,0.05 -1.5585,-0.4c0.1006,-0.65 0.5028,-1 0.9552,-1.35c0.6033,-0.45 1.2066,-0.85 1.8099,-1.25c2.9661,-1.75 6.083,-3.1 9.3005,-4.25c4.0219,-1.45 8.094,-2.55 12.2667,-3.35c2.3126,-0.45 4.6754,-0.7 7.0382,-0.7c0.8547,0 1.7093,0.1 2.5137,0.55c-0.3016,0.85 -0.3519,0.95 -0.9552,0.9c-0.6033,0 -1.2066,-0.05 -1.8098,-0.05c-2.8656,0.1 -5.6809,0.45 -8.4962,1.1c-3.3683,0.75 -6.7366,1.6 -10.0044,2.75c-3.0164,1.1 -5.8819,2.4 -8.5967,4.1c-0.9552,0.55 -1.7596,1.2 -2.4634,1.95z" fill="#aacecf"/><path d="M249.8087,122.05c-0.4524,-0.15 -0.8546,-0.45 -1.106,-1c0.2011,-0.6 0.8044,-0.7 1.3071,-0.8c0.8044,-0.15 1.6591,-0.25 2.4634,-0.3c3.0164,-0.1 5.9825,0.05 8.9989,0.4c4.223,0.5 8.3454,1.4 12.4678,2.5c2.3126,0.65 4.5246,1.5 6.7366,2.5c0.7541,0.35 1.4579,0.75 2.1115,1.3c0.3016,0.25 0.6033,0.45 0.7038,0.9c-0.2514,0.4 -0.6535,0.65 -1.1563,0.35c-3.7705,-2.3 -7.9934,-3.55 -12.2666,-4.6c-2.8153,-0.7 -5.6809,-1.3 -8.5465,-1.65c-3.2678,-0.4 -6.5355,-0.5 -9.8033,-0.1c-0.6535,0.1 -1.2568,0.3 -1.9104,0.5z" fill="#aacecf"/><path d="M238.1956,156.5c0,-1.65 0,-3.2 0,-4.75c0,-4.15 0,-8.25 0,-12.4c0,-1.75 0,-3.5 0,-5.25c0,-0.45 -0.1005,-0.95 0.3519,-1.25c0.352,-0.25 0.6033,-0.25 1.4077,0.1c0.2514,0.25 0.2514,0.6 0.2514,0.9c0,4.1 0,8.15 0,12.25c0,3 -0.0503,5.95 -0.0503,8.95c0,0.05 0,0.1 0,0.15c-0.0503,1.5 -0.2011,1.6 -1.9607,1.3z" fill="#cfe7e8"/><path d="M199.5355,135.15c0.1508,1 0.4022,1.9 0.8547,2.75c0.6032,1.05 0.6535,1.1 1.9103,1.45c0.4525,1.05 0.6033,2.15 0.905,3.25c0.1508,0.6 0.2011,1.3 0.4022,1.85c0.4021,1.05 0.1508,1.85 -0.7039,2.6c-0.5027,-0.7 -0.2011,-1.8 -1.0557,-2.4c-0.3519,0.35 -0.2514,0.7 -0.2011,1.05c0.2011,1.05 0.4022,2.05 0.6535,3.1c0.1006,0.5 0.1509,1.05 0.2514,1.55c-0.2514,0.05 -0.3519,0 -0.4022,-0.15c-0.2011,-0.9 -0.4524,-1.75 -0.6033,-2.7c-0.201,-1.1 -0.553,-2.15 -0.8546,-3.2c-0.1005,-0.3 -0.2514,-0.6 -0.7038,-0.65c-0.2011,1.1 0.3016,2.05 0.5027,3.05c0.2011,1.05 0.4525,2.05 0.7038,3.1c-0.4524,0.15 -0.6032,-0.05 -0.7038,-0.4c-0.553,-2.3 -1.1563,-4.65 -1.7093,-6.95c-0.5027,-2 -1.106,-3.95 -1.7595,-5.9c-0.2011,-0.55 -0.5028,-1.1 -0.352,-1.7c0.4525,-0.25 0.9552,-0.1 1.4077,-0.05c0.4022,0.1 0.8546,0.2 1.4579,0.35z" fill="#dc002b"/><path d="M253.7301,144.9c-0.8044,-0.25 -1.5585,-0.45 -2.3126,-1c0.8546,-2.1 0.8546,-4.15 -0.4525,-6.15c0.3519,-1.25 0.6536,-2.55 1.0055,-3.9c1.0055,-0.05 1.7093,-0.6 2.2623,-1.35c0.3016,-0.4 0.4022,-0.9 0.553,-1.4c0.1005,-0.3 0.0503,-0.65 0.4525,-0.95c0.6535,0.2 1.4076,0.35 2.1114,0.7c-0.0502,0.05 -0.1005,0.05 -0.1005,0.1c-0.7038,1.55 -1.106,3.2 -1.5082,4.8c-0.7038,2.6 -1.1563,5.3 -1.8099,7.95c-0.1005,0.4 -0.201,0.8 -0.201,1.2z" fill="#dd002b"/><path d="M256.7967,150.8c-0.1005,0 -0.2011,0.05 -0.2513,0c-4.223,-1.25 -8.1946,-3.1 -11.6634,-5.8c-0.0503,-0.05 -0.1509,-0.1 -0.2011,-0.15c-1.3574,-1.15 -1.3574,-1.2 -0.8547,-2.95c0.1006,-0.4 0.2514,-0.8 0.3519,-1.15c0.3017,-0.15 0.4525,0 0.6536,0.15c1.9104,1.8 4.2229,2.95 6.4852,4.15c1.6088,0.85 3.3683,1.45 5.1279,2c0.4525,0.15 0.9049,0.2 1.3071,0.45c-0.6033,0.85 -0.8546,1.85 -1.106,2.85c-0.1005,0.1 0.0503,0.3 0.1508,0.45zM250.0098,147.2c0.2514,-0.7 0.2514,-0.85 -0.2011,-1.05c-1.4579,-0.75 -2.8153,-1.7 -4.1224,-2.7c-0.1508,-0.1 -0.3016,-0.2 -0.4524,-0.25c-0.1508,-0.05 -0.2514,-0.05 -0.3519,0.1c-0.1006,0.1 -0.1509,0.2 -0.1006,0.35c0.1006,0.25 0.3017,0.45 0.5028,0.65c1.3071,1.15 2.765,2.1 4.3737,2.85c0.0503,0 0.2011,0 0.3519,0.05z" fill="#d0e8e9"/><path d="M216.0251,154.4c-0.4524,0.35 -0.9552,0.25 -1.4579,0.3c-3.6699,0.7 -7.3399,0.7 -11.0098,0.1c-0.8547,-0.15 -1.7093,-0.35 -2.4634,-0.75c-0.4525,-1.15 -0.6033,-2 -0.6033,-2.9c0.1006,-0.15 0.2514,-0.1 0.3519,-0.05c1.1563,0.35 2.3629,0.5 3.5191,0.55c2.3629,0.15 4.7257,0.25 7.0383,-0.1c0.9049,-0.15 1.8098,-0.3 2.7148,-0.45c0.4021,-0.05 0.8043,-0.1 1.2065,-0.15c0.1006,1.05 0.2011,2.05 0.3519,3.05c0.1006,0.25 0.3017,0.35 0.3519,0.4zM208.6852,154.25c0.0503,-0.45 -0.1508,-0.7 -0.6032,-0.75c-0.7541,-0.05 -1.458,-0.05 -2.2121,-0.15c-0.9551,-0.1 -1.9103,-0.25 -2.8655,-0.35c-0.3017,-0.05 -0.6536,-0.1 -0.8044,0.3c0.0503,0.4 0.3519,0.5 0.6536,0.6c1.7092,0.55 4.5245,0.7 5.8316,0.35z" fill="#d0e8e9"/><path d="M210.7464,133.25c0.5028,0.5 0.7541,1.1 0.8547,1.8c0.1005,0.85 0.2514,1.7 0.553,2.5c0.6033,1.6 0.8546,3.35 1.2568,5c0.4022,1.5 0.8547,2.95 1.3071,4.4c0.3017,0.9 0.6033,1.8 0.7039,2.75c-0.7541,0.4 -1.5585,0.55 -2.4634,0.55c-0.2011,-1.65 -0.8547,-3.25 -1.3071,-4.85c-0.8547,-3.3 -1.6591,-6.55 -2.1115,-9.9c-0.1006,-0.6 -0.1508,-1.25 -0.5027,-1.8c0.1508,-0.2 0.3519,-0.3 0.6032,-0.3c0.3519,-0.05 0.7541,-0.1 1.106,-0.15z" fill="#dd002b"/><path d="M209.0874,133.7c0.3519,0.55 0.4022,1.2 0.5028,1.8c0.5027,3.35 1.2568,6.65 2.1114,9.9c0.4022,1.6 1.0558,3.2 1.3071,4.85c-0.7038,0.35 -1.5082,0.2 -2.2623,0.3c-0.7038,-2.6 -1.5081,-5.2 -2.1114,-7.85c-0.5028,-2.3 -1.2569,-4.55 -1.5082,-6.9c-0.0503,-0.55 -0.2011,-1.05 -0.3017,-1.6c0.7039,-0.3 1.458,-0.45 2.2623,-0.5z" fill="#f73c60"/><path d="M260.1148,130.35c-2.4132,-0.5 -4.7257,-1.15 -6.9378,-2.15c-1.3573,-0.6 -2.6644,-1.25 -3.9213,-2c-0.2011,-0.1 -0.4021,-0.25 -0.6032,-0.35c-0.8547,-0.5 -1.2066,-1.2 -0.8547,-2.2c0.1508,-0.45 0.1508,-0.9 0.2514,-1.35c0.1005,0 0.2011,0 0.2513,0.05c3.6197,2.5 7.6918,3.85 11.9148,4.95c0.2514,0.05 0.553,0.05 0.7541,0.3c-0.5027,0.85 -0.7541,1.8 -0.8546,2.75zM253.6798,127.15c0.0503,-0.4 -0.2514,-0.7 -0.6033,-0.8c-1.2066,-0.45 -2.3126,-1.05 -3.4186,-1.75c-0.1508,-0.1 -0.3519,-0.15 -0.5027,-0.15c-0.1006,0 -0.2514,0.1 -0.3016,0.2c-0.0503,0.05 -0.0503,0.2 -0.0503,0.25c0.0503,0.1 0.1005,0.25 0.2011,0.35c1.3071,0.85 2.6645,1.6 4.1726,2.1c0.2011,0.1 0.352,0 0.5028,-0.2z" fill="#d3e9ea"/><path d="M253.7301,144.9c0,-0.4 0.1005,-0.8 0.201,-1.2c0.6033,-2.65 1.0558,-5.35 1.8099,-7.95c0.4524,-1.6 0.8044,-3.25 1.5082,-4.8c0,-0.05 0.0503,-0.05 0.1005,-0.1c0.7541,0.15 1.5082,0.3 2.212,0.6c-0.2513,1.15 -0.6032,2.3 -1.0054,3.4c-0.3519,0.95 -0.6536,1.9 -0.9049,2.85c-0.6033,2.45 -1.1563,4.95 -1.6591,7.4c-0.0502,0.2 -0.1005,0.35 -0.2513,0.45c-0.7541,0 -1.3574,-0.4 -2.0109,-0.65z" fill="#f73c60"/><path d="M255.6907,145.6c0.1508,-0.1 0.2514,-0.25 0.2514,-0.45c0.5027,-2.5 1.0557,-4.95 1.659,-7.4c0.2514,-0.95 0.6033,-1.9 0.9049,-2.85c0.4022,-1.1 0.7541,-2.25 1.0055,-3.4c0.6033,-0.15 1.106,0.3 1.659,0.35c0.2514,1.3 -0.3016,2.5 -0.6033,3.75c-0.3519,1.7 -0.9049,3.4 -1.2568,5.15c-0.3017,1.6 -0.6033,3.2 -0.9049,4.8c-0.0503,0.25 -0.0503,0.55 -0.0503,0.8c-0.8547,-0.15 -1.8098,-0.3 -2.6645,-0.75z" fill="#dd012b"/><path d="M219.5443,161.65c-0.1006,0.45 -0.2011,0.95 -0.3017,1.4c-0.1508,0.6 -0.3519,1.15 -0.4022,1.75c-0.0502,0.7 -0.4021,1.15 -0.9049,1.6c-0.9049,0.8 -1.8098,1.55 -2.6142,2.4c-1.7596,1.7 -3.1169,3.7 -4.5246,5.7c-0.1005,0.15 -0.2011,0.4 -0.5027,0.45c0.5027,-2.3 1.106,-4.55 2.4634,-6.5c0.9552,-1.4 1.9606,-2.85 3.2677,-4c0.8044,-0.7 1.5082,-1.45 2.2623,-2.2c0.2011,-0.2 0.4525,-0.3 0.6536,-0.5c0.1508,-0.1 0.3016,-0.15 0.6033,-0.1z" fill="#db002b"/><path d="M267.1027,175c-0.4022,-0.6 -0.8546,-1.2 -1.2568,-1.8c-1.106,-1.6 -2.3126,-3.1 -3.6699,-4.45c-0.8044,-0.8 -1.6591,-1.55 -2.5137,-2.3c-0.553,-0.45 -0.9049,-0.95 -1.0055,-1.7c-0.1508,-1 -0.4524,-2 -0.7541,-3.15c0.553,0.05 0.8547,0.25 1.1563,0.5c1.7093,1.6 3.4689,3.15 4.776,5.1c0.4022,0.55 0.8043,1.1 1.2065,1.65c1.2066,1.9 1.6088,4 2.0612,6.15z" fill="#db002b"/><path d="M250.9148,133.35c-0.2514,1 -0.5531,2 -0.7541,2.95c-0.1509,0.85 -0.4525,1.45 -1.3574,1.65c-0.1508,0.05 -0.3017,0.2 -0.5028,0.3c-0.1005,-0.9 0.6536,-1.7 0.3017,-2.6c-0.4022,-0.1 -0.553,0.2 -0.6536,0.45c-0.3016,1.05 -0.6032,2.1 -0.9552,3.15c-0.1508,0.5 -0.2513,1.05 -0.6032,1.5c-0.3017,-0.15 -0.2011,-0.4 -0.1509,-0.6c0.352,-1.35 0.7541,-2.75 1.0558,-4.1c0.0503,-0.3 0.2513,-0.5 0.4022,-0.7c1.0054,-1.3 0.9552,-2.2 -0.1509,-3.4c-0.1508,-0.15 -0.3519,-0.3 -0.6032,-0.5c-0.0503,-1.55 0.5027,-3.05 0.7038,-4.6c0.3519,-0.15 0.553,-0.1 0.7541,0.05c0.6033,0.4 1.2066,0.8 1.8601,1.25c-0.1005,0.95 -0.4525,1.85 -0.4525,2.85c0.0503,1 0.1509,1.85 1.1061,2.35z" fill="#da012b"/><path d="M276.3027,138.9c1.9607,-0.5 2.5137,-2 2.9662,-3.55c0.1508,-0.5 0.1005,-1 0.4021,-1.5c0.5028,-0.1 1.0055,-0.15 1.6591,-0.3c-0.0503,1.6 -0.7541,3.05 -1.0558,4.5c-0.3519,1.55 -0.6535,3.15 -1.106,4.65c-0.4022,1.45 -0.553,3.05 -1.2568,4.45c-0.3017,-0.15 -0.2514,-0.35 -0.2011,-0.5c0.4022,-1.7 0.8044,-3.4 1.2065,-5.05c0.1006,-0.3 0.1509,-0.65 -0.2513,-0.9c-0.4525,0 -0.6536,0.25 -0.7541,0.75c-0.3519,1.7 -0.7541,3.4 -1.1563,5.1c-0.1006,0.4 -0.2514,0.75 -0.4022,1.15c-0.1508,-0.55 -0.0503,-1.05 0.0503,-1.6c0.3016,-1.4 0.6535,-2.85 0.7038,-4.3c0,-0.25 0.0503,-0.55 -0.1508,-0.8c-0.2011,-0.05 -0.3519,0 -0.4525,0.2c-0.1508,0.3 -0.2513,0.6 -0.2513,0.9c0,0.45 -0.1006,0.9 -0.4022,1.25c-0.3519,-0.15 -0.4022,-0.4 -0.3519,-0.7c0.2513,-1.25 0.5027,-2.45 0.8043,-3.75z" fill="#d7022b"/><path d="M230.7049,138.65c-0.4022,-0.8 -0.4524,-1.75 -1.2065,-2.4c-0.3017,0.15 -0.5028,0.35 -0.352,0.7c0.2011,0.55 0.352,1.15 0.5531,1.7c0.0502,0.15 0.1005,0.25 0,0.45c-0.352,0 -0.5531,-0.25 -0.6536,-0.55c-0.2011,-0.55 -0.4525,-1.1 -0.553,-1.7c-0.2011,-1.45 -0.7541,-2.8 -1.0557,-4.25c0.0502,-0.3 0.3016,-0.45 0.4524,-0.65c0.6033,-0.6 0.7541,-1.4 0.7038,-2.15c-0.1005,-1.05 -0.1508,-2.1 -0.7038,-3.05c0,-0.05 0,-0.1 0,-0.25c0.4022,-0.3 0.8547,-0.7 1.2568,-1.05c0.1006,0 0.1509,0 0.2011,0.05c0.0503,0 0.0503,0.05 0.1006,0.1c0.2011,0.7 0.4022,1.4 0.553,2.1c0.2514,1.35 0.6033,2.65 0.9049,3.9c-0.1005,0.2 -0.1508,0.3 -0.3016,0.35c-1.3071,0.55 -1.659,1.3 -1.3574,2.6c0.0503,0.3 0.2011,0.55 0.4022,0.7c0.9552,0.7 1.1563,1.7 1.3071,2.75c0,0.3 0.0503,0.55 -0.2514,0.65z" fill="#d9012b"/><path d="M205.518,133.2c-0.7541,0.4 -1.6087,0.45 -2.4131,0.5c-1.9606,0.15 -3.9213,0.35 -5.9322,0.1c-0.3519,-0.05 -0.7541,-0.1 -1.106,-0.15c-0.4022,-0.1 -0.6536,-0.35 -0.8044,-0.7c-0.2514,-0.7 -0.5027,-1.35 -0.6536,-2.15c0.5028,0.05 0.8547,0.1 1.2569,0.15c0.4022,0.05 0.8043,0.05 1.2568,0.1c0.4022,0 0.8044,0 1.2568,-0.05c0.4022,0 0.8044,-0.05 1.2569,-0.05c0.8043,0 1.5584,-0.05 2.3125,-0.2c0.5028,-0.1 1.0055,-0.05 1.5082,-0.1c0.1006,0.3 0.3017,0.55 0.3017,0.9c-0.0503,0.6 0.2513,1.1 0.4524,1.6c0.5028,0 0.9049,0 1.3071,0.05zM201.8984,132.85c-0.1509,-0.7 -0.553,-0.8 -0.9552,-0.75c-1.2066,0.2 -2.3629,0.15 -3.5694,0.1c-0.2011,0 -0.3519,0 -0.553,0.05c-0.2011,0.05 -0.3519,0.15 -0.3519,0.35c0,0.2 0.1508,0.3 0.3016,0.4c0.1005,0.05 0.1508,0.05 0.2514,0.05c1.3573,0.1 2.765,0.1 4.1224,-0.05c0.2513,0.05 0.4524,-0.05 0.7541,-0.15z" fill="#cce4e5"/><path d="M236.9388,134.8c-1.0557,0.15 -2.0109,0.05 -2.9158,0.05c-0.8044,0 -1.6591,0 -2.4634,0c-0.4525,0 -0.905,0 -1.3071,-0.45c-0.1509,-0.4 0,-0.8 0.2011,-1.2c1.2065,-0.35 5.1278,-0.45 6.636,-0.15c0.1508,0.55 -0.1508,1.1 -0.1508,1.75z" fill="#cde5e6"/><path d="M256.7967,150.8c-0.1005,-0.15 -0.2513,-0.35 -0.2011,-0.5c0.2514,-1 0.4525,-2 1.106,-2.85c1.0558,0.2 2.0612,0.45 3.0164,0.85c-0.2011,0.95 -0.4022,1.9 -0.6032,2.8c-0.2514,0.3 -0.5531,0.15 -0.8044,0.25c-0.9049,-0.05 -1.7596,-0.25 -2.5137,-0.55z" fill="#f1fdfd"/><path d="M216.0251,154.4c-0.1005,-0.1 -0.2513,-0.2 -0.2513,-0.3c-0.1508,-1 -0.2514,-2.05 -0.3519,-3.05c0.8043,-0.3 1.6087,-0.45 2.4633,-0.55c0.2011,0.05 0.4525,0.05 0.7541,0.1c0.0503,1 0.7541,1.9 0.6536,2.95c-1.0055,0.45 -2.1115,0.75 -3.2678,0.85z" fill="#f1fdfd"/><path d="M247.1443,134.8c-0.3017,0.05 -0.5028,0.05 -0.7541,0.05c-1.6591,-0.05 -3.2678,-0.05 -4.9771,-0.1c-0.2011,-0.55 -0.2514,-1.15 -0.1005,-1.7c0.4524,-0.25 0.8546,-0.2 1.2568,-0.2c1.5585,0.1 3.1169,-0.35 4.6251,0.05c0.4022,0.85 0.4022,0.85 -0.0502,1.9z" fill="#cce5e5"/><path d="M228.0404,145.25c-0.3519,-0.95 -0.4524,-1.9 -0.4021,-2.9c0.0502,-0.75 0.3016,-1.45 0.8546,-1.95c0.4022,-0.4 0.8546,-0.35 1.2066,0.1c0.7038,0.9 1.2065,1.95 1.106,3.2c-0.905,0.6 -1.7596,1.15 -2.7651,1.55z" fill="#cee6e7"/><path d="M271.4262,148.25c0.2514,-1.35 0.6033,-2.45 1.458,-3.35c0.4021,-0.45 0.9049,-0.8 1.5081,-0.8c0.352,0 0.6536,0.15 0.7039,0.5c0.2011,1.2 0.2011,2.35 -0.4525,3.45c-1.0557,0.05 -2.1115,0.2 -3.2175,0.2z" fill="#cee7e8"/><path d="M207.177,150.8c-1.1562,0 -2.1617,0 -3.1672,0c-0.1508,-0.85 -0.2011,-1.6 -0.1508,-2.35c0,-0.4 0.1508,-0.8 0.4022,-1.15c0.3016,-0.45 0.8044,-0.55 1.1563,-0.2c0.2514,0.25 0.4524,0.55 0.7038,0.85c0.553,0.8 0.8547,1.75 1.0557,2.85z" fill="#cce5e6"/><path d="M247.5464,141.85c0.2514,-0.6 0.4525,-1.15 0.7039,-1.65c0.2513,-0.55 0.6033,-1 1.1563,-1.3c0.5027,-0.25 0.9049,-0.15 1.106,0.35c0.2513,0.55 0.2513,1.15 0.2513,1.75c-0.0502,0.8 0.1006,1.65 -0.5027,2.4c-0.9552,-0.4 -1.8098,-0.95 -2.7148,-1.55z" fill="#cce5e6"/><path d="M275.3475,133.95c1.0055,-0.05 1.9104,0 2.9159,0c-0.0503,1.15 -0.2011,2.15 -0.9049,3.05c-0.7541,0.95 -1.5082,0.85 -1.9607,-0.25c-0.1005,-0.25 -0.2011,-0.55 -0.2011,-0.8c-0.0503,-0.6 -0.1005,-1.25 0.1508,-2z" fill="#cde6e7"/><path d="M203.306,134.75c0.4525,0.75 0.5027,1.5 0.5027,2.3c0,0.65 -0.2513,0.95 -0.8043,1.15c-0.7039,0.2 -1.2066,0.05 -1.5585,-0.5c-0.553,-0.8 -0.7541,-1.75 -1.0055,-2.75c1.0055,-0.2 1.9607,-0.15 2.8656,-0.2z" fill="#cde6e7"/><path d="M224.1694,128.55c0.9049,-0.45 1.7093,-0.9 2.5639,-1.3c0.6033,0.55 0.6033,1.35 0.7541,2c0.1509,0.6 0,1.2 -0.2513,1.75c-0.2011,0.45 -0.7039,0.55 -1.1563,0.35c-0.4525,-0.25 -0.8547,-0.55 -1.0558,-1c-0.3016,-0.55 -0.5027,-1.1 -0.8546,-1.8z" fill="#cce5e6"/><path d="M251.3169,128.55c0.905,0.4 1.7093,0.75 2.5137,1.15c0.1005,0.85 -0.2514,1.6 -0.6033,2.3c-0.3016,0.6 -0.8043,0.75 -1.3574,0.6c-0.6032,-0.15 -0.9551,-0.55 -1.0054,-1.15c-0.0503,-0.95 0.1005,-1.9 0.4524,-2.9z" fill="#cee6e7"/><path d="M210.9475,129c0.0503,0.05 0.2011,0.1 0.2011,0.15c0.3017,0.85 0.6033,1.7 0.6536,2.6c-0.8044,0.35 -1.6088,0.5 -2.4634,0.6c-0.2011,-0.05 -0.553,-0.05 -0.553,-0.3c0,-0.85 -0.4525,-1.6 -0.3016,-2.45c0.8043,-0.35 1.6087,-0.55 2.4633,-0.6z" fill="#f0fbfb"/><path d="M260.1148,130.35c0.1005,-0.95 0.3519,-1.9 0.8546,-2.75c0.8546,0.05 1.659,0.3 2.4634,0.6c0.0503,1 -0.4022,1.85 -0.553,2.8c-0.9552,0 -1.8601,-0.35 -2.765,-0.65z" fill="#f2fdfd"/><path d="M208.5344,129.6c-0.1508,0.85 0.3017,1.65 0.3017,2.45c0,0.25 0.3519,0.25 0.553,0.3c-1.2066,0.4 -2.3629,0.7 -3.6197,0.8c0.1005,-0.35 0.5027,-0.2 0.6536,-0.45c-0.2514,-0.75 0.1005,-1.65 -0.6033,-2.25c-0.2011,-0.05 -0.4525,-0.05 -0.6536,-0.1c1.0558,-0.35 2.212,-0.6 3.3683,-0.75z" fill="#cde5e6"/><path d="M205.1158,130.35c0.2514,0.05 0.4525,0.05 0.6536,0.1c0.7541,0.65 0.3519,1.55 0.6033,2.25c-0.2011,0.2 -0.6033,0.1 -0.6536,0.45l-0.1005,0.05l-0.1006,-0.05c-0.4022,-0.05 -0.8043,-0.05 -1.2568,-0.1c-0.2011,-0.5 -0.5027,-1 -0.4525,-1.6c0.0503,-0.35 -0.201,-0.6 -0.3016,-0.9c0.5027,-0.15 1.0557,-0.15 1.6087,-0.2z" fill="#f2fefe"/><path d="M233.0678,141.8c-0.7039,-1.95 -1.0055,-3.7 -1.458,-5.45c-0.0502,-0.1 0.0503,-0.25 0.1006,-0.35c0.2513,-0.05 0.3519,0.05 0.4524,0.25c0.1006,0.2 0.1509,0.4 0.2011,0.65c0.3017,1.15 0.553,2.3 0.8044,3.45c0.1006,0.35 0.1508,0.75 -0.1005,1.45z" fill="#a80b28"/><path d="M245.3344,139.95c-0.3016,-0.15 -0.4022,-0.4 -0.3519,-0.6c0.2514,-1 0.5027,-2 0.8044,-3c0.0503,-0.1 0.1508,-0.2 0.2514,-0.3c0.0502,-0.05 0.201,-0.05 0.2513,-0.05c0.0503,0 0.1508,0.1 0.2011,0.2c0.0503,0.1 0.0503,0.2 0,0.25c-0.3016,1.1 -0.6033,2.2 -0.9049,3.25c-0.0503,0.05 -0.1508,0.1 -0.2514,0.25z" fill="#b00c2a"/><path d="M230.7049,138.65c0.3017,-0.1 0.2514,-0.4 0.3017,-0.6c0.6032,1.45 0.9551,3 1.2568,4.55c0,0.05 -0.0503,0.05 -0.1006,0.1c-0.4524,-0.35 -0.8546,-1.45 -1.4579,-4.05z" fill="#9d0f29"/><path d="M268.4601,191.4c-0.0503,16.6 -13.4229,29.5 -29.5104,29.65c-8.647,0.05 -16.0371,-3.1 -21.9694,-9.35c-5.3289,-5.65 -8.094,-12.45 -8.094,-20.15c-0.0502,-16.95 14.0263,-30.15 30.6164,-29.7c16.3388,0.45 28.9574,13.8 28.9574,29.55zM238.8492,163.2c-1.659,-0.05 -3.0164,0.1 -4.4241,0.3c-2.212,0.25 -4.3235,0.85 -6.3847,1.65c-1.7093,0.65 -3.318,1.55 -4.8765,2.55c-1.7595,1.2 -3.4185,2.45 -4.9267,3.95c-1.2066,1.2 -2.2623,2.55 -3.2175,3.9c-0.9049,1.25 -1.5585,2.7 -2.2623,4.1c-0.6536,1.35 -1.2066,2.8 -1.5585,4.25c-0.4525,1.75 -0.7541,3.5 -0.9049,5.3c-0.1508,1.85 -0.1508,3.65 0.0503,5.5c0.2011,1.7 0.553,3.35 1.0054,4.95c0.3519,1.1 0.7039,2.15 1.1563,3.2c1.0557,2.35 2.3629,4.55 4.0219,6.55c1.106,1.3 2.2623,2.55 3.5694,3.65c1.9606,1.6 4.0721,2.95 6.3847,4.05c3.2175,1.5 6.5858,2.35 10.1049,2.6c3.6197,0.25 7.1891,-0.15 10.6076,-1.3c2.4132,-0.8 4.7257,-1.75 6.8372,-3.2c2.2623,-1.55 4.3235,-3.2 6.1333,-5.3c1.4077,-1.7 2.6645,-3.5 3.67,-5.45c1.5584,-2.95 2.5136,-6.1 2.9158,-9.4c0.4525,-3.75 0.2011,-7.45 -0.7541,-11.05c-0.6033,-2.45 -1.6087,-4.8 -2.9661,-6.9c-1.4076,-2.2 -2.9661,-4.25 -4.9268,-6.05c-2.4131,-2.2 -5.0273,-4 -7.9934,-5.3c-1.8601,-0.8 -3.7705,-1.45 -5.7814,-1.9c-1.7596,-0.55 -3.7203,-0.8 -5.4798,-0.65z" fill="#010101"/><path d="M268.812,150.7c0.1508,-0.45 0.553,-0.45 0.9049,-0.45c1.9104,0 3.7705,0 5.6809,0c0.4022,0 0.8547,-0.1 1.2066,0.1c0.1508,0.35 -0.1006,0.55 -0.3519,0.65c-0.2011,0.1 -0.4525,0.05 -0.7039,0.05c-1.9606,0 -3.871,0 -5.8317,0c-0.3016,0.05 -0.7038,0.05 -0.9049,-0.35z" fill="#fdfefe"/><path d="M233.671,144.6c0.3017,0.15 0.4022,0.4 0.2011,0.65c-0.3016,0.4 -0.7038,0.7 -1.1563,0.95c-1.6087,0.8 -3.2174,1.7 -4.8765,2.4c-0.1508,0.05 -0.3519,0.15 -0.5027,0.2c-0.2011,0.05 -0.3519,0 -0.4524,-0.2c-0.0503,-0.15 -0.1006,-0.4 0.1005,-0.5c0.8044,-0.5 1.6087,-1.05 2.5137,-1.4c1.4076,-0.6 2.6644,-1.4 3.9715,-2.1c0.0503,0 0.1509,0 0.2011,0z" fill="#fcfdfd"/><path d="M281.0787,131.15c-0.3519,0.4 -0.8547,0.65 -1.4077,0.65c-2.1114,0 -4.2229,0 -6.3344,0c-0.5027,0 -0.8546,-0.15 -1.2065,-0.45c0.0502,-0.35 0.2513,-0.35 0.5027,-0.35c1.4579,0 2.9158,0 4.424,0c0.6536,0 1.2569,0 1.9104,-0.2c0.553,-0.15 1.1563,-0.05 1.7596,0c0.1508,-0.05 0.3016,0.1 0.3519,0.35z" fill="#fcfefd"/><path d="M227.9399,123.6c0,0.45 -0.3016,0.7 -0.6033,0.9c-0.3519,0.25 -0.8044,0.45 -1.2065,0.7c-1.6591,1.05 -3.4689,1.85 -5.2787,2.65c-0.1006,0.05 -0.2514,0.05 -0.4022,0.05c-0.1006,0 -0.2011,-0.1 -0.2011,-0.15c-0.0503,-0.1 -0.1006,-0.3 0,-0.4c0.1508,-0.15 0.3519,-0.3 0.553,-0.4c1.1563,-0.65 2.3126,-1.25 3.4688,-1.85c0.9552,-0.55 1.9104,-1.1 2.8656,-1.65c0.1006,-0.05 0.2514,-0.1 0.3519,-0.15c0.2011,-0.1 0.4525,0.1 0.4525,0.3z" fill="#fcfdfd"/><path d="M250.0098,147.2c-0.1508,0 -0.2513,0 -0.4021,-0.05c-1.6088,-0.75 -3.0164,-1.7 -4.3738,-2.85c-0.2011,-0.2 -0.4022,-0.35 -0.5028,-0.65c-0.0502,-0.15 0,-0.25 0.1006,-0.35c0.1005,-0.1 0.2514,-0.15 0.3519,-0.1c0.1508,0.1 0.3519,0.15 0.4525,0.25c1.3071,1 2.6644,1.95 4.1224,2.7c0.4524,0.2 0.4524,0.35 0.2513,1.05z" fill="#0c0d0d"/><path d="M208.6852,154.25c-1.3071,0.35 -4.1224,0.2 -5.8316,-0.35c-0.3017,-0.1 -0.6536,-0.15 -0.6536,-0.6c0.1508,-0.4 0.5027,-0.3 0.8044,-0.3c0.9552,0.1 1.9104,0.25 2.8655,0.35c0.7039,0.05 1.458,0.1 2.2121,0.15c0.4022,0.05 0.6032,0.3 0.6032,0.75z" fill="#0d0e0e"/><path d="M253.6798,127.15c-0.1508,0.15 -0.3017,0.25 -0.5028,0.2c-1.5081,-0.5 -2.8655,-1.25 -4.1726,-2.1c-0.1006,-0.05 -0.1508,-0.2 -0.2011,-0.35c-0.0503,-0.05 0,-0.2 0.0503,-0.25c0.1005,-0.1 0.201,-0.2 0.3016,-0.2c0.1508,0 0.3519,0.05 0.5027,0.15c1.106,0.65 2.212,1.3 3.4186,1.75c0.3519,0.15 0.6033,0.4 0.6033,0.8z" fill="#101111"/><path d="M201.8984,132.85c-0.3017,0.1 -0.5028,0.2 -0.7039,0.2c-1.3573,0.15 -2.765,0.15 -4.1224,0.05c-0.1005,0 -0.2011,-0.05 -0.2513,-0.05c-0.1509,-0.1 -0.3017,-0.2 -0.3017,-0.4c0,-0.2 0.1508,-0.35 0.3519,-0.35c0.2011,-0.05 0.352,-0.05 0.553,-0.05c1.2066,0.05 2.4132,0.1 3.5694,-0.1c0.352,-0.1 0.8044,0 0.905,0.7z" fill="#111212"/><path d="M238.8492,163.2c1.7093,-0.1 3.7202,0.1 5.6306,0.55c1.9606,0.4 3.9213,1.05 5.7814,1.9c2.9661,1.3 5.5803,3.1 7.9934,5.3c1.9607,1.8 3.5192,3.85 4.9268,6.05c1.3574,2.15 2.3629,4.5 2.9661,6.9c0.905,3.6 1.2066,7.3 0.7541,11.05c-0.4021,3.3 -1.4076,6.45 -2.9158,9.4c-1.0055,1.95 -2.212,3.75 -3.67,5.45c-1.7595,2.1 -3.871,3.8 -6.1333,5.3c-2.1115,1.45 -4.424,2.4 -6.8371,3.2c-3.4689,1.15 -7.0383,1.55 -10.6077,1.3c-3.5191,-0.25 -6.8874,-1.1 -10.1049,-2.6c-2.3126,-1.1 -4.4241,-2.45 -6.3847,-4.05c-1.3071,-1.05 -2.4634,-2.35 -3.5694,-3.65c-1.659,-2 -2.9661,-4.2 -4.0219,-6.55c-0.4524,-1.05 -0.8546,-2.1 -1.1563,-3.2c-0.5027,-1.65 -0.8043,-3.3 -1.0054,-4.95c-0.2011,-1.85 -0.2011,-3.65 -0.0503,-5.5c0.1508,-1.8 0.5027,-3.55 0.9049,-5.3c0.3519,-1.5 0.9049,-2.9 1.5585,-4.25c0.7038,-1.4 1.3574,-2.8 2.2623,-4.1c0.9552,-1.35 2.0109,-2.7 3.2175,-3.9c1.5082,-1.5 3.1672,-2.8 4.9268,-3.95c1.5082,-1.05 3.1672,-1.9 4.8765,-2.55c2.0612,-0.75 4.1726,-1.4 6.3847,-1.65c1.2568,-0.1 2.6142,-0.25 4.2732,-0.2z" fill="#f4e6d0"/></g></g></g></svg>