<svg version="1.1" xmlns="http://www.w3.org/2000/svg" xmlns:xlink="http://www.w3.org/1999/xlink" width="185.1" height="166.58519" viewBox="0,0,185.1,166.58519"><g transform="translate(-147.9,-96.9)"><g data-paper-data="{&quot;isPaintingLayer&quot;:true}" fill-rule="nonzero" stroke="none" stroke-width="1" stroke-linecap="butt" stroke-linejoin="miter" stroke-miterlimit="10" stroke-dasharray="" stroke-dashoffset="0" style="mix-blend-mode: normal"><g><g><path d="M237.9,180.3c0,0 2.2,21.4 -11.8,46.1c-7,12.3 -8.8,21.2 -7.1,23.6c1.6,2.4 6.9,4.2 5.5,5.7c-1.4,1.5 -19.6,3.4 -23.8,1.5c-1.7,-0.8 -6.6,-27.6 -5.3,-39.4c1.3,-11.8 3.2,-15.7 2.3,-24.3c-0.9,-8.6 -6.3,-23.2 -3.2,-29.9c3.1,-6.7 12.1,-17.7 27.4,-11.8c15.3,5.9 16.3,22.7 16,28.5z" fill="#856045"/><path d="M216.5,256.5c-0.2,-0.3 -0.6,-0.8 -1,-1.2c-0.4,-0.5 -0.8,-0.9 -1.1,-1.2c-0.2,-0.2 -0.3,-0.3 -0.4,-0.4c-0.1,-0.1 -0.1,-0.2 -0.1,-0.2c0,0 0.3,0.1 0.7,0.3c0.5,0.2 1,0.5 1.4,1c0.4,0.5 0.8,1.1 0.9,1.5c0.1,0.5 0.1,0.8 0.1,0.8c0,0 -0.2,-0.2 -0.5,-0.6z" fill="#59402f"/><path d="M221.6,255.7c-0.3,-0.4 -0.8,-0.8 -1.3,-1.3c-0.5,-0.5 -1,-0.9 -1.4,-1.2c-0.2,-0.2 -0.4,-0.3 -0.5,-0.4c-0.1,0 -0.2,-0.1 -0.2,-0.1c0,0 0,0 0.2,0c0.1,0.1 0.3,0.1 0.6,0.2c0.2,0.1 0.5,0.2 0.8,0.4c0.3,0.1 0.6,0.4 0.9,0.6c0.5,0.5 1,1.1 1.2,1.6c0.2,0.5 0.3,0.9 0.3,0.9c0,0 -0.3,-0.3 -0.6,-0.7z" fill="#59402f"/><path d="M214.5,257.4c-0.6,-0.6 -1.4,-1.5 -0.4,-1.7c1,-0.2 2.1,2.2 2.2,2.8c0,0.3 -1.3,-0.5 -1.8,-1.1z" fill="#665a52"/><path d="M219.5,256.3c-0.6,-0.6 -1.4,-1.5 -0.4,-1.7c1,-0.2 2.1,2.2 2.2,2.8c0,0.3 -1.3,-0.5 -1.8,-1.1z" fill="#665a52"/><path d="M222.7,255.7c-0.6,-0.6 -1.4,-1.5 -0.4,-1.7c1,-0.2 2.1,2.2 2.2,2.8c0,0.3 -1.4,-0.6 -1.8,-1.1z" fill="#665a52"/><g><path d="M196.6,228.2c-4.6,-2.5 -2.8,-9 -2.8,-9l-2,3.4c-1.2,-3.8 1.3,-10.4 1.3,-10.4l-2.5,1.4c0.1,-4.3 3.8,-6.8 3.8,-6.8c-1.3,1.7 -3.7,0.5 -3.7,0.5c2.2,-0.2 7.5,-11 7.5,-11" fill="#856045"/><path d="M191.3,207c0.2,-0.2 0.5,-0.5 0.8,-0.9c0.7,-0.8 1.5,-2 2.2,-3.2c0.7,-1.2 1.4,-2.4 2,-3.3c0.6,-0.9 1,-1.5 1,-1.5c0,0 -0.3,0.6 -0.7,1.6c-0.2,0.4 -0.5,1 -0.8,1.6c-0.3,0.6 -0.6,1.2 -1,1.8c-0.7,1.2 -1.6,2.4 -2.4,3.1c-0.3,0.4 -0.7,0.6 -1,0.8c-0.3,0.2 -0.5,0.2 -0.5,0.2c0,0 0.2,0 0.4,-0.2z" fill="#59402f"/><path d="M190.6,212.4c0.1,-0.3 0.1,-0.7 0.2,-1.1c0.1,-0.4 0.2,-0.8 0.4,-1.2c0.2,-0.4 0.4,-0.8 0.7,-1.1c0.3,-0.3 0.5,-0.6 0.8,-0.8c0.3,-0.2 0.5,-0.3 0.7,-0.4c0.2,-0.1 0.3,-0.1 0.3,-0.1c0,0 -0.1,0.1 -0.2,0.2c-0.2,0.1 -0.3,0.4 -0.5,0.6c-0.2,0.3 -0.4,0.6 -0.6,0.9c-0.2,0.3 -0.3,0.6 -0.5,1c-0.4,0.7 -0.6,1.5 -0.8,2.1c-0.2,0.6 -0.3,1 -0.3,1c0,0 -0.1,-0.5 -0.2,-1.1z" fill="#59402f"/><path d="M191.9,221.9c-0.1,-0.2 -0.3,-0.6 -0.4,-1.1c-0.1,-0.5 -0.2,-1.1 -0.2,-1.7c0,-0.6 0.1,-1.3 0.2,-1.9c0.1,-0.7 0.2,-1.3 0.4,-1.9c0.2,-0.6 0.4,-1.2 0.6,-1.6c0.2,-0.5 0.4,-0.8 0.5,-1.1c0.1,-0.3 0.2,-0.4 0.2,-0.4c0,0 0,0.1 -0.1,0.4c-0.1,0.2 -0.2,0.6 -0.3,1.1c-0.1,0.5 -0.3,1 -0.4,1.6c-0.2,0.6 -0.3,1.2 -0.4,1.8c-0.1,0.6 -0.2,1.2 -0.2,1.8c0,0.6 0,1.1 0,1.6c0,1 0.2,1.6 0.2,1.6c0,0 -0.1,-0.1 -0.1,-0.2z" fill="#59402f"/><path d="M195.1,227c-0.2,-0.1 -0.5,-0.4 -0.7,-0.7c-0.2,-0.4 -0.5,-0.8 -0.6,-1.3c-0.2,-0.4 -0.2,-1 -0.3,-1.5c0,-0.3 0,-0.5 0,-0.8c0,-0.3 0,-0.6 0,-0.8c0.1,-0.5 0.1,-0.9 0.2,-1.3c0.1,-0.8 0.3,-1.3 0.3,-1.3c0,0 0.1,0.5 0.1,1.3c0,0.8 0,1.8 0.1,2.8c0.1,1 0.3,2 0.6,2.7c0.1,0.3 0.3,0.6 0.4,0.8c0.1,0.2 0.2,0.3 0.2,0.3c0,0 -0.2,0 -0.3,-0.2z" fill="#59402f"/></g><path d="M195.7,228c0.2,1.8 0.4,3.9 0.7,6.1c0.3,2.2 0.6,4.6 0.9,7c0.3,2.4 0.6,4.8 1,7c0.4,2.2 0.8,4.3 1.3,6c0.2,0.9 0.5,1.7 0.8,2.3c0.1,0.2 0.2,0.4 0.3,0.5l0.1,0.2c0.1,0 0.1,0.1 0.2,0.1c0.3,0.2 0.5,0.2 0.8,0.3c1,0.2 1.6,0.3 1.6,0.3c0,0 -0.6,0 -1.6,-0.2c-0.3,0 -0.6,-0.1 -0.9,-0.2c-0.1,0 -0.1,0 -0.2,-0.1l-0.2,-0.2c-0.1,-0.2 -0.2,-0.3 -0.3,-0.5c-0.4,-0.6 -0.7,-1.4 -1,-2.3c-0.6,-1.7 -1.1,-3.8 -1.5,-6c-0.4,-2.2 -0.8,-4.6 -1.1,-7c-0.3,-2.4 -0.6,-4.8 -0.8,-7c-0.2,-2.3 -0.4,-4.4 -0.5,-6.2c-0.2,-3.6 -0.3,-6 -0.3,-6c0,0 0.2,2.4 0.7,5.9z" fill="#59402f"/><path d="M238.2,193.3c-0.3,1.8 -0.8,4.4 -1.5,7.5c-0.3,1.6 -0.7,3.2 -1.2,5c-0.5,1.8 -1,3.6 -1.6,5.5c-0.6,1.9 -1.3,3.8 -2.2,5.7c-0.5,0.9 -1.1,1.8 -1.6,2.7c-0.6,0.9 -1.1,1.8 -1.6,2.7c-2.1,3.6 -3.9,7.4 -5.5,11c-1.6,3.6 -3,7 -3.9,10c-0.3,0.8 -0.4,1.5 -0.5,2.2c-0.2,0.7 -0.3,1.4 -0.3,2c0,0.6 0.1,1.2 0.3,1.7c0.2,0.5 0.5,0.9 0.8,1.2c0.6,0.6 1.2,1 1.6,1.3c0.4,0.3 0.6,0.4 0.6,0.4c0,0 -0.2,-0.1 -0.6,-0.4c-0.4,-0.3 -1,-0.7 -1.7,-1.3c-0.3,-0.3 -0.7,-0.7 -0.9,-1.2c-0.2,-0.5 -0.3,-1.2 -0.3,-1.8c0,-0.6 0.1,-1.3 0.2,-2c0.1,-0.7 0.2,-1.4 0.4,-2.2c0.4,-1.5 1,-3.1 1.6,-4.8c0.7,-1.7 1.4,-3.5 2.2,-5.3c1.6,-3.6 3.4,-7.4 5.4,-11.1c0.5,-0.9 1.1,-1.8 1.6,-2.7c0.6,-0.9 1.1,-1.8 1.6,-2.7c0.9,-1.8 1.6,-3.8 2.2,-5.6c1.2,-3.7 2.1,-7.2 2.9,-10.3c1.5,-6.1 2.3,-10.2 2.3,-10.2c0,0 -0.2,1 -0.3,2.7z" fill="#59402f"/></g><g><g fill="#856045"><path d="M301.8,184.2c-3,21.1 -8.7,26.5 -9.4,32.5c-0.7,6 0,28.5 1.3,31.2c1.3,2.7 5.4,4.7 6,7.7c0.7,3 -22.1,1.7 -24.8,0c-2.7,-1.7 -17.1,-39.6 -16.1,-61.1c4.8,-43.5 46,-31.4 43,-10.3z"/><path d="M259.9,206.6c-4.2,-3.1 -1.5,-9.3 -1.5,-9.3l-2.4,3.1c-0.6,-4 2.7,-10.2 2.7,-10.2l-2.7,1.1c0.6,-4.2 4.6,-6.2 4.6,-6.2c-1.6,1.5 -3.8,0 -3.8,0c2.3,0 8.9,-10 8.9,-10"/></g><path d="M257.3,184.9c0.3,-0.1 0.6,-0.4 1,-0.8c0.8,-0.8 1.7,-1.8 2.6,-2.9c0.9,-1.1 1.8,-2.2 2.5,-3c0.7,-0.8 1.2,-1.3 1.2,-1.3c0,0 -0.4,0.6 -0.9,1.5c-0.3,0.4 -0.6,1 -1,1.5c-0.4,0.6 -0.8,1.2 -1.3,1.7c-0.9,1.1 -1.9,2.1 -2.8,2.7c-0.4,0.3 -0.8,0.5 -1.1,0.6c-0.3,0.1 -0.5,0.1 -0.5,0.1c0,0 0.2,0 0.3,-0.1z" fill="#59402f"/><path d="M256,189.9c0.1,-0.4 0.2,-0.7 0.3,-1.1c0.2,-0.3 0.4,-0.7 0.6,-1.1c0.2,-0.4 0.5,-0.7 0.8,-1c0.3,-0.3 0.6,-0.5 0.9,-0.7c0.3,-0.1 0.5,-0.2 0.7,-0.3c0.2,-0.1 0.3,-0.1 0.3,-0.1c0,0 -0.1,0.1 -0.2,0.2c-0.1,0.1 -0.3,0.3 -0.5,0.5c-0.2,0.2 -0.5,0.5 -0.7,0.8c-0.3,0.3 -0.5,0.7 -0.7,1c-0.4,0.7 -0.7,1.4 -1,2c-0.2,0.6 -0.4,1 -0.4,1c0,0 0,-0.4 -0.1,-1.2z" fill="#59402f"/><path d="M255.9,199.6c-0.1,-0.3 -0.2,-0.7 -0.2,-1.2c0,-0.5 0,-1.1 0.1,-1.7c0.1,-0.6 0.2,-1.3 0.4,-1.9c0.2,-0.6 0.4,-1.3 0.7,-1.8c0.3,-0.6 0.6,-1.1 0.8,-1.5c0.2,-0.4 0.4,-0.8 0.6,-1c0.2,-0.3 0.3,-0.4 0.3,-0.4c0,0 0,0.1 -0.1,0.4c-0.1,0.3 -0.2,0.7 -0.4,1.1c-0.2,0.4 -0.4,0.9 -0.6,1.5c-0.2,0.6 -0.4,1.2 -0.6,1.8c-0.2,0.6 -0.4,1.2 -0.5,1.8c-0.2,0.6 -0.3,1.1 -0.3,1.6c-0.1,1 0,1.6 0,1.6c0,0 -0.1,-0.2 -0.2,-0.3z" fill="#59402f"/><path d="M276.3,256.2c-0.4,-0.2 -1.1,-0.3 -1.6,-1c-0.6,-0.7 -1.1,-1.5 -1.6,-2.5c-0.5,-1 -0.9,-2.2 -1.4,-3.5c-1,-2.6 -2.1,-5.6 -3.4,-8.8c-1.2,-3.2 -2.5,-6.7 -3.6,-10.2c-0.6,-1.8 -1.1,-3.5 -1.6,-5.3c-0.3,-0.9 -0.5,-1.7 -0.7,-2.6c-0.2,-0.9 -0.4,-1.8 -0.6,-2.6c-0.3,-1.7 -0.6,-3.3 -0.8,-4.9c-0.2,-1.6 -0.4,-3 -0.6,-4.4c-0.4,-2.7 -0.6,-5 -0.7,-6.6c-0.1,-1.6 -0.1,-2.5 -0.1,-2.5c0,0 0,0.9 0.2,2.5c0.2,1.6 0.5,3.9 0.9,6.6c0.2,1.4 0.5,2.8 0.7,4.4c0.2,1.6 0.5,3.2 0.9,4.9c0.2,0.8 0.4,1.6 0.6,2.5c0.2,0.9 0.5,1.7 0.7,2.6c0.5,1.7 1,3.5 1.6,5.2c1.1,3.5 2.3,7 3.5,10.2c1.1,3.3 2.3,6.3 3.2,8.9c0.5,1.3 0.8,2.5 1.3,3.5c0.4,1 0.9,1.9 1.4,2.5c0.4,0.7 1.1,0.9 1.5,1c0.4,0.1 0.6,0.1 0.6,0.1c0,0 -0.3,0 -0.4,0z" fill="#59402f"/><path d="M259.1,206c-0.2,-0.2 -0.5,-0.4 -0.8,-0.8c-0.1,-0.1 -0.3,-0.4 -0.4,-0.6c-0.1,-0.3 -0.2,-0.5 -0.3,-0.8c-0.2,-0.6 -0.3,-1.2 -0.3,-1.8c0,-0.3 0,-0.6 0,-0.9c0,-0.3 0.1,-0.6 0.1,-0.9c0,-0.6 0.2,-1.1 0.3,-1.5c0.2,-0.4 0.3,-0.8 0.4,-1c0.1,-0.3 0.2,-0.4 0.2,-0.4c0,0 0,0.1 0,0.4c0,0.3 -0.1,0.7 -0.1,1.1c0,0.5 -0.1,1 -0.1,1.5c0,0.2 0,0.5 0,0.8c0,0.3 0,0.6 0,0.9c0,0.6 0.1,1.2 0.2,1.7c0.1,0.6 0.3,1 0.5,1.4c0.4,0.8 0.9,1.2 0.9,1.2c0,0 -0.2,-0.1 -0.6,-0.3z" fill="#59402f"/><path d="M292.6,256.4c-0.3,-0.3 -0.6,-0.8 -0.9,-1.3c-0.3,-0.5 -0.6,-0.9 -0.9,-1.3c-0.1,-0.1 -0.2,-0.3 -0.3,-0.4c-0.1,-0.1 -0.1,-0.2 -0.1,-0.2c0,0 0.3,0.1 0.7,0.4c0.4,0.2 0.8,0.7 1.2,1.2c0.4,0.5 0.6,1.1 0.7,1.6c0,0.5 0,0.8 0,0.8c0,0 -0.2,-0.3 -0.4,-0.8z" fill="#59402f"/><path d="M297.7,256.1c-0.3,-0.4 -0.7,-1 -1.1,-1.5c-0.5,-0.6 -0.9,-1 -1.3,-1.4c-0.2,-0.1 -0.4,-0.3 -0.5,-0.4c-0.1,-0.1 -0.2,-0.2 -0.2,-0.2c0,0 0,0.1 0.2,0.1c0.1,0 0.4,0.1 0.6,0.2c0.3,0.1 0.5,0.3 0.8,0.5c0.3,0.2 0.6,0.4 0.8,0.7c0.5,0.5 0.8,1.2 1,1.7c0.2,0.5 0.2,0.9 0.2,0.9c0,0 -0.2,-0.3 -0.5,-0.6z" fill="#59402f"/><path d="M296.3,251c-0.4,-0.2 -0.9,-0.6 -1.4,-1.2c-0.6,-0.6 -1.1,-1.5 -1.5,-2.5c-0.2,-0.5 -0.4,-1.1 -0.5,-1.7c-0.1,-0.7 -0.2,-1.3 -0.2,-2c-0.2,-2.7 -0.6,-5.8 -0.8,-9.2c-0.3,-3.4 -0.5,-7.1 -0.4,-10.7c0,-1.8 0.1,-3.6 0.4,-5.4c0.2,-1.8 0.7,-3.5 1.2,-5.1c1,-3.3 2.3,-6.2 3.3,-8.7c0.6,-1.2 1,-2.4 1.4,-3.4c0.4,-1 0.7,-1.9 0.9,-2.7c0.2,-0.8 0.4,-1.4 0.5,-1.8c0.1,-0.4 0.2,-0.6 0.2,-0.6c0,0 0,0.2 -0.1,0.6c-0.1,0.4 -0.2,1 -0.4,1.8c-0.4,1.6 -1,3.8 -2,6.3c-0.9,2.5 -2.1,5.5 -3.1,8.7c-0.5,1.6 -1,3.3 -1.2,5c-0.3,1.7 -0.3,3.5 -0.4,5.3c-0.1,3.6 0.1,7.2 0.3,10.6c0.2,3.4 0.5,6.6 0.6,9.3c0,1.4 0.1,2.6 0.5,3.6c0.3,1.1 0.8,1.9 1.3,2.5c0.5,0.6 1,1 1.3,1.3c0.3,0.3 0.5,0.4 0.5,0.4c0,0 -0.2,-0.1 -0.4,-0.4z" fill="#59402f"/><path d="M290.3,257c-0.5,-0.6 -1.2,-1.7 -0.1,-1.7c1.1,0 1.9,2.5 1.9,3.1c0,0.4 -1.2,-0.7 -1.8,-1.4z" fill="#665a52"/><path d="M295.4,256.6c-0.5,-0.6 -1.2,-1.7 -0.1,-1.7c1.1,0 1.9,2.5 1.9,3.1c0,0.4 -1.2,-0.7 -1.8,-1.4z" fill="#665a52"/><path d="M298.6,255.8c-0.5,-0.6 -1.2,-1.7 -0.1,-1.7c1.1,0 1.9,2.5 1.9,3.1c0,0.3 -1.2,-0.7 -1.8,-1.4z" fill="#665a52"/></g><g><path d="M306.6,172c0,0 0,9.7 -3.4,12.9l-0.2,-2.8c0,0 -1,8.8 -7.5,11.4l0.8,-2.6c0,0 -7.4,4.6 -7.3,8l-1.2,-2c0,0 -6.8,5.8 -9.8,3.8" fill="#8d674a"/><g><path d="M308.5,162.1c-1.2,27.3 -27.5,37.5 -27.5,37.5c-14.1,28.4 -93.6,28.3 -116.1,10.3c-20.1,-16.1 -25.5,-49 1.4,-71c26.9,-22 46.7,-6 63.1,-12.1c11.3,-4.2 35,-13.6 53,-8" fill="#8d674a"/><path d="M306.8,174.9c-0.1,1.1 -0.2,2.7 -0.5,4.2c-0.2,0.8 -0.4,1.5 -0.6,2.2c-0.1,0.4 -0.3,0.7 -0.4,1c-0.1,0.3 -0.2,0.6 -0.4,0.8c-0.2,0.3 -0.3,0.5 -0.5,0.7c-0.1,0.2 -0.3,0.4 -0.4,0.5c-0.2,0.2 -0.4,0.3 -0.4,0.3c0,0 0.1,-0.1 0.3,-0.4c0.1,-0.1 0.2,-0.3 0.3,-0.5c0.1,-0.2 0.2,-0.4 0.3,-0.7c0.1,-0.3 0.2,-0.6 0.3,-0.9c0.1,-0.3 0.2,-0.7 0.3,-1c0.2,-0.7 0.4,-1.5 0.5,-2.2c0.3,-1.5 0.5,-3 0.7,-4.1c0.2,-1.1 0.3,-1.9 0.3,-1.9c0,0 0.1,0.8 0.2,2z" fill="#59402f"/><path d="M302.9,184.4c-0.1,0.6 -0.3,1.4 -0.6,2.2c-0.3,0.8 -0.7,1.6 -1.1,2.4c-0.3,0.3 -0.5,0.7 -0.8,1.1c-0.3,0.3 -0.6,0.7 -0.9,1c-0.3,0.3 -0.6,0.6 -0.9,0.8c-0.3,0.2 -0.6,0.4 -0.9,0.6c-0.3,0.2 -0.6,0.4 -0.8,0.5c-0.3,0.1 -0.5,0.2 -0.7,0.3c-0.4,0.1 -0.6,0.2 -0.6,0.2c0,0 0.2,-0.1 0.5,-0.3c0.2,-0.1 0.4,-0.3 0.6,-0.4c0.2,-0.2 0.4,-0.4 0.7,-0.6c0.3,-0.2 0.5,-0.5 0.8,-0.7c0.3,-0.3 0.5,-0.6 0.8,-0.9c0.3,-0.3 0.5,-0.7 0.8,-1c0.3,-0.3 0.5,-0.7 0.7,-1.1c0.2,-0.3 0.4,-0.7 0.6,-1.1c0.1,-0.4 0.4,-0.8 0.5,-1.2c0.3,-0.7 0.6,-1.5 0.8,-2.1c0.4,-1.2 0.6,-2.1 0.6,-2.1c0,0 0,0.9 -0.1,2.4z" fill="#59402f"/><path d="M294.9,192.1c-0.4,0.3 -0.9,0.7 -1.4,1.1c-0.5,0.5 -1,0.9 -1.5,1.4c-0.5,0.5 -1,1 -1.4,1.5c-0.2,0.2 -0.4,0.5 -0.6,0.7c-0.2,0.3 -0.4,0.5 -0.5,0.7c-0.1,0.2 -0.2,0.4 -0.3,0.6c-0.1,0.2 -0.1,0.4 -0.2,0.5c-0.1,0.2 -0.2,0.4 -0.2,0.4c0,0 0,-0.2 0.1,-0.5c0,-0.1 0,-0.3 0.1,-0.5c0,-0.2 0.1,-0.4 0.2,-0.7c0.2,-0.5 0.5,-1.1 0.9,-1.6c0.4,-0.6 0.9,-1.1 1.4,-1.6c0.5,-0.5 1.1,-0.9 1.6,-1.3c0.5,-0.4 1,-0.7 1.5,-1c0.9,-0.6 1.6,-0.8 1.6,-0.8c0,0 -0.5,0.4 -1.3,1.1z" fill="#59402f"/><path d="M286.4,198.2c-0.5,0.3 -0.9,0.7 -1.5,1.1c-0.5,0.4 -1.2,0.8 -1.8,1.1c-0.7,0.3 -1.3,0.6 -2,0.8c-0.6,0.2 -1.3,0.3 -1.8,0.3c-0.2,0 -0.5,0 -0.7,0c-0.3,0 -0.4,-0.1 -0.6,-0.1c-0.3,-0.1 -0.5,-0.1 -0.5,-0.1c0,0 0.2,0 0.5,0c0.2,0 0.4,0 0.6,0c0.2,0 0.4,-0.1 0.7,-0.1c0.2,-0.1 0.5,-0.1 0.8,-0.2c0.3,-0.1 0.6,-0.2 0.9,-0.3c0.6,-0.2 1.3,-0.5 1.9,-0.8c0.6,-0.3 1.2,-0.7 1.8,-1c0.5,-0.3 1,-0.6 1.5,-0.9c0.9,-0.6 1.5,-1 1.5,-1c0,0 -0.5,0.5 -1.3,1.2z" fill="#59402f"/><path d="M260.6,117.9c-1.3,0.3 -3.2,0.7 -5.5,1.2c-2.3,0.5 -4.9,1.1 -7.7,1.9c-1.4,0.4 -2.8,0.8 -4.3,1.2c-1.5,0.5 -3,0.9 -4.4,1.4c-2.9,1 -5.7,2.3 -8.5,3.2c-1.4,0.5 -2.8,0.8 -4.1,1.1c-1.3,0.2 -2.5,0.4 -3.7,0.5c-1.2,0.1 -2.3,0.1 -3.2,0.1c-1,0 -1.8,0 -2.5,-0.1c-1.3,-0.1 -2.1,-0.2 -2.1,-0.2c0,0 0.7,0 2.1,0.1c0.6,0 1.5,0 2.4,0c1,0 2,-0.1 3.2,-0.2c1.2,-0.1 2.4,-0.3 3.7,-0.6c1.3,-0.3 2.6,-0.7 4,-1.2c2.7,-0.9 5.6,-2.2 8.5,-3.3c1.4,-0.5 2.9,-1 4.4,-1.4c1.4,-0.4 2.9,-0.8 4.3,-1.2c2.8,-0.8 5.5,-1.4 7.8,-1.8c4.6,-0.9 7.7,-1.1 7.7,-1.1c0,0 -0.7,0.2 -2.1,0.4z" fill="#59402f"/><path d="M185.7,128.7c-2,0.7 -4.8,1.8 -8.1,3.4c-3.2,1.6 -6.9,3.7 -10.5,6.5c-3.6,2.8 -7.1,6.2 -9.8,10.2c-1.4,2 -2.6,4.1 -3.6,6.3c-1.1,2.1 -2,4.3 -2.8,6.4c-0.8,2.2 -1.5,4.3 -1.9,6.3c-0.4,2 -0.6,4 -0.7,5.8c-0.1,3.7 0.4,6.7 0.7,8.8c0.3,2.1 0.5,3.3 0.5,3.3c0,0 -0.2,-1.2 -0.6,-3.3c-0.4,-2.1 -1,-5.1 -1,-8.8c0,-1.8 0.2,-3.8 0.6,-5.9c0.4,-2.1 1,-4.2 1.8,-6.4c0.8,-2.1 1.8,-4.3 2.8,-6.5c1,-2.2 2.2,-4.4 3.6,-6.4c2.8,-4.1 6.3,-7.5 10,-10.3c3.6,-2.8 7.4,-4.8 10.7,-6.4c3.3,-1.6 6.2,-2.6 8.2,-3.2c2,-0.6 3.2,-0.9 3.2,-0.9c0,0 -1.2,0.3 -3.1,1.1z" fill="#59402f"/><path d="M271.8,209.8c-2.6,1.7 -6.4,3.9 -11.2,5.9c-4.8,2.1 -10.7,3.9 -17.1,5.2c-6.4,1.3 -13.4,1.9 -20.4,2c-3.5,0 -7,-0.1 -10.4,-0.4c-3.4,-0.2 -6.7,-0.5 -10,-0.8c-1.6,-0.2 -3.2,-0.4 -4.8,-0.6c-1.6,-0.2 -3.1,-0.5 -4.6,-0.7c-3,-0.5 -5.8,-1 -8.3,-1.6c-2.6,-0.6 -4.9,-1.2 -6.9,-1.9c-1,-0.3 -1.9,-0.7 -2.8,-1c-0.8,-0.4 -1.6,-0.7 -2.3,-1c-1.4,-0.6 -2.4,-1.3 -3.1,-1.7c-0.7,-0.5 -1,-0.8 -1,-0.8c0,0 0.3,0.3 1,0.7c0.7,0.4 1.7,1 3.1,1.6c0.7,0.3 1.5,0.6 2.3,0.9c0.9,0.3 1.8,0.6 2.8,0.9c2,0.6 4.4,1.2 6.9,1.8c2.6,0.5 5.3,1.1 8.3,1.5c1.5,0.2 3,0.4 4.6,0.6c1.6,0.1 3.2,0.3 4.8,0.5c3.2,0.3 6.6,0.6 10,0.8c3.5,0.2 6.9,0.3 10.4,0.3c7,0 13.9,-0.6 20.3,-1.9c6.4,-1.2 12.3,-2.9 17.1,-4.9c4.8,-1.9 8.6,-4 11.2,-5.6c2.6,-1.6 3.9,-2.7 3.9,-2.7c0,0 -1.3,1.2 -3.8,2.9z" fill="#59402f"/></g></g><g><g fill="#8d674a"><path d="M270.2,189.2c-3,21.1 -8.7,26.5 -9.4,32.5c-0.7,6 0,28.5 1.3,31.2c1.3,2.7 5.4,4.7 6,7.7c0.6,3 -22.1,1.7 -24.8,0c-2.7,-1.7 -17.1,-39.6 -16.1,-61.1c4.7,-43.5 46,-31.4 43,-10.3z"/><path d="M228.2,211.6c-4.2,-3.1 -1.5,-9.3 -1.5,-9.3l-2.4,3.1c-0.6,-4 2.7,-10.2 2.7,-10.2l-2.7,1.1c0.6,-4.2 4.6,-6.2 4.6,-6.2c-1.6,1.5 -3.8,0 -3.8,0c2.3,0 8.9,-10 8.9,-10"/></g><path d="M225.7,189.9c0.3,-0.1 0.6,-0.4 1,-0.8c0.8,-0.8 1.7,-1.8 2.6,-2.9c0.9,-1.1 1.8,-2.2 2.5,-3c0.7,-0.8 1.2,-1.3 1.2,-1.3c0,0 -0.4,0.6 -0.9,1.5c-0.3,0.4 -0.6,1 -1,1.5c-0.4,0.6 -0.8,1.2 -1.3,1.7c-0.9,1.1 -1.9,2.1 -2.8,2.7c-0.4,0.3 -0.8,0.5 -1.1,0.6c-0.3,0.1 -0.5,0.1 -0.5,0.1c0,0 0.1,0 0.3,-0.1z" fill="#59402f"/><path d="M224.4,194.9c0.1,-0.4 0.2,-0.7 0.3,-1.1c0.2,-0.3 0.4,-0.7 0.6,-1.1c0.2,-0.4 0.5,-0.7 0.8,-1c0.3,-0.3 0.6,-0.5 0.9,-0.7c0.3,-0.1 0.5,-0.2 0.7,-0.3c0.2,-0.1 0.3,-0.1 0.3,-0.1c0,0 -0.1,0.1 -0.2,0.2c-0.1,0.1 -0.3,0.3 -0.5,0.5c-0.2,0.2 -0.5,0.5 -0.7,0.8c-0.3,0.3 -0.5,0.7 -0.7,1c-0.4,0.7 -0.7,1.4 -1,2c-0.2,0.6 -0.4,1 -0.4,1c0,0 -0.1,-0.4 -0.1,-1.2z" fill="#59402f"/><path d="M224.3,204.6c-0.1,-0.3 -0.2,-0.7 -0.2,-1.2c0,-0.5 0,-1.1 0.1,-1.7c0.1,-0.6 0.2,-1.3 0.4,-1.9c0.2,-0.6 0.4,-1.3 0.7,-1.8c0.3,-0.6 0.6,-1.1 0.8,-1.5c0.2,-0.4 0.4,-0.8 0.6,-1c0.2,-0.3 0.3,-0.4 0.3,-0.4c0,0 0,0.1 -0.1,0.4c-0.1,0.3 -0.2,0.7 -0.4,1.1c-0.2,0.4 -0.4,0.9 -0.6,1.5c-0.2,0.6 -0.4,1.2 -0.6,1.8c-0.2,0.6 -0.4,1.2 -0.5,1.8c-0.2,0.6 -0.3,1.1 -0.3,1.6c-0.1,1 0,1.6 0,1.6c0,0 -0.1,-0.2 -0.2,-0.3z" fill="#59402f"/><path d="M244.4,261c-0.5,-0.1 -1.1,-0.3 -1.6,-1c-0.5,-0.6 -1.1,-1.4 -1.6,-2.4c-0.6,-1 -1,-2.2 -1.5,-3.5c-1,-2.6 -2.2,-5.6 -3.4,-8.8c-1.2,-3.2 -2.5,-6.7 -3.6,-10.2c-0.5,-1.8 -1,-3.5 -1.5,-5.3c-0.3,-0.9 -0.5,-1.7 -0.7,-2.6c-0.2,-0.9 -0.4,-1.7 -0.6,-2.6c-0.3,-1.7 -0.6,-3.3 -0.8,-4.9c-0.2,-1.5 -0.4,-3 -0.6,-4.4c-0.4,-2.8 -0.6,-5.1 -0.7,-6.7c-0.1,-1.6 -0.1,-2.5 -0.1,-2.5c0,0 0,0.9 0.2,2.5c0.2,1.6 0.5,3.9 0.9,6.6c0.2,1.4 0.5,2.8 0.7,4.4c0.1,0.8 0.2,1.6 0.4,2.4c0.2,0.8 0.3,1.7 0.5,2.5c0.2,0.9 0.4,1.7 0.6,2.6c0.2,0.9 0.5,1.7 0.7,2.6c0.5,1.8 1,3.5 1.6,5.3c1.1,3.5 2.3,7 3.5,10.2c1.2,3.3 2.3,6.3 3.3,8.9c0.4,1.3 0.8,2.5 1.3,3.5c0.5,1 1,1.9 1.5,2.5c0.4,0.7 1.1,0.9 1.5,1c0.5,0.1 0.7,0.1 0.7,0.1c0,0 -0.2,0.1 -0.7,-0.2z" fill="#59402f"/><path d="M227.4,211c-0.2,-0.2 -0.5,-0.4 -0.8,-0.8c-0.1,-0.1 -0.3,-0.4 -0.4,-0.6c-0.1,-0.3 -0.2,-0.5 -0.3,-0.8c-0.2,-0.6 -0.3,-1.2 -0.3,-1.8c0,-0.3 0,-0.6 0,-0.9c0,-0.3 0.1,-0.6 0.1,-0.9c0,-0.6 0.2,-1.1 0.3,-1.5c0.2,-0.4 0.3,-0.8 0.4,-1c0.1,-0.3 0.2,-0.4 0.2,-0.4c0,0 0,0.1 0,0.4c0,0.3 -0.1,0.7 -0.1,1.1c0,0.5 -0.1,1 -0.1,1.5c0,0.2 0,0.5 0,0.8c0,0.3 0,0.6 0,0.9c0,0.6 0.1,1.2 0.2,1.7c0.1,0.6 0.3,1 0.5,1.4c0.4,0.8 0.9,1.2 0.9,1.2c0,0 -0.1,-0.1 -0.6,-0.3z" fill="#59402f"/><path d="M260.9,261.4c-0.3,-0.3 -0.6,-0.8 -0.9,-1.3c-0.3,-0.5 -0.6,-0.9 -0.9,-1.3c-0.1,-0.1 -0.2,-0.3 -0.3,-0.4c-0.1,-0.1 -0.1,-0.2 -0.1,-0.2c0,0 0.3,0.1 0.7,0.4c0.4,0.2 0.8,0.7 1.2,1.2c0.4,0.5 0.6,1.1 0.7,1.6c0,0.5 0,0.8 0,0.8c0,0 -0.1,-0.3 -0.4,-0.8z" fill="#59402f"/><path d="M266.1,261.1c-0.3,-0.4 -0.7,-1 -1.1,-1.5c-0.5,-0.6 -0.9,-1 -1.3,-1.4c-0.2,-0.1 -0.4,-0.3 -0.5,-0.4c-0.1,-0.1 -0.2,-0.2 -0.2,-0.2c0,0 0,0.1 0.2,0.1c0.1,0 0.4,0.1 0.6,0.2c0.3,0.1 0.5,0.3 0.8,0.5c0.3,0.2 0.6,0.4 0.8,0.7c0.5,0.5 0.8,1.2 1,1.7c0.2,0.5 0.2,0.9 0.2,0.9c0,0 -0.2,-0.3 -0.5,-0.6z" fill="#59402f"/><path d="M264.6,256c-0.4,-0.2 -0.9,-0.6 -1.4,-1.2c-0.6,-0.6 -1.1,-1.5 -1.5,-2.5c-0.2,-0.5 -0.4,-1.1 -0.5,-1.7c-0.1,-0.7 -0.2,-1.3 -0.2,-2c-0.2,-2.7 -0.6,-5.8 -0.8,-9.2c-0.3,-3.4 -0.5,-7.1 -0.4,-10.7c0,-1.8 0.1,-3.6 0.4,-5.4c0.2,-1.8 0.7,-3.5 1.2,-5.1c1,-3.3 2.3,-6.2 3.3,-8.7c0.6,-1.2 1,-2.4 1.4,-3.4c0.4,-1 0.7,-1.9 0.9,-2.7c0.2,-0.8 0.4,-1.4 0.5,-1.8c0.1,-0.4 0.2,-0.6 0.2,-0.6c0,0 0,0.2 -0.1,0.6c-0.1,0.4 -0.2,1 -0.4,1.8c-0.4,1.6 -1,3.8 -2,6.3c-0.9,2.5 -2.1,5.5 -3.1,8.7c-0.5,1.6 -1,3.3 -1.2,5c-0.3,1.7 -0.3,3.5 -0.4,5.3c-0.1,3.6 0.1,7.2 0.3,10.6c0.2,3.4 0.5,6.6 0.6,9.3c0,1.4 0.1,2.6 0.5,3.6c0.3,1.1 0.8,1.9 1.3,2.5c0.5,0.6 1,1 1.3,1.3c0.3,0.3 0.5,0.4 0.5,0.4c0,0 -0.2,-0.1 -0.4,-0.4z" fill="#59402f"/><path d="M258.7,262c-0.5,-0.6 -1.2,-1.7 -0.1,-1.7c1.1,0 1.9,2.5 1.9,3.1c0,0.4 -1.3,-0.7 -1.8,-1.4z" fill="#6c5f57"/><path d="M263.8,261.6c-0.5,-0.6 -1.2,-1.7 -0.1,-1.7c1.1,0 1.9,2.5 1.9,3.1c0,0.4 -1.2,-0.7 -1.8,-1.4z" fill="#6c5f57"/><path d="M267,260.8c-0.5,-0.6 -1.2,-1.7 -0.1,-1.7c1.1,0 1.9,2.5 1.9,3.1c0,0.3 -1.2,-0.7 -1.8,-1.4z" fill="#6c5f57"/></g><g><path d="M200.2,186.1c0,0 -0.8,22.8 -17.5,43.5c-3,3.7 -5,7.5 -6.7,10.6c-3.4,6.3 -4.8,10.6 -4.2,12.1c1.1,2.7 6.6,5.5 5.1,6.8c-1.6,1.3 -19.9,0.8 -23.8,-1.7c-1.6,-1 -2.9,-28.2 0,-39.7c2.9,-11.5 5.2,-15.2 5.5,-23.8c0.3,-8.6 -3.1,-23.8 0.8,-30.1c3.9,-6.3 14.4,-15.9 28.8,-8.1c14.4,7.9 13.1,24.6 12,30.4z" fill="#8d674a"/><path d="M168.9,258.6c-0.3,-0.3 -0.6,-0.8 -0.9,-1.3c-0.3,-0.5 -0.6,-0.9 -0.9,-1.3c-0.1,-0.1 -0.2,-0.3 -0.3,-0.4c-0.1,-0.1 -0.1,-0.2 -0.1,-0.2c0,0 0.3,0.1 0.7,0.4c0.4,0.2 0.8,0.7 1.2,1.2c0.4,0.5 0.6,1.1 0.7,1.6c0,0.5 0,0.8 0,0.8c0,0 -0.1,-0.2 -0.4,-0.8z" fill="#59402f"/><path d="M174.1,258.8c-0.3,-0.4 -0.7,-1 -1.1,-1.5c-0.5,-0.6 -0.9,-1 -1.3,-1.4c-0.2,-0.1 -0.4,-0.3 -0.5,-0.4c-0.1,-0.1 -0.2,-0.2 -0.2,-0.2c0,0 0,0.1 0.2,0.1c0.1,0 0.4,0.1 0.6,0.2c0.3,0.1 0.5,0.3 0.8,0.5c0.3,0.2 0.6,0.4 0.8,0.7c0.5,0.5 0.8,1.2 1,1.7c0.2,0.5 0.2,0.9 0.2,0.9c0,0 -0.2,-0.3 -0.5,-0.6z" fill="#59402f"/><path d="M166.6,259.3c-0.5,-0.6 -1.2,-1.7 -0.1,-1.7c1.1,0 1.9,2.5 1.9,3.1c0,0.4 -1.2,-0.7 -1.8,-1.4z" fill="#6c5f57"/><path d="M171.8,258.9c-0.5,-0.6 -1.2,-1.7 -0.1,-1.7c1.1,0 1.9,2.5 1.9,3.1c0,0.3 -1.3,-0.7 -1.8,-1.4z" fill="#6c5f57"/><path d="M175,258.7c-0.5,-0.6 -1.2,-1.7 -0.1,-1.7c1.1,0 1.9,2.5 1.9,3.1c0,0.3 -1.2,-0.7 -1.8,-1.4z" fill="#6c5f57"/><g><path d="M152.9,228.1c-4.2,-3.1 -1.5,-9.3 -1.5,-9.3l-2.4,3.1c-0.6,-4 2.7,-10.2 2.7,-10.2l-2.7,1.1c0.6,-4.2 4.6,-6.2 4.6,-6.2c-1.6,1.5 -3.8,0 -3.8,0c2.3,0 8.9,-10 8.9,-10" fill="#8d674a"/><path d="M150.4,206.5c0.3,-0.1 0.6,-0.4 1,-0.8c0.8,-0.8 1.7,-1.8 2.6,-2.9c0.9,-1.1 1.8,-2.2 2.5,-3c0.7,-0.8 1.2,-1.3 1.2,-1.3c0,0 -0.4,0.6 -0.9,1.5c-0.3,0.4 -0.6,1 -1,1.5c-0.4,0.6 -0.8,1.2 -1.3,1.7c-0.9,1.1 -1.9,2.1 -2.8,2.7c-0.4,0.3 -0.8,0.5 -1.1,0.6c-0.3,0.1 -0.5,0.1 -0.5,0.1c0,0 0.1,-0.1 0.3,-0.1z" fill="#59402f"/><path d="M149.1,211.5c0.1,-0.4 0.2,-0.7 0.3,-1.1c0.2,-0.3 0.4,-0.7 0.6,-1.1c0.2,-0.4 0.5,-0.7 0.8,-1c0.3,-0.3 0.6,-0.5 0.9,-0.7c0.3,-0.1 0.5,-0.2 0.7,-0.3c0.2,-0.1 0.3,-0.1 0.3,-0.1c0,0 -0.1,0.1 -0.2,0.2c-0.1,0.1 -0.3,0.3 -0.5,0.5c-0.2,0.2 -0.5,0.5 -0.7,0.8c-0.3,0.3 -0.5,0.7 -0.7,1c-0.4,0.7 -0.7,1.4 -1,2c-0.2,0.6 -0.4,1 -0.4,1c0,0 -0.1,-0.4 -0.1,-1.2z" fill="#59402f"/><path d="M149,221.1c-0.1,-0.3 -0.2,-0.7 -0.2,-1.2c0,-0.5 0,-1.1 0.1,-1.7c0.1,-0.6 0.2,-1.3 0.4,-1.9c0.2,-0.6 0.4,-1.3 0.7,-1.8c0.3,-0.6 0.6,-1.1 0.8,-1.5c0.2,-0.4 0.4,-0.8 0.6,-1c0.2,-0.3 0.3,-0.4 0.3,-0.4c0,0 0,0.1 -0.1,0.4c-0.1,0.3 -0.2,0.7 -0.4,1.1c-0.2,0.4 -0.4,0.9 -0.6,1.5c-0.2,0.6 -0.4,1.2 -0.6,1.8c-0.2,0.6 -0.4,1.2 -0.5,1.8c-0.2,0.6 -0.3,1.1 -0.3,1.6c-0.1,1 0,1.6 0,1.6c0,0 -0.1,-0.1 -0.2,-0.3z" fill="#59402f"/><path d="M151.6,226.8c-0.2,-0.2 -0.4,-0.4 -0.6,-0.8c-0.2,-0.3 -0.3,-0.8 -0.4,-1.3c-0.1,-0.5 -0.1,-1.1 -0.1,-1.6c0,-0.3 0.1,-0.5 0.1,-0.8c0,-0.3 0.1,-0.6 0.1,-0.8c0,-0.5 0.2,-0.9 0.3,-1.3c0.3,-0.7 0.5,-1.2 0.5,-1.2c0,0 0,0.5 -0.1,1.3c0,0.8 -0.2,1.8 -0.2,2.8c-0.1,1 0,2 0.2,2.7c0.1,0.3 0.2,0.6 0.3,0.8c0.1,0.2 0.2,0.3 0.2,0.3c0,0 -0.2,0 -0.3,-0.1z" fill="#59402f"/></g><path d="M151.8,227.8c0,1.8 -0.1,3.9 -0.1,6.2c0,2.3 0,4.7 0,7.1c0,2.4 0,4.8 0.1,7.1c0.1,2.2 0.2,4.3 0.5,6.1c0.1,0.9 0.3,1.7 0.5,2.4c0.1,0.2 0.1,0.3 0.2,0.5l0.1,0.2c0.1,0 0.2,0.1 0.2,0.1c0.3,0.2 0.6,0.3 0.8,0.4c1,0.4 1.6,0.6 1.6,0.6c0,0 -0.6,-0.1 -1.6,-0.4c-0.2,-0.1 -0.5,-0.2 -0.8,-0.4c-0.1,-0.1 -0.2,-0.1 -0.2,-0.2l-0.1,-0.2c0,-0.2 -0.1,-0.3 -0.2,-0.5c-0.3,-0.7 -0.5,-1.5 -0.7,-2.4c-0.3,-1.8 -0.6,-3.9 -0.7,-6.2c-0.1,-2.3 -0.2,-4.7 -0.2,-7.1c0,-2.4 0,-4.8 0.1,-7.1c0.1,-2.3 0.2,-4.4 0.3,-6.2c0.3,-3.6 0.5,-6 0.5,-6c0,0 0,2.4 -0.3,6z" fill="#59402f"/><path d="M198.6,198.9c-0.6,1.7 -1.4,4.2 -2.5,7.2c-0.5,1.5 -1.1,3.1 -1.8,4.8c-0.7,1.7 -1.5,3.4 -2.3,5.2c-0.8,1.8 -1.7,3.7 -2.9,5.4c-0.6,0.9 -1.2,1.7 -1.9,2.5c-0.7,0.8 -1.3,1.6 -1.9,2.5c-2.5,3.3 -4.8,6.9 -6.9,10.2c-2,3.4 -3.9,6.5 -5.2,9.4c-0.4,0.7 -0.6,1.4 -0.8,2.1c-0.2,0.7 -0.4,1.4 -0.5,2c-0.1,0.6 -0.2,1.2 0,1.7c0.2,0.5 0.4,0.9 0.7,1.3c0.6,0.8 1.1,1.3 1.5,1.6c0.4,0.3 0.6,0.5 0.6,0.5c0,0 -0.2,-0.2 -0.6,-0.5c-0.3,-0.3 -0.9,-0.8 -1.5,-1.5c-0.3,-0.3 -0.6,-0.8 -0.8,-1.3c-0.2,-0.5 -0.2,-1.2 -0.1,-1.8c0.1,-0.6 0.3,-1.3 0.5,-2c0.2,-0.7 0.4,-1.5 0.7,-2.2c0.6,-1.5 1.3,-3 2.2,-4.6c0.8,-1.6 1.8,-3.2 2.8,-4.9c2,-3.4 4.3,-6.9 6.8,-10.3c0.6,-0.8 1.2,-1.7 1.9,-2.5c0.7,-0.8 1.3,-1.6 1.9,-2.4c1.1,-1.7 2,-3.6 2.9,-5.3c1.7,-3.6 3.1,-7 4.3,-9.9c2.3,-5.8 3.7,-9.8 3.7,-9.8c0,0 -0.3,1 -0.8,2.6z" fill="#59402f"/></g><g><g><g fill="#8d674a"><path d="M276.1,168.4c-10.9,-0.9 -11.8,-6.7 -11.8,-6.7l-0.3,3.1c-6.2,-4.4 -6.2,-10.9 -6.2,-10.9l-1.2,2.4c-2.4,-4.5 -1.2,-9.6 -1.2,-9.6l-1.4,2.4c-1.7,-7.1 0.7,-9.2 0.7,-9.2c-0.8,1.3 -3.2,1.5 -3.2,1.5c2.9,-3.1 5.3,-11.8 5.3,-11.8"/><path d="M327.7,129.6c0,0 2.4,8.7 5.3,11.8c0,0 -2.4,-0.2 -3.2,-1.5c0,0 2.4,2.1 0.7,9.2l-1.4,-2.4c0,0 1.2,5.1 -1.2,9.6l-1.2,-2.4c0,0 0,6.5 -6.2,10.9l-0.3,-3.1c0,0 -0.9,5.8 -11.8,6.7"/><path d="M274.7,168.4c-11.1,-3.6 -27.9,-18.2 -15.7,-45.7c12.2,-27.5 38.2,-24 50,-18.6c8.9,4 16.8,19.3 19.3,27.5c2.5,8.2 1.1,26 -8.9,32.8c-11.4,7.7 -33.6,7.6 -44.7,4z"/></g><path d="M290.9,130.1c0.2,-0.1 0.4,-0.3 0.7,-0.4c0.3,-0.1 0.7,-0.2 1.1,-0.3c0.4,-0.1 0.9,-0.1 1.3,-0.1c0.9,0 1.8,0.2 2.4,0.4c0.6,0.2 1,0.4 1,0.4c0,0 -0.4,0 -1.1,0c-0.6,-0.1 -1.5,-0.1 -2.3,-0.1c-0.9,0 -1.7,0.1 -2.3,0.2c-0.3,0.1 -0.6,0.1 -0.8,0.2c-0.2,0.1 -0.3,0.1 -0.3,0.1c0,0 0.1,-0.1 0.3,-0.4z" fill="#59402f"/><path d="M296,128.7c-0.5,0 -1,0 -1.6,0c-0.6,0 -1.2,0 -1.6,0c-0.2,0 -0.4,0 -0.5,0c-0.1,0 -0.2,0 -0.2,0c0,0 0.3,-0.2 0.7,-0.4c0.4,-0.2 1,-0.3 1.6,-0.3c0.6,0 1.2,0.1 1.6,0.2c0.4,0.1 0.7,0.3 0.7,0.3c0,0 -0.4,0.1 -0.7,0.2z" fill="#59402f"/><path d="M265.5,144.9c0,1.3 0.1,2.5 0.2,3.4c0,0.4 0.1,0.8 0.1,1.1c0,0.2 0,0.4 0,0.4c0,0 -0.1,-0.1 -0.2,-0.4c-0.1,-0.3 -0.3,-0.6 -0.4,-1.1c-0.1,-0.2 -0.2,-0.4 -0.2,-0.7c0,-0.2 -0.1,-0.5 -0.1,-0.8c0,-0.3 -0.1,-0.6 -0.1,-0.9c0,-0.3 0,-0.6 0,-0.9c0,-1.2 0.2,-2.5 0.4,-3.4c0.2,-0.9 0.5,-1.5 0.5,-1.5c0,0 -0.3,2.5 -0.2,4.8z" fill="#59402f"/><g fill="#59402f"><path d="M267,150.6c0.1,0.3 0.3,0.6 0.3,0.9c0,0.3 0,0.7 0,0.9c0,0.2 -0.1,0.4 -0.1,0.4c0,0 -0.1,-0.2 -0.2,-0.4c-0.1,-0.3 -0.3,-0.6 -0.3,-0.9c0,-0.3 0,-0.7 0,-0.9c0,-0.2 0.1,-0.4 0.1,-0.4c0,0 0.1,0.1 0.2,0.4z"/><path d="M268.7,152.7c0.1,0.2 0.2,0.5 0.3,0.8c0.1,0.3 0.1,0.6 0.1,0.8c-0.1,0.2 -0.1,0.4 -0.1,0.4c0,0 -0.1,-0.1 -0.2,-0.3c-0.1,-0.2 -0.2,-0.5 -0.3,-0.8c-0.1,-0.3 -0.1,-0.6 -0.1,-0.8c0.1,-0.2 0.1,-0.4 0.1,-0.4c0,0 0.1,0.2 0.2,0.3z"/></g><path d="M270.6,155.9c0.2,0.3 0.4,0.7 0.7,1.1c0.3,0.4 0.6,0.8 0.9,1.2c0.7,0.8 1.4,1.6 2,2.1c0.3,0.2 0.5,0.5 0.7,0.6c0.2,0.2 0.3,0.3 0.3,0.3c0,0 -0.1,0 -0.3,-0.1c-0.2,-0.1 -0.6,-0.3 -0.9,-0.5c-0.3,-0.2 -0.7,-0.5 -1.1,-0.8c-0.4,-0.4 -0.8,-0.8 -1.1,-1.2c-0.7,-0.8 -1.2,-1.8 -1.5,-2.6c-0.3,-0.8 -0.3,-1.3 -0.3,-1.3c0,0 0.2,0.5 0.6,1.2z" fill="#59402f"/><path d="M318,139.4c0.3,0.6 0.5,1.4 0.6,2.2c0.1,0.4 0.1,0.8 0.1,1.2c0,0.4 0,0.8 -0.1,1.1c-0.1,0.6 -0.3,1 -0.3,1c0,0 0,-0.1 0,-0.3c0,-0.1 -0.1,-0.4 -0.1,-0.7c0,-0.6 -0.1,-1.4 -0.2,-2.2c-0.1,-0.8 -0.2,-1.6 -0.3,-2.2c-0.1,-0.6 -0.1,-1 -0.1,-1c0,0 0.2,0.4 0.4,0.9z" fill="#59402f"/><path d="M317.6,145.7c0.1,0.2 0.2,0.5 0.3,0.8c0.1,0.3 0.1,0.6 0.1,0.8c-0.1,0.2 -0.1,0.4 -0.1,0.4c0,0 -0.1,-0.1 -0.2,-0.3c-0.1,-0.2 -0.2,-0.5 -0.3,-0.8c-0.1,-0.3 -0.1,-0.6 -0.1,-0.8c0.1,-0.2 0.1,-0.4 0.1,-0.4c0,0 0.1,0.1 0.2,0.3z" fill="#59402f"/><path d="M317,149.8c0.1,0.4 0.1,0.9 0.1,1.5c0,0.6 -0.1,1.2 -0.2,1.8c-0.1,0.6 -0.3,1.2 -0.5,1.7c-0.1,0.2 -0.3,0.5 -0.4,0.7c-0.1,0.2 -0.3,0.4 -0.4,0.6c-0.2,0.3 -0.5,0.6 -0.7,0.8c-0.2,0.2 -0.3,0.3 -0.3,0.3c0,0 0.1,-0.2 0.2,-0.4c0.1,-0.2 0.3,-0.5 0.5,-0.9c0.4,-0.8 0.8,-1.9 1,-3c0.2,-0.6 0.2,-1.2 0.3,-1.7c0.1,-0.6 0.1,-1.1 0.1,-1.5c0,-0.9 0,-1.5 0,-1.5c0,0 0.2,0.6 0.3,1.6z" fill="#59402f"/><path d="M263.8,114.2c-0.6,0.7 -1.3,1.7 -2,2.9c-0.3,0.7 -0.7,1.4 -1.1,2.1c-0.4,0.8 -0.7,1.6 -1.1,2.4c-0.3,0.8 -0.7,1.7 -1,2.6c-0.3,0.9 -0.6,1.9 -0.9,2.8c-0.2,0.9 -0.5,1.9 -0.8,2.8c-0.3,0.9 -0.6,1.8 -0.9,2.7c-0.6,1.8 -1.2,3.4 -1.8,4.7c-0.6,1.3 -1.2,2.4 -1.7,3.1c-0.3,0.3 -0.5,0.6 -0.7,0.7c-0.2,0.2 -0.3,0.2 -0.3,0.2c0,0 0.1,0 0.3,-0.2c0.2,-0.2 0.4,-0.4 0.6,-0.8c0.5,-0.7 1,-1.8 1.5,-3.2c0.5,-1.3 1,-3 1.6,-4.7c0.3,-0.9 0.5,-1.8 0.8,-2.7c0.3,-0.9 0.5,-1.9 0.8,-2.8c0.2,-1 0.6,-1.9 0.9,-2.8c0.4,-0.9 0.7,-1.8 1.1,-2.6c0.4,-0.9 0.8,-1.7 1.2,-2.4c0.4,-0.7 0.8,-1.4 1.2,-2c0.8,-1.2 1.6,-2.2 2.2,-2.8c0.6,-0.6 1,-0.9 1,-0.9c0,0 -0.3,0.3 -0.9,0.9z" fill="#59402f"/><path d="M254.1,141.9c-0.1,0.8 -0.3,1.9 -0.3,3c0,0.5 0,1.1 0,1.6c0,0.5 0.1,1 0.1,1.4c0,0.4 0.1,0.8 0.1,1c0,0.3 0,0.4 0,0.4c0,0 0,-0.2 -0.1,-0.4c0,-0.3 -0.2,-0.6 -0.3,-1c-0.1,-0.4 -0.2,-0.9 -0.3,-1.4c-0.1,-0.6 -0.1,-1.1 -0.1,-1.7c0,-0.6 0.1,-1.2 0.2,-1.7c0.1,-0.5 0.2,-1 0.4,-1.4c0.4,-0.8 0.7,-1.3 0.7,-1.3c0,0 -0.2,0.5 -0.4,1.5z" fill="#59402f"/><path d="M255.6,148.2c0,0.9 0.1,2 0.2,3.2c0.1,1.2 0.2,2.4 0.4,3.2c0.1,0.4 0.2,0.8 0.3,1c0.1,0.3 0.1,0.4 0.1,0.4c0,0 -0.1,-0.1 -0.2,-0.3c-0.1,-0.3 -0.3,-0.6 -0.5,-1c-0.3,-0.8 -0.6,-2 -0.7,-3.2c-0.1,-1.2 -0.1,-2.4 0,-3.3c0.2,-0.9 0.3,-1.5 0.3,-1.5c0,0 0.1,0.6 0.1,1.5z" fill="#59402f"/><path d="M258.6,155.9c0.2,0.6 0.4,1.2 0.7,1.9c0.1,0.3 0.3,0.6 0.4,1c0.2,0.4 0.3,0.7 0.5,1.1c0.3,0.7 0.7,1.4 1.1,2c0.2,0.2 0.4,0.5 0.6,0.8c0.2,0.2 0.4,0.5 0.6,0.7c0.2,0.2 0.4,0.4 0.6,0.6c0.2,0.2 0.4,0.3 0.5,0.4c0.2,0.2 0.4,0.3 0.4,0.3c0,0 -0.2,-0.1 -0.5,-0.2c-0.2,-0.1 -0.4,-0.2 -0.6,-0.3c-0.2,-0.2 -0.5,-0.3 -0.7,-0.5c-0.2,-0.2 -0.4,-0.5 -0.7,-0.7c-0.2,-0.2 -0.5,-0.5 -0.7,-0.8c-0.3,-0.3 -0.5,-0.7 -0.7,-1c-0.2,-0.4 -0.4,-0.7 -0.6,-1.1c-0.4,-0.7 -0.7,-1.5 -0.9,-2.2c-0.2,-0.7 -0.4,-1.4 -0.5,-2c-0.2,-1.2 -0.2,-2 -0.2,-2c0,0 0.2,0.8 0.7,2z" fill="#59402f"/><path d="M319.2,114.1c0.6,0.6 1.4,1.6 2.3,2.8c0.5,0.6 0.9,1.3 1.4,2c0.5,0.7 0.9,1.5 1.4,2.3c0.4,0.8 0.9,1.7 1.3,2.6c0.4,0.9 0.8,1.9 1.2,2.8c0.8,1.8 1.4,3.7 2,5.5c0.6,1.7 1.2,3.4 1.7,4.8c0.5,1.4 1,2.5 1.4,3.3c0.2,0.4 0.4,0.6 0.6,0.8c0.2,0.2 0.3,0.2 0.3,0.2c0,0 -0.1,-0.1 -0.3,-0.2c-0.2,-0.2 -0.5,-0.4 -0.7,-0.8c-0.4,-0.8 -1,-1.9 -1.6,-3.3c-0.6,-1.4 -1.3,-3 -1.9,-4.8c-0.6,-1.7 -1.3,-3.6 -2,-5.5c-0.4,-0.9 -0.8,-1.8 -1.2,-2.7c-0.3,-0.9 -0.8,-1.8 -1.2,-2.6c-0.8,-1.6 -1.7,-3.1 -2.5,-4.4c-0.8,-1.2 -1.5,-2.2 -2.1,-2.9c-0.6,-0.6 -0.9,-1 -0.9,-1c0,0 0.4,0.3 0.8,1.1z" fill="#59402f"/><path d="M330.7,141.6c0.1,0.4 0.3,0.9 0.4,1.4c0.1,0.6 0.2,1.1 0.2,1.7c0,0.6 0,1.2 -0.1,1.7c-0.1,0.5 -0.2,1 -0.3,1.4c-0.1,0.4 -0.2,0.8 -0.3,1c0,0.3 -0.1,0.4 -0.1,0.4c0,0 0,-0.2 0,-0.4c0,-0.2 0.1,-0.6 0.1,-1c0,-0.4 0.1,-0.9 0.1,-1.4c0,-0.5 0,-1.1 0,-1.6c0,-1.1 -0.2,-2.2 -0.3,-3c-0.1,-0.9 -0.3,-1.4 -0.3,-1.4c0,0 0.4,0.4 0.6,1.2z" fill="#59402f"/><path d="M329.4,148.2c0.1,0.9 0.1,2.1 0,3.3c-0.1,1.2 -0.3,2.4 -0.7,3.2c-0.2,0.5 -0.3,0.8 -0.5,1c-0.1,0.2 -0.2,0.3 -0.2,0.3c0,0 0,-0.2 0.1,-0.4c0.1,-0.2 0.2,-0.6 0.3,-1c0.2,-0.9 0.3,-2 0.4,-3.2c0.1,-1.2 0.1,-2.3 0.2,-3.2c0.1,-0.9 0.1,-1.5 0.1,-1.5c0,0 0.1,0.6 0.3,1.5z" fill="#59402f"/><path d="M326.6,155.8c-0.1,0.6 -0.3,1.3 -0.5,2c-0.2,0.7 -0.6,1.5 -0.9,2.2c-0.2,0.4 -0.4,0.8 -0.6,1.1c-0.3,0.4 -0.5,0.7 -0.7,1c-0.2,0.3 -0.4,0.6 -0.7,0.8c-0.2,0.3 -0.5,0.5 -0.7,0.7c-0.3,0.2 -0.5,0.4 -0.7,0.5c-0.2,0.1 -0.4,0.2 -0.6,0.3c-0.3,0.1 -0.5,0.2 -0.5,0.2c0,0 0.1,-0.1 0.4,-0.3c0.2,-0.1 0.3,-0.2 0.5,-0.4c0.2,-0.2 0.4,-0.4 0.6,-0.6c0.2,-0.2 0.4,-0.5 0.6,-0.7c0.2,-0.2 0.4,-0.5 0.6,-0.8c0.4,-0.6 0.8,-1.3 1.1,-2c0.2,-0.4 0.4,-0.7 0.5,-1.1c0.1,-0.3 0.3,-0.7 0.4,-1c0.3,-0.7 0.5,-1.3 0.7,-1.9c0.4,-1.1 0.6,-1.9 0.6,-1.9c0,0 0,0.8 -0.1,1.9z" fill="#59402f"/><path d="M316.4,166.6c-0.8,0.5 -1.7,1 -2.8,1.4c-1.1,0.4 -2.2,0.9 -3.4,1.2c-0.6,0.2 -1.2,0.3 -1.8,0.4c-0.6,0.1 -1.2,0.2 -1.8,0.3c-0.6,0.1 -1.2,0.1 -1.7,0.2c-0.5,0.1 -1,0.1 -1.5,0.1c-0.9,0 -1.7,-0.1 -2.2,-0.1c-0.5,-0.1 -0.8,-0.1 -0.8,-0.1c0,0 0.3,-0.1 0.8,-0.1c0.3,-0.1 0.6,-0.1 1,-0.1c0.3,0 0.7,-0.1 1.2,-0.1c0.5,-0.1 1,-0.1 1.5,-0.2c0.5,-0.1 1,-0.2 1.6,-0.3c0.5,-0.1 1.1,-0.1 1.7,-0.3c0.5,-0.2 1.1,-0.3 1.7,-0.5c1.2,-0.3 2.3,-0.7 3.4,-1.1c1.1,-0.4 2.1,-0.8 2.9,-1.2c1.6,-0.8 2.7,-1.4 2.7,-1.4c0,0 -0.9,0.8 -2.5,1.9z" fill="#59402f"/><path d="M305.5,102.7c-0.8,-0.3 -2,-0.6 -3.4,-0.9c-0.7,-0.1 -1.5,-0.3 -2.3,-0.4c-0.8,-0.2 -1.7,-0.3 -2.6,-0.4c-0.9,-0.1 -1.9,-0.2 -2.8,-0.3c-1,-0.1 -1.9,-0.1 -2.9,-0.1h-1.4c-0.4,0 -0.9,0.1 -1.4,0.1c-0.5,0 -0.9,0.1 -1.4,0.1c-0.5,0.1 -1,0.1 -1.4,0.2c-0.4,0.1 -0.9,0.1 -1.3,0.2c-0.5,0.1 -0.9,0.2 -1.3,0.3c-0.4,0 -0.8,0.1 -1.2,0.2c-0.4,0.1 -0.8,0.2 -1.1,0.3c-0.7,0.2 -1.3,0.4 -1.9,0.6c-0.5,0.2 -1,0.3 -1.4,0.5c-0.8,0.3 -1.3,0.5 -1.3,0.5c0,0 0.4,-0.2 1.2,-0.6c0.4,-0.2 0.9,-0.4 1.4,-0.7c0.6,-0.2 1.2,-0.5 1.9,-0.7c0.4,-0.2 0.7,-0.3 1.1,-0.4c0.4,-0.1 0.8,-0.2 1.2,-0.3c0.5,-0.1 0.9,-0.2 1.3,-0.3c0.4,-0.1 0.8,-0.1 1.3,-0.2c0.5,-0.1 0.9,-0.1 1.4,-0.2c0.4,0 0.9,-0.1 1.4,-0.1c0.5,0 1,-0.1 1.5,-0.1h1.5c1,0 1.9,0.1 2.9,0.1c0.9,0.1 1.9,0.2 2.8,0.3c0.9,0.2 1.8,0.3 2.6,0.5c0.8,0.2 1.6,0.4 2.3,0.6c1.5,0.4 2.6,0.8 3.4,1.1c0.8,0.3 1.2,0.5 1.2,0.5c0,0 -0.4,-0.2 -1.3,-0.4z" fill="#59402f"/></g><path d="M280.5,133.7c-0.88366,0 -1.6,-1.11929 -1.6,-2.5c0,-1.38071 0.71634,-2.5 1.6,-2.5c0.88366,0 1.6,1.11929 1.6,2.5c0,1.38071 -0.71634,2.5 -1.6,2.5z" fill="#332010"/><path d="M304.7,133.7c-0.88366,0 -1.6,-1.11929 -1.6,-2.5c0,-1.38071 0.71634,-2.5 1.6,-2.5c0.88366,0 1.6,1.11929 1.6,2.5c0,1.38071 -0.71634,2.5 -1.6,2.5z" fill="#332010"/><g><path d="M302.6,160.8c0,0 -6.1,7.6 -12.3,0.3c0,0 -6.4,-0.9 -6.4,-7c0,-6.1 3.2,-22.8 11.1,-22.5c5,0.2 12.3,13.4 12.3,21.3c0,7.9 -4.7,7.9 -4.7,7.9z" fill="#9e7b5c"/><path d="M296.7,154.5c0,0.5 0.1,1.2 0.1,1.9c0,0.7 0,1.4 -0.1,1.9c-0.1,0.6 -0.2,0.9 -0.2,0.9c0,0 -0.1,-0.4 -0.2,-0.9c0,-0.5 -0.1,-1.2 -0.1,-1.9c0,-0.7 0,-1.4 0.1,-1.9c0.1,-0.6 0.2,-0.9 0.2,-0.9c0,0 0.1,0.3 0.2,0.9z" fill="#59402f"/><path d="M299.3,159.5c-0.8,-0.1 -1.9,-0.2 -3,-0.2c-1.1,0 -2.2,0.1 -3,0.2c-0.4,0.1 -0.8,0.1 -1,0.2c-0.3,0.1 -0.4,0.1 -0.4,0.1c0,0 0.1,-0.1 0.3,-0.2c0.3,-0.1 0.6,-0.3 1,-0.4c0.4,-0.1 0.9,-0.2 1.4,-0.3c0.5,-0.1 1.1,-0.1 1.7,-0.1c0.6,0.1 1.2,0.1 1.7,0.2c0.5,0.1 1,0.2 1.4,0.3c0.8,0.2 1.3,0.5 1.3,0.5c0,0 -0.5,0 -1.4,-0.3z" fill="#59402f"/><path d="M302.2,150.4c0,1 -1.2,2.3 -2.1,2.3c-0.9,0 -1.2,2.4 -2.8,2.5c-2.8,0.1 -2.7,-1.7 -3.6,-2.4c-0.9,-0.7 -3.6,-0.1 -3.2,-2.5c0.3,-2.4 3.6,-2.7 5.8,-2.8c4.2,-0.3 5.8,1.9 5.9,2.9z" fill="#332721"/><path d="M298.8,163.8c-0.7,0.4 -1.7,0.7 -2.7,0.7c-0.5,0.1 -1,0 -1.5,-0.1c-0.3,0 -0.5,-0.1 -0.7,-0.2c-0.2,-0.1 -0.3,-0.2 -0.5,-0.3c-0.3,-0.2 -0.6,-0.4 -0.7,-0.6c-0.1,-0.2 -0.2,-0.3 -0.2,-0.3c0,0 0.1,0.1 0.3,0.2c0.2,0.1 0.5,0.3 0.8,0.4c0.1,0.1 0.3,0.1 0.5,0.2c0.2,0 0.4,0 0.6,0.1c0.4,0.1 0.8,0.1 1.3,0.1c0.5,0 1,0 1.4,-0.1c0.4,0 0.8,-0.1 1.2,-0.2c0.7,-0.2 1.2,-0.3 1.2,-0.3c0,0 -0.4,0.3 -1,0.4z" fill="#59402f"/></g><path d="M281.1,122.6c1.4,0 2.5,0.9 2.5,1.9c0,1.1 -1.1,1.9 -2.5,1.9c-1.3,0 -4.4,-0.5 -4.4,-1.5c0,-1 3.1,-2.3 4.4,-2.3z" fill="#9e7b5c"/><path d="M307.5,124.9c0,1 -3.1,1.5 -4.4,1.5c-1.4,0 -2.5,-0.8 -2.5,-1.9c0,-1 1.1,-1.9 2.5,-1.9c1.4,0 4.4,1.3 4.4,2.3z" fill="#9e7b5c"/><g><path d="M264.8,113.7c-8.9,-11.5 1.1,-16.8 5.5,-16.6c4.4,0.2 6.8,7.9 6.8,7.9" fill="#8d674a"/><path d="M269.9,101.1c0,0.5 -0.1,1 -0.1,1.6c-0.1,0.6 0,1.2 0,1.8c0.1,0.6 0.2,1.2 0.3,1.7c0.1,0.3 0.2,0.6 0.3,0.8c0.1,0.3 0.2,0.5 0.3,0.7c0.1,0.1 0.2,0.3 0.3,0.5c0.1,0.2 0.2,0.3 0.3,0.4c0.2,0.3 0.3,0.4 0.3,0.4c0,0 -0.1,-0.1 -0.3,-0.3c-0.2,-0.1 -0.5,-0.4 -0.8,-0.8c-0.1,-0.2 -0.3,-0.5 -0.4,-0.7c-0.2,-0.2 -0.3,-0.5 -0.4,-0.8c-0.2,-0.3 -0.2,-0.6 -0.3,-0.9c0,-0.4 -0.1,-0.7 -0.1,-1c0,-0.7 0,-1.3 0.1,-1.9c0,-0.6 0.2,-1.1 0.3,-1.6c0.3,-0.9 0.6,-1.5 0.6,-1.5c0,0 -0.1,0.7 -0.4,1.6z" fill="#59402f"/><g fill="#59402f"><path d="M269.2,108.5c0.2,0.1 0.4,0.2 0.6,0.4c0.2,0.2 0.4,0.4 0.5,0.6c0.1,0.2 0.1,0.3 0.1,0.3c0,0 -0.1,0 -0.3,-0.1c-0.2,-0.1 -0.4,-0.2 -0.6,-0.4c-0.2,-0.2 -0.4,-0.4 -0.5,-0.6c-0.1,-0.2 -0.1,-0.3 -0.1,-0.3c0,0 0.2,0.1 0.3,0.1z"/><path d="M268.7,110.1c0.3,0.2 0.4,0.7 0.4,0.7c-0.1,0 -0.5,0 -0.8,-0.3c-0.3,-0.2 -0.4,-0.7 -0.4,-0.7c0,0 0.5,0 0.8,0.3z"/></g><path d="M275.9,103.1c-0.3,-0.8 -0.7,-1.6 -1.3,-2.5c-0.6,-0.9 -1.3,-1.7 -2.2,-2.3c-0.4,-0.3 -0.9,-0.5 -1.4,-0.7c-0.5,-0.1 -1,-0.2 -1.5,-0.2c-0.5,0 -0.9,0.1 -1.4,0.2c-0.5,0.1 -0.9,0.2 -1.3,0.4c-0.7,0.3 -1.4,0.6 -1.8,0.9c-0.5,0.3 -0.7,0.4 -0.7,0.4c0,0 0.2,-0.2 0.6,-0.5c0.2,-0.1 0.4,-0.3 0.7,-0.5c0.3,-0.2 0.6,-0.4 1,-0.6c0.4,-0.2 0.8,-0.4 1.3,-0.5c0.5,-0.2 1,-0.3 1.6,-0.3c0.6,0 1.1,0.1 1.7,0.2c0.6,0.1 1.1,0.4 1.6,0.7c1,0.7 1.7,1.6 2.3,2.5c0.6,1 0.9,1.9 1.2,2.7c0.5,1.7 0.6,2.8 0.6,2.8c0,0 -0.3,-1.1 -1,-2.7z" fill="#59402f"/></g><g><path d="M306,105c0,0 2.4,-7.7 6.8,-7.9c4.4,-0.2 14.4,5.1 5.5,16.6" fill="#8d674a"/><path d="M313.2,101c0.1,0.5 0.2,1 0.3,1.6c0.1,0.6 0.1,1.3 0.1,1.9c0,0.4 -0.1,0.7 -0.1,1c-0.1,0.3 -0.2,0.6 -0.3,0.9c-0.2,0.3 -0.2,0.6 -0.4,0.8c-0.1,0.3 -0.2,0.5 -0.4,0.7c-0.3,0.4 -0.6,0.6 -0.8,0.8c-0.2,0.2 -0.3,0.3 -0.3,0.3c0,0 0.1,-0.2 0.3,-0.4c0.1,-0.1 0.2,-0.2 0.3,-0.4c0.1,-0.1 0.2,-0.3 0.3,-0.5c0.1,-0.2 0.2,-0.5 0.3,-0.7c0.2,-0.3 0.2,-0.5 0.3,-0.8c0.2,-0.5 0.3,-1.1 0.3,-1.7c0,-0.6 0,-1.2 0,-1.8c0,-0.6 -0.1,-1.1 -0.1,-1.6c-0.1,-1 -0.2,-1.6 -0.2,-1.6c0,0 0.3,0.6 0.4,1.5z" fill="#59402f"/><g fill="#59402f"><path d="M314.1,108.7c-0.1,0.2 -0.3,0.4 -0.5,0.6c-0.2,0.2 -0.4,0.3 -0.6,0.4c-0.2,0.1 -0.3,0.1 -0.3,0.1c0,0 0,-0.1 0.1,-0.3c0.1,-0.2 0.3,-0.4 0.5,-0.6c0.2,-0.2 0.4,-0.3 0.6,-0.4c0.2,-0.1 0.3,-0.1 0.3,-0.1c0,0 0,0.2 -0.1,0.3z"/><path d="M314.8,110.5c-0.3,0.2 -0.8,0.3 -0.8,0.3c0,0 0.1,-0.5 0.4,-0.7c0.3,-0.2 0.8,-0.3 0.8,-0.3c0,0 -0.1,0.5 -0.4,0.7z"/></g><path d="M318.5,99c-0.5,-0.3 -1.1,-0.6 -1.9,-0.9c-0.2,-0.1 -0.4,-0.1 -0.6,-0.2c-0.2,-0.1 -0.5,-0.1 -0.7,-0.2c-0.2,-0.1 -0.5,-0.1 -0.7,-0.1c-0.3,-0.1 -0.5,-0.1 -0.8,-0.1c-0.3,0 -0.5,0 -0.8,0c-0.3,0.1 -0.5,0.1 -0.8,0.2c-0.3,0.1 -0.6,0.2 -0.8,0.3c-0.2,0.2 -0.5,0.2 -0.7,0.4c-0.5,0.3 -1,0.6 -1.3,1c-0.3,0.4 -0.7,0.7 -1,1.2c-0.2,0.5 -0.6,0.9 -0.8,1.3c-0.2,0.4 -0.4,0.8 -0.6,1.2c-0.2,0.4 -0.4,0.8 -0.5,1.1c-0.2,0.3 -0.3,0.6 -0.4,0.8c-0.2,0.4 -0.3,0.7 -0.3,0.7c0,0 0.1,-0.3 0.2,-0.8c0,-0.3 0.1,-0.6 0.2,-0.9c0.1,-0.3 0.2,-0.7 0.4,-1.1c0.2,-0.4 0.4,-0.8 0.6,-1.3c0.2,-0.5 0.5,-0.9 0.8,-1.4c0.3,-0.5 0.7,-0.9 1.1,-1.3c0.4,-0.4 0.9,-0.7 1.4,-1.1c0.2,-0.2 0.5,-0.3 0.8,-0.4c0.2,-0.1 0.5,-0.3 0.8,-0.3c0.3,-0.1 0.6,-0.2 0.9,-0.2c0.3,0 0.6,0 0.9,0c0.3,0 0.5,0.1 0.8,0.1c0.3,0.1 0.6,0.1 0.8,0.2c0.2,0.1 0.5,0.1 0.7,0.2c0.2,0.1 0.4,0.2 0.6,0.3c0.4,0.2 0.7,0.4 1,0.6c0.2,0.2 0.5,0.3 0.7,0.5c0.4,0.3 0.6,0.5 0.6,0.5c0,0 -0.3,-0.1 -0.6,-0.3z" fill="#59402f"/></g></g></g></g></g></svg>